<svg width="869" height="2398" viewBox="0 0 869 2398" fill="none"
    xmlns="http://www.w3.org/2000/svg">
    <g id="Group 3">
        <g id="cabelo" transform="rotate(0 100 100)">
            <g id="Group">
                <path id="Vector" d="M583.776 336.377C579.736 330.847 572.806 327.837 568.046 322.937C564.416 319.207 564.556 314.147 563.976 309.217C563.356 303.967 562.616 299.057 559.766 294.517C555.866 288.297 546.166 285.277 548.816 276.477C551.646 267.057 561.896 251.997 553.286 242.857C549.496 238.827 543.326 238.427 537.846 238.727C529.756 218.447 517.256 200.597 504.596 182.637C490.546 162.707 478.916 141.297 465.316 121.077C451.976 101.247 435.216 85.6168 412.286 77.7568C387.326 69.2068 360.266 70.2468 334.586 65.2468C327.666 63.9068 320.926 61.6868 313.956 60.4468C306.846 59.1868 299.716 58.3568 292.496 58.1368C277.966 57.6968 263.606 60.4368 249.726 64.5268C233.436 69.3268 217.616 75.8568 201.446 81.0968C185.366 86.3068 169.236 91.3468 153.456 97.3768C150.936 98.3368 151.806 104.637 154.716 103.517C165.206 99.5168 175.826 95.8368 186.486 92.2768C183.966 94.4468 181.586 96.7668 179.176 99.0968C173.896 104.187 168.036 111.427 160.756 113.507C156.836 114.627 152.776 113.647 148.826 113.347C144.866 113.047 141.526 114.447 138.356 116.717C129.876 122.777 124.536 132.547 122.366 142.507C121.516 146.387 121.046 150.827 118.176 153.827C114.306 157.897 106.946 156.857 102.036 156.217C101.436 156.137 100.946 156.887 100.796 157.357C96.2759 171.147 71.9059 195.657 52.0259 192.167C50.2159 191.847 50.1259 196.167 51.7459 196.657C53.5159 197.187 61.2159 199.217 59.7959 201.517C58.0859 204.297 54.386 206.287 51.756 208.037C46.486 211.547 38.5559 215.547 36.8559 222.217C34.5859 231.077 44.7059 237.427 49.4159 243.517C58.9259 255.797 42.2059 261.887 36.9459 270.807C36.3359 271.837 36.2659 274.277 37.7259 274.737C37.2559 274.587 38.0859 276.207 38.2759 276.847C38.7159 278.367 39.0859 279.907 39.4559 281.447C40.2459 284.657 40.9859 287.897 41.9459 291.057C42.2059 291.937 42.6959 293.077 43.2759 294.057C41.2459 296.787 37.9359 298.237 35.0459 300.257C32.0559 302.357 30.2359 304.627 28.4659 307.757C26.3859 311.417 22.656 314.217 20.146 317.597C17.856 320.697 16.5459 324.697 18.7259 328.197C20.2359 330.627 23.3259 331.807 26.7159 332.377C18.4159 336.027 10.3759 340.697 4.68589 347.527C-3.90411 357.847 0.355914 369.637 9.08591 378.207C19.2959 388.247 31.5959 391.137 45.3059 392.537C47.0859 392.727 52.9759 392.827 53.0859 395.477C53.1759 397.917 51.5359 400.817 50.5259 402.927C48.2759 407.637 45.506 412.107 42.766 416.547C41.866 418.017 42.1559 420.857 44.1559 421.187C50.4359 422.197 57.766 419.067 63.646 417.247C71.666 414.767 80.8459 411.727 89.2959 411.207C92.4159 411.017 95.1459 411.457 97.1559 413.997C99.7759 417.317 96.7459 421.207 94.7059 423.957C90.1859 430.037 82.9859 435.147 80.7259 442.637C78.8659 448.807 81.4759 459.277 86.2859 463.887C90.7259 468.147 96.9259 466.727 102.436 466.137C120.086 464.257 151.036 481.767 158.736 494.617C159.316 495.567 160.316 495.627 161.146 495.027C174.676 485.217 186.996 471.057 204.036 467.827C204.176 477.837 207.316 490.347 218.126 492.887C225.126 494.527 230.746 490.617 234.916 485.187C234.936 490.097 236.076 494.937 238.856 499.407C244.506 508.517 256.166 511.387 266.166 511.537C266.726 511.547 267.336 511.087 267.576 510.597C269.216 507.317 270.776 504.077 271.576 500.567C272.846 501.627 273.896 503.047 275.616 503.487C276.406 503.697 277.216 503.407 277.596 502.637C279.236 499.377 280.836 496.177 283.806 494.047C286.176 496.997 287.236 498.297 291.486 495.757C296.156 492.967 300.906 490.327 305.796 487.937C314.046 483.917 328.206 477.257 336.776 483.587C341.966 487.417 344.346 494.347 350.026 497.567C356.126 501.027 361.686 495.827 365.626 491.087C371.176 502.587 382.906 507.757 394.946 502.367C396.306 505.677 398.846 508.797 401.096 511.227C401.516 511.677 402.186 511.697 402.716 511.507C414.696 507.287 425.656 498.517 429.386 486.177C438.376 489.297 448.016 491.817 457.446 489.397C466.466 487.087 471.776 478.797 475.016 470.577C487.176 478.557 502.696 484.487 516.146 476.107C527.146 469.257 531.886 455.867 533.606 443.317C537.686 448.487 543.246 452.407 550.196 452.107C558.636 451.737 564.146 443.947 567.076 436.897C573.256 422.017 561.526 408.927 556.086 395.397C563.556 397.477 570.776 395.827 576.386 389.407C583.246 381.577 584.706 371.347 586.586 361.537C588.166 353.307 589.006 343.537 583.776 336.377Z" fill="#1E1A1B" />
                <g id="Clip path group">
                    <mask id="mask0_3_248" style="mask-type:luminance" maskUnits="userSpaceOnUse" x="0" y="58" width="588" height="454">
                        <g id="SVGID_00000029759015381007586580000000558464106523312563_">
                            <path id="Vector_2" d="M583.776 336.377C579.736 330.847 572.806 327.837 568.046 322.937C564.416 319.207 564.556 314.147 563.976 309.217C563.356 303.967 562.616 299.057 559.766 294.517C555.866 288.297 546.166 285.277 548.816 276.477C551.646 267.057 561.896 251.997 553.286 242.857C549.496 238.827 543.326 238.427 537.846 238.727C529.756 218.447 517.256 200.597 504.596 182.637C490.546 162.707 478.916 141.297 465.316 121.077C451.976 101.247 435.216 85.6168 412.286 77.7568C387.326 69.2068 360.266 70.2468 334.586 65.2468C327.666 63.9068 320.926 61.6868 313.956 60.4468C306.846 59.1868 299.716 58.3568 292.496 58.1368C277.966 57.6968 263.606 60.4368 249.726 64.5268C233.436 69.3268 217.616 75.8568 201.446 81.0968C185.366 86.3068 169.236 91.3468 153.456 97.3768C150.936 98.3368 151.806 104.637 154.716 103.517C165.206 99.5168 175.826 95.8368 186.486 92.2768C183.966 94.4468 181.586 96.7668 179.176 99.0968C173.896 104.187 168.036 111.427 160.756 113.507C156.836 114.627 152.776 113.647 148.826 113.347C144.866 113.047 141.526 114.447 138.356 116.717C129.876 122.777 124.536 132.547 122.366 142.507C121.516 146.387 121.046 150.827 118.176 153.827C114.306 157.897 106.946 156.857 102.036 156.217C101.436 156.137 100.946 156.887 100.796 157.357C96.2759 171.147 71.9059 195.657 52.0259 192.167C50.2159 191.847 50.1259 196.167 51.7459 196.657C53.5159 197.187 61.2159 199.217 59.7959 201.517C58.0859 204.297 54.386 206.287 51.756 208.037C46.486 211.547 38.5559 215.547 36.8559 222.217C34.5859 231.077 44.7059 237.427 49.4159 243.517C58.9259 255.797 42.2059 261.887 36.9459 270.807C36.3359 271.837 36.2659 274.277 37.7259 274.737C37.2559 274.587 38.0859 276.207 38.2759 276.847C38.7159 278.367 39.0859 279.907 39.4559 281.447C40.2459 284.657 40.9859 287.897 41.9459 291.057C42.2059 291.937 42.6959 293.077 43.2759 294.057C41.2459 296.787 37.9359 298.237 35.0459 300.257C32.0559 302.357 30.2359 304.627 28.4659 307.757C26.3859 311.417 22.656 314.217 20.146 317.597C17.856 320.697 16.5459 324.697 18.7259 328.197C20.2359 330.627 23.3259 331.807 26.7159 332.377C18.4159 336.027 10.3759 340.697 4.68589 347.527C-3.90411 357.847 0.355914 369.637 9.08591 378.207C19.2959 388.247 31.5959 391.137 45.3059 392.537C47.0859 392.727 52.9759 392.827 53.0859 395.477C53.1759 397.917 51.5359 400.817 50.5259 402.927C48.2759 407.637 45.506 412.107 42.766 416.547C41.866 418.017 42.1559 420.857 44.1559 421.187C50.4359 422.197 57.766 419.067 63.646 417.247C71.666 414.767 80.8459 411.727 89.2959 411.207C92.4159 411.017 95.1459 411.457 97.1559 413.997C99.7759 417.317 96.7459 421.207 94.7059 423.957C90.1859 430.037 82.9859 435.147 80.7259 442.637C78.8659 448.807 81.4759 459.277 86.2859 463.887C90.7259 468.147 96.9259 466.727 102.436 466.137C120.086 464.257 151.036 481.767 158.736 494.617C159.316 495.567 160.316 495.627 161.146 495.027C174.676 485.217 186.996 471.057 204.036 467.827C204.176 477.837 207.316 490.347 218.126 492.887C225.126 494.527 230.746 490.617 234.916 485.187C234.936 490.097 236.076 494.937 238.856 499.407C244.506 508.517 256.166 511.387 266.166 511.537C266.726 511.547 267.336 511.087 267.576 510.597C269.216 507.317 270.776 504.077 271.576 500.567C272.846 501.627 273.896 503.047 275.616 503.487C276.406 503.697 277.216 503.407 277.596 502.637C279.236 499.377 280.836 496.177 283.806 494.047C286.176 496.997 287.236 498.297 291.486 495.757C296.156 492.967 300.906 490.327 305.796 487.937C314.046 483.917 328.206 477.257 336.776 483.587C341.966 487.417 344.346 494.347 350.026 497.567C356.126 501.027 361.686 495.827 365.626 491.087C371.176 502.587 382.906 507.757 394.946 502.367C396.306 505.677 398.846 508.797 401.096 511.227C401.516 511.677 402.186 511.697 402.716 511.507C414.696 507.287 425.656 498.517 429.386 486.177C438.376 489.297 448.016 491.817 457.446 489.397C466.466 487.087 471.776 478.797 475.016 470.577C487.176 478.557 502.696 484.487 516.146 476.107C527.146 469.257 531.886 455.867 533.606 443.317C537.686 448.487 543.246 452.407 550.196 452.107C558.636 451.737 564.146 443.947 567.076 436.897C573.256 422.017 561.526 408.927 556.086 395.397C563.556 397.477 570.776 395.827 576.386 389.407C583.246 381.577 584.706 371.347 586.586 361.537C588.166 353.307 589.006 343.537 583.776 336.377Z" fill="white" />
                        </g>
                    </mask>
                    <g mask="url(#mask0_3_248)">
                        <g id="Group_2">
                            <g id="Group_3">
                                <path id="Vector_3" d="M6.25652 450.35C-20.8255 444.155 -18.2815 396.102 3.8195 385.45C10.6125 382.176 19.1055 382.744 26.4595 382.469C34.0505 382.184 40.0365 379.158 45.9805 374.564C52.4965 369.528 60.2554 363.626 64.0094 356.086C67.6754 348.723 65.3415 340.437 62.2905 333.32C61.6645 334.326 61.0385 335.333 60.4125 336.34C68.6715 342.171 78.2415 343.535 88.1405 343.627C89.4375 343.639 89.5905 341.713 89.4535 340.833C87.0295 325.294 83.4506 308.398 75.0676 294.871C74.7586 296.127 74.4495 297.383 74.1415 298.64C78.6665 297.874 83.4425 298.285 88.0145 298.171C91.9104 298.074 98.1125 298.342 101.335 295.619C111.988 286.615 99.9095 274.731 99.4305 264.414C98.9995 265.107 98.5685 265.799 98.1385 266.492C107.223 265.838 115.495 272.303 124.44 268.153C125.773 267.534 125.432 264.239 123.736 264.742C114.738 267.408 106.927 261.774 98.0385 262.403C97.0775 262.471 96.7095 263.678 96.7465 264.481C96.9425 268.762 98.4184 272.606 100.077 276.514C102.235 281.601 105.798 289.286 98.9455 292.555C91.5575 296.079 81.8844 293.001 74.0354 294.255C72.3674 294.521 72.4305 296.91 73.1095 298.024C81.0135 310.982 84.3574 327.241 86.7234 342.062C87.1614 341.131 87.5985 340.2 88.0365 339.268C78.7305 339.231 69.5455 338.053 61.7645 332.555C59.9885 331.3 59.3955 334.429 59.8865 335.575C62.0555 340.642 64.0365 346.143 62.4325 351.657C61.1995 355.895 57.7145 359.216 54.5945 362.135C47.8605 368.435 40.1364 376.037 30.7124 377.699C23.0114 379.056 15.1165 378.011 7.40251 379.76C1.29951 381.143 -3.59548 385.023 -7.36348 389.884C-20.5535 406.898 -20.6155 448.369 6.11845 452.582C7.00845 452.72 7.08652 450.54 6.25652 450.35Z" fill="#4B4849" />
                            </g>
                            <g id="Group_4">
                                <path id="Vector_4" d="M17.08 244.232C15.798 243.933 14.5341 243.574 13.2871 243.154C13.4341 243.895 13.581 244.635 13.728 245.376C18.158 237.524 22.583 230.568 29.966 225.098C33.612 222.397 37.966 220.694 42.518 220.719C48.659 220.753 51.023 225.08 52.972 230.12C55.466 236.568 59.8031 240.485 66.6621 236.517C72.9171 232.898 75.622 225.027 79.336 219.254C78.439 219.101 77.5431 218.948 76.6461 218.794C78.6481 224.74 83.506 230.034 89.529 232.004C96.61 234.32 100.435 228.063 101.753 222.099C100.809 222.506 99.865 222.913 98.92 223.32C100.667 225.569 103.358 226.999 104.922 229.317C106.053 230.995 107.455 229.432 107.75 228.098C108.796 223.37 110.71 219.092 112.454 214.606C113.046 213.081 111.368 209.434 109.948 211.803C107.196 216.393 105.574 221.596 104.421 226.795C105.364 226.389 106.307 225.982 107.249 225.576C105.637 223.182 103.022 221.857 101.251 219.573C100.041 218.012 98.738 219.353 98.418 220.794C95.543 233.758 82.138 223.812 79.525 216.1C79.083 214.797 77.611 214.427 76.835 215.64C73.069 221.522 69.9831 231.315 62.2911 232.975C57.1581 234.082 55.829 227.918 54.251 224.364C52.738 220.954 50.7031 218.689 47.2451 217.278C32.5851 211.296 15.6601 231.502 12.3121 243.792C12.1301 244.46 12.27 246.076 13.35 245.729C14.579 245.312 15.826 244.956 17.091 244.663C17.285 244.637 17.269 244.256 17.08 244.232Z" fill="#4B4849" />
                            </g>
                            <g id="Group_5">
                                <path id="Vector_5" d="M123.272 355.256C116.503 353.764 109.17 354.302 107.384 362.241C105.711 369.676 108.595 377.064 112.719 383.148C115.245 386.874 118.961 389.739 122.293 392.695C123.948 394.163 125.64 395.725 126.632 397.735C128.211 400.931 123.486 404.393 121.482 406.169C117.744 409.479 110.859 408.9 106.243 408.979C101.559 409.058 96.5385 409.071 92.3935 411.531C86.7365 414.888 83.5206 421.687 88.2716 427.028C90.5536 429.592 93.5515 431.616 94.4465 435.119C96.1595 441.821 89.0856 444.148 84.0796 444.776C80.2786 445.253 76.3126 445.043 72.5946 446.073C67.4766 447.49 62.9725 449.779 58.6765 452.872C55.0725 455.466 51.8495 458.56 48.3365 461.272C43.6995 464.852 38.3555 467.02 32.7795 468.681C31.7445 468.962 30.7226 469.285 29.7136 469.649C28.3476 470.11 28.5996 473.282 30.1306 473.323C40.5476 473.597 48.6456 467.168 56.1406 460.759C59.9146 457.531 63.8075 454.681 68.3535 452.629C73.1325 450.472 78.0276 450.229 83.1456 449.731C91.4966 448.918 97.3155 445.295 97.6685 436.353C97.7975 433.081 96.2335 429.955 94.2105 427.5C92.3395 425.229 87.7525 422.808 89.7945 419.682C95.7585 410.548 109.97 414.894 118.952 412.333C125.985 410.328 132.327 401.686 128.835 394.574C127.195 391.234 123.904 388.759 121.176 386.363C117.187 382.857 113.759 379.071 111.634 374.151C110.047 370.478 109.269 366.202 110.559 362.341C112.285 357.175 118.705 356.917 123.115 357.679C124.079 357.844 124.18 355.456 123.272 355.256Z" fill="#4B4849" />
                            </g>
                            <g id="Group_6">
                                <path id="Vector_6" d="M178.508 405.052C175.958 397.978 167.118 398.551 162.783 403.728C158.241 409.151 160.711 416.437 165.602 420.451C170.272 424.284 184.49 428.684 182.027 436.537C179.589 444.312 165.624 440.977 160.268 446.184C156.179 450.161 152.485 455.81 155.672 461.409C158.156 465.772 164.837 467.421 168.98 469.593C171.325 470.822 174.001 472.66 174.664 475.381C175.563 479.074 170.97 482.666 168.634 484.771C161.28 491.398 152.66 496.529 144.713 502.393C142.142 504.29 139.796 506.241 138.043 508.94C137.264 510.14 137.976 513.702 139.851 512.301C146.609 507.254 153.499 502.396 160.29 497.392C166.44 492.861 174.599 487.438 177.126 479.796C181.671 466.054 163.153 465.749 157.869 457.878C156.291 455.528 161.677 450.882 162.978 449.61C165.857 446.793 171.903 447.164 175.603 446.375C182.514 444.901 187.894 438.122 185.106 430.898C182.395 423.874 174.396 421.037 168.593 417.14C165.054 414.764 162.119 411.585 164.647 407.194C167.089 402.951 174.788 401.887 177.746 405.994C178.285 406.743 178.676 405.517 178.508 405.052Z" fill="#4B4849" />
                            </g>
                            <g id="Group_7">
                                <path id="Vector_7" d="M222.464 431.366C228.282 427.379 231.216 433.39 233.479 437.891C235.641 442.192 234.852 447.304 233.51 451.7C231.401 458.61 227.006 464.804 222.789 470.577C221.889 471.809 222.189 475.089 224.15 475.138C229.015 475.259 236.026 474.865 240.102 478.098C241.663 479.336 235.642 484.225 234.716 485.015C227.541 491.132 218.973 495.572 212.088 502.031C210.683 503.349 210.906 507.008 213.153 507.273C218.153 507.863 225.095 508.642 228.253 513.187C230.587 516.548 225.56 521.681 223.504 523.809C215.424 532.174 204.639 536.968 194.712 542.648C193.638 543.263 193.462 546.583 195.129 546.322C208.046 544.301 222.888 534.259 229.698 523.022C231.987 519.246 233.061 514.221 230.803 510.182C227.435 504.155 219.184 502.666 213.013 501.622C213.368 503.369 213.723 505.117 214.078 506.864C222.929 499.27 234.055 493.762 241.423 484.559C243.715 481.696 244.836 477.513 242.412 474.385C238.719 469.619 229.227 469.96 224.016 469.757C224.47 471.277 224.924 472.798 225.377 474.318C232.368 465.664 238.606 454.752 238.054 443.271C237.689 435.685 230.015 420.609 221.702 429.528C221.149 430.127 221.444 432.064 222.464 431.366Z" fill="#4B4849" />
                            </g>
                            <g id="Group_8">
                                <path id="Vector_8" d="M494.411 255.183C493.158 264.731 494.763 276.657 503.805 282.141C513.732 288.163 525.265 283.687 533.994 277.651C533.153 277.158 532.312 276.665 531.471 276.172C533.572 284.402 537.906 292.449 545.606 296.605C554.556 301.435 562.347 293.588 566.347 286.269C565.353 285.676 564.36 285.083 563.367 284.489C563.87 293.039 565.48 301.82 571.546 308.255C576.23 313.225 583.412 314.312 589.883 313.492C605.038 311.573 622.374 299.877 629.989 286.751C630.556 285.773 629.971 282.454 628.425 283.843C617.809 293.39 607.686 303.042 593.534 307.022C587.685 308.667 580.898 308.896 575.62 305.49C568.777 301.073 567.188 291.886 566.805 284.405C566.734 283.013 565.037 280.452 563.825 282.625C560.318 288.91 555.008 294.526 547.32 291.765C540.474 289.307 536.376 281.282 534.701 274.722C534.381 273.469 533.461 272.355 532.178 273.243C524.946 278.244 515.87 281.96 507.183 278.633C497.953 275.098 495.797 264.157 495.779 255.431C495.775 254.389 494.567 253.988 494.411 255.183Z" fill="#4B4849" />
                            </g>
                            <g id="Group_9">
                                <path id="Vector_9" d="M513.396 313.862C509.389 322.267 504.556 333.459 506.752 342.993C509.456 354.727 523.657 346.713 529.606 342.965C528.926 341.696 528.245 340.428 527.565 339.159C524.061 347.854 521.642 358.912 522.943 368.288C523.336 371.121 524.44 375.317 527.829 375.799C532.382 376.446 536.619 370.746 539.048 367.783C538.129 367.019 537.209 366.255 536.29 365.49C536.742 372.572 535.6 380.338 537.866 387.184C540.002 393.638 545.489 396.723 551.938 397.859C562.367 399.697 573.343 398.059 583.637 396.082C593.488 394.19 603.316 391.578 611.683 385.899C612.703 385.207 612.232 382.359 610.746 382.815C593.724 388.049 576.5 392.685 558.538 392.521C552.385 392.465 544.004 391.395 541.315 384.946C538.932 379.231 540.126 371.448 539.877 365.402C539.833 364.325 538.541 361.473 537.12 363.109C535.033 365.511 531.711 370.117 528.095 370.052C526.109 370.016 526.366 364.809 526.353 363.698C526.267 356.385 527.864 348.504 530.602 341.733C531 340.748 530.45 336.742 528.563 337.927C524.243 340.64 511.058 349.212 509.438 339.595C508.106 331.697 512.165 322.288 514.773 315.029C515.144 314.007 514.078 312.432 513.396 313.862Z" fill="#4B4849" />
                            </g>
                            <g id="Group_10">
                                <path id="Vector_10" d="M505.206 383.672C497.819 381.04 491.536 395.286 490.419 400.268C489.406 404.785 489.621 409.95 492.828 413.573C497.532 418.888 505.845 418.26 512.155 417.28C511.677 415.679 511.199 414.078 510.722 412.478C507.837 418.378 500.386 430.772 505.802 437.303C511.026 443.601 524.785 434.92 529.688 432.367C528.9 430.897 528.112 429.427 527.324 427.956C523.504 440.402 510.151 469.511 530.405 475.208C538.638 477.524 548.098 473.383 555.363 469.9C562.465 466.494 571.554 462.119 576.725 456.002C577.314 455.305 577.652 452.396 576.04 452.633C570.371 453.466 564.614 457.968 559.605 460.619C552.511 464.374 544.763 467.995 536.684 468.763C514.822 470.84 527.549 441.489 530.846 430.941C531.231 429.708 530.828 425.329 528.482 426.53C523.522 429.069 515.089 434.563 509.136 433.158C505.002 432.181 512.597 418.128 513.448 416.419C514.004 415.304 514.296 411.286 512.015 411.617C503.382 412.87 491.314 412.548 493.742 400.873C494.52 397.13 496.471 393.47 498.627 390.352C499.78 388.683 502.487 384.395 504.964 385.225C505.705 385.47 505.839 383.897 505.206 383.672Z" fill="#4B4849" />
                            </g>
                            <g id="Group_11">
                                <path id="Vector_11" d="M479.065 417.646C470.275 416.423 466.082 428.538 464.788 435.266C464.042 439.145 464.006 443.963 466.554 447.225C469.666 451.209 475.025 449.18 478.645 447.164C478.004 445.602 477.363 444.041 476.722 442.479C472.35 450.883 464.572 458.39 465.058 468.497C465.102 469.422 465.483 471.188 466.619 471.437C475.31 473.342 482.765 469.565 490.717 466.509C489.84 465.787 488.963 465.066 488.086 464.344C489.656 474.306 488.536 485.132 492.623 494.568C497.722 506.336 510.07 504.417 519.387 498.908C520.241 498.404 520.408 495.691 519.048 495.923C509.899 497.484 499.371 499.331 495.586 488.781C492.638 480.566 493.445 471.091 492.084 462.548C491.891 461.335 490.846 459.844 489.453 460.383C482.386 463.12 475.361 466.862 467.551 465.455C468.072 466.435 468.592 467.415 469.112 468.395C468.525 460.384 475.877 453.089 479.448 446.413C480.062 445.266 479.946 440.425 477.525 441.728C475.215 442.971 471.477 445.063 469.049 443.005C467.158 441.403 468.027 437.117 468.371 435.106C469.126 430.691 473.015 418.554 479.105 419.245C479.795 419.326 479.776 417.745 479.065 417.646Z" fill="#4B4849" />
                            </g>
                        </g>
                    </g>
                </g>
            </g>
            <animateTransform attributeName="transform" type="rotate" values="0 100 100;2 100 100;0 100 100" dur="1.5s" repeatCount="indefinite" />
        </g>
        <g id="Group_12">
            <path id="Vector_12" d="M333.434 2397.25L317.962 2397.25L302.474 2293.45L331.451 2303.85L333.434 2397.25Z" fill="#1A1020" />
            <path id="Vector_13" d="M424.015 2355.23C420.796 2350.75 413.252 2349.51 409.761 2345.66C399.22 2334.04 392.706 2318.67 384.461 2302.96C375.71 2286.3 369.482 2275.86 356.819 2254.77C342.981 2231.71 365.434 2177.4 364.304 2151.52C362.613 2126.76 345.208 2123.8 317.077 2130C311.451 2131.12 323.548 2135.02 317.921 2137.27V2143.09C319.613 2165.03 302.527 2162.98 303.421 2195.7C304.936 2251.21 296.078 2269.66 295.54 2281.69C296.424 2284.88 297.526 2287.9 298.099 2290.5C298.324 2291.53 298.602 2292.52 298.918 2293.48C306.041 2305.26 314.398 2313.72 320.574 2326.16C320.8 2326.6 321.019 2327.04 321.231 2327.49C331.363 2348.87 333.428 2372.5 346.935 2391.62C348.325 2393.66 349.862 2395.53 351.509 2397.25L424.866 2397.24C432.569 2387.84 435.425 2371.23 424.015 2355.23Z" fill="#703622" />
            <path id="Vector_14" d="M432.015 2355.22C428.796 2350.75 413.252 2349.51 409.761 2345.66C401.716 2336.79 396.016 2325.73 390.102 2314.01C390.099 2322.76 397.516 2334.22 400.381 2339.98C406.009 2351.29 400.908 2350.29 380.503 2352.04C354.246 2354.3 345.993 2346.05 339.989 2330.67C333.985 2315.29 327.23 2296.54 317.101 2283.41C311.467 2276.32 305.018 2271.55 297.696 2268.65C295.404 2279.74 294.133 2285.26 297.95 2291.86C305.52 2304.94 314.729 2313.71 321.233 2327.48C331.365 2348.86 333.43 2372.49 346.937 2391.62C348.327 2393.66 349.864 2395.53 351.511 2397.25L432.868 2397.23C440.569 2387.84 443.425 2371.23 432.015 2355.22Z" fill="#1C1037" />
            <path id="Vector_15" d="M317.077 2130C311.451 2131.12 323.548 2135.02 317.921 2137.27V2143.08C319.613 2165.03 302.527 2162.97 303.421 2195.7C303.77 2208.49 303.567 2219.3 303.043 2228.54L352.306 2232.84C352.64 2206.6 365.153 2171 364.303 2151.52C362.612 2126.76 345.208 2123.8 317.077 2130Z" fill="#441C23" />
        </g>
        <g id="Group_13">
            <path id="Vector_16" d="M46.4357 2395.03L30.9688 2394.59L18.4717 2290.38L47.1387 2301.61L46.4357 2395.03Z" fill="#1A1020" />
            <path id="Vector_17" d="M138.186 2355.63C135.096 2351.06 127.592 2349.61 124.212 2345.66C114.012 2333.73 107.943 2318.18 100.15 2302.25C91.8824 2285.33 86.9634 2282.46 83.9304 2259.64C81.2524 2239.51 90.9024 2225.52 97.4874 2209.18C102.896 2195.75 112.523 2158.79 113.992 2131.38C109.439 2122.63 101.266 2117.87 86.3965 2120.7C85.9095 2120.78 85.3864 2120.88 84.8434 2121L73.3384 2131.21C73.8284 2141.39 69.1935 2149.79 63.7305 2159.11C59.3775 2172.12 54.1714 2185.42 52.0814 2197.77C50.9534 2204.43 48.8615 2208.9 45.3875 2215.33C41.2475 2230.88 33.4335 2245.04 22.4385 2259.21C20.7685 2261.37 17.7675 2267.06 17.7675 2267.06C17.7675 2267.06 12.9864 2272.96 12.2754 2279.96C12.9844 2282.6 13.7674 2285.11 14.1844 2287.31C14.3704 2288.29 14.6015 2289.23 14.8715 2290.16C21.9025 2302.1 29.8284 2310.95 35.6534 2323.65C35.8574 2324.08 36.0544 2324.51 36.2474 2324.94C45.7584 2346.6 47.1435 2370.29 60.0945 2389.79C61.4265 2391.87 62.9084 2393.78 64.5054 2395.55L137.831 2397.65C145.799 2388.47 149.131 2371.95 138.186 2355.63Z" fill="#703622" />
            <path id="Vector_18" d="M124.212 2345.66C116.427 2336.56 111.047 2325.34 105.473 2313.46C105.218 2322.2 112.304 2333.86 115.002 2339.71C120.301 2351.17 115.231 2350.03 94.7849 2351.2C68.4729 2352.69 60.461 2344.21 54.902 2328.66C49.341 2313.12 43.129 2294.18 33.381 2280.77C28.811 2274.66 23.604 2270.2 17.756 2267.08C17.494 2267.4 8.40801 2278.84 13.996 2288.66C21.472 2301.8 30.14 2310.99 36.247 2324.94C45.758 2346.6 47.143 2370.29 60.094 2389.79C61.426 2391.87 62.9079 2393.78 64.5049 2395.55L149.826 2397.99C157.794 2388.82 161.125 2372.3 150.181 2355.97C147.092 2351.4 127.592 2349.61 124.212 2345.66Z" fill="#1C1037" />
            <path id="Vector_19" d="M100.142 2099.33C94.4857 2100.29 98.2767 2112.04 92.5887 2114.12L73.3387 2131.21C74.3977 2153.19 51.5547 2166.89 48.0897 2199.44C47.4767 2205.2 46.5797 2210.44 45.3877 2215.33L89.6547 2226.89C92.1607 2221.02 95.0367 2215.26 97.4877 2209.18C106.76 2186.16 128.441 2093.95 100.142 2099.33Z" fill="#441C23" />
        </g>
        <g id="Group_14">
            <path id="Vector_20" d="M531.297 1218.96C524.297 1102.7 450.382 1064.64 450.382 1064.64L170.257 1068.95C170.257 1068.95 143.627 1089.07 123.096 1115.66C118.812 1123.3 114.586 1132.17 110.592 1142.45C98.0189 1174.81 86.5779 1232.78 88.5929 1360.76C90.7289 1496.44 148.897 1723.06 147.934 1744.54C146.971 1766.02 106.191 1836.78 93.0199 1870.83C80.0649 1904.32 36.376 2201.69 36.376 2201.69L98.0309 2210.02C98.0309 2210.02 194.489 1970.53 201.473 1955.45C208.457 1940.38 215.853 1885.26 218.615 1874.95C221.378 1864.63 228.885 1839.38 237.907 1820.8C246.929 1802.22 271.348 1685.73 282.254 1649.04C294.173 1608.94 320.845 1350.24 320.845 1350.24C320.845 1350.24 333.606 1717.47 339.128 1758.47C340.599 1769.39 306.666 1833.02 304.757 1894.28C300.986 2015.3 295.54 2210.02 295.54 2210.02C295.54 2210.02 314.705 2217.54 333.425 2216.42C352.709 2215.25 359.004 2213.84 359.004 2213.84C359.004 2213.84 420.382 1969.77 422.601 1901.03C423.8 1863.87 431.203 1825.68 435.257 1792C439.768 1754.53 551.48 1554.14 531.297 1218.96Z" fill="#211740" />
            <path id="Vector_21" d="M450.382 1064.64L170.257 1068.95C170.257 1068.95 135.811 1077.53 110.592 1142.45C107.615 1150.11 104.701 1159.22 102.015 1170.34C133.823 1204.83 204.093 1228.45 315.586 1228.45C406.411 1228.45 485.12 1204.83 523.73 1170.35C503.137 1091.81 450.382 1064.64 450.382 1064.64Z" fill="#1C1037" />
        </g>
        <g id="Group_15">
            <g id="Clip path group_2">
                <mask id="mask1_3_248" style="mask-type:luminance" maskUnits="userSpaceOnUse" x="208" y="445" width="249" height="264">
                    <g id="SVGID_00000159457387896984519470000011880413159210487978_">
                        <path id="Vector_22" d="M385.923 546.428C367.627 519.291 376.109 448.008 376.109 448.008L290.109 445.387C290.109 445.387 298.59 516.669 280.295 543.806C263.955 568.039 208.816 573.665 208.816 573.665C208.816 573.665 215.381 708.927 333.109 708.514C438.573 708.145 456.868 577.165 456.868 577.165C456.868 577.165 402.263 570.66 385.923 546.428Z" fill="white" />
                    </g>
                </mask>
                <g mask="url(#mask1_3_248)">
                    <g id="Group_16">
                        <path id="Vector_23" d="M385.923 546.428C367.627 519.291 376.109 448.008 376.109 448.008L290.109 445.387C290.109 445.387 298.59 516.669 280.295 543.806C263.955 568.039 208.816 573.665 208.816 573.665C208.816 573.665 215.381 708.927 333.109 708.514C438.573 708.145 457.403 576.286 457.403 576.286C457.403 576.286 402.263 570.66 385.923 546.428Z" fill="#703622" />
                    </g>
                </g>
            </g>
            <g id="Clip path group_3">
                <mask id="mask2_3_248" style="mask-type:luminance" maskUnits="userSpaceOnUse" x="208" y="445" width="249" height="264">
                    <g id="SVGID_00000159457387896984519470000011880413159210487978__2">
                        <path id="Vector_24" d="M385.923 546.428C367.627 519.291 376.109 448.008 376.109 448.008L290.109 445.387C290.109 445.387 298.59 516.669 280.295 543.806C263.955 568.039 208.816 573.665 208.816 573.665C208.816 573.665 215.381 708.927 333.109 708.514C438.573 708.145 456.868 577.165 456.868 577.165C456.868 577.165 402.263 570.66 385.923 546.428Z" fill="white" />
                    </g>
                </mask>
                <g mask="url(#mask2_3_248)">
                    <g id="Group_17">
                        <path id="Vector_25" d="M415.254 456.89C415.254 483.303 402.357 513.961 366.725 513.961C331.093 513.961 281.236 496.206 281.236 469.792C281.236 443.379 315.104 409.064 350.737 409.064C386.369 409.065 415.254 430.477 415.254 456.89Z" fill="#441C23" />
                    </g>
                </g>
            </g>
        </g>
        <g id="Group_18">
            <path id="Vector_26" d="M477.606 256.508C479.942 111.119 427.039 55.9108 332.141 55.9108H332.139C237.242 55.9108 169.455 106.037 169.455 255.847C169.455 267.185 170.293 278.217 171.85 288.932C165.954 285.295 158.857 282.963 154.183 282.402C136.929 280.902 128.301 298.906 128.301 313.91C127.926 342.418 150.808 381.803 181.566 384.805C191.079 385.862 198.69 383.111 204.086 377.954C250.914 455.667 333.712 500.387 378.495 494.194C398.008 491.495 458.672 459.12 482.902 379.009C493.787 343.021 477.091 288.626 477.606 256.508Z" fill="#703622" />
            <g id="Group_19">
                <path id="Vector_27" d="M398.086 370.447C410.008 370.447 414.464 366.882 422.549 358.359C414.838 372.905 414.086 379.447 395.086 379.947C387.686 380.142 364.225 371.54 356.586 356.947C364.677 365.521 386.124 370.447 398.086 370.447Z" fill="#441C23" />
            </g>
            <path id="Vector_28" d="M342.912 358.684C341.39 369.554 325.561 376.321 307.56 373.8C289.558 371.279 276.199 360.422 277.721 349.553C279.244 338.683 295.072 331.915 313.074 334.437C331.074 336.958 344.435 347.814 342.912 358.684Z" fill="#862C2C" />
            <path id="Vector_29" d="M458.335 321.16C440.334 323.682 426.973 334.537 428.496 345.407C430.018 356.277 445.847 363.044 463.849 360.523C473.127 359.223 481.165 355.707 486.575 351.118C486.654 342.712 486.072 333.963 485.158 325.178C478.545 321.375 468.811 319.692 458.335 321.16Z" fill="#862C2C" />
            <g id="Group_20">
                <g id="Group_21">
                    <path id="Vector_30" d="M266.711 246.596C276.241 243.09 284.628 241.912 295.096 241.444C304.089 241.043 314.403 244.378 322.134 248.494C328.114 251.678 341.275 263.895 345.655 264.918C351.646 266.316 352.71 261.511 352.474 258.554C351.695 248.863 340.355 241.782 331.322 237.059C321.347 231.842 308.11 229.603 296.587 229.619C273.629 229.649 250.287 242.167 239.101 258.789C238.432 259.783 238.556 260.85 240.348 260.288C240.348 260.288 257.557 249.967 266.711 246.596Z" fill="#0B1117" />
                </g>
            </g>
            <g id="Group_22">
                <g id="Group_23">
                    <path id="Vector_31" d="M310.999 281.89C279.613 274.48 299.907 317.708 298.517 320.658C267.041 317.363 262.09 295.892 262.09 295.892C262.09 295.892 273.26 258.848 310.545 264.499C340.413 269.026 343.269 300.76 343.269 308.526C338.659 297.801 328.806 286.094 310.999 281.89Z" fill="#231F20" />
                </g>
                <g id="Group_24">
                    <path id="Vector_32" d="M343.717 314.512C343.717 314.512 345.812 288.216 312.999 279.18C275.146 268.757 270.332 300.577 270.332 300.577C270.332 300.577 277.665 317.18 301.011 321.267C325.481 325.552 343.717 314.512 343.717 314.512Z" fill="white" />
                </g>
                <g id="Group_25">
                    <path id="Vector_33" d="M277.582 292.207C276.121 306.16 286.248 318.654 300.2 320.115C314.155 321.576 326.65 311.45 328.11 297.498C329.572 283.543 319.445 271.048 305.491 269.587C291.536 268.126 279.042 278.253 277.582 292.207Z" fill="#231F20" />
                </g>
                <g id="Group_26">
                    <path id="Vector_34" d="M283.964 278.511C282.007 281.517 281.806 284.853 283.515 285.964C285.221 287.075 288.19 285.539 290.147 282.533C292.102 279.528 292.303 276.19 290.595 275.079C288.888 273.969 285.919 275.505 283.964 278.511Z" fill="white" />
                </g>
                <g id="Group_27">
                    <path id="Vector_35" d="M285.269 291.094C285.123 292.493 286.137 293.746 287.536 293.892C288.934 294.039 290.186 293.023 290.334 291.625C290.48 290.226 289.465 288.974 288.066 288.828C286.667 288.681 285.416 289.696 285.269 291.094Z" fill="white" />
                </g>
            </g>
            <g id="Group_28">
                <g id="Group_29">
                    <path id="Vector_36" d="M437.369 276.22C464.217 269.303 446.857 309.653 448.046 312.406C474.97 309.33 479.206 289.289 479.206 289.289C479.206 289.289 469.651 254.712 437.757 259.986C412.208 264.212 409.765 293.832 409.765 301.081C413.708 291.072 422.136 280.144 437.369 276.22Z" fill="#231F20" />
                </g>
                <g id="Group_30">
                    <path id="Vector_37" d="M409.38 306.67C409.38 306.67 407.588 282.126 435.656 273.691C468.035 263.962 472.153 293.664 472.153 293.664C472.153 293.664 465.88 309.161 445.91 312.976C424.98 316.975 409.38 306.67 409.38 306.67Z" fill="white" />
                </g>
                <g id="Group_31">
                    <path id="Vector_38" d="M415.74 287.114C414.399 300.006 423.693 311.551 436.497 312.901C449.304 314.251 460.77 304.896 462.11 292.003C463.452 279.108 454.158 267.563 441.352 266.213C428.546 264.862 417.08 274.219 415.74 287.114Z" fill="#231F20" />
                </g>
                <g id="Group_32">
                    <path id="Vector_39" d="M421.597 274.458C419.802 277.235 419.617 280.318 421.185 281.345C422.75 282.371 425.475 280.951 427.271 278.175C429.065 275.398 429.25 272.314 427.682 271.288C426.115 270.261 423.391 271.68 421.597 274.458Z" fill="white" />
                </g>
                <g id="Group_33">
                    <path id="Vector_40" d="M422.794 286.085C422.66 287.378 423.59 288.536 424.875 288.67C426.158 288.806 427.307 287.867 427.443 286.575C427.577 285.282 426.646 284.125 425.361 283.99C424.078 283.855 422.93 284.793 422.794 286.085Z" fill="white" />
                </g>
            </g>
            <g id="Group_34">
                <g id="Group_35">
                    <path id="Vector_41" d="M397.788 424.305L351.429 415.646C351.512 416.706 353.856 427.497 355.84 431.36C360.582 440.596 373.87 448.311 397.788 448.311C417.42 446.78 420.201 438.096 424.479 431.463C428.16 425.756 429.971 415.706 430.054 414.646L397.788 424.305Z" fill="#541322" />
                </g>
                <g id="Group_36">
                    <path id="Vector_42" d="M397.788 406.989C396.184 406.989 389.64 402.346 383.048 402.296C375.37 402.237 354.84 409.347 351.429 415.647C351.429 415.647 382.892 424.306 397.788 424.306C412.955 424.306 430.054 414.647 430.054 414.647C425.203 406.847 420.854 402.215 412.955 402.296C403.82 402.39 399.274 406.989 397.788 406.989Z" fill="#5E1B1C" />
                </g>
            </g>
            <path id="Vector_43" d="M450.516 228.895C440.65 228.715 429.347 230.789 420.879 235.925C413.212 240.574 403.601 247.575 403.073 257.368C402.912 260.356 403.892 265.23 409.003 263.903C412.739 262.932 423.835 250.759 428.911 247.624C435.473 243.571 444.256 240.345 451.963 240.88C460.934 241.503 468.133 242.815 476.342 246.498C476.765 246.688 477.212 246.902 477.672 247.13C477.67 243.691 477.644 240.292 477.577 236.958C469.207 232.059 459.806 229.065 450.516 228.895Z" fill="#0B1117" />
        </g>
        <g id="braco_esquerdo" transform="rotate(0 100 100)">
            <g id="Group_37">
                <path id="Vector_44" d="M775.769 622.615C775.769 622.615 777.707 546.778 780.431 536.944C783.156 527.11 798.552 501.885 799.327 488.135C800.102 474.387 795.192 455.591 797.399 442.831C799.505 430.654 811.561 408.192 801.616 412.521C793.564 416.024 786.718 422.981 783.562 435.489C781.757 442.652 784.091 462.872 779.261 460.676C774.432 458.479 758.676 424.535 753.11 416.529C747.546 408.518 723.181 362.277 718.088 364.148C707.836 367.92 743.336 427.029 738.994 428.258C734.646 429.488 704.56 362.719 696.682 365.601C687.383 369.007 728.174 436.481 719.954 439.239C714.22 441.165 690.277 381.375 683.321 385.553C673.309 391.57 713.048 453.527 708.099 455.702C703.146 457.88 682.631 411.439 677.654 414.875C669.284 420.655 699.758 468.402 703.583 483.312C707.409 498.222 722.342 516.689 732.312 530.61C744.093 547.061 735.178 618.163 735.178 618.163L775.769 622.615Z" fill="#703622" />
            </g>
            <g id="Group_38">
                <path id="Vector_45" d="M460.643 677.381C470.394 725.394 505.279 762.153 505.279 762.153C505.279 762.153 741.7 889.114 759.596 879.046C813.174 848.908 789.72 591.108 789.72 591.108L726.985 593.358C726.985 593.358 719.103 743.418 708.759 743.539C701.156 743.628 608.405 667.393 548.79 628.992C527.299 615.149 458.016 576.95 458.016 576.95C458.016 576.95 442.361 587.385 460.643 677.381Z" fill="#CBD4EF" />
                <path id="Vector_46" d="M711.598 739.804C710.677 742.2 709.729 743.529 708.76 743.54C707.037 743.56 700.928 739.65 691.834 733.158C693.736 737.918 696.331 742.516 698.555 747.003C701.319 752.574 704.034 758.191 706.481 763.91C711.883 776.537 714.827 789.743 718.202 802.996C718.686 804.894 722.265 803.246 722.39 801.751C723.596 787.501 719.762 773.854 713.964 760.94C711.414 755.257 708.469 749.786 705.414 744.362C708.385 747.75 711.269 751.221 713.99 754.853C719.718 762.499 725.172 770.434 729.623 778.902C733.424 786.135 736.492 793.709 740.259 800.941C741.187 802.721 745.125 801.502 744.98 799.537C743.694 782.307 732.162 765.409 721.811 752.151C718.56 747.988 715.167 743.829 711.598 739.804Z" fill="#C0C9DF" />
                <path id="Vector_47" d="M714.51 728.466C714.089 730.637 713.661 732.614 713.226 734.373C718.664 738.608 722.903 743.908 726.349 750.402C730.47 758.171 733.208 766.998 738.475 774.084C739.562 775.545 743.626 774.009 743.329 772.158C740.799 756.358 730.714 734.862 714.51 728.466Z" fill="#C0C9DF" />
            </g>
            <animateTransform attributeName="transform" type="rotate" values="0 100 100;1 100 100;0 100 100" dur="2.5s" repeatCount="indefinite" />
        </g>
        <g id="Group_39">
            <g id="Group_40">
                <path id="Vector_48" d="M471.815 734.682C482.139 699.512 482.023 664.72 482.023 664.72L420.881 563.24L381.683 538.219C381.683 538.219 366.021 562.677 349.09 563.24C344.598 563.389 338.095 561.092 330.965 557.637C329.066 558.383 327.247 558.829 325.555 558.885C314.318 559.259 297.226 541.712 286.998 529.866C286.777 529.701 286.656 529.611 286.656 529.611L232.956 563.24L245.666 702.174C245.666 702.174 246.929 704.375 249.351 708.12C252.865 713.461 257.189 719.668 262.27 726.316C277.593 746.19 302.944 773.797 335.906 791.018C351.141 798.632 367.861 803.675 385.853 804.354C432.852 806.128 458.27 769.67 471.815 734.682Z" fill="#CBD4EF" />
                <path id="Vector_49" d="M286.971 529.845L285.621 530.259L232.956 563.239L233.923 573.81C264.777 602.372 319.379 649.483 339.11 644.748C381.773 634.509 349.09 563.24 349.09 563.24C332.979 563.775 290.998 532.841 286.971 529.845Z" fill="white" />
                <path id="Vector_50" d="M401.376 630.869C420.888 627.828 423.66 594.211 422.431 565.812L420.881 563.24L381.683 538.219C381.683 538.219 366.021 562.677 349.09 563.24C349.09 563.24 372.493 635.37 401.376 630.869Z" fill="white" />
                <g id="Group_41">
                    <path id="Vector_51" d="M337.002 975.998L254.856 1126.79C254.856 1126.79 307.933 1148.17 360.166 1143.67C412.398 1139.17 448.408 1126.79 448.408 1126.79L398.895 966.996L337.002 975.998Z" fill="#CBD4EF" />
                </g>
            </g>
            <g id="Group_42">
                <g id="Clip path group_4">
                    <mask id="mask3_3_248" style="mask-type:luminance" maskUnits="userSpaceOnUse" x="120" y="563" width="410" height="606">
                        <g id="SVGID_00000141442446994719312910000004161580726195475364_">
                            <path id="Vector_52" d="M527.086 769.156C541.828 716.215 486.148 683.383 474.895 648.499C463.642 613.615 458.016 576.952 458.016 576.952L420.881 563.24C420.881 563.24 504.792 738.127 433.675 748.358C348.1 760.67 306.888 665.676 278.086 626.197C249.086 586.447 232.956 563.239 232.956 563.239L164.313 576.951C164.313 576.951 172.19 657.501 189.069 718.267C205.948 779.033 225.079 870.182 213.826 925.322C202.573 980.461 120.426 1100.87 120.426 1100.87C120.426 1100.87 240.956 1180.93 367.404 1166.79L379.995 1072.36L435.982 1153.74C502.807 1135 506.405 1109.87 506.405 1109.87C506.405 1109.87 449.014 1022.1 449.014 955.704C449.014 889.311 445.639 854.427 463.643 837.548C481.647 820.67 513.359 818.45 527.086 769.156Z" fill="white" />
                        </g>
                    </mask>
                    <g mask="url(#mask3_3_248)">
                        <path id="Vector_53" d="M530.586 772.447C540.714 718.433 486.148 683.383 474.895 648.499C463.642 613.615 458.016 576.952 458.016 576.952L420.881 563.24L406.333 691.629C406.333 691.629 322.979 646.249 284.72 613.615C246.46 580.982 232.956 563.24 232.956 563.24L164.313 576.952C164.313 576.952 172.19 657.502 189.069 718.268C205.948 779.034 225.079 870.183 213.826 925.323C202.573 980.462 120.426 1100.87 120.426 1100.87C120.426 1100.87 240.956 1180.93 367.404 1166.79L379.995 1072.36L435.982 1153.74C502.807 1135 506.405 1109.87 506.405 1109.87C506.405 1109.87 449.014 1022.1 449.014 955.705C449.014 889.312 445.639 854.428 463.643 837.549C481.647 820.67 520.459 826.462 530.586 772.447Z" fill="#5C652E" />
                    </g>
                </g>
                <g id="Clip path group_5">
                    <mask id="mask4_3_248" style="mask-type:luminance" maskUnits="userSpaceOnUse" x="120" y="563" width="410" height="606">
                        <g id="SVGID_00000141442446994719312910000004161580726195475364__2">
                            <path id="Vector_54" d="M527.086 769.156C541.828 716.215 486.148 683.383 474.895 648.499C463.642 613.615 458.016 576.952 458.016 576.952L420.881 563.24C420.881 563.24 504.792 738.127 433.675 748.358C348.1 760.67 306.888 665.676 278.086 626.197C249.086 586.447 232.956 563.239 232.956 563.239L164.313 576.951C164.313 576.951 172.19 657.501 189.069 718.267C205.948 779.033 225.079 870.182 213.826 925.322C202.573 980.461 120.426 1100.87 120.426 1100.87C120.426 1100.87 240.956 1180.93 367.404 1166.79L379.995 1072.36L435.982 1153.74C502.807 1135 506.405 1109.87 506.405 1109.87C506.405 1109.87 449.014 1022.1 449.014 955.704C449.014 889.311 445.639 854.427 463.643 837.548C481.647 820.67 513.359 818.45 527.086 769.156Z" fill="white" />
                        </g>
                    </mask>
                    <g mask="url(#mask4_3_248)">
                        <path id="Vector_55" opacity="0.2" d="M151.744 486.754H118.054V1196.47H151.744V486.754Z" fill="#B3C265" />
                    </g>
                </g>
                <g id="Clip path group_6">
                    <mask id="mask5_3_248" style="mask-type:luminance" maskUnits="userSpaceOnUse" x="120" y="563" width="410" height="606">
                        <g id="SVGID_00000141442446994719312910000004161580726195475364__3">
                            <path id="Vector_56" d="M527.086 769.156C541.828 716.215 486.148 683.383 474.895 648.499C463.642 613.615 458.016 576.952 458.016 576.952L420.881 563.24C420.881 563.24 504.792 738.127 433.675 748.358C348.1 760.67 306.888 665.676 278.086 626.197C249.086 586.447 232.956 563.239 232.956 563.239L164.313 576.951C164.313 576.951 172.19 657.501 189.069 718.267C205.948 779.033 225.079 870.182 213.826 925.322C202.573 980.461 120.426 1100.87 120.426 1100.87C120.426 1100.87 240.956 1180.93 367.404 1166.79L379.995 1072.36L435.982 1153.74C502.807 1135 506.405 1109.87 506.405 1109.87C506.405 1109.87 449.014 1022.1 449.014 955.704C449.014 889.311 445.639 854.427 463.643 837.548C481.647 820.67 513.359 818.45 527.086 769.156Z" fill="white" />
                        </g>
                    </mask>
                    <g mask="url(#mask5_3_248)">
                        <path id="Vector_57" opacity="0.2" d="M220.419 486.754H186.729V1196.47H220.419V486.754Z" fill="#B3C265" />
                    </g>
                </g>
                <g id="Clip path group_7">
                    <mask id="mask6_3_248" style="mask-type:luminance" maskUnits="userSpaceOnUse" x="120" y="563" width="410" height="606">
                        <g id="SVGID_00000141442446994719312910000004161580726195475364__4">
                            <path id="Vector_58" d="M527.086 769.156C541.828 716.215 486.148 683.383 474.895 648.499C463.642 613.615 458.016 576.952 458.016 576.952L420.881 563.24C420.881 563.24 504.792 738.127 433.675 748.358C348.1 760.67 306.888 665.676 278.086 626.197C249.086 586.447 232.956 563.239 232.956 563.239L164.313 576.951C164.313 576.951 172.19 657.501 189.069 718.267C205.948 779.033 225.079 870.182 213.826 925.322C202.573 980.461 120.426 1100.87 120.426 1100.87C120.426 1100.87 240.956 1180.93 367.404 1166.79L379.995 1072.36L435.982 1153.74C502.807 1135 506.405 1109.87 506.405 1109.87C506.405 1109.87 449.014 1022.1 449.014 955.704C449.014 889.311 445.639 854.427 463.643 837.548C481.647 820.67 513.359 818.45 527.086 769.156Z" fill="white" />
                        </g>
                    </mask>
                    <g mask="url(#mask6_3_248)">
                        <path id="Vector_59" opacity="0.2" d="M290.094 486.754H256.404V1196.47H290.094V486.754Z" fill="#B3C265" />
                    </g>
                </g>
                <g id="Clip path group_8">
                    <mask id="mask7_3_248" style="mask-type:luminance" maskUnits="userSpaceOnUse" x="120" y="563" width="410" height="606">
                        <g id="SVGID_00000141442446994719312910000004161580726195475364__5">
                            <path id="Vector_60" d="M527.086 769.156C541.828 716.215 486.148 683.383 474.895 648.499C463.642 613.615 458.016 576.952 458.016 576.952L420.881 563.24C420.881 563.24 504.792 738.127 433.675 748.358C348.1 760.67 306.888 665.676 278.086 626.197C249.086 586.447 232.956 563.239 232.956 563.239L164.313 576.951C164.313 576.951 172.19 657.501 189.069 718.267C205.948 779.033 225.079 870.182 213.826 925.322C202.573 980.461 120.426 1100.87 120.426 1100.87C120.426 1100.87 240.956 1180.93 367.404 1166.79L379.995 1072.36L435.982 1153.74C502.807 1135 506.405 1109.87 506.405 1109.87C506.405 1109.87 449.014 1022.1 449.014 955.704C449.014 889.311 445.639 854.427 463.643 837.548C481.647 820.67 513.359 818.45 527.086 769.156Z" fill="white" />
                        </g>
                    </mask>
                    <g mask="url(#mask7_3_248)">
                        <path id="Vector_61" opacity="0.2" d="M365.488 486.754H322.798V1196.47H365.488V486.754Z" fill="#B3C265" />
                    </g>
                </g>
                <g id="Clip path group_9">
                    <mask id="mask8_3_248" style="mask-type:luminance" maskUnits="userSpaceOnUse" x="120" y="563" width="410" height="606">
                        <g id="SVGID_00000141442446994719312910000004161580726195475364__6">
                            <path id="Vector_62" d="M527.086 769.156C541.828 716.215 486.148 683.383 474.895 648.499C463.642 613.615 458.016 576.952 458.016 576.952L420.881 563.24C420.881 563.24 504.792 738.127 433.675 748.358C348.1 760.67 306.888 665.676 278.086 626.197C249.086 586.447 232.956 563.239 232.956 563.239L164.313 576.951C164.313 576.951 172.19 657.501 189.069 718.267C205.948 779.033 225.079 870.182 213.826 925.322C202.573 980.461 120.426 1100.87 120.426 1100.87C120.426 1100.87 240.956 1180.93 367.404 1166.79L379.995 1072.36L435.982 1153.74C502.807 1135 506.405 1109.87 506.405 1109.87C506.405 1109.87 449.014 1022.1 449.014 955.704C449.014 889.311 445.639 854.427 463.643 837.548C481.647 820.67 513.359 818.45 527.086 769.156Z" fill="white" />
                        </g>
                    </mask>
                    <g mask="url(#mask8_3_248)">
                        <path id="Vector_63" opacity="0.2" d="M434.164 486.754H400.474V1196.47H434.164V486.754Z" fill="#B3C265" />
                    </g>
                </g>
                <g id="Clip path group_10">
                    <mask id="mask9_3_248" style="mask-type:luminance" maskUnits="userSpaceOnUse" x="120" y="563" width="410" height="606">
                        <g id="SVGID_00000141442446994719312910000004161580726195475364__7">
                            <path id="Vector_64" d="M527.086 769.156C541.828 716.215 486.148 683.383 474.895 648.499C463.642 613.615 458.016 576.952 458.016 576.952L420.881 563.24C420.881 563.24 504.792 738.127 433.675 748.358C348.1 760.67 306.888 665.676 278.086 626.197C249.086 586.447 232.956 563.239 232.956 563.239L164.313 576.951C164.313 576.951 172.19 657.501 189.069 718.267C205.948 779.033 225.079 870.182 213.826 925.322C202.573 980.461 120.426 1100.87 120.426 1100.87C120.426 1100.87 240.956 1180.93 367.404 1166.79L379.995 1072.36L435.982 1153.74C502.807 1135 506.405 1109.87 506.405 1109.87C506.405 1109.87 449.014 1022.1 449.014 955.704C449.014 889.311 445.639 854.427 463.643 837.548C481.647 820.67 513.359 818.45 527.086 769.156Z" fill="white" />
                        </g>
                    </mask>
                    <g mask="url(#mask9_3_248)">
                        <path id="Vector_65" opacity="0.2" d="M502.839 486.754H469.148V1196.47H502.839V486.754Z" fill="#B3C265" />
                    </g>
                </g>
                <g id="Clip path group_11">
                    <mask id="mask10_3_248" style="mask-type:luminance" maskUnits="userSpaceOnUse" x="120" y="563" width="410" height="606">
                        <g id="SVGID_00000141442446994719312910000004161580726195475364__8">
                            <path id="Vector_66" d="M527.086 769.156C541.828 716.215 486.148 683.383 474.895 648.499C463.642 613.615 458.016 576.952 458.016 576.952L420.881 563.24C420.881 563.24 504.792 738.127 433.675 748.358C348.1 760.67 306.888 665.676 278.086 626.197C249.086 586.447 232.956 563.239 232.956 563.239L164.313 576.951C164.313 576.951 172.19 657.501 189.069 718.267C205.948 779.033 225.079 870.182 213.826 925.322C202.573 980.461 120.426 1100.87 120.426 1100.87C120.426 1100.87 240.956 1180.93 367.404 1166.79L379.995 1072.36L435.982 1153.74C502.807 1135 506.405 1109.87 506.405 1109.87C506.405 1109.87 449.014 1022.1 449.014 955.704C449.014 889.311 445.639 854.427 463.643 837.548C481.647 820.67 513.359 818.45 527.086 769.156Z" fill="white" />
                        </g>
                    </mask>
                    <g mask="url(#mask10_3_248)">
                        <path id="Vector_67" opacity="0.2" d="M663.304 852.471H-46.4102V886.161H663.304V852.471Z" fill="#B3C265" />
                    </g>
                </g>
                <g id="Clip path group_12">
                    <mask id="mask11_3_248" style="mask-type:luminance" maskUnits="userSpaceOnUse" x="120" y="563" width="410" height="606">
                        <g id="SVGID_00000141442446994719312910000004161580726195475364__9">
                            <path id="Vector_68" d="M527.086 769.156C541.828 716.215 486.148 683.383 474.895 648.499C463.642 613.615 458.016 576.952 458.016 576.952L420.881 563.24C420.881 563.24 504.792 738.127 433.675 748.358C348.1 760.67 306.888 665.676 278.086 626.197C249.086 586.447 232.956 563.239 232.956 563.239L164.313 576.951C164.313 576.951 172.19 657.501 189.069 718.267C205.948 779.033 225.079 870.182 213.826 925.322C202.573 980.461 120.426 1100.87 120.426 1100.87C120.426 1100.87 240.956 1180.93 367.404 1166.79L379.995 1072.36L435.982 1153.74C502.807 1135 506.405 1109.87 506.405 1109.87C506.405 1109.87 449.014 1022.1 449.014 955.704C449.014 889.311 445.639 854.427 463.643 837.548C481.647 820.67 513.359 818.45 527.086 769.156Z" fill="white" />
                        </g>
                    </mask>
                    <g mask="url(#mask11_3_248)">
                        <path id="Vector_69" opacity="0.2" d="M670.304 783.796H-39.4102V817.486H670.304V783.796Z" fill="#B3C265" />
                    </g>
                </g>
                <g id="Clip path group_13">
                    <mask id="mask12_3_248" style="mask-type:luminance" maskUnits="userSpaceOnUse" x="120" y="563" width="410" height="606">
                        <g id="SVGID_00000141442446994719312910000004161580726195475364__10">
                            <path id="Vector_70" d="M527.086 769.156C541.828 716.215 486.148 683.383 474.895 648.499C463.642 613.615 458.016 576.952 458.016 576.952L420.881 563.24C420.881 563.24 504.792 738.127 433.675 748.358C348.1 760.67 306.888 665.676 278.086 626.197C249.086 586.447 232.956 563.239 232.956 563.239L164.313 576.951C164.313 576.951 172.19 657.501 189.069 718.267C205.948 779.033 225.079 870.182 213.826 925.322C202.573 980.461 120.426 1100.87 120.426 1100.87C120.426 1100.87 240.956 1180.93 367.404 1166.79L379.995 1072.36L435.982 1153.74C502.807 1135 506.405 1109.87 506.405 1109.87C506.405 1109.87 449.014 1022.1 449.014 955.704C449.014 889.311 445.639 854.427 463.643 837.548C481.647 820.67 513.359 818.45 527.086 769.156Z" fill="white" />
                        </g>
                    </mask>
                    <g mask="url(#mask12_3_248)">
                        <path id="Vector_71" opacity="0.2" d="M661.304 715.12L668.304 748.811H-41.4102L-48.4102 715.121L661.304 715.12Z" fill="#B3C265" />
                    </g>
                </g>
                <g id="Clip path group_14">
                    <mask id="mask13_3_248" style="mask-type:luminance" maskUnits="userSpaceOnUse" x="120" y="563" width="410" height="606">
                        <g id="SVGID_00000141442446994719312910000004161580726195475364__11">
                            <path id="Vector_72" d="M527.086 769.156C541.828 716.215 486.148 683.383 474.895 648.499C463.642 613.615 458.016 576.952 458.016 576.952L420.881 563.24C420.881 563.24 504.792 738.127 433.675 748.358C348.1 760.67 306.888 665.676 278.086 626.197C249.086 586.447 232.956 563.239 232.956 563.239L164.313 576.951C164.313 576.951 172.19 657.501 189.069 718.267C205.948 779.033 225.079 870.182 213.826 925.322C202.573 980.461 120.426 1100.87 120.426 1100.87C120.426 1100.87 240.956 1180.93 367.404 1166.79L379.995 1072.36L435.982 1153.74C502.807 1135 506.405 1109.87 506.405 1109.87C506.405 1109.87 449.014 1022.1 449.014 955.704C449.014 889.311 445.639 854.427 463.643 837.548C481.647 820.67 513.359 818.45 527.086 769.156Z" fill="white" />
                        </g>
                    </mask>
                    <g mask="url(#mask13_3_248)">
                        <path id="Vector_73" opacity="0.2" d="M661.304 648.726H-48.4102V682.416H661.304V648.726Z" fill="#B3C265" />
                    </g>
                </g>
                <g id="Clip path group_15">
                    <mask id="mask14_3_248" style="mask-type:luminance" maskUnits="userSpaceOnUse" x="120" y="563" width="410" height="606">
                        <g id="SVGID_00000141442446994719312910000004161580726195475364__12">
                            <path id="Vector_74" d="M527.086 769.156C541.828 716.215 486.148 683.383 474.895 648.499C463.642 613.615 458.016 576.952 458.016 576.952L420.881 563.24C420.881 563.24 504.792 738.127 433.675 748.358C348.1 760.67 306.888 665.676 278.086 626.197C249.086 586.447 232.956 563.239 232.956 563.239L164.313 576.951C164.313 576.951 172.19 657.501 189.069 718.267C205.948 779.033 225.079 870.182 213.826 925.322C202.573 980.461 120.426 1100.87 120.426 1100.87C120.426 1100.87 240.956 1180.93 367.404 1166.79L379.995 1072.36L435.982 1153.74C502.807 1135 506.405 1109.87 506.405 1109.87C506.405 1109.87 449.014 1022.1 449.014 955.704C449.014 889.311 445.639 854.427 463.643 837.548C481.647 820.67 513.359 818.45 527.086 769.156Z" fill="white" />
                        </g>
                    </mask>
                    <g mask="url(#mask14_3_248)">
                        <path id="Vector_75" opacity="0.2" d="M661.304 580.051H-48.4102V613.741H661.304V580.051Z" fill="#B3C265" />
                    </g>
                </g>
                <g id="Clip path group_16">
                    <mask id="mask15_3_248" style="mask-type:luminance" maskUnits="userSpaceOnUse" x="120" y="563" width="410" height="606">
                        <g id="SVGID_00000141442446994719312910000004161580726195475364__13">
                            <path id="Vector_76" d="M527.086 769.156C541.828 716.215 486.148 683.383 474.895 648.499C463.642 613.615 458.016 576.952 458.016 576.952L420.881 563.24C420.881 563.24 504.792 738.127 433.675 748.358C348.1 760.67 306.888 665.676 278.086 626.197C249.086 586.447 232.956 563.239 232.956 563.239L164.313 576.951C164.313 576.951 172.19 657.501 189.069 718.267C205.948 779.033 225.079 870.182 213.826 925.322C202.573 980.461 120.426 1100.87 120.426 1100.87C120.426 1100.87 240.956 1180.93 367.404 1166.79L379.995 1072.36L435.982 1153.74C502.807 1135 506.405 1109.87 506.405 1109.87C506.405 1109.87 449.014 1022.1 449.014 955.704C449.014 889.311 445.639 854.427 463.643 837.548C481.647 820.67 513.359 818.45 527.086 769.156Z" fill="white" />
                        </g>
                    </mask>
                    <g mask="url(#mask15_3_248)">
                        <path id="Vector_77" opacity="0.2" d="M661.304 1124.5H-48.4102V1158.19H661.304V1124.5Z" fill="#B3C265" />
                    </g>
                </g>
                <g id="Clip path group_17">
                    <mask id="mask16_3_248" style="mask-type:luminance" maskUnits="userSpaceOnUse" x="120" y="563" width="410" height="606">
                        <g id="SVGID_00000141442446994719312910000004161580726195475364__14">
                            <path id="Vector_78" d="M527.086 769.156C541.828 716.215 486.148 683.383 474.895 648.499C463.642 613.615 458.016 576.952 458.016 576.952L420.881 563.24C420.881 563.24 504.792 738.127 433.675 748.358C348.1 760.67 306.888 665.676 278.086 626.197C249.086 586.447 232.956 563.239 232.956 563.239L164.313 576.951C164.313 576.951 172.19 657.501 189.069 718.267C205.948 779.033 225.079 870.182 213.826 925.322C202.573 980.461 120.426 1100.87 120.426 1100.87C120.426 1100.87 240.956 1180.93 367.404 1166.79L379.995 1072.36L435.982 1153.74C502.807 1135 506.405 1109.87 506.405 1109.87C506.405 1109.87 449.014 1022.1 449.014 955.704C449.014 889.311 445.639 854.427 463.643 837.548C481.647 820.67 513.359 818.45 527.086 769.156Z" fill="white" />
                        </g>
                    </mask>
                    <g mask="url(#mask16_3_248)">
                        <path id="Vector_79" opacity="0.2" d="M661.304 1058.11H-48.4102V1091.8H661.304V1058.11Z" fill="#B3C265" />
                    </g>
                </g>
                <g id="Clip path group_18">
                    <mask id="mask17_3_248" style="mask-type:luminance" maskUnits="userSpaceOnUse" x="120" y="563" width="410" height="606">
                        <g id="SVGID_00000141442446994719312910000004161580726195475364__15">
                            <path id="Vector_80" d="M527.086 769.156C541.828 716.215 486.148 683.383 474.895 648.499C463.642 613.615 458.016 576.952 458.016 576.952L420.881 563.24C420.881 563.24 504.792 738.127 433.675 748.358C348.1 760.67 306.888 665.676 278.086 626.197C249.086 586.447 232.956 563.239 232.956 563.239L164.313 576.951C164.313 576.951 172.19 657.501 189.069 718.267C205.948 779.033 225.079 870.182 213.826 925.322C202.573 980.461 120.426 1100.87 120.426 1100.87C120.426 1100.87 240.956 1180.93 367.404 1166.79L379.995 1072.36L435.982 1153.74C502.807 1135 506.405 1109.87 506.405 1109.87C506.405 1109.87 449.014 1022.1 449.014 955.704C449.014 889.311 445.639 854.427 463.643 837.548C481.647 820.67 513.359 818.45 527.086 769.156Z" fill="white" />
                        </g>
                    </mask>
                    <g mask="url(#mask17_3_248)">
                        <path id="Vector_81" opacity="0.2" d="M661.304 989.435H-48.4102V1023.12H661.304V989.435Z" fill="#B3C265" />
                    </g>
                </g>
                <g id="Clip path group_19">
                    <mask id="mask18_3_248" style="mask-type:luminance" maskUnits="userSpaceOnUse" x="120" y="563" width="410" height="606">
                        <g id="SVGID_00000141442446994719312910000004161580726195475364__16">
                            <path id="Vector_82" d="M527.086 769.156C541.828 716.215 486.148 683.383 474.895 648.499C463.642 613.615 458.016 576.952 458.016 576.952L420.881 563.24C420.881 563.24 504.792 738.127 433.675 748.358C348.1 760.67 306.888 665.676 278.086 626.197C249.086 586.447 232.956 563.239 232.956 563.239L164.313 576.951C164.313 576.951 172.19 657.501 189.069 718.267C205.948 779.033 225.079 870.182 213.826 925.322C202.573 980.461 120.426 1100.87 120.426 1100.87C120.426 1100.87 240.956 1180.93 367.404 1166.79L379.995 1072.36L435.982 1153.74C502.807 1135 506.405 1109.87 506.405 1109.87C506.405 1109.87 449.014 1022.1 449.014 955.704C449.014 889.311 445.639 854.427 463.643 837.548C481.647 820.67 513.359 818.45 527.086 769.156Z" fill="white" />
                        </g>
                    </mask>
                    <g mask="url(#mask18_3_248)">
                        <path id="Vector_83" opacity="0.2" d="M663.303 920.76H-46.4111V954.45H663.303V920.76Z" fill="#B3C265" />
                    </g>
                </g>
                <g id="Clip path group_20">
                    <mask id="mask19_3_248" style="mask-type:luminance" maskUnits="userSpaceOnUse" x="120" y="563" width="410" height="606">
                        <g id="SVGID_00000141442446994719312910000004161580726195475364__17">
                            <path id="Vector_84" d="M527.086 769.156C541.828 716.215 486.148 683.383 474.895 648.499C463.642 613.615 458.016 576.952 458.016 576.952L420.881 563.24C420.881 563.24 504.792 738.127 433.675 748.358C348.1 760.67 306.888 665.676 278.086 626.197C249.086 586.447 232.956 563.239 232.956 563.239L164.313 576.951C164.313 576.951 172.19 657.501 189.069 718.267C205.948 779.033 225.079 870.182 213.826 925.322C202.573 980.461 120.426 1100.87 120.426 1100.87C120.426 1100.87 240.956 1180.93 367.404 1166.79L379.995 1072.36L435.982 1153.74C502.807 1135 506.405 1109.87 506.405 1109.87C506.405 1109.87 449.014 1022.1 449.014 955.704C449.014 889.311 445.639 854.427 463.643 837.548C481.647 820.67 513.359 818.45 527.086 769.156Z" fill="white" />
                        </g>
                    </mask>
                    <g mask="url(#mask19_3_248)">
                        <path id="Vector_85" opacity="0.4" d="M529.158 765.53C518.03 784.466 511.656 808.291 402.127 808.667C382.997 808.732 363.491 812.793 343.236 809.417C322.98 807.166 285.845 797.789 267.466 792.163C252.402 787.551 231.831 792.255 240.834 811.385C249.836 829.39 285.102 838.694 302.019 838.744C327.151 838.82 354.489 826.297 375.87 822.921C396.125 819.545 415.864 819.194 434.385 828.548C472.271 847.678 523.532 826.298 535.91 785.786L529.158 765.53Z" fill="black" />
                    </g>
                </g>
            </g>
        </g>
        <g id="braco_direito" transform="rotate(0 100 100)">
            <g id="Group_43">
                <path id="Vector_86" d="M395.259 931.376C393.062 913.475 352.487 958.16 344.229 957.476C343.154 957.387 342.335 956.427 341.729 954.796L344.507 1001.44C353.005 992.105 360.28 980.394 362.722 973.66C367.138 961.486 397.455 949.278 395.259 931.376Z" fill="#441C23" />
                <g id="Group_44">
                    <g id="Clip path group_21">
                        <mask id="mask20_3_248" style="mask-type:luminance" maskUnits="userSpaceOnUse" x="227" y="842" width="180" height="174">
                            <g id="SVGID_00000124877413653985766920000015692657220527284413_">
                                <path id="Vector_87" d="M406.323 872.002C405.954 867.616 395.097 864.857 382.684 865.046C393.114 858.588 401.681 851.991 401.878 845.711C402.378 829.805 324.875 880.971 316.672 888.674C308.469 896.378 298.098 973.007 298.098 973.007L235.119 967.312L227.098 1013.13C227.098 1013.13 308.716 1016.75 323.403 1015.52C329.968 1014.97 341.107 1011.05 344.505 1001.44C348.397 990.422 341.728 954.794 341.728 954.794C339.772 949.538 340.024 937.312 341.02 924.838C341.021 924.836 341.021 924.835 341.022 924.833C351.807 874.028 407.22 882.631 406.323 872.002Z" fill="white" />
                            </g>
                        </mask>
                        <g mask="url(#mask20_3_248)">
                            <path id="Vector_88" d="M406.323 872.002C405.954 867.616 395.097 864.857 382.684 865.046C393.114 858.588 401.681 851.991 401.878 845.711C402.378 829.805 324.875 880.971 316.672 888.674C308.469 896.378 298.098 973.007 298.098 973.007L235.119 967.312L227.098 1013.13C227.098 1013.13 308.716 1016.75 323.403 1015.52C329.968 1014.97 341.107 1011.05 344.505 1001.44C348.397 990.422 341.728 954.794 341.728 954.794C339.772 949.538 340.024 937.312 341.02 924.838C341.021 924.836 341.021 924.835 341.022 924.833C351.807 874.028 407.22 882.631 406.323 872.002Z" fill="#703622" />
                        </g>
                    </g>
                    <g id="Clip path group_22">
                        <mask id="mask21_3_248" style="mask-type:luminance" maskUnits="userSpaceOnUse" x="227" y="842" width="180" height="174">
                            <g id="SVGID_00000124877413653985766920000015692657220527284413__2">
                                <path id="Vector_89" d="M406.323 872.002C405.954 867.616 395.097 864.857 382.684 865.046C393.114 858.588 401.681 851.991 401.878 845.711C402.378 829.805 324.875 880.971 316.672 888.674C308.469 896.378 298.098 973.007 298.098 973.007L235.119 967.312L227.098 1013.13C227.098 1013.13 308.716 1016.75 323.403 1015.52C329.968 1014.97 341.107 1011.05 344.505 1001.44C348.397 990.422 341.728 954.794 341.728 954.794C339.772 949.538 340.024 937.312 341.02 924.838C341.021 924.836 341.021 924.835 341.022 924.833C351.807 874.028 407.22 882.631 406.323 872.002Z" fill="white" />
                            </g>
                        </mask>
                        <g mask="url(#mask21_3_248)">
                            <g id="Group_45">
                                <path id="Vector_90" d="M342.032 886.915C351.228 881.435 360.205 875.802 370.076 871.572C375.329 869.322 380.776 867.555 386.288 866.062C392.07 864.495 399.062 864.717 404.267 861.618C404.981 861.193 405.238 859.289 404.204 859.042C398.893 857.77 392.861 860.038 387.63 861.177C381.943 862.416 376.369 864.594 371.004 866.806C360.309 871.214 349.924 877.128 341.471 885.064C340.998 885.509 341.198 887.412 342.032 886.915Z" fill="#441C23" />
                            </g>
                        </g>
                    </g>
                </g>
            </g>
            <g id="Group_46">
                <path id="Vector_91" d="M164.313 576.951C164.313 576.951 136.413 592.28 118.263 643.999C97.5193 703.108 -4.58764 930.188 4.00636 948.837C29.7364 1004.67 263.47 1036.85 263.47 1036.85L271.294 960.699C271.294 960.699 116.615 912.429 117.327 902.11C117.849 894.525 162.151 802.376 205.223 746.044C220.751 725.736 207.413 673.966 204.448 660.127C193.195 607.613 164.313 576.951 164.313 576.951Z" fill="#CBD4EF" />
            </g>
            <path id="Vector_92" d="M120.914 905.905C116.052 911.604 110.08 915.774 102.8 918.914C94.7242 922.396 85.7052 924.416 78.2192 929.096C76.6752 930.061 77.8782 934.237 79.7482 934.09C95.7762 932.832 118.151 924.437 125.726 908.652C123.826 907.668 122.206 906.748 120.914 905.905Z" fill="#C0C9DF" />
            <path id="Vector_93" d="M51.9355 910.838C66.0415 913.185 79.9536 910.463 93.2926 905.723C99.1626 903.638 104.853 901.142 110.504 898.534C106.888 901.223 103.195 903.818 99.3565 906.238C91.2755 911.332 82.9265 916.13 74.1275 919.885C66.6125 923.092 58.8165 925.541 51.3045 928.714C49.4555 929.496 50.3536 933.52 52.3246 933.531C69.6026 933.635 87.3726 923.502 101.423 914.25C106.845 910.679 112.279 906.892 117.488 902.806C117.371 902.559 117.312 902.326 117.327 902.111C117.444 900.411 119.766 894.452 123.776 885.609C118.526 887.117 113.395 889.502 108.424 891.486C102.648 893.791 96.8306 896.048 90.9336 898.025C77.9126 902.394 64.5125 904.266 51.0305 906.564C49.0995 906.892 50.4555 910.591 51.9355 910.838Z" fill="#C0C9DF" />
            <animateTransform attributeName="transform" type="rotate" values="0 100 100;1 100 100;0 100 100" dur="3s" repeatCount="indefinite" />
        </g>
        <g id="Group_47">
            <path id="Vector_94" d="M521.946 185.087C520.306 178.347 515.306 172.907 511.706 167.167C506.216 158.417 506.106 147.917 506.226 137.907C506.336 129.107 505.346 121.147 501.486 113.137C498.116 106.117 488.226 104.267 483.856 97.7868C480.386 92.6468 483.406 85.0068 483.096 79.2068C482.866 74.9768 480.516 71.1768 478.766 67.4268C475.836 61.1068 472.796 53.8968 467.176 49.4668C462.066 45.4468 456.836 48.3568 452.976 52.3068C450.176 40.8668 442.256 32.5168 431.516 27.3068C429.726 26.4468 428.476 25.5168 426.676 26.5168C425.196 27.3368 423.676 28.1068 422.166 28.8668C418.206 30.8568 414.146 32.6468 410.046 34.3168C401.816 37.6768 392.906 40.8968 383.936 41.1368C380.996 41.2068 377.346 40.8168 375.516 38.2168C373.186 34.9168 376.266 28.7868 377.586 25.7168C378.186 24.3468 377.656 22.1168 376.026 21.8468C371.246 21.0668 366.596 20.3368 361.816 21.4468C357.316 22.4868 353.476 25.9868 350.196 29.1968C344.496 22.3568 336.546 20.9968 328.116 24.4668C325.664 25.4768 322.359 27.2828 319.812 29.3948C319.791 28.6578 319.795 27.9088 319.846 27.1368C319.976 25.2468 318.516 23.6668 317.436 23.8568C317.316 22.0368 317.206 20.2168 317.206 18.4168C317.206 17.6668 316.696 16.4668 315.746 16.8068C312.606 17.9468 309.336 17.5168 306.066 17.5568C304.856 17.5668 300.976 18.6968 300.826 18.2168C299.436 13.9468 296.676 10.2268 293.356 7.26678C286.676 1.28678 276.986 -0.373218 268.326 0.0667816C259.376 0.536782 249.916 3.60678 244.156 10.7868C238.246 18.1568 236.936 28.5568 230.606 35.4268C227.496 38.8168 221.596 41.0568 217.036 40.7068C213.606 40.4368 210.456 38.0168 207.346 36.7468C199.596 33.5868 189.496 37.0868 182.976 41.6068C177.736 45.2368 177.336 51.9968 175.416 57.5268C172.356 66.3268 164.586 73.5368 159.096 80.8868C153.266 88.6768 143.916 102.137 149.856 111.967C150.666 113.317 151.826 114.437 152.566 115.837C154.096 118.767 152.306 123.127 151.466 125.957C149.286 133.327 143.996 135.927 138.626 140.537C133.846 144.637 131.226 151.387 128.896 157.077C126.096 163.867 124.396 171.167 123.806 178.487C122.676 192.547 127.106 206.307 138.376 214.777C133.666 219.677 130.906 225.647 133.576 232.667C136.406 240.137 144.426 245.347 150.076 250.517C157.856 257.637 161.116 266.807 164.406 276.567C167.956 287.067 173.716 294.997 183.216 300.897C183.816 301.277 184.506 301.447 185.076 300.857C192.836 292.737 194.656 280.557 195.596 269.827C196.756 256.527 196.046 243.137 195.696 229.807C195.566 224.937 195.396 220.007 195.886 215.157C196.806 206.167 201.226 196.977 205.166 188.987C212.966 173.137 223.096 158.547 232.616 143.707C238.126 146.567 244.346 146.517 249.206 150.907C249.586 151.247 250.176 151.387 250.646 151.157C262.056 145.527 274.346 139.927 279.146 127.397C285.586 128.277 290.886 127.617 297.276 126.207C303.006 124.937 308.126 127.237 313.876 125.087C325.236 120.857 332.856 107.907 337.426 97.4368C337.558 97.1338 337.678 96.8258 337.806 96.5198C342.514 97.5098 347.672 97.4888 352.966 96.6968C353.656 103.667 353.256 110.727 354.186 117.637C354.726 121.697 356.986 123.837 360.786 125.107C368.646 127.727 377.556 129.497 385.786 128.327C388.966 127.877 392.036 126.857 395.006 125.667C396.846 124.927 399.216 123.487 401.236 124.287C403.876 125.337 405.106 130.677 405.946 132.967C406.936 135.697 407.626 137.187 405.586 139.487C404.206 141.057 402.476 142.347 400.896 143.717C394.926 148.917 394.866 155.007 400.206 160.937C402.866 163.897 407.316 164.147 410.956 164.847C414.656 165.557 417.306 168.277 421.036 168.927C424.226 169.477 427.416 169.247 430.626 169.007C432.766 168.847 437.156 167.967 438.786 169.877C440.416 171.777 437.446 177.447 436.706 179.277C436.206 180.507 436.606 182.637 438.146 182.837C445.446 183.747 452.386 185.937 457.676 191.247C461.746 195.327 463.716 201.167 465.256 206.577C468.436 217.737 470.556 228.327 479.376 236.547C482.676 239.627 487.526 243.427 492.366 242.347C496.226 241.497 498.266 237.607 499.676 234.277C504.376 223.117 504.586 210.197 506.976 198.297C509.756 201.077 512.536 203.857 515.306 206.637C515.956 207.277 516.886 206.857 517.296 206.187C521.266 199.717 523.796 192.687 521.946 185.087Z" fill="#1E1A1B" />
            <g id="Group_48">
                <g id="Clip path group_23">
                    <mask id="mask22_3_248" style="mask-type:luminance" maskUnits="userSpaceOnUse" x="84" y="0" width="439" height="302">
                        <g id="SVGID_00000052788263497127694870000008740975645311209385_">
                            <path id="Vector_95" d="M521.945 185.087C520.305 178.347 515.306 172.907 511.706 167.167C506.216 158.417 506.106 147.917 506.226 137.907C506.336 129.107 505.346 121.147 501.486 113.137C498.116 106.117 488.226 104.267 483.856 97.7868C480.386 92.6468 483.406 85.0068 483.096 79.2068C482.866 74.9768 480.516 71.1768 478.766 67.4268C475.836 61.1068 472.795 53.8968 467.175 49.4668C462.065 45.4468 456.836 48.3568 452.976 52.3068C450.176 40.8668 442.256 32.5168 431.516 27.3068C429.726 26.4468 428.475 25.5168 426.675 26.5168C425.195 27.3368 423.675 28.1068 422.165 28.8668C418.205 30.8568 414.145 32.6468 410.045 34.3168C401.815 37.6768 392.905 40.8968 383.935 41.1368C380.995 41.2068 377.346 40.8168 375.516 38.2168C373.186 34.9168 376.266 28.7868 377.586 25.7168C378.186 24.3468 377.655 22.1168 376.025 21.8468C371.245 21.0668 366.595 20.3368 361.815 21.4468C357.315 22.4868 353.475 25.9868 350.195 29.1968C344.495 22.3568 336.546 20.9968 328.116 24.4668C325.664 25.4768 322.358 27.2828 319.811 29.3948C319.79 28.6578 319.795 27.9088 319.846 27.1368C319.976 25.2468 318.516 23.6668 317.436 23.8568C317.316 22.0368 317.206 20.2168 317.206 18.4168C317.206 17.6668 316.696 16.4668 315.746 16.8068C312.606 17.9468 309.336 17.5168 306.066 17.5568C304.856 17.5668 300.976 18.6968 300.826 18.2168C299.436 13.9468 296.676 10.2268 293.356 7.26678C286.676 1.28678 276.986 -0.373218 268.326 0.0667816C259.376 0.536782 249.915 3.60678 244.155 10.7868C238.245 18.1568 236.936 28.5568 230.606 35.4268C227.496 38.8168 221.595 41.0568 217.035 40.7068C213.605 40.4368 210.456 38.0168 207.346 36.7468C199.596 33.5868 189.496 37.0868 182.976 41.6068C177.736 45.2368 177.335 51.9968 175.415 57.5268C172.355 66.3268 164.586 73.5368 159.096 80.8868C153.266 88.6768 143.916 102.137 149.856 111.967C150.666 113.317 151.825 114.437 152.565 115.837C154.095 118.767 152.306 123.127 151.466 125.957C149.286 133.327 143.996 135.927 138.626 140.537C133.846 144.637 131.226 151.387 128.896 157.077C126.096 163.867 85.4496 171.621 84.8596 178.941C83.7296 193.001 127.106 206.307 138.376 214.777C133.666 219.677 130.906 225.647 133.576 232.667C136.406 240.137 144.426 245.347 150.076 250.517C157.856 257.637 161.115 266.807 164.405 276.567C167.955 287.067 173.716 294.997 183.216 300.897C183.816 301.277 184.506 301.447 185.076 300.857C192.836 292.737 194.656 280.557 195.596 269.827C196.756 256.527 196.046 243.137 195.696 229.807C195.566 224.937 195.396 220.007 195.886 215.157C196.806 206.167 201.225 196.977 205.165 188.987C212.965 173.137 223.096 158.547 232.616 143.707C238.126 146.567 244.346 146.517 249.206 150.907C249.586 151.247 250.176 151.387 250.646 151.157C262.056 145.527 274.346 139.927 279.146 127.397C285.586 128.277 290.885 127.617 297.275 126.207C303.005 124.937 308.126 127.237 313.876 125.087C325.236 120.857 332.855 107.907 337.425 97.4368C337.557 97.1338 337.677 96.8258 337.805 96.5198C342.513 97.5098 347.672 97.4888 352.966 96.6968C353.656 103.667 353.255 110.727 354.185 117.637C354.725 121.697 356.985 123.837 360.785 125.107C368.645 127.727 377.555 129.497 385.785 128.327C388.965 127.877 392.036 126.857 395.006 125.667C396.846 124.927 399.216 123.487 401.236 124.287C403.876 125.337 405.105 130.677 405.945 132.967C406.935 135.697 407.626 137.187 405.586 139.487C404.206 141.057 402.476 142.347 400.896 143.717C394.926 148.917 394.866 155.007 400.206 160.937C402.866 163.897 407.316 164.147 410.956 164.847C414.656 165.557 417.305 168.277 421.035 168.927C424.225 169.477 427.416 169.247 430.626 169.007C432.766 168.847 437.155 167.967 438.785 169.877C440.415 171.777 437.446 177.447 436.706 179.277C436.206 180.507 436.606 182.637 438.146 182.837C445.446 183.747 452.385 185.937 457.675 191.247C461.745 195.327 463.716 201.167 465.256 206.577C468.436 217.737 470.556 228.327 479.376 236.547C482.676 239.627 487.526 243.427 492.366 242.347C496.226 241.497 498.265 237.607 499.675 234.277C504.375 223.117 504.586 210.197 506.976 198.297C509.756 201.077 512.535 203.857 515.305 206.637C515.955 207.277 516.885 206.857 517.295 206.187C521.265 199.717 523.795 192.687 521.945 185.087Z" fill="white" />
                        </g>
                    </mask>
                    <g mask="url(#mask22_3_248)">
                        <g id="Group_49">
                            <g id="Group_50">
                                <path id="Vector_96" d="M378.831 38.0798C374.573 45.5988 369.593 53.2648 362.451 58.3528C357.433 61.9278 351.604 64.5388 345.839 66.6388C340.888 68.4428 335.344 70.0238 330.028 69.3348C322.546 68.3648 326.921 59.8228 329.055 55.8488C329.626 54.7858 329.129 51.2868 327.374 52.7228C315.901 62.1068 285.782 62.2248 293.438 40.5928C293.815 39.5288 292.884 35.6608 291.262 37.4498C279.2 50.7468 258.238 52.7188 243.855 41.9648C239.746 38.8928 235.893 34.9658 233.948 30.1748C232.078 25.5708 233.589 20.2208 234.915 15.7028C236.933 8.82777 239.405 1.97577 237.602 -5.23523C236.821 -8.35923 234.05 -6.40223 234.568 -3.87323C236.479 5.45077 230.562 14.2768 229.907 23.4918C229.211 33.2898 235.099 40.3958 242.334 46.2368C257.204 58.2418 280.417 55.3138 292.908 41.4428C292.182 40.3958 291.457 39.3478 290.732 38.2998C287.407 47.7878 288.96 57.8608 299.051 61.9868C308.695 65.9298 321.042 62.5788 328.795 56.1698C328.235 55.1278 327.673 54.0868 327.113 53.0438C324.54 57.8848 320.801 65.4308 324.787 70.5688C328.191 74.9558 335.639 73.2888 340.137 72.2088C358.226 67.8618 373.261 56.6988 379.389 38.7058C379.503 38.3748 379.14 37.5358 378.831 38.0798Z" fill="#4B4849" />
                            </g>
                            <g id="Group_51">
                                <path id="Vector_97" d="M374.509 43.9578C370.868 54.9508 364.317 64.7358 354.043 70.4208C344.417 75.7478 332.918 77.4968 322.325 79.8968C315.152 81.5218 308.759 85.1488 302.574 89.0088C296.37 92.8818 289.891 96.4778 283.826 100.52C271.927 108.449 262.003 95.6158 252.869 89.2478C252.321 88.8658 251.719 88.7978 251.198 89.2888C243.41 96.6248 230.959 98.1588 220.771 98.8568C210.453 99.5638 198.847 99.2058 189.248 94.9608C178.029 89.9998 171.923 79.4638 173.412 67.3538C174.741 56.5428 181.898 45.2138 189.625 37.7498C190.324 37.0738 189.97 34.1928 188.786 34.9848C183.531 38.4998 179.647 41.9218 176.244 47.3518C172.936 52.6308 170.795 58.6198 169.697 64.7318C167.518 76.8678 171.633 89.0868 181.486 96.6388C191.359 104.205 205.158 104.883 217.079 104.502C228.944 104.123 243.996 102.223 252.977 93.6038C252.42 93.6178 251.863 93.6308 251.306 93.6448C260.065 99.6268 269.177 111.102 281.042 107.148C283.492 106.331 285.698 104.33 287.879 103.01C291.643 100.732 295.44 98.5828 299.132 96.1528C306.805 91.1028 314.661 86.1718 323.72 84.1118C334.97 81.5538 346.67 79.4798 356.675 73.4148C367.266 66.9938 372.332 56.4308 375.666 44.9358C375.909 44.0868 374.927 42.6978 374.509 43.9578Z" fill="#4B4849" />
                            </g>
                            <g id="Group_52">
                                <path id="Vector_98" d="M290.792 142.022C274.584 149.272 267.624 126.051 262.36 115.255C262.091 114.702 261.383 113.765 260.631 114.241C252.811 119.186 245.534 124.906 236.867 128.367C226.808 132.384 220.924 124.553 211.881 121.999C204.651 119.957 201.148 125.581 198.72 131.25C195.09 139.727 183.827 141.531 175.719 142.054C166.716 142.634 157.562 141.466 148.68 140.081C143.924 139.34 139.231 138.211 134.76 136.418C131.598 135.149 124.944 131.177 125.532 127.134C126.752 118.746 124.088 111.487 122.412 103.296C121.507 98.8768 121.138 94.4657 121.904 90.0017C122.893 84.2387 126.74 79.3948 129.961 74.7098C130.664 73.6878 130.024 70.7808 128.446 71.8938C120.75 77.3228 117.487 86.2158 117.474 95.3708C117.468 99.9408 118.468 104.533 119.479 108.963C120.671 114.184 122.862 119.497 121.802 124.874C120.197 133.01 127.005 139.206 133.846 142.281C142.677 146.25 153.508 147.024 163.042 147.801C172.58 148.578 182.899 148.53 191.762 144.486C195.11 142.958 198.311 140.418 200.356 137.365C202.876 133.605 202.871 128.205 208.154 127.193C212.745 126.313 217.855 130.263 221.636 132.341C225.66 134.552 229.623 135.729 234.18 134.579C244.552 131.962 252.741 124.314 261.541 118.654C260.965 118.316 260.389 117.978 259.812 117.64C265.165 128.45 275.053 156.738 291.609 144.718C292.439 144.114 292.053 141.458 290.792 142.022Z" fill="#4B4849" />
                            </g>
                            <g id="Group_53">
                                <path id="Vector_99" d="M233.669 166.507C230.484 162.095 226.855 162.214 222.645 165.374C217.952 168.898 216.142 173.476 214.883 179.037C213.116 186.843 211.572 192.367 203.207 195.09C195.72 197.528 186.962 194.578 180.508 190.728C180.226 192.541 179.944 194.353 179.661 196.166C180.874 196.567 182.052 196.996 183.21 197.536C183.609 197.718 183.973 197.953 184.302 198.24C182.124 196.553 185.609 195.112 183.644 196.234C181.472 197.475 178.746 197.936 176.328 198.398C171.014 199.415 165.368 200.025 159.953 199.714C154.995 199.429 149.673 196.77 145.254 194.716C142.688 193.524 140.17 192.162 138.009 190.319C137.716 190.076 137.457 189.802 137.233 189.496C136.747 188.881 136.168 191.479 137.423 190.688C138.796 189.823 140.598 189.586 142.153 189.323C141.501 188.38 140.847 187.437 140.195 186.494C141.937 203.932 108.891 183.936 103.623 180.319C96.9513 175.737 93.0643 171.197 89.6323 163.789C85.1063 154.017 80.8224 141.211 87.9854 131.752C88.6394 130.888 88.2653 128.036 86.7113 128.648C75.3873 133.11 81.2304 153.11 84.0584 161.102C87.6254 171.179 92.4723 178.723 101.118 184.865C110.025 191.192 146.492 212.296 143.971 186.401C143.882 185.486 143.406 183.341 142.013 183.572C138.887 184.09 134.797 184.71 133.674 188.184C132.692 191.221 134.512 193.895 136.726 195.769C142.539 200.689 151.695 204.072 159.153 205.277C166.559 206.474 176.091 204.726 183.104 202.317C185.58 201.467 187.812 199.843 187.742 196.975C187.647 193.122 183.558 191.742 180.507 190.729C177.723 189.804 177.833 195.073 179.66 196.167C189.049 201.788 205.255 204.799 213.046 194.684C216.261 190.51 217.026 185.301 218.015 180.265C219.138 174.551 225.935 161.501 232.678 168.589C233.62 169.576 234.163 167.19 233.669 166.507Z" fill="#4B4849" />
                            </g>
                            <g id="Group_54">
                                <path id="Vector_100" d="M377.185 42.8038C371.718 40.5188 369.587 46.4788 368.556 50.7478C366.982 57.2618 369.03 65.4288 373.612 70.3408C383.7 81.1528 400.311 73.3828 411.609 68.9858C410.946 68.5968 410.282 68.2078 409.619 67.8188C412.081 75.2188 417.852 82.9448 425.313 85.8278C434.982 89.5638 437.557 77.1518 437.943 70.4018C438.068 68.2128 435.321 66.2958 434.444 69.0578C431.546 78.1818 429.874 90.3828 438.201 97.2748C445.778 103.546 456.65 99.1058 463.397 93.9588C467.66 90.7068 471.414 86.3648 473.203 81.2888C474.449 77.7538 475.373 72.7138 480.38 73.7558C483.413 74.3868 485.752 76.9748 488.927 77.2678C494.797 77.8098 501.876 72.3878 505.658 68.3278C509.861 63.8178 511.762 57.4888 511.315 51.4178C511.185 49.6388 509.184 48.7908 508.885 50.9788C507.483 61.2778 496.144 75.6218 484.655 69.5528C480.776 67.5038 476.953 66.7798 473.546 70.0978C470.222 73.3358 470.457 78.7868 467.638 82.3588C462.287 89.1378 453.595 95.6338 444.422 93.9318C433.82 91.9648 435.289 79.5058 437.724 71.8378C436.557 71.3898 435.391 70.9418 434.225 70.4938C433.847 77.1128 431.366 83.1088 424.094 79.4818C418.666 76.7738 414.402 70.6988 412.55 65.0778C412.278 64.2508 411.438 63.5738 410.56 63.9108C401.986 67.2058 392.89 71.3118 383.488 70.2288C377.487 69.5378 373.805 64.8968 371.805 59.5788C370.525 56.1748 370.318 41.6718 376.984 44.0918C377.595 44.3118 377.694 43.0168 377.185 42.8038Z" fill="#4B4849" />
                            </g>
                            <g id="Group_55">
                                <path id="Vector_101" d="M370.209 63.6528C368.794 63.3368 367.678 62.6028 366.269 62.2678C365.73 62.1398 365.348 62.6338 365.307 63.1428C364.541 72.6108 364.074 82.6338 368.409 91.3868C372.836 100.322 382.513 104.28 391.652 100.547C396.713 98.4798 401.287 96.4658 406.6 95.0398C408.157 94.6218 409.694 94.1308 411.236 93.6628C412.859 93.1698 410.81 91.7338 410.863 92.3348C411.681 101.457 418.315 106.638 423.87 113.195C425.669 115.319 428.521 118.844 428.311 121.781C428.178 123.65 425.794 125.174 424.511 126.271C421.978 128.435 420.704 130.974 420.746 134.317C420.833 141.246 427.491 145.843 433.534 147.245C445.853 150.103 464.22 143.431 462.994 128.401C461.924 129.113 460.854 129.826 459.784 130.539C467.2 143.765 485.949 158.954 501.525 149.902C508.08 146.093 511.166 137.89 513.881 131.242C517.226 123.055 519.43 114.356 523.125 106.329C523.678 105.128 522.422 102.528 521.219 104.198C512.979 115.634 512.369 131.968 502.674 142.293C489.923 155.873 468.84 137.814 462.384 126.357C461.066 124.018 459.042 126.915 459.174 128.495C460.318 142.21 437.166 144.766 428.539 139.482C425.767 137.783 422.965 134.329 425.787 131.449C427.643 129.555 430.018 128.063 431.026 125.48C434.137 117.505 426.877 109.764 421.851 104.457C418.721 101.152 415.764 98.0908 414.636 93.5458C414.313 92.2448 414.454 90.8437 413.919 89.5987C412.378 86.0097 403.829 90.2948 401.546 90.8438C397.249 91.8778 393.477 94.1938 389.427 95.8748C383.536 98.3198 378.019 96.0528 373.637 91.8348C366.399 84.8688 367.575 72.5528 366.883 63.4278C366.626 63.8408 366.37 64.2528 366.113 64.6648C367.515 64.7008 368.711 65.2118 370.103 65.2668C370.775 65.2938 370.807 63.7858 370.209 63.6528Z" fill="#4B4849" />
                            </g>
                            <g id="Group_56">
                                <path id="Vector_102" d="M443.586 163.642C444.333 154.553 455.293 166.239 457.794 168.849C462.227 173.473 464.855 178.394 467.918 183.939C471.04 189.59 480.77 190.12 486.324 190.671C495.348 191.567 501.47 187.138 505.302 179.201C506.138 177.469 504.48 172.956 502.872 175.692C501.228 178.49 501.071 187.925 504.219 189.885C505.726 190.823 510.478 192.222 512.389 191.212C512.992 190.894 513.357 190.319 513.711 189.762C514.741 188.14 518.025 187.648 519.656 187.208C526.838 185.27 535.927 188.599 542.523 184.799C550.378 180.273 553.43 169.17 558.66 162.276C559.146 161.635 558.635 159.629 557.666 160.429C552.227 164.921 548.694 171.107 544.188 176.452C539.71 181.765 532.76 180.435 526.475 180.559C521.767 180.652 514.947 181.333 511.579 185.034C511.11 185.549 510.45 185.998 511.188 185.853C509.969 186.091 508.383 185.421 507.227 185.153C505.363 184.72 504.86 180.031 505.3 179.201C504.49 178.032 503.68 176.862 502.87 175.692C500.52 180.611 497.419 184.536 491.816 185.552C486.717 186.477 481.069 185.074 476.165 183.829C473.237 183.085 470.904 182.2 469.495 179.434C468.033 176.563 466.582 173.675 464.53 171.167C461.015 166.871 442.319 147.807 442.573 163.459C442.586 164.22 443.512 164.539 443.586 163.642Z" fill="#4B4849" />
                            </g>
                        </g>
                    </g>
                </g>
            </g>
        </g>
    </g>
</svg>