<svg width="1084" height="2160" viewBox="0 0 1084 2160" fill="none"
    xmlns="http://www.w3.org/2000/svg">
    <g id="personagem_sentada" clip-path="url(#clip0_12_1528)">
        <g id="Group 7">
            <path id="Rectangle 3" d="M662 1499.5H159V2147.5H662V1499.5Z" fill="#D9D9D9"/>
            <g id="cabelo" transform="rotate(0 100 100)">
                <g id="Group">
                    <path id="Vector" d="M614.778 336.877C610.738 331.347 603.808 328.337 599.048 323.437C595.418 319.707 595.558 314.647 594.978 309.717C594.358 304.467 593.618 299.557 590.768 295.017C586.868 288.797 577.168 285.777 579.818 276.977C582.648 267.557 592.898 252.497 584.288 243.357C580.498 239.327 574.328 238.927 568.848 239.227C560.758 218.947 548.258 201.097 535.598 183.137C521.548 163.207 509.918 141.797 496.318 121.577C482.978 101.747 466.218 86.1169 443.288 78.2569C418.328 69.7069 391.268 70.7469 365.588 65.7469C358.668 64.4069 351.928 62.1869 344.958 60.9469C337.848 59.6869 330.718 58.8569 323.498 58.6369C308.968 58.1969 294.608 60.9369 280.728 65.0269C264.438 69.8269 248.618 76.3569 232.448 81.5969C216.368 86.8069 200.238 91.8468 184.458 97.8769C181.938 98.8369 182.808 105.137 185.718 104.017C196.208 100.017 206.828 96.3369 217.488 92.7769C214.968 94.9469 212.588 97.2669 210.178 99.5969C204.898 104.687 199.038 111.927 191.758 114.007C187.838 115.127 183.778 114.147 179.828 113.847C175.868 113.547 172.528 114.947 169.358 117.217C160.878 123.277 155.538 133.047 153.368 143.007C152.518 146.887 152.048 151.327 149.178 154.327C145.308 158.397 137.948 157.357 133.038 156.717C132.438 156.637 131.948 157.387 131.798 157.857C127.278 171.647 102.908 196.157 83.0278 192.667C81.2178 192.347 81.1279 196.667 82.7479 197.157C84.5179 197.687 92.2178 199.717 90.7978 202.017C89.0878 204.797 85.3879 206.787 82.7579 208.537C77.4879 212.047 69.5579 216.047 67.8579 222.717C65.5879 231.577 75.7078 237.927 80.4178 244.017C89.9278 256.297 73.2079 262.387 67.9479 271.307C67.3379 272.337 67.2679 274.777 68.7279 275.237C68.2579 275.087 69.0878 276.707 69.2778 277.347C69.7178 278.867 70.0879 280.407 70.4579 281.947C71.2479 285.157 71.9879 288.397 72.9479 291.557C73.2079 292.437 73.6978 293.577 74.2778 294.557C72.2478 297.287 68.9378 298.737 66.0478 300.757C63.0578 302.857 61.2379 305.127 59.4679 308.257C57.3879 311.917 53.6579 314.717 51.1479 318.097C48.8579 321.197 47.5479 325.197 49.7279 328.697C51.2379 331.127 54.3279 332.307 57.7179 332.877C49.4179 336.527 41.3778 341.197 35.6878 348.027C27.0978 358.347 31.3579 370.137 40.0879 378.707C50.2979 388.747 62.5978 391.637 76.3078 393.037C78.0878 393.227 83.9779 393.327 84.0879 395.977C84.1779 398.417 82.5378 401.317 81.5278 403.427C79.2778 408.137 76.5079 412.607 73.7679 417.047C72.8679 418.517 73.1578 421.357 75.1578 421.687C81.4378 422.697 88.7679 419.567 94.6479 417.747C102.668 415.267 111.848 412.227 120.298 411.707C123.418 411.517 126.148 411.957 128.158 414.497C130.778 417.817 127.748 421.707 125.708 424.457C121.188 430.537 113.988 435.647 111.728 443.137C109.868 449.307 112.478 459.777 117.288 464.387C121.728 468.647 127.928 467.227 133.438 466.637C151.088 464.757 182.038 482.267 189.738 495.117C190.318 496.067 191.318 496.127 192.148 495.527C205.678 485.717 217.998 471.557 235.038 468.327C235.178 478.337 238.318 490.847 249.128 493.387C256.128 495.027 261.748 491.117 265.918 485.687C265.938 490.597 267.078 495.437 269.858 499.907C275.508 509.017 287.168 511.887 297.168 512.037C297.728 512.047 298.338 511.587 298.578 511.097C300.218 507.817 301.778 504.577 302.578 501.067C303.848 502.127 304.898 503.547 306.618 503.987C307.408 504.197 308.218 503.907 308.598 503.137C310.238 499.877 311.838 496.677 314.808 494.547C317.178 497.497 318.238 498.797 322.488 496.257C327.158 493.467 331.908 490.827 336.798 488.437C345.048 484.417 359.208 477.757 367.778 484.087C372.968 487.917 375.348 494.847 381.028 498.067C387.128 501.527 392.688 496.327 396.628 491.587C402.178 503.087 413.908 508.257 425.948 502.867C427.308 506.177 429.848 509.297 432.098 511.727C432.518 512.177 433.188 512.197 433.718 512.007C445.698 507.787 456.658 499.017 460.388 486.677C469.378 489.797 479.018 492.317 488.448 489.897C497.468 487.587 502.778 479.297 506.018 471.077C518.178 479.057 533.698 484.987 547.148 476.607C558.148 469.757 562.888 456.367 564.608 443.817C568.688 448.987 574.248 452.907 581.198 452.607C589.638 452.237 595.148 444.447 598.078 437.397C604.258 422.517 592.528 409.427 587.088 395.897C594.558 397.977 601.778 396.327 607.388 389.907C614.248 382.077 615.708 371.847 617.588 362.037C619.168 353.807 620.008 344.037 614.778 336.877Z" fill="#1E1A1B"/>
                    <g id="Clip path group">
                        <g id="Mask group">
                            <mask id="mask0_12_1528" style="mask-type:luminance" maskUnits="userSpaceOnUse" x="31" y="58" width="588" height="455">
                                <g id="Group_2">
                                    <g id="SVGID_00000029759015381007586580000000558464106523312563_">
                                        <path id="Vector_2" d="M614.778 336.877C610.738 331.347 603.808 328.337 599.048 323.437C595.418 319.707 595.558 314.647 594.978 309.717C594.358 304.467 593.618 299.557 590.768 295.017C586.868 288.797 577.168 285.777 579.818 276.977C582.648 267.557 592.898 252.497 584.288 243.357C580.498 239.327 574.328 238.927 568.848 239.227C560.758 218.947 548.258 201.097 535.598 183.137C521.548 163.207 509.918 141.797 496.318 121.577C482.978 101.747 466.218 86.1169 443.288 78.2569C418.328 69.7069 391.268 70.7469 365.588 65.7469C358.668 64.4069 351.928 62.1869 344.958 60.9469C337.848 59.6869 330.718 58.8569 323.498 58.6369C308.968 58.1969 294.608 60.9369 280.728 65.0269C264.438 69.8269 248.618 76.3569 232.448 81.5969C216.368 86.8069 200.238 91.8468 184.458 97.8769C181.938 98.8369 182.808 105.137 185.718 104.017C196.208 100.017 206.828 96.3369 217.488 92.7769C214.968 94.9469 212.588 97.2669 210.178 99.5969C204.898 104.687 199.038 111.927 191.758 114.007C187.838 115.127 183.778 114.147 179.828 113.847C175.868 113.547 172.528 114.947 169.358 117.217C160.878 123.277 155.538 133.047 153.368 143.007C152.518 146.887 152.048 151.327 149.178 154.327C145.308 158.397 137.948 157.357 133.038 156.717C132.438 156.637 131.948 157.387 131.798 157.857C127.278 171.647 102.908 196.157 83.0278 192.667C81.2178 192.347 81.1279 196.667 82.7479 197.157C84.5179 197.687 92.2178 199.717 90.7978 202.017C89.0878 204.797 85.3879 206.787 82.7579 208.537C77.4879 212.047 69.5579 216.047 67.8579 222.717C65.5879 231.577 75.7078 237.927 80.4178 244.017C89.9278 256.297 73.2079 262.387 67.9479 271.307C67.3379 272.337 67.2679 274.777 68.7279 275.237C68.2579 275.087 69.0878 276.707 69.2778 277.347C69.7178 278.867 70.0879 280.407 70.4579 281.947C71.2479 285.157 71.9879 288.397 72.9479 291.557C73.2079 292.437 73.6978 293.577 74.2778 294.557C72.2478 297.287 68.9378 298.737 66.0478 300.757C63.0578 302.857 61.2379 305.127 59.4679 308.257C57.3879 311.917 53.6579 314.717 51.1479 318.097C48.8579 321.197 47.5479 325.197 49.7279 328.697C51.2379 331.127 54.3279 332.307 57.7179 332.877C49.4179 336.527 41.3778 341.197 35.6878 348.027C27.0978 358.347 31.3579 370.137 40.0879 378.707C50.2979 388.747 62.5978 391.637 76.3078 393.037C78.0878 393.227 83.9779 393.327 84.0879 395.977C84.1779 398.417 82.5378 401.317 81.5278 403.427C79.2778 408.137 76.5079 412.607 73.7679 417.047C72.8679 418.517 73.1578 421.357 75.1578 421.687C81.4378 422.697 88.7679 419.567 94.6479 417.747C102.668 415.267 111.848 412.227 120.298 411.707C123.418 411.517 126.148 411.957 128.158 414.497C130.778 417.817 127.748 421.707 125.708 424.457C121.188 430.537 113.988 435.647 111.728 443.137C109.868 449.307 112.478 459.777 117.288 464.387C121.728 468.647 127.928 467.227 133.438 466.637C151.088 464.757 182.038 482.267 189.738 495.117C190.318 496.067 191.318 496.127 192.148 495.527C205.678 485.717 217.998 471.557 235.038 468.327C235.178 478.337 238.318 490.847 249.128 493.387C256.128 495.027 261.748 491.117 265.918 485.687C265.938 490.597 267.078 495.437 269.858 499.907C275.508 509.017 287.168 511.887 297.168 512.037C297.728 512.047 298.338 511.587 298.578 511.097C300.218 507.817 301.778 504.577 302.578 501.067C303.848 502.127 304.898 503.547 306.618 503.987C307.408 504.197 308.218 503.907 308.598 503.137C310.238 499.877 311.838 496.677 314.808 494.547C317.178 497.497 318.238 498.797 322.488 496.257C327.158 493.467 331.908 490.827 336.798 488.437C345.048 484.417 359.208 477.757 367.778 484.087C372.968 487.917 375.348 494.847 381.028 498.067C387.128 501.527 392.688 496.327 396.628 491.587C402.178 503.087 413.908 508.257 425.948 502.867C427.308 506.177 429.848 509.297 432.098 511.727C432.518 512.177 433.188 512.197 433.718 512.007C445.698 507.787 456.658 499.017 460.388 486.677C469.378 489.797 479.018 492.317 488.448 489.897C497.468 487.587 502.778 479.297 506.018 471.077C518.178 479.057 533.698 484.987 547.148 476.607C558.148 469.757 562.888 456.367 564.608 443.817C568.688 448.987 574.248 452.907 581.198 452.607C589.638 452.237 595.148 444.447 598.078 437.397C604.258 422.517 592.528 409.427 587.088 395.897C594.558 397.977 601.778 396.327 607.388 389.907C614.248 382.077 615.708 371.847 617.588 362.037C619.168 353.807 620.008 344.037 614.778 336.877Z" fill="white"/>
                                    </g>
                                </g>
                            </mask>
                            <g mask="url(#mask0_12_1528)">
                                <g id="Group_3">
                                    <g id="Group_2_2">
                                        <g id="Group_3_2">
                                            <path id="Vector_3" d="M37.2585 450.85C10.1765 444.655 12.7205 396.602 34.8215 385.95C41.6145 382.676 50.1075 383.244 57.4615 382.969C65.0525 382.684 71.0385 379.658 76.9825 375.064C83.4985 370.028 91.2574 364.126 95.0114 356.586C98.6774 349.223 96.3434 340.937 93.2924 333.82C92.6664 334.826 92.0405 335.833 91.4145 336.84C99.6735 342.671 109.244 344.035 119.143 344.127C120.44 344.139 120.592 342.213 120.455 341.333C118.031 325.794 114.453 308.898 106.07 295.371C105.761 296.627 105.451 297.883 105.143 299.14C109.668 298.374 114.444 298.785 119.016 298.671C122.912 298.574 129.114 298.842 132.336 296.119C142.989 287.115 130.911 275.231 130.432 264.914C130.001 265.607 129.57 266.299 129.14 266.992C138.225 266.338 146.497 272.803 155.442 268.653C156.775 268.034 156.434 264.739 154.738 265.242C145.74 267.908 137.929 262.274 129.04 262.903C128.079 262.971 127.711 264.178 127.748 264.981C127.944 269.262 129.42 273.106 131.079 277.014C133.237 282.101 136.8 289.786 129.947 293.055C122.559 296.579 112.886 293.501 105.037 294.755C103.369 295.021 103.432 297.41 104.111 298.524C112.015 311.482 115.359 327.741 117.725 342.562C118.163 341.631 118.6 340.7 119.038 339.768C109.732 339.731 100.547 338.553 92.7664 333.055C90.9904 331.8 90.3975 334.929 90.8885 336.075C93.0575 341.142 95.0385 346.643 93.4345 352.157C92.2015 356.395 88.7165 359.716 85.5965 362.635C78.8625 368.935 71.1384 376.537 61.7144 378.199C54.0134 379.556 46.1185 378.511 38.4045 380.26C32.3015 381.643 27.4065 385.523 23.6385 390.384C10.4485 407.398 10.3864 448.869 37.1204 453.082C38.0104 453.22 38.0885 451.04 37.2585 450.85Z" fill="#4B4849"/>
                                        </g>
                                        <g id="Group_4">
                                            <path id="Vector_4" d="M48.0811 244.732C46.7991 244.433 45.5351 244.074 44.2881 243.654C44.4351 244.395 44.582 245.135 44.729 245.876C49.159 238.024 53.5841 231.068 60.9671 225.598C64.6131 222.897 68.9671 221.194 73.5191 221.219C79.6601 221.253 82.024 225.58 83.973 230.62C86.467 237.068 90.8041 240.985 97.6631 237.017C103.918 233.398 106.623 225.527 110.337 219.754C109.44 219.601 108.544 219.448 107.647 219.294C109.649 225.24 114.507 230.534 120.53 232.504C127.611 234.82 131.436 228.563 132.754 222.599C131.81 223.006 130.866 223.413 129.921 223.82C131.668 226.069 134.359 227.499 135.923 229.817C137.054 231.495 138.456 229.932 138.751 228.598C139.797 223.87 141.711 219.592 143.455 215.106C144.047 213.581 142.369 209.934 140.949 212.303C138.197 216.893 136.575 222.096 135.422 227.295C136.365 226.889 137.308 226.482 138.25 226.076C136.638 223.682 134.023 222.357 132.252 220.073C131.042 218.512 129.739 219.853 129.419 221.294C126.544 234.258 113.139 224.312 110.526 216.6C110.084 215.297 108.612 214.927 107.836 216.14C104.07 222.022 100.984 231.815 93.2921 233.475C88.1591 234.582 86.8301 228.418 85.2521 224.864C83.7391 221.454 81.7041 219.189 78.2461 217.778C63.5861 211.796 46.6611 232.002 43.3131 244.292C43.1311 244.96 43.2711 246.576 44.3511 246.229C45.5801 245.812 46.8271 245.456 48.0921 245.163C48.2861 245.137 48.2701 244.756 48.0811 244.732Z" fill="#4B4849"/>
                                        </g>
                                        <g id="Group_5">
                                            <path id="Vector_5" d="M154.273 355.756C147.504 354.264 140.17 354.802 138.384 362.741C136.711 370.176 139.596 377.564 143.72 383.648C146.246 387.374 149.962 390.239 153.294 393.195C154.949 394.663 156.641 396.225 157.633 398.235C159.212 401.431 154.486 404.893 152.482 406.669C148.744 409.979 141.859 409.4 137.243 409.479C132.559 409.558 127.539 409.571 123.394 412.031C117.737 415.388 114.522 422.187 119.273 427.528C121.555 430.092 124.552 432.116 125.447 435.619C127.16 442.321 120.087 444.648 115.081 445.276C111.28 445.753 107.314 445.543 103.596 446.573C98.4776 447.99 93.9735 450.279 89.6775 453.372C86.0735 455.966 82.8506 459.06 79.3376 461.772C74.7006 465.352 69.3566 467.52 63.7806 469.181C62.7456 469.462 61.7236 469.785 60.7146 470.149C59.3486 470.61 59.6006 473.782 61.1316 473.823C71.5486 474.097 79.6466 467.668 87.1416 461.259C90.9156 458.031 94.8085 455.181 99.3545 453.129C104.133 450.972 109.029 450.729 114.147 450.231C122.498 449.418 128.316 445.795 128.669 436.853C128.798 433.581 127.234 430.455 125.211 428C123.34 425.729 118.753 423.308 120.795 420.182C126.759 411.048 140.971 415.394 149.953 412.833C156.986 410.828 163.328 402.186 159.836 395.074C158.196 391.734 154.905 389.259 152.177 386.863C148.188 383.357 144.76 379.571 142.635 374.651C141.048 370.978 140.27 366.702 141.56 362.841C143.286 357.675 149.706 357.417 154.116 358.179C155.08 358.344 155.181 355.956 154.273 355.756Z" fill="#4B4849"/>
                                        </g>
                                        <g id="Group_6">
                                            <path id="Vector_6" d="M209.511 405.552C206.961 398.478 198.121 399.051 193.786 404.228C189.244 409.651 191.714 416.937 196.605 420.951C201.275 424.784 215.493 429.184 213.03 437.037C210.592 444.812 196.627 441.477 191.271 446.684C187.182 450.661 183.488 456.31 186.675 461.909C189.159 466.272 195.84 467.921 199.983 470.093C202.328 471.322 205.004 473.16 205.667 475.881C206.566 479.574 201.973 483.166 199.637 485.271C192.283 491.898 183.663 497.029 175.716 502.893C173.145 504.79 170.799 506.741 169.046 509.44C168.267 510.64 168.979 514.202 170.854 512.801C177.612 507.754 184.502 502.896 191.293 497.892C197.443 493.361 205.602 487.938 208.129 480.296C212.674 466.554 194.156 466.249 188.872 458.378C187.294 456.028 192.68 451.382 193.981 450.11C196.86 447.293 202.906 447.664 206.606 446.875C213.517 445.401 218.897 438.622 216.109 431.398C213.398 424.374 205.399 421.537 199.596 417.64C196.057 415.264 193.122 412.085 195.65 407.694C198.092 403.451 205.791 402.387 208.749 406.494C209.288 407.243 209.679 406.017 209.511 405.552Z" fill="#4B4849"/>
                                        </g>
                                        <g id="Group_7">
                                            <path id="Vector_7" d="M253.466 431.866C259.284 427.879 262.218 433.89 264.481 438.391C266.643 442.692 265.854 447.804 264.512 452.2C262.403 459.11 258.008 465.304 253.791 471.077C252.891 472.309 253.191 475.589 255.152 475.638C260.017 475.759 267.028 475.365 271.104 478.598C272.665 479.836 266.644 484.725 265.718 485.515C258.543 491.632 249.975 496.072 243.09 502.531C241.685 503.849 241.908 507.508 244.155 507.773C249.155 508.363 256.097 509.142 259.255 513.687C261.589 517.048 256.562 522.181 254.506 524.309C246.426 532.674 235.641 537.468 225.714 543.148C224.64 543.763 224.464 547.083 226.131 546.822C239.048 544.801 253.89 534.759 260.7 523.522C262.989 519.746 264.063 514.721 261.805 510.682C258.437 504.655 250.186 503.166 244.015 502.122C244.37 503.869 244.725 505.617 245.08 507.364C253.931 499.77 265.057 494.262 272.425 485.059C274.717 482.196 275.838 478.013 273.414 474.885C269.721 470.119 260.229 470.46 255.018 470.257C255.472 471.777 255.926 473.298 256.379 474.818C263.37 466.164 269.608 455.252 269.056 443.771C268.691 436.185 261.017 421.109 252.704 430.028C252.151 430.627 252.446 432.564 253.466 431.866Z" fill="#4B4849"/>
                                        </g>
                                        <g id="Group_8">
                                            <path id="Vector_8" d="M525.412 255.683C524.159 265.231 525.764 277.157 534.806 282.641C544.733 288.663 556.266 284.187 564.995 278.151C564.154 277.658 563.313 277.165 562.472 276.672C564.573 284.902 568.907 292.949 576.607 297.105C585.557 301.935 593.348 294.088 597.348 286.769C596.354 286.176 595.361 285.583 594.368 284.989C594.871 293.539 596.481 302.32 602.547 308.755C607.231 313.725 614.413 314.812 620.884 313.992C636.039 312.073 653.375 300.377 660.99 287.251C661.557 286.273 660.972 282.954 659.426 284.343C648.81 293.89 638.687 303.542 624.535 307.522C618.686 309.167 611.899 309.396 606.621 305.99C599.778 301.573 598.189 292.386 597.806 284.905C597.735 283.513 596.038 280.952 594.826 283.125C591.319 289.41 586.009 295.026 578.321 292.265C571.475 289.807 567.377 281.782 565.702 275.222C565.382 273.969 564.462 272.855 563.179 273.743C555.947 278.744 546.871 282.46 538.184 279.133C528.954 275.598 526.798 264.657 526.78 255.931C526.776 254.889 525.568 254.488 525.412 255.683Z" fill="#4B4849"/>
                                        </g>
                                        <g id="Group_9">
                                            <path id="Vector_9" d="M544.398 314.362C540.391 322.767 535.558 333.959 537.754 343.493C540.458 355.227 554.658 347.213 560.607 343.465C559.927 342.196 559.247 340.928 558.567 339.659C555.063 348.354 552.643 359.412 553.944 368.788C554.337 371.621 555.441 375.817 558.83 376.299C563.383 376.946 567.62 371.246 570.049 368.283C569.13 367.519 568.211 366.755 567.292 365.99C567.744 373.072 566.602 380.838 568.868 387.684C571.004 394.138 576.49 397.223 582.939 398.359C593.368 400.197 604.345 398.559 614.639 396.582C624.49 394.69 634.317 392.078 642.684 386.399C643.704 385.707 643.234 382.859 641.748 383.315C624.726 388.549 607.502 393.185 589.54 393.021C583.387 392.965 575.006 391.895 572.317 385.446C569.934 379.731 571.127 371.948 570.878 365.902C570.834 364.825 569.543 361.973 568.122 363.609C566.035 366.011 562.713 370.617 559.097 370.552C557.111 370.516 557.368 365.309 557.355 364.198C557.269 356.885 558.866 349.004 561.604 342.233C562.002 341.248 561.451 337.242 559.564 338.427C555.244 341.14 542.059 349.712 540.439 340.095C539.107 332.197 543.166 322.788 545.774 315.529C546.145 314.507 545.08 312.932 544.398 314.362Z" fill="#4B4849"/>
                                        </g>
                                        <g id="Group_10">
                                            <path id="Vector_10" d="M536.208 384.172C528.821 381.54 522.538 395.786 521.421 400.768C520.408 405.285 520.623 410.45 523.83 414.073C528.534 419.388 536.847 418.76 543.157 417.78C542.679 416.179 542.201 414.578 541.724 412.978C538.839 418.878 531.388 431.272 536.804 437.803C542.028 444.101 555.787 435.42 560.69 432.867C559.902 431.397 559.114 429.927 558.326 428.456C554.506 440.902 541.153 470.011 561.407 475.708C569.64 478.024 579.1 473.883 586.365 470.4C593.467 466.994 602.556 462.619 607.727 456.502C608.316 455.805 608.654 452.896 607.042 453.133C601.373 453.966 595.616 458.468 590.607 461.119C583.513 464.874 575.765 468.495 567.686 469.263C545.824 471.34 558.551 441.989 561.848 431.441C562.233 430.208 561.83 425.829 559.484 427.03C554.524 429.569 546.091 435.063 540.138 433.658C536.004 432.681 543.599 418.628 544.45 416.919C545.006 415.804 545.298 411.786 543.017 412.117C534.384 413.37 522.316 413.048 524.744 401.373C525.522 397.63 527.473 393.97 529.629 390.852C530.782 389.183 533.489 384.895 535.966 385.725C536.707 385.97 536.841 384.397 536.208 384.172Z" fill="#4B4849"/>
                                        </g>
                                        <g id="Group_11">
                                            <path id="Vector_11" d="M510.067 418.146C501.277 416.923 497.084 429.038 495.79 435.766C495.044 439.645 495.008 444.463 497.556 447.725C500.668 451.709 506.027 449.68 509.647 447.664C509.006 446.102 508.365 444.541 507.724 442.979C503.352 451.383 495.574 458.89 496.06 468.997C496.104 469.922 496.485 471.688 497.621 471.937C506.312 473.842 513.767 470.065 521.719 467.009C520.842 466.287 519.965 465.566 519.088 464.844C520.658 474.806 519.538 485.632 523.625 495.068C528.724 506.836 541.072 504.917 550.389 499.408C551.243 498.904 551.41 496.191 550.05 496.423C540.901 497.984 530.373 499.831 526.588 489.281C523.64 481.066 524.447 471.591 523.086 463.048C522.893 461.835 521.848 460.344 520.455 460.883C513.388 463.62 506.363 467.362 498.553 465.955C499.074 466.935 499.594 467.915 500.114 468.895C499.527 460.884 506.879 453.589 510.45 446.913C511.064 445.766 510.948 440.925 508.527 442.228C506.217 443.471 502.479 445.563 500.051 443.505C498.16 441.903 499.029 437.617 499.373 435.606C500.128 431.191 504.017 419.054 510.107 419.745C510.797 419.826 510.778 418.245 510.067 418.146Z" fill="#4B4849"/>
                                        </g>
                                    </g>
                                </g>
                            </g>
                        </g>
                    </g>
                </g>
                <animateTransform attributeName="transform" type="rotate" values="0 100 100;1 100 100;0 100 100" dur="1.5s" repeatCount="indefinite" />
            </g>
            <g id="braco_esq" transform="rotate(0 100 100)">
                <g id="Group_12">
                    <g id="Group_13">
                        <path id="Vector_12" d="M719.534 518.919C668.632 508.605 676.725 453.114 666.106 454.107C658.248 454.845 655.919 489.209 666.296 505.756C676.672 522.302 729.938 521.028 719.534 518.919Z" fill="#441C23"/>
                    </g>
                    <g id="Group_14">
                        <path id="Vector_13" d="M763.003 612.33L768.118 549.303C768.118 549.303 691.395 539.639 683.619 531.507C675.84 523.375 623.961 446.345 639.872 446.698C655.782 447.052 674.212 501.054 686.795 503.138C699.377 505.222 751.552 511.581 752.162 503.317C752.769 495.053 707.713 454.892 725.593 452.532C743.473 450.169 755.962 480.374 768.175 484.678C780.388 488.982 809.022 508.931 810.395 523.608C811.767 538.283 808.89 619.93 808.89 619.93L763.003 612.33Z" fill="#703622"/>
                    </g>
                </g>
                <g id="Group_15">
                    <path id="Vector_14" d="M491.644 677.881C501.395 725.894 536.28 762.653 536.28 762.653C536.28 762.653 772.702 889.614 790.598 879.546C844.176 849.408 820.722 591.608 820.722 591.608L757.987 593.858C757.987 593.858 750.105 743.918 739.761 744.039C732.158 744.128 639.406 667.893 579.791 629.492C558.3 615.649 489.018 577.45 489.018 577.45C489.018 577.45 473.362 587.885 491.644 677.881Z" fill="#CBD4EF"/>
                    <path id="Vector_15" d="M742.6 740.304C741.679 742.7 740.731 744.029 739.762 744.04C738.039 744.06 731.93 740.15 722.836 733.658C724.738 738.418 727.333 743.016 729.557 747.503C732.321 753.074 735.036 758.691 737.483 764.41C742.885 777.037 745.829 790.243 749.204 803.496C749.688 805.394 753.267 803.746 753.392 802.251C754.598 788.001 750.764 774.354 744.966 761.44C742.416 755.757 739.471 750.286 736.416 744.862C739.387 748.25 742.271 751.721 744.992 755.353C750.72 762.999 756.174 770.934 760.625 779.402C764.426 786.635 767.494 794.209 771.261 801.441C772.189 803.221 776.127 802.002 775.982 800.037C774.696 782.807 763.164 765.909 752.813 752.651C749.562 748.488 746.169 744.329 742.6 740.304Z" fill="#C0C9DF"/>
                    <path id="Vector_16" d="M745.511 728.966C745.09 731.137 744.664 733.114 744.229 734.873C749.667 739.108 753.904 744.408 757.35 750.902C761.471 758.671 764.21 767.498 769.477 774.584C770.564 776.045 774.628 774.509 774.331 772.658C771.801 756.858 761.715 735.362 745.511 728.966Z" fill="#C0C9DF"/>
                </g>
                <animateTransform attributeName="transform" type="rotate" values="0 100 100;1 100 100;0 100 100" dur="1.5s" repeatCount="indefinite" />
            </g>
            <g id="corpo">
                <g id="Group_16">
                    <g id="Group_17">
                        <path id="Vector_17" d="M581.601 2121.5L567.311 2115.57L592.822 2013.76L615.592 2034.49L581.601 2121.5Z" fill="#1A1020"/>
                        <path id="Vector_18" d="M681.372 2117.43C680.117 2112.06 673.623 2108.03 671.876 2103.13C666.601 2088.35 666.48 2071.66 664.889 2053.99C663.2 2035.24 661.45 2023.22 657.847 1998.88C653.91 1972.28 695.476 1930.74 704.36 1906.4C712.293 1882.89 697.355 1873.48 669 1868.41C663.372 1867.29 673.049 1875.54 666.989 1875.46L664.76 1880.82C657.906 1901.74 642.914 1893.29 631.19 1923.85C611.298 1975.7 596.038 1989.35 590.927 2000.25C590.523 2003.53 590.382 2006.74 589.911 2009.37C589.726 2010.4 589.603 2011.42 589.525 2012.43C591.586 2026.04 596.061 2037.05 596.994 2050.91C597.034 2051.4 597.067 2051.89 597.092 2052.39C598.248 2076.02 591.092 2098.64 596.23 2121.48C596.731 2123.9 597.434 2126.21 598.297 2128.43L666.048 2156.56C676.763 2150.83 685.771 2136.59 681.372 2117.43Z" fill="#703622"/>
                        <path id="Vector_19" d="M688.761 2120.5C687.506 2115.13 673.623 2108.03 671.876 2103.14C667.85 2091.85 666.826 2079.46 665.859 2066.37C662.501 2074.45 664.958 2087.87 665.394 2094.29C666.252 2106.89 661.924 2104.01 642.409 2097.81C617.295 2089.82 612.838 2079.03 613.191 2062.53C613.544 2046.02 614.499 2026.11 610.179 2010.1C607.696 2001.39 603.568 1994.52 597.918 1989.03C591.547 1998.4 588.257 2003.01 589.251 2010.56C591.225 2025.55 596.364 2037.18 597.091 2052.39C598.247 2076.02 591.091 2098.64 596.229 2121.49C596.73 2123.9 597.433 2126.22 598.296 2128.43L673.436 2159.63C684.153 2153.9 693.161 2139.66 688.761 2120.5Z" fill="#1C1037"/>
                        <path id="Vector_20" d="M668.999 1868.41C663.371 1867.29 673.048 1875.54 666.988 1875.46L664.759 1880.82C657.905 1901.74 642.913 1893.29 631.189 1923.85C626.605 1935.8 622.268 1945.71 618.244 1954.03L662.089 1976.9C672.463 1952.8 697.671 1924.72 704.36 1906.4C712.292 1882.89 697.355 1873.48 668.999 1868.41Z" fill="#441C23"/>
                    </g>
                    <g id="Group_18">
                        <path id="Vector_21" d="M475.891 2124.47L460.809 2121.02L468.898 2016.38L494.82 2032.99L475.891 2124.47Z" fill="#1A1020"/>
                        <path id="Vector_22" d="M573.568 2103.74C571.43 2098.66 564.353 2095.77 561.81 2091.24C554.133 2077.55 551.217 2061.11 546.687 2043.96C541.879 2025.76 537.619 2021.98 539.098 1999.01C540.403 1978.74 552.596 1966.91 562.245 1952.17C570.171 1940.06 586.83 1905.68 593.624 1879.08C590.865 1869.62 583.781 1863.35 568.645 1863.22C568.152 1863.21 567.618 1863.21 567.061 1863.21L553.785 1870.98C552.279 1881.06 546.091 1888.4 538.913 1896.47C532.103 1908.38 524.403 1920.41 519.941 1932.11C517.533 1938.43 514.609 1942.4 509.947 1948.03C502.852 1962.47 492.423 1974.83 478.873 1986.59C476.814 1988.37 472.759 1993.37 472.759 1993.37C472.759 1993.37 466.917 1998.22 464.855 2004.94C465.034 2007.68 465.312 2010.29 465.293 2012.53C465.283 2013.52 465.327 2014.5 465.41 2015.46C469.975 2028.54 476.02 2038.77 479.254 2052.36C479.371 2052.82 479.48 2053.28 479.582 2053.75C484.681 2076.85 481.418 2100.34 490.31 2122C491.21 2124.3 492.289 2126.47 493.512 2128.51L565.018 2144.88C574.623 2137.44 581.115 2121.89 573.568 2103.74Z" fill="#703622"/>
                        <path id="Vector_23" d="M561.809 2091.24C555.95 2080.79 552.864 2068.74 549.717 2056C547.76 2064.53 552.432 2077.35 553.938 2083.6C556.896 2095.89 552.146 2093.77 531.866 2090.92C505.768 2087.25 499.567 2077.37 497.15 2061.04C494.732 2044.71 492.338 2024.92 485.396 2009.86C482.104 2002.98 477.872 1997.59 472.743 1993.38C472.423 1993.65 461.278 2003.09 464.843 2013.82C469.611 2028.16 476.316 2038.87 479.581 2053.74C484.68 2076.85 481.416 2100.34 490.308 2122C491.208 2124.3 492.288 2126.47 493.511 2128.51L576.713 2147.56C586.319 2140.12 592.812 2124.57 585.265 2106.42C583.127 2101.34 564.352 2095.77 561.809 2091.24Z" fill="#1C1037"/>
                        <path id="Vector_24" d="M586.296 1844.95C580.561 1844.79 581.985 1857.04 575.999 1857.98L553.783 1870.98C550.53 1892.75 525.451 1901.72 515.699 1932.97C513.972 1938.5 512.069 1943.46 509.945 1948.03L551.104 1968.01C554.708 1962.74 558.652 1957.66 562.244 1952.17C575.832 1931.41 615.1 1845.2 586.296 1844.95Z" fill="#441C23"/>
                    </g>
                    <path id="Vector_25" d="M525.709 1920.49L528.235 1920.75L548.887 1873.54L525.709 1920.49Z" fill="#F4A280"/>
                    <path id="Vector_26" d="M738.401 1267.06C574.217 1260.02 561.157 1258.16 561.157 1258.16C561.157 1258.16 551.829 1163 544.364 1138.75C536.901 1114.49 514.515 1067.85 514.515 1067.85C514.515 1067.85 458.541 1038 404.435 1038C350.329 1038 275.697 1056.66 242.116 1064.12C208.532 1071.58 165.62 1079.05 165.62 1079.05C165.62 1079.05 27.5576 1467.12 221.595 1491.37C415.63 1515.63 743.999 1478.31 743.999 1478.31L496.748 1931.53L574.993 1961.07L680.561 1808.55L1063.04 1338.27C1042.52 1299.2 902.586 1274.1 738.401 1267.06Z" fill="#211740"/>
                    <path id="Vector_27" d="M561.156 1258.15C561.156 1258.15 560.968 1256.24 560.625 1252.88C491.354 1253.07 421.712 1255.02 353.23 1266.02C349.656 1266.6 351.179 1272.02 354.726 1271.45C424.141 1260.3 494.818 1258.62 565.02 1258.5C561.866 1258.26 561.156 1258.15 561.156 1258.15Z" fill="#1C1037"/>
                    <path id="Vector_28" d="M746.971 1483.58C749.169 1483.04 751.285 1482.41 753.203 1481.86C761.481 1479.46 769.555 1476.16 777.646 1473.2C785.916 1470.17 794.026 1466.8 801.76 1462.58C808.419 1458.94 816.623 1454.09 818.847 1446.38C819.204 1445.14 819.143 1441.52 816.984 1441.78C814.149 1442.11 812.244 1443.66 810.029 1445.36C806.72 1447.89 803.218 1450.15 799.633 1452.27C792.459 1456.5 784.716 1459.74 777.08 1463.02C776.737 1463.17 776.393 1463.31 776.051 1463.46C784.57 1455.87 791.673 1446.8 794.034 1435.91C794.246 1434.93 793.228 1433.17 792.327 1434.47C781.714 1449.82 767.798 1461.04 751.853 1470.55C747.903 1472.91 743.851 1475.09 739.762 1477.21C744.964 1473.24 749.904 1468.88 754.638 1464.29C761.321 1457.81 767.258 1450.55 772.721 1443.03C778.095 1435.63 781.097 1426.83 786.667 1419.55C787.318 1418.7 786.926 1415.57 785.34 1416.32C778.424 1419.61 775.152 1427.39 771.383 1433.6C766.393 1441.83 759.484 1449.11 752.741 1455.92C743.421 1465.32 732.655 1473 721.889 1480.65C736.045 1479.22 743.998 1478.31 743.998 1478.31L738.57 1488.26C741.411 1486.76 744.212 1485.19 746.971 1483.58Z" fill="#1C1037"/>
                    <path id="Vector_29" d="M1066.06 1337.53C1059.72 1319.8 1031.56 1257.21 738.402 1267.06C738.402 1267.06 909.559 1283.61 954.06 1321.03C987.839 1349.43 956.067 1422.34 931.81 1450.33C907.558 1478.31 885.167 1536.15 845.988 1593.27C823.136 1626.58 745.366 1724.06 680.562 1808.55L612.223 1937.56L679.06 1961.07C679.06 1961.07 910.05 1650.39 949.229 1593.27C988.409 1536.15 1010.8 1478.31 1035.05 1450.33C1059.31 1422.34 1074.39 1360.86 1066.06 1337.53Z" fill="#1C1037"/>
                </g>
                <g id="Group_19">
                    <g id="Group_20">
                        <g id="Clip path group_2">
                            <g id="Mask group_2">
                                <mask id="mask1_12_1528" style="mask-type:luminance" maskUnits="userSpaceOnUse" x="239" y="445" width="249" height="265">
                                    <g id="Group_21">
                                        <g id="SVGID_00000159457387896984519470000011880413159210487978_">
                                            <path id="Vector_30" d="M416.925 546.928C398.629 519.791 407.111 448.508 407.111 448.508L321.111 445.887C321.111 445.887 329.592 517.169 311.297 544.306C294.957 568.539 239.818 574.165 239.818 574.165C239.818 574.165 246.383 709.427 364.111 709.014C469.575 708.645 487.87 577.665 487.87 577.665C487.87 577.665 433.265 571.16 416.925 546.928Z" fill="white"/>
                                        </g>
                                    </g>
                                </mask>
                                <g mask="url(#mask1_12_1528)">
                                    <g id="Group_22">
                                        <g id="Group_21_2">
                                            <path id="Vector_31" d="M416.925 546.928C398.629 519.791 407.111 448.508 407.111 448.508L321.111 445.887C321.111 445.887 329.592 517.169 311.297 544.306C294.957 568.539 239.818 574.165 239.818 574.165C239.818 574.165 246.383 709.427 364.111 709.014C469.575 708.645 488.405 576.786 488.405 576.786C488.405 576.786 433.265 571.16 416.925 546.928Z" fill="#703622"/>
                                        </g>
                                    </g>
                                </g>
                            </g>
                        </g>
                        <g id="Clip path group_3">
                            <g id="Mask group_3">
                                <mask id="mask2_12_1528" style="mask-type:luminance" maskUnits="userSpaceOnUse" x="239" y="445" width="249" height="265">
                                    <g id="Group_23">
                                        <g id="SVGID_00000159457387896984519470000011880413159210487978__2">
                                            <path id="Vector_32" d="M416.925 546.928C398.629 519.791 407.111 448.508 407.111 448.508L321.111 445.887C321.111 445.887 329.592 517.169 311.297 544.306C294.957 568.539 239.818 574.165 239.818 574.165C239.818 574.165 246.383 709.427 364.111 709.014C469.575 708.645 487.87 577.665 487.87 577.665C487.87 577.665 433.265 571.16 416.925 546.928Z" fill="white"/>
                                        </g>
                                    </g>
                                </mask>
                                <g mask="url(#mask2_12_1528)">
                                    <g id="Group_24">
                                        <g id="Group_22_2">
                                            <path id="Vector_33" d="M446.256 457.389C446.256 483.802 433.359 514.46 397.727 514.46C362.095 514.46 312.238 496.705 312.238 470.291C312.238 443.878 346.106 409.563 381.739 409.563C417.371 409.564 446.256 430.976 446.256 457.389Z" fill="#441C23"/>
                                        </g>
                                    </g>
                                </g>
                            </g>
                        </g>
                    </g>
                    <g id="Group_23_2">
                        <path id="Vector_34" d="M508.608 257.008C510.944 111.619 458.04 56.4109 363.142 56.4109H363.141C268.244 56.4109 200.457 106.537 200.457 256.347C200.457 267.685 201.295 278.717 202.852 289.432C196.956 285.795 189.859 283.463 185.185 282.902C167.931 281.402 159.303 299.406 159.303 314.41C158.928 342.918 181.81 382.303 212.568 385.305C222.081 386.362 229.692 383.611 235.088 378.454C281.916 456.167 364.713 500.887 409.496 494.694C429.009 491.995 489.673 459.62 513.903 379.509C524.788 343.521 508.093 289.126 508.608 257.008Z" fill="#703622"/>
                        <g id="Group_24_2">
                            <path id="Vector_35" d="M429.088 370.947C441.01 370.947 445.466 367.382 453.551 358.859C445.84 373.405 445.088 379.947 426.088 380.447C418.688 380.642 395.227 372.04 387.588 357.447C395.679 366.021 417.126 370.947 429.088 370.947Z" fill="#441C23"/>
                        </g>
                        <path id="Vector_36" d="M373.915 359.184C372.393 370.054 356.564 376.821 338.563 374.3C320.561 371.779 307.202 360.922 308.724 350.053C310.247 339.183 326.075 332.415 344.077 334.937C362.077 337.458 375.438 348.314 373.915 359.184Z" fill="#862C2C"/>
                        <path id="Vector_37" d="M489.338 321.66C471.337 324.182 457.976 335.037 459.499 345.907C461.021 356.777 476.85 363.544 494.852 361.023C504.13 359.723 512.168 356.207 517.578 351.618C517.657 343.212 517.075 334.463 516.161 325.678C509.548 321.875 499.814 320.192 489.338 321.66Z" fill="#862C2C"/>
                        <g id="Group_25">
                            <g id="Group_26">
                                <path id="Vector_38" d="M297.714 247.096C307.244 243.59 315.631 242.412 326.099 241.944C335.092 241.543 345.406 244.878 353.137 248.994C359.117 252.178 372.278 264.395 376.658 265.418C382.649 266.816 383.713 262.011 383.477 259.054C382.698 249.363 371.358 242.282 362.325 237.559C352.35 232.342 339.113 230.103 327.59 230.119C304.632 230.149 281.29 242.667 270.104 259.289C269.435 260.283 269.559 261.35 271.351 260.788C271.351 260.788 288.56 250.467 297.714 247.096Z" fill="#0B1117"/>
                            </g>
                        </g>
                        <g id="Group_27">
                            <g id="Group_28">
                                <path id="Vector_39" d="M342.001 282.39C310.615 274.98 330.909 318.208 329.519 321.158C298.043 317.863 293.092 296.392 293.092 296.392C293.092 296.392 304.262 259.348 341.547 264.999C371.415 269.526 374.271 301.26 374.271 309.026C369.661 298.301 359.808 286.594 342.001 282.39Z" fill="#231F20"/>
                            </g>
                            <g id="Group_29">
                                <path id="Vector_40" d="M374.719 315.012C374.719 315.012 376.814 288.716 344.001 279.68C306.148 269.257 301.334 301.077 301.334 301.077C301.334 301.077 308.667 317.68 332.013 321.767C356.483 326.052 374.719 315.012 374.719 315.012Z" fill="white"/>
                            </g>
                            <g id="Group_30">
                                <path id="Vector_41" d="M308.584 292.707C307.123 306.66 317.25 319.154 331.201 320.615C345.156 322.076 357.652 311.95 359.112 297.998C360.574 284.043 350.447 271.548 336.493 270.087C322.538 268.626 310.044 278.753 308.584 292.707Z" fill="#231F20"/>
                            </g>
                            <g id="Group_31">
                                <path id="Vector_42" d="M314.966 279.011C313.009 282.017 312.807 285.353 314.516 286.464C316.222 287.575 319.192 286.039 321.149 283.033C323.104 280.028 323.305 276.69 321.597 275.579C319.89 274.469 316.921 276.005 314.966 279.011Z" fill="white"/>
                            </g>
                            <g id="Group_32">
                                <path id="Vector_43" d="M316.27 291.594C316.124 292.993 317.138 294.246 318.537 294.392C319.935 294.539 321.187 293.523 321.335 292.125C321.481 290.726 320.466 289.474 319.067 289.328C317.668 289.181 316.417 290.196 316.27 291.594Z" fill="white"/>
                            </g>
                        </g>
                        <g id="Group_33">
                            <g id="Group_34">
                                <path id="Vector_44" d="M468.372 276.72C495.22 269.803 477.86 310.153 479.049 312.906C505.973 309.83 510.209 289.789 510.209 289.789C510.209 289.789 500.654 255.212 468.76 260.486C443.211 264.712 440.768 294.332 440.768 301.581C444.711 291.572 453.139 280.644 468.372 276.72Z" fill="#231F20"/>
                            </g>
                            <g id="Group_35">
                                <path id="Vector_45" d="M440.382 307.17C440.382 307.17 438.59 282.626 466.658 274.191C499.037 264.462 503.155 294.164 503.155 294.164C503.155 294.164 496.882 309.661 476.912 313.476C455.982 317.475 440.382 307.17 440.382 307.17Z" fill="white"/>
                            </g>
                            <g id="Group_36">
                                <path id="Vector_46" d="M446.742 287.614C445.401 300.506 454.695 312.051 467.499 313.401C480.306 314.751 491.772 305.396 493.112 292.503C494.454 279.608 485.16 268.063 472.354 266.713C459.548 265.362 448.082 274.719 446.742 287.614Z" fill="#231F20"/>
                            </g>
                            <g id="Group_37">
                                <path id="Vector_47" d="M452.6 274.958C450.805 277.735 450.62 280.818 452.188 281.845C453.753 282.871 456.478 281.451 458.274 278.675C460.068 275.898 460.253 272.814 458.685 271.788C457.118 270.761 454.394 272.18 452.6 274.958Z" fill="white"/>
                            </g>
                            <g id="Group_38">
                                <path id="Vector_48" d="M453.796 286.585C453.662 287.878 454.592 289.036 455.877 289.17C457.16 289.306 458.309 288.367 458.445 287.075C458.579 285.782 457.648 284.625 456.363 284.49C455.08 284.355 453.932 285.293 453.796 286.585Z" fill="white"/>
                            </g>
                        </g>
                        <g id="Group_39">
                            <g id="Group_40">
                                <path id="Vector_49" d="M428.791 424.805L382.432 416.146C382.515 417.206 384.859 427.997 386.843 431.86C391.585 441.096 404.873 448.811 428.791 448.811C448.423 447.28 451.204 438.596 455.482 431.963C459.163 426.256 460.974 416.206 461.057 415.146L428.791 424.805Z" fill="#541322"/>
                            </g>
                            <g id="Group_41">
                                <path id="Vector_50" d="M428.791 407.489C427.187 407.489 420.643 402.846 414.051 402.796C406.373 402.737 385.843 409.847 382.432 416.147C382.432 416.147 413.895 424.806 428.791 424.806C443.958 424.806 461.057 415.147 461.057 415.147C456.206 407.347 451.857 402.715 443.958 402.796C434.823 402.89 430.277 407.489 428.791 407.489Z" fill="#5E1B1C"/>
                            </g>
                        </g>
                        <path id="Vector_51" d="M481.518 229.395C471.652 229.215 460.349 231.289 451.881 236.425C444.214 241.074 434.603 248.075 434.075 257.868C433.914 260.856 434.894 265.73 440.005 264.403C443.741 263.432 454.837 251.259 459.913 248.124C466.475 244.071 475.258 240.845 482.965 241.38C491.936 242.003 499.135 243.315 507.344 246.998C507.767 247.188 508.214 247.402 508.674 247.63C508.672 244.191 508.646 240.792 508.579 237.458C500.209 232.559 490.808 229.565 481.518 229.395Z" fill="#0B1117"/>
                    </g>
                    <g id="Group_42">
                        <g id="Group_43">
                            <path id="Vector_52" d="M502.816 735.182C513.14 700.012 513.024 665.22 513.024 665.22L451.882 563.74L412.684 538.719C412.684 538.719 397.022 563.177 380.091 563.74C375.599 563.889 369.096 561.592 361.966 558.137C360.067 558.883 358.248 559.329 356.556 559.385C345.319 559.759 328.227 542.212 317.999 530.366C317.778 530.201 317.657 530.111 317.657 530.111L263.957 563.74L276.667 702.674C276.667 702.674 277.93 704.875 280.352 708.62C283.866 713.961 288.19 720.168 293.271 726.816C308.594 746.69 333.945 774.297 366.907 791.518C382.142 799.132 398.862 804.175 416.854 804.854C463.853 806.628 489.271 770.17 502.816 735.182Z" fill="#CBD4EF"/>
                            <path id="Vector_53" d="M317.972 530.345L316.622 530.759L263.957 563.739L264.924 574.31C295.778 602.872 350.38 649.983 370.111 645.248C412.774 635.009 380.091 563.74 380.091 563.74C363.98 564.275 321.999 533.341 317.972 530.345Z" fill="white"/>
                            <path id="Vector_54" d="M432.378 631.369C451.89 628.328 454.662 594.711 453.433 566.312L451.883 563.74L412.685 538.719C412.685 538.719 397.023 563.177 380.092 563.74C380.092 563.74 403.495 635.87 432.378 631.369Z" fill="white"/>
                            <g id="Group_44">
                                <path id="Vector_55" d="M368.003 976.498L285.857 1127.29C285.857 1127.29 338.934 1148.67 391.167 1144.17C443.399 1139.67 479.409 1127.29 479.409 1127.29L429.896 967.496L368.003 976.498Z" fill="#CBD4EF"/>
                            </g>
                        </g>
                        <g id="Group_45">
                            <g id="Clip path group_4">
                                <g id="Mask group_4">
                                    <mask id="mask3_12_1528" style="mask-type:luminance" maskUnits="userSpaceOnUse" x="151" y="563" width="410" height="606">
                                        <g id="Group_46">
                                            <g id="SVGID_00000141442446994719312910000004161580726195475364_">
                                                <path id="Vector_56" d="M558.088 769.656C572.83 716.715 517.15 683.883 505.897 648.999C494.644 614.115 489.018 577.452 489.018 577.452L451.883 563.74C451.883 563.74 535.794 738.627 464.677 748.858C379.102 761.17 337.89 666.176 309.088 626.697C280.088 586.947 263.958 563.739 263.958 563.739L195.315 577.451C195.315 577.451 203.192 658.001 220.071 718.767C236.95 779.533 256.081 870.682 244.828 925.822C233.575 980.961 151.428 1101.37 151.428 1101.37C151.428 1101.37 271.958 1181.43 398.406 1167.29L410.997 1072.86L466.984 1154.24C533.809 1135.5 537.407 1110.37 537.407 1110.37C537.407 1110.37 480.016 1022.6 480.016 956.204C480.016 889.811 476.641 854.927 494.645 838.048C512.649 821.17 544.361 818.95 558.088 769.656Z" fill="white"/>
                                            </g>
                                        </g>
                                    </mask>
                                    <g mask="url(#mask3_12_1528)">
                                        <g id="Group_47">
                                            <path id="Vector_57" d="M561.588 772.947C571.716 718.933 517.15 683.883 505.897 648.999C494.644 614.115 489.018 577.452 489.018 577.452L451.883 563.74L437.335 692.129C437.335 692.129 353.981 646.749 315.722 614.115C277.462 581.482 263.958 563.74 263.958 563.74L195.315 577.452C195.315 577.452 203.192 658.002 220.071 718.768C236.95 779.534 256.081 870.683 244.828 925.823C233.575 980.962 151.428 1101.37 151.428 1101.37C151.428 1101.37 271.958 1181.43 398.406 1167.29L410.997 1072.86L466.984 1154.24C533.809 1135.5 537.407 1110.37 537.407 1110.37C537.407 1110.37 480.016 1022.6 480.016 956.205C480.016 889.812 476.641 854.928 494.645 838.049C512.649 821.17 551.461 826.962 561.588 772.947Z" fill="#5C652E"/>
                                        </g>
                                    </g>
                                </g>
                            </g>
                            <g id="Clip path group_5">
                                <g id="Mask group_5">
                                    <mask id="mask4_12_1528" style="mask-type:luminance" maskUnits="userSpaceOnUse" x="151" y="563" width="410" height="606">
                                        <g id="Group_48">
                                            <g id="SVGID_00000141442446994719312910000004161580726195475364__2">
                                                <path id="Vector_58" d="M558.088 769.656C572.83 716.715 517.15 683.883 505.897 648.999C494.644 614.115 489.018 577.452 489.018 577.452L451.883 563.74C451.883 563.74 535.794 738.627 464.677 748.858C379.102 761.17 337.89 666.176 309.088 626.697C280.088 586.947 263.958 563.739 263.958 563.739L195.315 577.451C195.315 577.451 203.192 658.001 220.071 718.767C236.95 779.533 256.081 870.682 244.828 925.822C233.575 980.961 151.428 1101.37 151.428 1101.37C151.428 1101.37 271.958 1181.43 398.406 1167.29L410.997 1072.86L466.984 1154.24C533.809 1135.5 537.407 1110.37 537.407 1110.37C537.407 1110.37 480.016 1022.6 480.016 956.204C480.016 889.811 476.641 854.927 494.645 838.048C512.649 821.17 544.361 818.95 558.088 769.656Z" fill="white"/>
                                            </g>
                                        </g>
                                    </mask>
                                    <g mask="url(#mask4_12_1528)">
                                        <g id="Group_49">
                                            <path id="Vector_59" opacity="0.2" d="M182.747 487.254H149.057V1196.97H182.747V487.254Z" fill="#B3C265"/>
                                        </g>
                                    </g>
                                </g>
                            </g>
                            <g id="Clip path group_6">
                                <g id="Mask group_6">
                                    <mask id="mask5_12_1528" style="mask-type:luminance" maskUnits="userSpaceOnUse" x="151" y="563" width="410" height="606">
                                        <g id="Group_50">
                                            <g id="SVGID_00000141442446994719312910000004161580726195475364__3">
                                                <path id="Vector_60" d="M558.088 769.656C572.83 716.715 517.15 683.883 505.897 648.999C494.644 614.115 489.018 577.452 489.018 577.452L451.883 563.74C451.883 563.74 535.794 738.627 464.677 748.858C379.102 761.17 337.89 666.176 309.088 626.697C280.088 586.947 263.958 563.739 263.958 563.739L195.315 577.451C195.315 577.451 203.192 658.001 220.071 718.767C236.95 779.533 256.081 870.682 244.828 925.822C233.575 980.961 151.428 1101.37 151.428 1101.37C151.428 1101.37 271.958 1181.43 398.406 1167.29L410.997 1072.86L466.984 1154.24C533.809 1135.5 537.407 1110.37 537.407 1110.37C537.407 1110.37 480.016 1022.6 480.016 956.204C480.016 889.811 476.641 854.927 494.645 838.048C512.649 821.17 544.361 818.95 558.088 769.656Z" fill="white"/>
                                            </g>
                                        </g>
                                    </mask>
                                    <g mask="url(#mask5_12_1528)">
                                        <g id="Group_51">
                                            <path id="Vector_61" opacity="0.2" d="M251.421 487.254H217.73V1196.97H251.421V487.254Z" fill="#B3C265"/>
                                        </g>
                                    </g>
                                </g>
                            </g>
                            <g id="Clip path group_7">
                                <g id="Mask group_7">
                                    <mask id="mask6_12_1528" style="mask-type:luminance" maskUnits="userSpaceOnUse" x="151" y="563" width="410" height="606">
                                        <g id="Group_52">
                                            <g id="SVGID_00000141442446994719312910000004161580726195475364__4">
                                                <path id="Vector_62" d="M558.088 769.656C572.83 716.715 517.15 683.883 505.897 648.999C494.644 614.115 489.018 577.452 489.018 577.452L451.883 563.74C451.883 563.74 535.794 738.627 464.677 748.858C379.102 761.17 337.89 666.176 309.088 626.697C280.088 586.947 263.958 563.739 263.958 563.739L195.315 577.451C195.315 577.451 203.192 658.001 220.071 718.767C236.95 779.533 256.081 870.682 244.828 925.822C233.575 980.961 151.428 1101.37 151.428 1101.37C151.428 1101.37 271.958 1181.43 398.406 1167.29L410.997 1072.86L466.984 1154.24C533.809 1135.5 537.407 1110.37 537.407 1110.37C537.407 1110.37 480.016 1022.6 480.016 956.204C480.016 889.811 476.641 854.927 494.645 838.048C512.649 821.17 544.361 818.95 558.088 769.656Z" fill="white"/>
                                            </g>
                                        </g>
                                    </mask>
                                    <g mask="url(#mask6_12_1528)">
                                        <g id="Group_53">
                                            <path id="Vector_63" opacity="0.2" d="M321.096 487.254H287.406V1196.97H321.096V487.254Z" fill="#B3C265"/>
                                        </g>
                                    </g>
                                </g>
                            </g>
                            <g id="Clip path group_8">
                                <g id="Mask group_8">
                                    <mask id="mask7_12_1528" style="mask-type:luminance" maskUnits="userSpaceOnUse" x="151" y="563" width="410" height="606">
                                        <g id="Group_54">
                                            <g id="SVGID_00000141442446994719312910000004161580726195475364__5">
                                                <path id="Vector_64" d="M558.088 769.656C572.83 716.715 517.15 683.883 505.897 648.999C494.644 614.115 489.018 577.452 489.018 577.452L451.883 563.74C451.883 563.74 535.794 738.627 464.677 748.858C379.102 761.17 337.89 666.176 309.088 626.697C280.088 586.947 263.958 563.739 263.958 563.739L195.315 577.451C195.315 577.451 203.192 658.001 220.071 718.767C236.95 779.533 256.081 870.682 244.828 925.822C233.575 980.961 151.428 1101.37 151.428 1101.37C151.428 1101.37 271.958 1181.43 398.406 1167.29L410.997 1072.86L466.984 1154.24C533.809 1135.5 537.407 1110.37 537.407 1110.37C537.407 1110.37 480.016 1022.6 480.016 956.204C480.016 889.811 476.641 854.927 494.645 838.048C512.649 821.17 544.361 818.95 558.088 769.656Z" fill="white"/>
                                            </g>
                                        </g>
                                    </mask>
                                    <g mask="url(#mask7_12_1528)">
                                        <g id="Group_55">
                                            <path id="Vector_65" opacity="0.2" d="M396.489 487.254H353.799V1196.97H396.489V487.254Z" fill="#B3C265"/>
                                        </g>
                                    </g>
                                </g>
                            </g>
                            <g id="Clip path group_9">
                                <g id="Mask group_9">
                                    <mask id="mask8_12_1528" style="mask-type:luminance" maskUnits="userSpaceOnUse" x="151" y="563" width="410" height="606">
                                        <g id="Group_56">
                                            <g id="SVGID_00000141442446994719312910000004161580726195475364__6">
                                                <path id="Vector_66" d="M558.088 769.656C572.83 716.715 517.15 683.883 505.897 648.999C494.644 614.115 489.018 577.452 489.018 577.452L451.883 563.74C451.883 563.74 535.794 738.627 464.677 748.858C379.102 761.17 337.89 666.176 309.088 626.697C280.088 586.947 263.958 563.739 263.958 563.739L195.315 577.451C195.315 577.451 203.192 658.001 220.071 718.767C236.95 779.533 256.081 870.682 244.828 925.822C233.575 980.961 151.428 1101.37 151.428 1101.37C151.428 1101.37 271.958 1181.43 398.406 1167.29L410.997 1072.86L466.984 1154.24C533.809 1135.5 537.407 1110.37 537.407 1110.37C537.407 1110.37 480.016 1022.6 480.016 956.204C480.016 889.811 476.641 854.927 494.645 838.048C512.649 821.17 544.361 818.95 558.088 769.656Z" fill="white"/>
                                            </g>
                                        </g>
                                    </mask>
                                    <g mask="url(#mask8_12_1528)">
                                        <g id="Group_57">
                                            <path id="Vector_67" opacity="0.2" d="M465.167 487.254H431.477V1196.97H465.167V487.254Z" fill="#B3C265"/>
                                        </g>
                                    </g>
                                </g>
                            </g>
                            <g id="Clip path group_10">
                                <g id="Mask group_10">
                                    <mask id="mask9_12_1528" style="mask-type:luminance" maskUnits="userSpaceOnUse" x="151" y="563" width="410" height="606">
                                        <g id="Group_58">
                                            <g id="SVGID_00000141442446994719312910000004161580726195475364__7">
                                                <path id="Vector_68" d="M558.088 769.656C572.83 716.715 517.15 683.883 505.897 648.999C494.644 614.115 489.018 577.452 489.018 577.452L451.883 563.74C451.883 563.74 535.794 738.627 464.677 748.858C379.102 761.17 337.89 666.176 309.088 626.697C280.088 586.947 263.958 563.739 263.958 563.739L195.315 577.451C195.315 577.451 203.192 658.001 220.071 718.767C236.95 779.533 256.081 870.682 244.828 925.822C233.575 980.961 151.428 1101.37 151.428 1101.37C151.428 1101.37 271.958 1181.43 398.406 1167.29L410.997 1072.86L466.984 1154.24C533.809 1135.5 537.407 1110.37 537.407 1110.37C537.407 1110.37 480.016 1022.6 480.016 956.204C480.016 889.811 476.641 854.927 494.645 838.048C512.649 821.17 544.361 818.95 558.088 769.656Z" fill="white"/>
                                            </g>
                                        </g>
                                    </mask>
                                    <g mask="url(#mask9_12_1528)">
                                        <g id="Group_59">
                                            <path id="Vector_69" opacity="0.2" d="M533.84 487.254H500.15V1196.97H533.84V487.254Z" fill="#B3C265"/>
                                        </g>
                                    </g>
                                </g>
                            </g>
                            <g id="Clip path group_11">
                                <g id="Mask group_11">
                                    <mask id="mask10_12_1528" style="mask-type:luminance" maskUnits="userSpaceOnUse" x="151" y="563" width="410" height="606">
                                        <g id="Group_60">
                                            <g id="SVGID_00000141442446994719312910000004161580726195475364__8">
                                                <path id="Vector_70" d="M558.088 769.656C572.83 716.715 517.15 683.883 505.897 648.999C494.644 614.115 489.018 577.452 489.018 577.452L451.883 563.74C451.883 563.74 535.794 738.627 464.677 748.858C379.102 761.17 337.89 666.176 309.088 626.697C280.088 586.947 263.958 563.739 263.958 563.739L195.315 577.451C195.315 577.451 203.192 658.001 220.071 718.767C236.95 779.533 256.081 870.682 244.828 925.822C233.575 980.961 151.428 1101.37 151.428 1101.37C151.428 1101.37 271.958 1181.43 398.406 1167.29L410.997 1072.86L466.984 1154.24C533.809 1135.5 537.407 1110.37 537.407 1110.37C537.407 1110.37 480.016 1022.6 480.016 956.204C480.016 889.811 476.641 854.927 494.645 838.048C512.649 821.17 544.361 818.95 558.088 769.656Z" fill="white"/>
                                            </g>
                                        </g>
                                    </mask>
                                    <g mask="url(#mask10_12_1528)">
                                        <g id="Group_61">
                                            <path id="Vector_71" opacity="0.2" d="M694.306 852.971H-15.4082V886.661H694.306V852.971Z" fill="#B3C265"/>
                                        </g>
                                    </g>
                                </g>
                            </g>
                            <g id="Clip path group_12">
                                <g id="Mask group_12">
                                    <mask id="mask11_12_1528" style="mask-type:luminance" maskUnits="userSpaceOnUse" x="151" y="563" width="410" height="606">
                                        <g id="Group_62">
                                            <g id="SVGID_00000141442446994719312910000004161580726195475364__9">
                                                <path id="Vector_72" d="M558.088 769.656C572.83 716.715 517.15 683.883 505.897 648.999C494.644 614.115 489.018 577.452 489.018 577.452L451.883 563.74C451.883 563.74 535.794 738.627 464.677 748.858C379.102 761.17 337.89 666.176 309.088 626.697C280.088 586.947 263.958 563.739 263.958 563.739L195.315 577.451C195.315 577.451 203.192 658.001 220.071 718.767C236.95 779.533 256.081 870.682 244.828 925.822C233.575 980.961 151.428 1101.37 151.428 1101.37C151.428 1101.37 271.958 1181.43 398.406 1167.29L410.997 1072.86L466.984 1154.24C533.809 1135.5 537.407 1110.37 537.407 1110.37C537.407 1110.37 480.016 1022.6 480.016 956.204C480.016 889.811 476.641 854.927 494.645 838.048C512.649 821.17 544.361 818.95 558.088 769.656Z" fill="white"/>
                                            </g>
                                        </g>
                                    </mask>
                                    <g mask="url(#mask11_12_1528)">
                                        <g id="Group_63">
                                            <path id="Vector_73" opacity="0.2" d="M701.306 784.296H-8.4082V817.986H701.306V784.296Z" fill="#B3C265"/>
                                        </g>
                                    </g>
                                </g>
                            </g>
                            <g id="Clip path group_13">
                                <g id="Mask group_13">
                                    <mask id="mask12_12_1528" style="mask-type:luminance" maskUnits="userSpaceOnUse" x="151" y="563" width="410" height="606">
                                        <g id="Group_64">
                                            <g id="SVGID_00000141442446994719312910000004161580726195475364__10">
                                                <path id="Vector_74" d="M558.088 769.656C572.83 716.715 517.15 683.883 505.897 648.999C494.644 614.115 489.018 577.452 489.018 577.452L451.883 563.74C451.883 563.74 535.794 738.627 464.677 748.858C379.102 761.17 337.89 666.176 309.088 626.697C280.088 586.947 263.958 563.739 263.958 563.739L195.315 577.451C195.315 577.451 203.192 658.001 220.071 718.767C236.95 779.533 256.081 870.682 244.828 925.822C233.575 980.961 151.428 1101.37 151.428 1101.37C151.428 1101.37 271.958 1181.43 398.406 1167.29L410.997 1072.86L466.984 1154.24C533.809 1135.5 537.407 1110.37 537.407 1110.37C537.407 1110.37 480.016 1022.6 480.016 956.204C480.016 889.811 476.641 854.927 494.645 838.048C512.649 821.17 544.361 818.95 558.088 769.656Z" fill="white"/>
                                            </g>
                                        </g>
                                    </mask>
                                    <g mask="url(#mask12_12_1528)">
                                        <g id="Group_65">
                                            <path id="Vector_75" opacity="0.2" d="M692.306 715.62L699.306 749.311H-10.4082L-17.4082 715.621L692.306 715.62Z" fill="#B3C265"/>
                                        </g>
                                    </g>
                                </g>
                            </g>
                            <g id="Clip path group_14">
                                <g id="Mask group_14">
                                    <mask id="mask13_12_1528" style="mask-type:luminance" maskUnits="userSpaceOnUse" x="151" y="563" width="410" height="606">
                                        <g id="Group_66">
                                            <g id="SVGID_00000141442446994719312910000004161580726195475364__11">
                                                <path id="Vector_76" d="M558.088 769.656C572.83 716.715 517.15 683.883 505.897 648.999C494.644 614.115 489.018 577.452 489.018 577.452L451.883 563.74C451.883 563.74 535.794 738.627 464.677 748.858C379.102 761.17 337.89 666.176 309.088 626.697C280.088 586.947 263.958 563.739 263.958 563.739L195.315 577.451C195.315 577.451 203.192 658.001 220.071 718.767C236.95 779.533 256.081 870.682 244.828 925.822C233.575 980.961 151.428 1101.37 151.428 1101.37C151.428 1101.37 271.958 1181.43 398.406 1167.29L410.997 1072.86L466.984 1154.24C533.809 1135.5 537.407 1110.37 537.407 1110.37C537.407 1110.37 480.016 1022.6 480.016 956.204C480.016 889.811 476.641 854.927 494.645 838.048C512.649 821.17 544.361 818.95 558.088 769.656Z" fill="white"/>
                                            </g>
                                        </g>
                                    </mask>
                                    <g mask="url(#mask13_12_1528)">
                                        <g id="Group_67">
                                            <path id="Vector_77" opacity="0.2" d="M692.306 649.226H-17.4082V682.916H692.306V649.226Z" fill="#B3C265"/>
                                        </g>
                                    </g>
                                </g>
                            </g>
                            <g id="Clip path group_15">
                                <g id="Mask group_15">
                                    <mask id="mask14_12_1528" style="mask-type:luminance" maskUnits="userSpaceOnUse" x="151" y="563" width="410" height="606">
                                        <g id="Group_68">
                                            <g id="SVGID_00000141442446994719312910000004161580726195475364__12">
                                                <path id="Vector_78" d="M558.088 769.656C572.83 716.715 517.15 683.883 505.897 648.999C494.644 614.115 489.018 577.452 489.018 577.452L451.883 563.74C451.883 563.74 535.794 738.627 464.677 748.858C379.102 761.17 337.89 666.176 309.088 626.697C280.088 586.947 263.958 563.739 263.958 563.739L195.315 577.451C195.315 577.451 203.192 658.001 220.071 718.767C236.95 779.533 256.081 870.682 244.828 925.822C233.575 980.961 151.428 1101.37 151.428 1101.37C151.428 1101.37 271.958 1181.43 398.406 1167.29L410.997 1072.86L466.984 1154.24C533.809 1135.5 537.407 1110.37 537.407 1110.37C537.407 1110.37 480.016 1022.6 480.016 956.204C480.016 889.811 476.641 854.927 494.645 838.048C512.649 821.17 544.361 818.95 558.088 769.656Z" fill="white"/>
                                            </g>
                                        </g>
                                    </mask>
                                    <g mask="url(#mask14_12_1528)">
                                        <g id="Group_69">
                                            <path id="Vector_79" opacity="0.2" d="M692.306 580.551H-17.4082V614.241H692.306V580.551Z" fill="#B3C265"/>
                                        </g>
                                    </g>
                                </g>
                            </g>
                            <g id="Clip path group_16">
                                <g id="Mask group_16">
                                    <mask id="mask15_12_1528" style="mask-type:luminance" maskUnits="userSpaceOnUse" x="151" y="563" width="410" height="606">
                                        <g id="Group_70">
                                            <g id="SVGID_00000141442446994719312910000004161580726195475364__13">
                                                <path id="Vector_80" d="M558.088 769.656C572.83 716.715 517.15 683.883 505.897 648.999C494.644 614.115 489.018 577.452 489.018 577.452L451.883 563.74C451.883 563.74 535.794 738.627 464.677 748.858C379.102 761.17 337.89 666.176 309.088 626.697C280.088 586.947 263.958 563.739 263.958 563.739L195.315 577.451C195.315 577.451 203.192 658.001 220.071 718.767C236.95 779.533 256.081 870.682 244.828 925.822C233.575 980.961 151.428 1101.37 151.428 1101.37C151.428 1101.37 271.958 1181.43 398.406 1167.29L410.997 1072.86L466.984 1154.24C533.809 1135.5 537.407 1110.37 537.407 1110.37C537.407 1110.37 480.016 1022.6 480.016 956.204C480.016 889.811 476.641 854.927 494.645 838.048C512.649 821.17 544.361 818.95 558.088 769.656Z" fill="white"/>
                                            </g>
                                        </g>
                                    </mask>
                                    <g mask="url(#mask15_12_1528)">
                                        <g id="Group_71">
                                            <path id="Vector_81" opacity="0.2" d="M692.306 1125H-17.4082V1158.69H692.306V1125Z" fill="#B3C265"/>
                                        </g>
                                    </g>
                                </g>
                            </g>
                            <g id="Clip path group_17">
                                <g id="Mask group_17">
                                    <mask id="mask16_12_1528" style="mask-type:luminance" maskUnits="userSpaceOnUse" x="151" y="563" width="410" height="606">
                                        <g id="Group_72">
                                            <g id="SVGID_00000141442446994719312910000004161580726195475364__14">
                                                <path id="Vector_82" d="M558.088 769.656C572.83 716.715 517.15 683.883 505.897 648.999C494.644 614.115 489.018 577.452 489.018 577.452L451.883 563.74C451.883 563.74 535.794 738.627 464.677 748.858C379.102 761.17 337.89 666.176 309.088 626.697C280.088 586.947 263.958 563.739 263.958 563.739L195.315 577.451C195.315 577.451 203.192 658.001 220.071 718.767C236.95 779.533 256.081 870.682 244.828 925.822C233.575 980.961 151.428 1101.37 151.428 1101.37C151.428 1101.37 271.958 1181.43 398.406 1167.29L410.997 1072.86L466.984 1154.24C533.809 1135.5 537.407 1110.37 537.407 1110.37C537.407 1110.37 480.016 1022.6 480.016 956.204C480.016 889.811 476.641 854.927 494.645 838.048C512.649 821.17 544.361 818.95 558.088 769.656Z" fill="white"/>
                                            </g>
                                        </g>
                                    </mask>
                                    <g mask="url(#mask16_12_1528)">
                                        <g id="Group_73">
                                            <path id="Vector_83" opacity="0.2" d="M692.306 1058.61H-17.4082V1092.3H692.306V1058.61Z" fill="#B3C265"/>
                                        </g>
                                    </g>
                                </g>
                            </g>
                            <g id="Clip path group_18">
                                <g id="Mask group_18">
                                    <mask id="mask17_12_1528" style="mask-type:luminance" maskUnits="userSpaceOnUse" x="151" y="563" width="410" height="606">
                                        <g id="Group_74">
                                            <g id="SVGID_00000141442446994719312910000004161580726195475364__15">
                                                <path id="Vector_84" d="M558.088 769.656C572.83 716.715 517.15 683.883 505.897 648.999C494.644 614.115 489.018 577.452 489.018 577.452L451.883 563.74C451.883 563.74 535.794 738.627 464.677 748.858C379.102 761.17 337.89 666.176 309.088 626.697C280.088 586.947 263.958 563.739 263.958 563.739L195.315 577.451C195.315 577.451 203.192 658.001 220.071 718.767C236.95 779.533 256.081 870.682 244.828 925.822C233.575 980.961 151.428 1101.37 151.428 1101.37C151.428 1101.37 271.958 1181.43 398.406 1167.29L410.997 1072.86L466.984 1154.24C533.809 1135.5 537.407 1110.37 537.407 1110.37C537.407 1110.37 480.016 1022.6 480.016 956.204C480.016 889.811 476.641 854.927 494.645 838.048C512.649 821.17 544.361 818.95 558.088 769.656Z" fill="white"/>
                                            </g>
                                        </g>
                                    </mask>
                                    <g mask="url(#mask17_12_1528)">
                                        <g id="Group_75">
                                            <path id="Vector_85" opacity="0.2" d="M692.306 989.935H-17.4082V1023.62H692.306V989.935Z" fill="#B3C265"/>
                                        </g>
                                    </g>
                                </g>
                            </g>
                            <g id="Clip path group_19">
                                <g id="Mask group_19">
                                    <mask id="mask18_12_1528" style="mask-type:luminance" maskUnits="userSpaceOnUse" x="151" y="563" width="410" height="606">
                                        <g id="Group_76">
                                            <g id="SVGID_00000141442446994719312910000004161580726195475364__16">
                                                <path id="Vector_86" d="M558.088 769.656C572.83 716.715 517.15 683.883 505.897 648.999C494.644 614.115 489.018 577.452 489.018 577.452L451.883 563.74C451.883 563.74 535.794 738.627 464.677 748.858C379.102 761.17 337.89 666.176 309.088 626.697C280.088 586.947 263.958 563.739 263.958 563.739L195.315 577.451C195.315 577.451 203.192 658.001 220.071 718.767C236.95 779.533 256.081 870.682 244.828 925.822C233.575 980.961 151.428 1101.37 151.428 1101.37C151.428 1101.37 271.958 1181.43 398.406 1167.29L410.997 1072.86L466.984 1154.24C533.809 1135.5 537.407 1110.37 537.407 1110.37C537.407 1110.37 480.016 1022.6 480.016 956.204C480.016 889.811 476.641 854.927 494.645 838.048C512.649 821.17 544.361 818.95 558.088 769.656Z" fill="white"/>
                                            </g>
                                        </g>
                                    </mask>
                                    <g mask="url(#mask18_12_1528)">
                                        <g id="Group_77">
                                            <path id="Vector_87" opacity="0.2" d="M694.304 921.26H-15.4102V954.95H694.304V921.26Z" fill="#B3C265"/>
                                        </g>
                                    </g>
                                </g>
                            </g>
                            <g id="Clip path group_20">
                                <g id="Mask group_20">
                                    <mask id="mask19_12_1528" style="mask-type:luminance" maskUnits="userSpaceOnUse" x="151" y="563" width="410" height="606">
                                        <g id="Group_78">
                                            <g id="SVGID_00000141442446994719312910000004161580726195475364__17">
                                                <path id="Vector_88" d="M558.088 769.656C572.83 716.715 517.15 683.883 505.897 648.999C494.644 614.115 489.018 577.452 489.018 577.452L451.883 563.74C451.883 563.74 535.794 738.627 464.677 748.858C379.102 761.17 337.89 666.176 309.088 626.697C280.088 586.947 263.958 563.739 263.958 563.739L195.315 577.451C195.315 577.451 203.192 658.001 220.071 718.767C236.95 779.533 256.081 870.682 244.828 925.822C233.575 980.961 151.428 1101.37 151.428 1101.37C151.428 1101.37 271.958 1181.43 398.406 1167.29L410.997 1072.86L466.984 1154.24C533.809 1135.5 537.407 1110.37 537.407 1110.37C537.407 1110.37 480.016 1022.6 480.016 956.204C480.016 889.811 476.641 854.927 494.645 838.048C512.649 821.17 544.361 818.95 558.088 769.656Z" fill="white"/>
                                            </g>
                                        </g>
                                    </mask>
                                    <g mask="url(#mask19_12_1528)">
                                        <g id="Group_79">
                                            <path id="Vector_89" opacity="0.4" d="M560.161 766.03C549.033 784.966 542.659 808.791 433.13 809.167C414 809.232 394.494 813.293 374.239 809.917C353.983 807.666 316.848 798.289 298.469 792.663C283.405 788.051 262.834 792.755 271.837 811.885C280.839 829.89 316.105 839.194 333.022 839.244C358.154 839.32 385.492 826.797 406.873 823.421C427.128 820.045 446.867 819.694 465.388 829.048C503.274 848.178 554.535 826.798 566.913 786.286L560.161 766.03Z" fill="black"/>
                                        </g>
                                    </g>
                                </g>
                            </g>
                        </g>
                    </g>
                    <g id="Group_46_2">
                        <path id="Vector_90" d="M552.948 185.587C551.308 178.847 546.308 173.407 542.708 167.667C537.218 158.917 537.108 148.417 537.228 138.407C537.338 129.607 536.348 121.647 532.488 113.637C529.118 106.617 519.228 104.767 514.858 98.2868C511.388 93.1468 514.408 85.5068 514.098 79.7068C513.868 75.4768 511.518 71.6768 509.768 67.9268C506.838 61.6068 503.798 54.3968 498.178 49.9668C493.068 45.9468 487.838 48.8568 483.978 52.8068C481.178 41.3668 473.258 33.0168 462.518 27.8068C460.728 26.9468 459.478 26.0168 457.678 27.0168C456.198 27.8368 454.678 28.6068 453.168 29.3668C449.208 31.3568 445.148 33.1468 441.048 34.8168C432.818 38.1768 423.908 41.3968 414.938 41.6368C411.998 41.7068 408.348 41.3168 406.518 38.7168C404.188 35.4168 407.268 29.2868 408.588 26.2168C409.188 24.8468 408.658 22.6168 407.028 22.3468C402.248 21.5668 397.598 20.8368 392.818 21.9468C388.318 22.9868 384.478 26.4868 381.198 29.6968C375.498 22.8568 367.548 21.4968 359.118 24.9668C356.666 25.9768 353.361 27.7828 350.814 29.8948C350.793 29.1578 350.797 28.4088 350.848 27.6368C350.978 25.7468 349.518 24.1668 348.438 24.3568C348.318 22.5368 348.208 20.7168 348.208 18.9168C348.208 18.1668 347.698 16.9668 346.748 17.3068C343.608 18.4468 340.338 18.0168 337.068 18.0568C335.858 18.0668 331.978 19.1968 331.828 18.7168C330.438 14.4468 327.678 10.7268 324.358 7.76678C317.678 1.78678 307.988 0.126782 299.328 0.566782C290.378 1.03678 280.918 4.10678 275.158 11.2868C269.248 18.6568 267.938 29.0568 261.608 35.9268C258.498 39.3168 252.598 41.5568 248.038 41.2068C244.608 40.9368 241.458 38.5168 238.348 37.2468C230.598 34.0868 220.498 37.5868 213.978 42.1068C208.738 45.7368 208.338 52.4968 206.418 58.0268C203.358 66.8268 195.588 74.0368 190.098 81.3868C184.268 89.1768 174.918 102.637 180.858 112.467C181.668 113.817 182.828 114.937 183.568 116.337C185.098 119.267 183.308 123.627 182.468 126.457C180.288 133.827 174.998 136.427 169.628 141.037C164.848 145.137 162.228 151.887 159.898 157.577C157.098 164.367 155.398 171.667 154.808 178.987C153.678 193.047 158.108 206.807 169.378 215.277C164.668 220.177 161.908 226.147 164.578 233.167C167.408 240.637 175.428 245.847 181.078 251.017C188.858 258.137 192.118 267.307 195.408 277.067C198.958 287.567 204.718 295.497 214.218 301.397C214.818 301.777 215.508 301.947 216.078 301.357C223.838 293.237 225.658 281.057 226.598 270.327C227.758 257.027 227.048 243.637 226.698 230.307C226.568 225.437 226.398 220.507 226.888 215.657C227.808 206.667 232.228 197.477 236.168 189.487C243.968 173.637 254.098 159.047 263.618 144.207C269.128 147.067 275.348 147.017 280.208 151.407C280.588 151.747 281.178 151.887 281.648 151.657C293.058 146.027 305.348 140.427 310.148 127.897C316.588 128.777 321.888 128.117 328.278 126.707C334.008 125.437 339.128 127.737 344.878 125.587C356.238 121.357 363.858 108.407 368.428 97.9368C368.56 97.6338 368.68 97.3258 368.808 97.0198C373.516 98.0098 378.674 97.9888 383.968 97.1968C384.658 104.167 384.258 111.227 385.188 118.137C385.728 122.197 387.988 124.337 391.788 125.607C399.648 128.227 408.558 129.997 416.788 128.827C419.968 128.377 423.038 127.357 426.008 126.167C427.848 125.427 430.218 123.987 432.238 124.787C434.878 125.837 436.108 131.177 436.948 133.467C437.938 136.197 438.628 137.687 436.588 139.987C435.208 141.557 433.478 142.847 431.898 144.217C425.928 149.417 425.868 155.507 431.208 161.437C433.868 164.397 438.318 164.647 441.958 165.347C445.658 166.057 448.308 168.777 452.038 169.427C455.228 169.977 458.418 169.747 461.628 169.507C463.768 169.347 468.158 168.467 469.788 170.377C471.418 172.277 468.448 177.947 467.708 179.777C467.208 181.007 467.608 183.137 469.148 183.337C476.448 184.247 483.388 186.437 488.678 191.747C492.748 195.827 494.718 201.667 496.258 207.077C499.438 218.237 501.558 228.827 510.378 237.047C513.678 240.127 518.528 243.927 523.368 242.847C527.228 241.997 529.268 238.107 530.678 234.777C535.378 223.617 535.588 210.697 537.978 198.797C540.758 201.577 543.538 204.357 546.308 207.137C546.958 207.777 547.888 207.357 548.298 206.687C552.268 200.217 554.798 193.187 552.948 185.587Z" fill="#1E1A1B"/>
                        <g id="Group_47_2">
                            <g id="Clip path group_21">
                                <g id="Mask group_21">
                                    <mask id="mask20_12_1528" style="mask-type:luminance" maskUnits="userSpaceOnUse" x="115" y="0" width="439" height="302">
                                        <g id="Group_80">
                                            <g id="SVGID_00000052788263497127694870000008740975645311209385_">
                                                <path id="Vector_91" d="M552.947 185.587C551.307 178.847 546.306 173.407 542.706 167.667C537.216 158.917 537.107 148.417 537.227 138.407C537.337 129.607 536.347 121.647 532.487 113.637C529.117 106.617 519.227 104.767 514.857 98.2868C511.387 93.1468 514.406 85.5068 514.096 79.7068C513.866 75.4768 511.518 71.6768 509.768 67.9268C506.838 61.6068 503.797 54.3968 498.177 49.9668C493.067 45.9468 487.837 48.8568 483.977 52.8068C481.177 41.3668 473.258 33.0168 462.518 27.8068C460.728 26.9468 459.477 26.0168 457.677 27.0168C456.197 27.8368 454.677 28.6068 453.167 29.3668C449.207 31.3568 445.147 33.1468 441.047 34.8168C432.817 38.1768 423.907 41.3968 414.937 41.6368C411.997 41.7068 408.348 41.3168 406.518 38.7168C404.188 35.4168 407.267 29.2868 408.587 26.2168C409.187 24.8468 408.657 22.6168 407.027 22.3468C402.247 21.5668 397.596 20.8368 392.816 21.9468C388.316 22.9868 384.477 26.4868 381.197 29.6968C375.497 22.8568 367.548 21.4968 359.118 24.9668C356.666 25.9768 353.36 27.7828 350.813 29.8948C350.792 29.1578 350.796 28.4088 350.847 27.6368C350.977 25.7468 349.517 24.1668 348.437 24.3568C348.317 22.5368 348.207 20.7168 348.207 18.9168C348.207 18.1668 347.698 16.9668 346.748 17.3068C343.608 18.4468 340.337 18.0168 337.067 18.0568C335.857 18.0668 331.977 19.1968 331.827 18.7168C330.437 14.4468 327.677 10.7268 324.357 7.76678C317.677 1.78678 307.987 0.126782 299.327 0.566782C290.377 1.03678 280.917 4.10678 275.157 11.2868C269.247 18.6568 267.937 29.0568 261.607 35.9268C258.497 39.3168 252.597 41.5568 248.037 41.2068C244.607 40.9368 241.457 38.5168 238.347 37.2468C230.597 34.0868 220.497 37.5868 213.977 42.1068C208.737 45.7368 208.337 52.4968 206.417 58.0268C203.357 66.8268 195.587 74.0368 190.097 81.3868C184.267 89.1768 174.917 102.637 180.857 112.467C181.667 113.817 182.827 114.937 183.567 116.337C185.097 119.267 183.307 123.627 182.467 126.457C180.287 133.827 174.998 136.427 169.628 141.037C164.848 145.137 162.228 151.887 159.898 157.577C157.098 164.367 116.452 172.121 115.862 179.441C114.732 193.501 158.108 206.807 169.378 215.277C164.668 220.177 161.907 226.147 164.577 233.167C167.407 240.637 175.427 245.847 181.077 251.017C188.857 258.137 192.117 267.307 195.407 277.067C198.957 287.567 204.717 295.497 214.217 301.397C214.817 301.777 215.507 301.947 216.077 301.357C223.837 293.237 225.657 281.057 226.597 270.327C227.757 257.027 227.047 243.637 226.697 230.307C226.567 225.437 226.398 220.507 226.888 215.657C227.808 206.667 232.227 197.477 236.167 189.487C243.967 173.637 254.098 159.047 263.618 144.207C269.128 147.067 275.347 147.017 280.207 151.407C280.587 151.747 281.178 151.887 281.648 151.657C293.058 146.027 305.348 140.427 310.148 127.897C316.588 128.777 321.887 128.117 328.277 126.707C334.007 125.437 339.128 127.737 344.878 125.587C356.238 121.357 363.857 108.407 368.427 97.9368C368.559 97.6338 368.679 97.3258 368.807 97.0198C373.515 98.0098 378.673 97.9888 383.967 97.1968C384.657 104.167 384.257 111.227 385.187 118.137C385.727 122.197 387.986 124.337 391.786 125.607C399.646 128.227 408.556 129.997 416.786 128.827C419.966 128.377 423.038 127.357 426.008 126.167C427.848 125.427 430.217 123.987 432.237 124.787C434.877 125.837 436.107 131.177 436.947 133.467C437.937 136.197 438.627 137.687 436.587 139.987C435.207 141.557 433.478 142.847 431.898 144.217C425.928 149.417 425.867 155.507 431.207 161.437C433.867 164.397 438.317 164.647 441.957 165.347C445.657 166.057 448.306 168.777 452.036 169.427C455.226 169.977 458.418 169.747 461.628 169.507C463.768 169.347 468.156 168.467 469.786 170.377C471.416 172.277 468.447 177.947 467.707 179.777C467.207 181.007 467.608 183.137 469.148 183.337C476.448 184.247 483.387 186.437 488.677 191.747C492.747 195.827 494.718 201.667 496.258 207.077C499.438 218.237 501.558 228.827 510.378 237.047C513.678 240.127 518.527 243.927 523.367 242.847C527.227 241.997 529.267 238.107 530.677 234.777C535.377 223.617 535.587 210.697 537.977 198.797C540.757 201.577 543.537 204.357 546.307 207.137C546.957 207.777 547.887 207.357 548.297 206.687C552.267 200.217 554.797 193.187 552.947 185.587Z" fill="white"/>
                                            </g>
                                        </g>
                                    </mask>
                                    <g mask="url(#mask20_12_1528)">
                                        <g id="Group_81">
                                            <g id="Group_48_2">
                                                <g id="Group_49_2">
                                                    <path id="Vector_92" d="M409.834 38.5799C405.576 46.0989 400.594 53.7649 393.452 58.8529C388.434 62.4279 382.606 65.0389 376.841 67.1389C371.89 68.9429 366.345 70.5239 361.029 69.8349C353.547 68.8649 357.924 60.3229 360.058 56.3489C360.629 55.2859 360.132 51.7869 358.377 53.2229C346.904 62.6069 316.785 62.7249 324.441 41.0929C324.818 40.0289 323.887 36.1609 322.265 37.9499C310.202 51.2469 289.24 53.2189 274.857 42.4649C270.748 39.3929 266.896 35.4659 264.951 30.6749C263.081 26.0709 264.591 20.7209 265.917 16.2029C267.935 9.32786 270.406 2.47586 268.603 -4.73514C267.822 -7.85914 265.053 -5.90214 265.571 -3.37314C267.482 5.95086 261.564 14.7769 260.909 23.9919C260.213 33.7899 266.101 40.8959 273.336 46.7369C288.206 58.7419 311.418 55.8139 323.909 41.9429C323.183 40.8959 322.459 39.8479 321.734 38.7999C318.409 48.2879 319.963 58.3609 330.054 62.4869C339.698 66.4299 352.043 63.0789 359.796 56.6699C359.236 55.6279 358.675 54.5869 358.115 53.5439C355.542 58.3849 351.803 65.9309 355.789 71.0689C359.193 75.4559 366.64 73.7889 371.138 72.7089C389.227 68.3619 404.263 57.1989 410.391 39.2059C410.505 38.8749 410.143 38.0359 409.834 38.5799Z" fill="#4B4849"/>
                                                </g>
                                                <g id="Group_50_2">
                                                    <path id="Vector_93" d="M405.512 44.4578C401.871 55.4508 395.32 65.2358 385.046 70.9208C375.42 76.2478 363.921 77.9968 353.328 80.3968C346.155 82.0218 339.762 85.6488 333.577 89.5088C327.373 93.3818 320.894 96.9778 314.829 101.02C302.93 108.949 293.006 96.1158 283.872 89.7478C283.324 89.3658 282.722 89.2978 282.201 89.7888C274.413 97.1248 261.962 98.6588 251.774 99.3568C241.456 100.064 229.85 99.7058 220.251 95.4608C209.032 90.4998 202.926 79.9638 204.415 67.8538C205.744 57.0428 212.901 45.7138 220.628 38.2498C221.327 37.5738 220.973 34.6928 219.789 35.4848C214.534 38.9998 210.65 42.4218 207.247 47.8518C203.939 53.1308 201.798 59.1198 200.7 65.2318C198.521 77.3678 202.636 89.5868 212.489 97.1388C222.362 104.705 236.161 105.383 248.082 105.002C259.947 104.623 274.999 102.723 283.98 94.1038C283.423 94.1178 282.866 94.1308 282.309 94.1448C291.068 100.127 300.18 111.602 312.045 107.648C314.495 106.831 316.701 104.83 318.882 103.51C322.646 101.232 326.443 99.0828 330.135 96.6528C337.808 91.6028 345.664 86.6718 354.723 84.6118C365.973 82.0538 377.673 79.9798 387.678 73.9148C398.269 67.4938 403.335 56.9308 406.669 45.4358C406.912 44.5868 405.93 43.1978 405.512 44.4578Z" fill="#4B4849"/>
                                                </g>
                                                <g id="Group_51_2">
                                                    <path id="Vector_94" d="M321.795 142.522C305.587 149.772 298.627 126.551 293.363 115.755C293.094 115.202 292.386 114.265 291.634 114.741C283.814 119.686 276.537 125.406 267.87 128.867C257.811 132.884 251.927 125.053 242.884 122.499C235.654 120.457 232.151 126.081 229.723 131.75C226.093 140.227 214.83 142.031 206.722 142.554C197.719 143.134 188.565 141.966 179.683 140.581C174.927 139.84 170.234 138.711 165.763 136.918C162.601 135.649 155.947 131.677 156.535 127.634C157.755 119.246 155.091 111.987 153.415 103.796C152.51 99.3768 152.141 94.9658 152.907 90.5018C153.896 84.7388 157.743 79.8948 160.964 75.2098C161.667 74.1878 161.027 71.2809 159.449 72.3939C151.753 77.8229 148.49 86.7158 148.477 95.8708C148.471 100.441 149.471 105.033 150.482 109.463C151.674 114.684 153.865 119.997 152.805 125.374C151.2 133.51 158.008 139.706 164.849 142.781C173.68 146.75 184.511 147.524 194.045 148.301C203.583 149.078 213.902 149.03 222.765 144.986C226.113 143.458 229.314 140.918 231.359 137.865C233.879 134.105 233.874 128.705 239.157 127.693C243.748 126.813 248.858 130.763 252.639 132.841C256.663 135.052 260.626 136.229 265.183 135.079C275.555 132.462 283.744 124.814 292.544 119.154C291.968 118.816 291.392 118.478 290.815 118.14C296.168 128.95 306.056 157.238 322.612 145.218C323.442 144.614 323.056 141.958 321.795 142.522Z" fill="#4B4849"/>
                                                </g>
                                                <g id="Group_52_2">
                                                    <path id="Vector_95" d="M264.671 167.007C261.486 162.595 257.857 162.714 253.647 165.874C248.954 169.398 247.144 173.976 245.885 179.537C244.118 187.343 242.574 192.867 234.209 195.59C226.722 198.028 217.964 195.078 211.51 191.228C211.228 193.041 210.946 194.853 210.663 196.666C211.876 197.067 213.054 197.496 214.212 198.036C214.611 198.218 214.975 198.453 215.304 198.74C213.126 197.053 216.611 195.612 214.646 196.734C212.474 197.975 209.748 198.436 207.33 198.898C202.016 199.915 196.37 200.525 190.955 200.214C185.997 199.929 180.675 197.27 176.256 195.216C173.69 194.024 171.172 192.662 169.011 190.819C168.718 190.576 168.459 190.302 168.235 189.996C167.749 189.381 167.17 191.979 168.425 191.188C169.798 190.323 171.6 190.086 173.155 189.823C172.503 188.88 171.849 187.937 171.197 186.994C172.939 204.432 139.893 184.436 134.625 180.819C127.953 176.237 124.066 171.697 120.634 164.289C116.108 154.517 111.824 141.711 118.987 132.252C119.641 131.388 119.267 128.536 117.713 129.148C106.389 133.61 112.232 153.61 115.06 161.602C118.627 171.679 123.474 179.223 132.12 185.365C141.027 191.692 177.494 212.796 174.973 186.901C174.884 185.986 174.408 183.841 173.015 184.072C169.889 184.59 165.799 185.21 164.676 188.684C163.694 191.721 165.514 194.395 167.728 196.269C173.541 201.189 182.697 204.572 190.155 205.777C197.561 206.974 207.093 205.226 214.106 202.817C216.582 201.967 218.814 200.343 218.744 197.475C218.649 193.622 214.56 192.242 211.509 191.229C208.725 190.304 208.835 195.573 210.662 196.667C220.051 202.288 236.257 205.299 244.048 195.184C247.263 191.01 248.028 185.801 249.017 180.765C250.14 175.051 256.937 162.001 263.68 169.089C264.622 170.076 265.165 167.69 264.671 167.007Z" fill="#4B4849"/>
                                                </g>
                                                <g id="Group_53_2">
                                                    <path id="Vector_96" d="M408.187 43.304C402.72 41.019 400.589 46.979 399.558 51.248C397.984 57.762 400.032 65.929 404.614 70.841C414.702 81.653 431.313 73.883 442.611 69.486C441.948 69.097 441.284 68.708 440.621 68.319C443.083 75.719 448.854 83.445 456.315 86.328C465.984 90.064 468.559 77.652 468.945 70.902C469.07 68.713 466.323 66.796 465.446 69.558C462.548 78.682 460.876 90.883 469.203 97.775C476.78 104.046 487.652 99.606 494.399 94.459C498.662 91.207 502.416 86.865 504.205 81.789C505.451 78.254 506.375 73.214 511.382 74.256C514.415 74.887 516.754 77.475 519.929 77.768C525.799 78.31 532.878 72.888 536.66 68.828C540.863 64.318 542.764 57.989 542.317 51.918C542.187 50.139 540.186 49.291 539.887 51.479C538.485 61.778 527.146 76.122 515.657 70.053C511.778 68.004 507.955 67.28 504.548 70.598C501.224 73.836 501.459 79.287 498.64 82.859C493.289 89.638 484.597 96.134 475.424 94.432C464.822 92.465 466.291 80.006 468.726 72.338C467.559 71.89 466.393 71.442 465.227 70.994C464.849 77.613 462.368 83.609 455.096 79.982C449.668 77.274 445.404 71.199 443.552 65.578C443.28 64.751 442.44 64.074 441.562 64.411C432.988 67.706 423.892 71.812 414.49 70.729C408.489 70.038 404.807 65.397 402.807 60.079C401.527 56.675 401.32 42.172 407.986 44.592C408.597 44.812 408.696 43.517 408.187 43.304Z" fill="#4B4849"/>
                                                </g>
                                                <g id="Group_54_2">
                                                    <path id="Vector_97" d="M401.212 64.1528C399.797 63.8368 398.681 63.1028 397.272 62.7678C396.733 62.6398 396.351 63.1338 396.31 63.6428C395.544 73.1108 395.077 83.1338 399.412 91.8868C403.839 100.822 413.516 104.78 422.655 101.047C427.716 98.9798 432.29 96.9658 437.603 95.5398C439.16 95.1218 440.697 94.6308 442.239 94.1628C443.862 93.6698 441.813 92.2338 441.866 92.8348C442.684 101.957 449.318 107.138 454.873 113.695C456.672 115.819 459.524 119.344 459.314 122.281C459.181 124.15 456.797 125.674 455.514 126.771C452.981 128.935 451.707 131.474 451.749 134.817C451.836 141.746 458.494 146.343 464.537 147.745C476.856 150.603 495.223 143.931 493.997 128.901C492.927 129.613 491.857 130.326 490.787 131.039C498.203 144.265 516.952 159.454 532.528 150.402C539.083 146.593 542.169 138.39 544.884 131.742C548.229 123.555 550.433 114.856 554.128 106.829C554.681 105.628 553.425 103.028 552.222 104.698C543.982 116.134 543.372 132.468 533.677 142.793C520.926 156.373 499.843 138.314 493.387 126.857C492.069 124.518 490.045 127.415 490.177 128.995C491.321 142.71 468.169 145.266 459.542 139.982C456.77 138.283 453.968 134.829 456.79 131.949C458.646 130.055 461.021 128.563 462.029 125.98C465.14 118.005 457.88 110.264 452.854 104.957C449.724 101.652 446.767 98.5908 445.639 94.0458C445.316 92.7448 445.457 91.3438 444.922 90.0988C443.381 86.5098 434.832 90.7948 432.549 91.3438C428.252 92.3778 424.48 94.6938 420.43 96.3748C414.539 98.8198 409.022 96.5528 404.64 92.3348C397.402 85.3688 398.578 73.0528 397.886 63.9278C397.629 64.3408 397.373 64.7528 397.116 65.1648C398.518 65.2008 399.714 65.7118 401.106 65.7668C401.778 65.7938 401.81 64.2858 401.212 64.1528Z" fill="#4B4849"/>
                                                </g>
                                                <g id="Group_55_2">
                                                    <path id="Vector_98" d="M474.588 164.142C475.335 155.053 486.295 166.739 488.796 169.349C493.229 173.973 495.857 178.894 498.92 184.439C502.042 190.09 511.772 190.62 517.326 191.171C526.35 192.067 532.472 187.638 536.304 179.701C537.14 177.969 535.482 173.456 533.874 176.192C532.23 178.99 532.073 188.425 535.221 190.385C536.728 191.323 541.48 192.722 543.391 191.712C543.994 191.394 544.359 190.819 544.713 190.262C545.743 188.64 549.027 188.148 550.658 187.708C557.84 185.77 566.929 189.099 573.525 185.299C581.38 180.773 584.432 169.67 589.662 162.776C590.148 162.135 589.637 160.129 588.668 160.929C583.229 165.421 579.696 171.607 575.19 176.952C570.712 182.265 563.762 180.935 557.477 181.059C552.769 181.152 545.949 181.833 542.581 185.534C542.112 186.049 541.452 186.498 542.19 186.353C540.971 186.591 539.385 185.921 538.229 185.653C536.365 185.22 535.862 180.531 536.302 179.701C535.492 178.532 534.682 177.362 533.872 176.192C531.522 181.111 528.421 185.036 522.818 186.052C517.719 186.977 512.071 185.574 507.167 184.329C504.239 183.585 501.906 182.7 500.497 179.934C499.035 177.063 497.584 174.175 495.532 171.667C492.017 167.371 473.321 148.307 473.575 163.959C473.588 164.72 474.514 165.039 474.588 164.142Z" fill="#4B4849"/>
                                                </g>
                                            </g>
                                        </g>
                                    </g>
                                </g>
                            </g>
                        </g>
                    </g>
                </g>
            </g>
            <g id="braco_dir" transform="rotate(0 100 100)">
                <g id="Group_56_2">
                    <path id="Vector_99" d="M258.371 792.798C258.371 792.798 281.598 720.582 282.277 710.4C282.956 700.218 276.757 671.323 280.57 658.089C284.381 644.856 295.226 628.739 297.356 615.968C299.394 603.778 295.438 578.594 303.394 585.964C309.834 591.932 313.999 600.762 312.846 613.609C312.18 620.966 303.298 639.277 308.58 638.801C313.865 638.322 339.949 611.493 347.85 605.776C355.748 600.054 394.024 564.458 398.211 567.909C406.645 574.857 353.604 618.915 357.3 621.51C360.997 624.108 411.455 571.031 417.938 576.354C425.591 582.641 364.795 632.847 371.64 638.165C376.418 641.878 418.773 593.356 423.956 599.599C431.418 608.587 373.437 653.931 377.393 657.621C381.348 661.311 416.053 624.257 419.615 629.146C425.606 637.367 381.068 672.363 372.53 685.171C363.993 697.979 343.797 710.474 329.788 720.321C313.233 731.954 298.153 802.01 298.153 802.01L258.371 792.798Z" fill="#703622"/>
                </g>
                <path id="Vector_100" d="M165.467 587.583C126.253 616.959 129.624 719.34 129.624 719.34C129.624 719.34 111.962 998.913 141.777 1019.43C192.417 1054.29 331.284 755.581 331.284 755.581L271.106 724.214L231.495 799.58C231.495 799.58 247.909 746.986 254.385 704.811C259.758 669.819 261.617 648.9 259.647 630.339C256.919 604.624 226.729 541.689 165.467 587.583Z" fill="#CBD4EF"/>
                <path id="Vector_101" d="M228.506 801.082C228.003 800.817 227.43 800.62 226.982 800.583C202.005 798.45 173.13 812.956 159.633 824.435C158.227 825.63 162.146 827.465 164.261 826.686C174.517 822.916 182.786 817.472 192.083 813.015C200.717 808.873 209.667 805.925 219.688 804.154C213.232 807.782 207.336 812.04 201.623 815.98C194.871 820.636 188.231 825.317 182.049 830.193C164.927 843.687 164.136 838.584 153.802 861.647C153.287 862.792 156.848 864.005 158.27 862.538C168.21 852.312 177.61 842.131 189.707 832.354C195.176 827.926 200.934 823.571 206.723 819.25C209.545 817.145 212.556 815.005 215.471 812.828C203.991 824.92 193.871 838.078 184.66 850.84C172.787 867.295 159.406 887.467 156.81 903.016C156.514 904.789 160.582 903.956 161.685 901.97C166.183 893.896 168.94 882.78 173.471 874.688C178.775 865.217 186.121 858.807 192.713 849.434C203.975 833.418 217.198 818.139 229.812 802.543C230.835 801.276 229.77 800.877 228.506 801.082Z" fill="#C0C9DF"/>                
                <animateTransform attributeName="transform" type="rotate" values="0 100 100;1 100 100;0 100 100" dur="2.5s" repeatCount="indefinite" />
            </g>
        </g>
    </g>
    <defs>
        <clipPath id="clip0_12_1528">
            <rect width="1084" height="2159" fill="white" transform="translate(0 0.5)"/>
        </clipPath>
    </defs>
</svg>
