<svg width="840" height="2398" viewBox="0 0 840 2398" fill="none"
    xmlns="http://www.w3.org/2000/svg">
    <g id="Group 2">
        <g id="braco_esq" transform="rotate(0 100 100)">
            <g id="Group">
                <g id="Group_2">
                    <g id="Group_3">
                        <path id="Vector" d="M748.842 1353.88C800.747 1355.74 801.828 1411.8 812.143 1409.09C819.774 1407.08 816.457 1372.79 803.515 1358.16C790.575 1343.53 738.235 1353.49 748.842 1353.88Z" fill="#441C23" />
                    </g>
                    <g id="Group_4">
                        <path id="Vector_2" d="M688.736 1256.89L693.987 1319.9C693.987 1319.9 771.257 1316.9 780.26 1323.65C789.262 1330.4 853.03 1397.92 837.276 1400.17C821.522 1402.42 794.514 1352.16 781.761 1352.16C769.007 1352.16 716.494 1354.41 717.243 1362.66C717.993 1370.91 769.007 1403.17 751.753 1408.43C734.499 1413.68 717.243 1385.92 704.49 1383.67C691.737 1381.42 660.228 1366.41 656.477 1352.16C652.727 1337.91 642.224 1256.89 642.224 1256.89H688.736Z" fill="#703622" />
                    </g>
                </g>
                <g id="Group_5">
                    <path id="Vector_3" d="M568.825 574.734C568.825 574.734 607.713 583.957 619.716 630.469C631.719 676.981 646.724 961.307 654.601 983.813C662.478 1006.32 675.419 1094.66 678.795 1125.04L697.362 1283.14L630.633 1295.52C630.633 1295.52 596.029 1139.67 588.152 1104.78C580.275 1069.9 576.955 1005.19 572.454 981.562C567.952 957.931 554.449 853.278 553.324 837.524C552.199 821.77 545.393 711.717 546.01 667.553C547.273 576.926 568.825 574.734 568.825 574.734Z" fill="#CBD4EF" />
                </g>
                <path id="Vector_4" d="M572.936 984.277C578.659 982.623 584.433 981.231 590.048 979.944C597.297 978.283 604.648 977.074 612.03 976.189C619.246 975.324 627.628 974.595 634.736 976.298C636.07 976.617 635.919 979.774 634.643 980.094C627.958 981.768 620.692 981.663 613.852 982.604C606.197 983.656 598.626 984.925 591.097 986.674C585.339 988.011 579.674 989.804 574.025 991.66C573.667 988.959 573.305 986.484 572.936 984.277Z" fill="#C0C9DF" />
                <path id="Vector_5" d="M575.229 1001.61C579.299 1000.65 583.353 999.841 587.218 999.056C600.741 996.311 615.136 995.611 628.37 991.694C630.587 991.038 630.819 995.438 629.07 996.189C616.638 1001.53 603.094 1003.35 589.901 1006.01C585.177 1006.97 580.591 1008.13 576.075 1009.43C575.792 1006.72 575.511 1004.11 575.229 1001.61Z" fill="#C0C9DF" />
                <path id="Vector_6" d="M597.266 989.44C598.959 989.77 599.356 993.447 597.551 993.87C591.624 995.258 585.598 995.942 579.705 997.569C578.114 998.008 576.523 998.492 574.928 998.969C574.64 996.484 574.35 994.127 574.059 991.917C581.865 989.455 590.378 988.099 597.266 989.44Z" fill="#C0C9DF" />
                <path id="Vector_7" d="M576.916 1017.68C589.643 1029.8 601.987 1038.76 618.009 1036.03C638.077 1032.62 656.097 1014.2 655.444 986.414C663.37 1012.43 675.536 1095.72 678.794 1125.04L697.361 1283.14L630.632 1295.52C630.632 1295.52 596.028 1139.67 588.151 1104.78C582.987 1081.91 579.781 1046.21 576.916 1017.68Z" fill="#C0C9DF" />
            </g>

            <animateTransform attributeName="transform" type="rotate" values="0 100 100;1 100 100;0 100 100" dur="2.5s" repeatCount="indefinite" />
        </g>
        <g id="braco_dir" transform="rotate(0 100 100)">
            <g id="Group_6">
                <g id="Group_7">
                    <path id="Vector_8" d="M90.9243 1353.88C39.0193 1355.74 37.9383 1411.8 27.6233 1409.09C19.9923 1407.08 23.3093 1372.79 36.2503 1358.16C49.1913 1343.53 101.531 1353.49 90.9243 1353.88Z" fill="#441C23" />
                </g>
                <g id="Group_8">
                    <path id="Vector_9" d="M151.03 1256.89L145.779 1319.9C145.779 1319.9 68.5091 1316.9 59.5071 1323.65C50.5041 1330.4 -13.2629 1397.92 2.4911 1400.17C18.2451 1402.42 45.2531 1352.16 58.0061 1352.16C70.7601 1352.16 123.273 1354.41 122.524 1362.66C121.774 1370.91 70.7601 1403.17 88.0141 1408.43C105.268 1413.68 122.524 1385.92 135.277 1383.67C148.03 1381.42 179.539 1366.41 183.29 1352.16C187.04 1337.91 197.543 1256.89 197.543 1256.89H151.03Z" fill="#703622" />
                </g>
            </g>
            <g id="Group_9">
                <path id="Vector_10" d="M270.94 574.734C270.94 574.734 232.052 583.957 220.049 630.469C208.046 676.981 193.041 961.307 185.164 983.813C177.287 1006.32 164.346 1094.66 160.97 1125.04L142.403 1283.14L209.132 1295.52C209.132 1295.52 243.736 1139.67 251.613 1104.78C259.49 1069.9 262.81 1005.19 267.311 981.562C271.812 957.931 285.316 853.278 286.441 837.524C287.566 821.77 294.372 711.717 293.755 667.553C292.491 576.926 270.94 574.734 270.94 574.734Z" fill="#CBD4EF" />
            </g>
            <path id="Vector_11" d="M266.829 984.277C261.106 982.623 255.332 981.231 249.717 979.944C242.468 978.283 235.117 977.074 227.735 976.189C220.519 975.324 212.137 974.595 205.029 976.298C203.695 976.617 203.846 979.774 205.122 980.094C211.807 981.768 219.073 981.663 225.913 982.604C233.568 983.656 241.139 984.925 248.668 986.674C254.426 988.011 260.091 989.804 265.74 991.66C266.099 988.959 266.461 986.484 266.829 984.277Z" fill="#C0C9DF" />
            <path id="Vector_12" d="M264.536 1001.61C260.466 1000.65 256.412 999.841 252.547 999.056C239.024 996.311 224.629 995.611 211.395 991.694C209.178 991.038 208.946 995.438 210.695 996.189C223.127 1001.53 236.671 1003.35 249.864 1006.01C254.588 1006.97 259.174 1008.13 263.69 1009.43C263.974 1006.72 264.255 1004.11 264.536 1001.61Z" fill="#C0C9DF" />
            <path id="Vector_13" d="M242.499 989.44C240.806 989.77 240.409 993.447 242.214 993.87C248.141 995.258 254.167 995.942 260.06 997.569C261.651 998.008 263.242 998.492 264.837 998.969C265.126 996.484 265.415 994.127 265.706 991.917C257.901 989.455 249.388 988.099 242.499 989.44Z" fill="#C0C9DF" />
            <path id="Vector_14" d="M262.848 1017.68C250.121 1029.8 237.777 1038.76 221.755 1036.03C201.687 1032.62 183.667 1014.2 184.32 986.414C176.394 1012.43 164.228 1095.72 160.97 1125.04L142.403 1283.14L209.132 1295.52C209.132 1295.52 243.736 1139.67 251.613 1104.78C256.778 1081.91 259.984 1046.21 262.848 1017.68Z" fill="#C0C9DF" />

            <animateTransform attributeName="transform" type="rotate" values="0 100 100;1 100 100;0 100 100" dur="3s" repeatCount="indefinite" />
        </g>
        <g id="cabelo" transform="rotate(0 100 100)">
            <path id="Vector_15" d="M678.81 276.232C684.88 276.942 691.3 276.272 694.98 270.812C698.8 265.142 695.65 257.162 692.48 252.042C687.64 244.232 679.45 238.572 671.16 234.942C664.02 231.812 655.58 230.952 648.98 226.712C641.18 221.692 644.79 206.372 649.58 200.632C651.5 198.322 654.23 196.672 655.49 193.862C657.11 190.252 655.2 186.472 653.36 183.362C651.64 180.462 647.72 178.912 644.8 177.662C640.22 175.712 635.49 174.172 631.18 171.642C626.61 168.962 623.87 163.532 622.44 158.602C621.12 154.082 623.12 150.172 625.86 146.702C630.48 140.842 635.08 135.682 637.11 128.292C637.6 126.502 635.87 124.642 634.04 125.222C633.34 125.442 632.41 125.582 631.42 125.732C630.34 120.572 628.72 115.492 627.05 110.622C623.41 99.9725 618.64 89.4625 612.12 80.2425C607.34 73.4725 600.83 66.5225 592.11 65.7125C586.33 65.1825 581.58 68.3925 577.81 72.6725C571.15 67.5725 561.63 65.5625 553 65.1925C551.66 55.3125 544.17 49.9425 534.47 49.9525C537.17 36.7425 531.62 22.9525 518.84 16.9625C513.93 14.6725 508.43 14.1325 503.43 16.3725C498.47 18.6025 496.43 23.9425 495.88 29.0625C490.16 29.0925 484.72 30.8225 479.43 33.0525C475.12 34.8625 470.16 38.4425 465.36 39.4025C465.83 39.0025 466.16 38.4125 466.21 37.6325C467.5 15.9225 442.92 -1.16754 422.89 0.0624647C415.71 0.502465 411.37 4.72247 407.86 10.5725C402.97 18.6925 397.03 23.7425 387.14 24.1325C365.76 24.9725 344.3 13.5325 322.96 17.8225C312.72 19.8725 288.15 27.7125 290.69 42.1025C291.47 46.4725 294.59 49.7125 298.12 52.2825C280.49 59.5225 259.57 54.2325 241.1 55.6325C228.52 56.5925 210.63 62.8725 209.18 77.6725C208.25 87.1625 217.34 95.4025 222.97 101.852C225.54 104.802 229.12 108.532 229.52 112.632C230.03 117.822 223.23 120.762 219.46 122.472C217.55 123.332 217.98 126.702 220.06 127.042C226.63 128.122 229.76 130.972 233.26 135.492C222 139.692 210.17 142.502 199.46 148.042C186.9 154.552 179.55 165.932 176.31 179.462C173.63 190.642 176.38 202.522 187.41 207.632C196.31 211.752 206.99 211.442 216.89 210.422L215.95 211.362C214.78 212.532 215.1 214.432 216.46 215.282C219.97 217.502 221.09 220.282 222.72 223.332C195.3 228.152 159.87 228.862 145.86 257.272C140.88 267.382 143.68 278.422 152.73 284.952C155.81 287.172 159.24 288.522 162.83 289.192C160.26 291.122 157.93 293.242 155.97 295.462C153.11 298.682 150.91 302.892 152.11 307.262C153.17 311.132 156.87 313.292 160.7 314.612C132.26 334.262 101.57 370.872 126.77 404.732C141.54 424.582 166.96 416.572 188.21 407.712C185.7 410.742 184.54 414.232 186.29 418.332C174.6 433.932 178.14 454.842 191.32 468.702C196.62 474.262 204.3 478.802 212.23 477.982C219.47 477.232 224.22 471.962 227.23 465.852C235.43 477.962 247.51 493.942 262.94 488.812C273.53 485.302 278.34 474.902 278.39 464.462C279.44 464.292 280.32 463.512 280.22 462.112C280.11 460.602 279.83 459.142 279.72 457.692C280.65 458.212 281.63 458.622 282.62 458.822C282.76 466.542 286.79 472.862 288.6 480.392C289.45 483.952 287.39 488.522 286.31 491.832C284.99 495.872 283.6 499.872 282.81 504.062C281.81 509.282 282.42 515.123 287.13 518.323C289.77 520.113 322.23 494.502 322.91 490.982C322.94 491.002 322.95 491.012 322.98 491.032C323.85 491.532 324.57 492.302 325.28 492.992C328.94 496.522 331.89 500.442 335.85 503.672C339.44 506.622 343.84 512.102 348.94 512.212C354.25 512.322 357.82 507.402 360.43 502.872C362.1 505.002 364.01 506.942 365.95 508.882C366.54 509.472 367.56 509.812 368.38 509.522C375.39 507.032 381.4 512.553 387.2 516.573C393.22 520.743 400.69 517.272 406.19 513.832C412.91 509.632 418.36 503.732 425.39 499.972C429.04 498.012 433.86 496.732 437.91 498.072C441.42 499.232 444.17 502.402 446.55 505.072C450.74 509.762 454.7 515.213 460.79 517.562C467.53 520.152 474.89 518.722 480.75 514.712C491.65 507.262 497.66 488.172 513.21 490.112C514.03 490.212 514.99 489.572 515.37 488.872C519.61 481.052 526.84 479.082 534.44 483.772C536.27 484.902 538.79 483.042 538.12 480.952C535.77 473.682 531.66 458.262 543.73 458.022C544.03 458.012 544.34 458.032 544.64 458.042C547.49 464.872 552.13 471.292 556.16 476.432C564.51 487.042 576.07 496.302 590.4 494.152C605.89 491.822 616.26 478.542 620.27 464.162C621.71 459.012 619.51 454.082 617.46 449.422C616.58 447.412 615.4 445.222 615.3 442.992C615.19 440.682 623.08 441.982 624.2 442.112C625.58 442.282 626.67 440.852 626.7 439.612C626.93 429.792 635.24 427.212 642.64 423.182C650.13 419.112 654.18 412.872 655.03 404.762C670.74 404.722 663.57 380.642 655.45 360.292C660.19 357.502 664.54 352.632 661.8 346.862C659.63 342.302 663.291 340.783 670.37 339.922C701.2 336.172 684.21 291.622 678.81 276.232Z" fill="#1E1A1B" />
            <g id="Clip path group">
                <mask id="mask0_2_4" style="mask-type:luminance" maskUnits="userSpaceOnUse" x="117" y="0" width="580" height="519">
                    <g id="SVGID_00000114793008214841297810000016767183284706127794_">
                        <path id="Vector_16" d="M678.81 276.232C684.88 276.942 691.3 276.272 694.98 270.812C698.8 265.142 695.65 257.162 692.48 252.042C687.64 244.232 679.45 238.572 671.16 234.942C664.02 231.812 655.58 230.952 648.98 226.712C641.18 221.692 644.79 206.372 649.58 200.632C651.5 198.322 654.23 196.672 655.49 193.862C657.11 190.252 655.2 186.472 653.36 183.362C651.64 180.462 647.72 178.912 644.8 177.662C640.22 175.712 635.49 174.172 631.18 171.642C626.61 168.962 623.87 163.532 622.44 158.602C621.12 154.082 623.12 150.172 625.86 146.702C630.48 140.842 635.08 135.682 637.11 128.292C637.6 126.502 635.87 124.642 634.04 125.222C633.34 125.442 632.41 125.582 631.42 125.732C630.34 120.572 628.72 115.492 627.05 110.622C623.41 99.9725 618.64 89.4625 612.12 80.2425C607.34 73.4725 600.83 66.5225 592.11 65.7125C586.33 65.1825 581.58 68.3925 577.81 72.6725C571.15 67.5725 561.63 65.5625 553 65.1925C551.66 55.3125 544.17 49.9425 534.47 49.9525C537.17 36.7425 531.62 22.9525 518.84 16.9625C513.93 14.6725 508.43 14.1325 503.43 16.3725C498.47 18.6025 496.43 23.9425 495.88 29.0625C490.16 29.0925 484.72 30.8225 479.43 33.0525C475.12 34.8625 470.16 38.4425 465.36 39.4025C465.83 39.0025 466.16 38.4125 466.21 37.6325C467.5 15.9225 442.92 -1.16754 422.89 0.0624647C415.71 0.502465 411.37 4.72247 407.86 10.5725C402.97 18.6925 397.03 23.7425 387.14 24.1325C365.76 24.9725 344.3 13.5325 322.96 17.8225C312.72 19.8725 288.15 27.7125 290.69 42.1025C291.47 46.4725 294.59 49.7125 298.12 52.2825C280.49 59.5225 259.57 54.2325 241.1 55.6325C228.52 56.5925 210.63 62.8725 209.18 77.6725C208.25 87.1625 217.34 95.4025 222.97 101.852C225.54 104.802 229.12 108.532 229.52 112.632C230.03 117.822 223.23 120.762 219.46 122.472C217.55 123.332 217.98 126.702 220.06 127.042C226.63 128.122 229.76 130.972 233.26 135.492C222 139.692 210.17 142.502 199.46 148.042C186.9 154.552 179.55 165.932 176.31 179.462C173.63 190.642 176.38 202.522 187.41 207.632C196.31 211.752 206.99 211.442 216.89 210.422L215.95 211.362C214.78 212.532 215.1 214.432 216.46 215.282C219.97 217.502 221.09 220.282 222.72 223.332C195.3 228.152 159.87 228.862 145.86 257.272C140.88 267.382 143.68 278.422 152.73 284.952C155.81 287.172 159.24 288.522 162.83 289.192C160.26 291.122 157.93 293.242 155.97 295.462C153.11 298.682 150.91 302.892 152.11 307.262C153.17 311.132 156.87 313.292 160.7 314.612C132.26 334.262 101.57 370.872 126.77 404.732C141.54 424.582 166.96 416.572 188.21 407.712C185.7 410.742 184.54 414.232 186.29 418.332C174.6 433.932 178.14 454.842 191.32 468.702C196.62 474.262 204.3 478.802 212.23 477.982C219.47 477.232 224.22 471.962 227.23 465.852C235.43 477.962 247.51 493.942 262.94 488.812C273.53 485.302 278.34 474.902 278.39 464.462C279.44 464.292 280.32 463.512 280.22 462.112C280.11 460.602 279.83 459.142 279.72 457.692C280.65 458.212 281.63 458.622 282.62 458.822C282.76 466.542 286.79 472.862 288.6 480.392C289.45 483.952 287.39 488.522 286.31 491.832C284.99 495.872 283.6 499.872 282.81 504.062C281.81 509.282 282.42 515.123 287.13 518.323C289.77 520.113 322.23 494.502 322.91 490.982C322.94 491.002 322.95 491.012 322.98 491.032C323.85 491.532 324.57 492.302 325.28 492.992C328.94 496.522 331.89 500.442 335.85 503.672C339.44 506.622 343.84 512.102 348.94 512.212C354.25 512.322 357.82 507.402 360.43 502.872C362.1 505.002 364.01 506.942 365.95 508.882C366.54 509.472 367.56 509.812 368.38 509.522C375.39 507.032 381.4 512.553 387.2 516.573C393.22 520.743 400.69 517.272 406.19 513.832C412.91 509.632 418.36 503.732 425.39 499.972C429.04 498.012 433.86 496.732 437.91 498.072C441.42 499.232 444.17 502.402 446.55 505.072C450.74 509.762 454.7 515.213 460.79 517.562C467.53 520.152 474.89 518.722 480.75 514.712C491.65 507.262 497.66 488.172 513.21 490.112C514.03 490.212 514.99 489.572 515.37 488.872C519.61 481.052 526.84 479.082 534.44 483.772C536.27 484.902 538.79 483.042 538.12 480.952C535.77 473.682 531.66 458.262 543.73 458.022C544.03 458.012 544.34 458.032 544.64 458.042C547.49 464.872 552.13 471.292 556.16 476.432C564.51 487.042 576.07 496.302 590.4 494.152C605.89 491.822 616.26 478.542 620.27 464.162C621.71 459.012 619.51 454.082 617.46 449.422C616.58 447.412 615.4 445.222 615.3 442.992C615.19 440.682 623.08 441.982 624.2 442.112C625.58 442.282 626.67 440.852 626.7 439.612C626.93 429.792 635.24 427.212 642.64 423.182C650.13 419.112 654.18 412.872 655.03 404.762C670.74 404.722 663.57 380.642 655.45 360.292C660.19 357.502 664.54 352.632 661.8 346.862C659.63 342.302 663.291 340.783 670.37 339.922C701.2 336.172 684.21 291.622 678.81 276.232Z" fill="white" />
                    </g>
                </mask>
                <g mask="url(#mask0_2_4)">
                    <g id="Group_10">
                        <g id="Group_11">
                            <g id="Group_12">
                                <path id="Vector_17" d="M472.543 22.0775C464.393 45.6965 438.903 50.7515 417.033 54.5095C403.374 56.8565 392.041 53.4975 380.483 46.1785C370.868 40.0905 362.747 34.8625 350.902 35.4255C349.112 35.5105 349.222 39.3285 351 39.4215C361.541 39.9755 363.108 52.9725 356.617 59.4655C351.512 64.5715 342.745 65.5195 335.962 66.3315C330.301 67.0085 324.47 67.5905 318.768 67.5165C314.405 67.4595 309.792 66.2635 308.374 61.3845C306.816 56.0255 315.676 52.2655 319.338 51.2995C318.832 50.3545 318.325 49.4095 317.819 48.4645C313.494 60.2955 307.305 70.7785 296.178 77.2595C285.103 83.7095 271.529 86.7855 259.006 88.8525C247.735 90.7125 235.579 91.1715 224.783 86.9165C211.948 81.8585 207.513 69.7785 205.795 57.0445C205.584 55.4785 204.077 56.1645 204.066 57.4445C203.966 69.6975 208.798 82.3325 219.843 88.6745C230.979 95.0675 244.541 94.9185 256.897 93.2445C270.47 91.4065 284.954 87.6585 296.931 80.9055C308.803 74.2115 315.493 62.8475 320.082 50.3835C320.469 49.3315 320.081 47.1535 318.563 47.5485C309.096 50.0135 301.302 59.4265 309.114 68.0795C314.93 74.5215 328.546 71.1285 336.059 70.2765C345.895 69.1605 358.36 66.9875 362.098 56.3965C365.234 47.5075 361.45 35.9965 350.902 35.4255C350.934 36.7575 350.967 38.0905 351 39.4225C365.429 38.7595 374.761 47.5615 386.701 54.0685C398.465 60.4795 410.853 59.8815 423.564 57.1485C444.821 52.5775 467.63 46.5155 473.401 22.6005C473.539 22.0205 472.814 21.2905 472.543 22.0775Z" fill="#4B4849" />
                            </g>
                            <g id="Group_13">
                                <path id="Vector_18" d="M469.022 21.9685C456.637 17.7215 443.643 22.3505 432.347 27.6705C420.277 33.3555 409.266 41.2655 400.665 51.5125C396.991 55.8885 393.975 60.7515 391.237 65.7535C388.445 70.8525 386.549 76.6255 382.669 81.0265C377.482 86.9105 362.572 96.8375 362.178 82.3925C362.157 81.6275 361.798 80.6115 360.905 80.5545C345.711 79.5785 331.595 84.2515 324.587 98.5805C318.282 111.473 318.934 127.11 320.78 140.948C321.047 140.175 321.314 139.403 321.58 138.63C314.002 140.558 306.532 138.563 298.963 137.66C297.31 137.463 292.623 136.572 291.29 137.821C289.904 139.12 289.091 142.137 288.752 143.954C289.246 143.505 289.739 143.057 290.233 142.608C282.892 139.989 271.806 137.864 272.547 127.876C272.945 122.502 272.444 116.872 265.644 117.587C258.556 118.332 250.496 123.497 248.888 130.793C247.337 137.829 250.276 144.871 253.291 151.096C256.251 157.206 261.71 164.229 261.989 171.229C262.26 178.007 249.073 180.694 244.384 181.874C236.181 183.938 227.322 185.166 218.851 184.735C209.902 184.279 200.858 178.816 194.246 173.163C190.766 170.187 187.839 166.551 186.206 162.251C184.107 156.726 187.117 151.437 190.496 147.212C190.986 146.6 190.485 144.731 189.551 145.455C172.302 158.827 191.234 177.664 204.42 184.446C218.865 191.875 236.489 188.868 251.317 183.929C256.477 182.21 263.238 179.406 264.352 173.389C265.468 167.362 261.696 161.18 259.019 156.078C255.468 149.309 250.236 141.296 251.025 133.316C251.474 128.782 255.071 125.781 258.818 123.759C261.976 122.055 270.113 118.602 270.244 124.586C270.366 130.137 269.616 132.958 273.102 137.692C277.047 143.049 283.749 144.128 289.666 146.237C290.53 146.545 291.019 145.578 291.147 144.891C292.32 138.598 301.761 141.728 306.112 142.408C311.624 143.27 316.875 143.602 322.319 142.215C323.195 141.992 323.206 140.548 323.119 139.897C321.376 126.861 320.896 112.385 326.818 100.269C333.28 87.0475 347.283 83.3215 360.995 84.2915C360.571 83.6785 360.146 83.0655 359.722 82.4535C359.81 86.2415 360.349 90.5965 363.719 92.9215C366.802 95.0485 371.034 93.5315 374.037 92.0825C384.333 87.1125 387.991 77.7915 393 68.3035C399.984 55.0745 410.087 44.4345 422.74 36.4735C435.694 28.3225 453.106 19.3605 468.878 22.8775C469.331 22.9765 469.393 22.0955 469.022 21.9685Z" fill="#4B4849" />
                            </g>
                            <g id="Group_14">
                                <path id="Vector_19" d="M476.772 22.5605C462.665 27.4155 448.619 34.4705 437.698 44.7555C429.721 52.2685 422.672 61.6495 416.3 70.5255C412.378 75.9885 404.465 85.8755 410.164 92.4975C417.009 100.45 429.817 86.3495 432.832 80.6965C433.339 79.7455 433.316 77.7385 431.906 77.5935C409.528 75.3045 391.241 96.6325 384.787 115.977C382.059 124.154 381.139 133.94 385.751 141.614C391.054 150.437 403.568 150.908 412.167 147.472C412.93 147.167 412.841 145.332 411.923 145.329C403.462 145.3 393.089 146.581 387.74 138.416C383.336 131.692 385.834 121.998 388.38 115.105C394.787 97.7645 411.835 78.8625 431.995 81.2525C431.686 80.2185 431.378 79.1845 431.069 78.1495C428.923 82.0565 425.421 85.2875 421.755 87.7595C419.634 89.1905 410.18 93.0045 410.901 87.0345C411.368 83.1725 414.335 79.2885 416.408 76.1395C419.058 72.1135 422.016 68.2865 425.007 64.5105C430.712 57.3075 436.447 50.0015 443.419 43.9795C453.495 35.2765 465.614 30.5975 477.128 24.2845C477.76 23.9375 477.632 22.2645 476.772 22.5605Z" fill="#4B4849" />
                            </g>
                            <g id="Group_15">
                                <path id="Vector_20" d="M161.375 176.197C158.703 202.077 189.848 209.7 209.829 210.423C223.798 210.928 238.145 208.874 251.262 203.988C261.406 200.21 271.774 193.745 276.043 183.347C276.387 182.509 276.153 180.507 274.904 180.535C273.571 180.565 272.239 180.617 270.905 180.584C270.364 180.57 270.075 181.107 269.885 181.519C262.824 196.914 280.451 200.721 292.01 199.964C313.903 198.53 331.035 181.147 351.108 174.189C351.667 173.995 351.566 172.487 350.93 172.62C340.656 174.768 331.711 178.934 322.55 183.96C314.3 188.487 305.633 193.323 296.276 195.048C290.112 196.184 283.343 196.172 277.323 194.354C274.595 193.53 271.62 191.983 270.868 189.01C270.665 188.205 271.391 184.248 271.29 184.25C272.524 184.22 273.761 184.278 274.995 184.306C274.615 183.368 274.236 182.431 273.856 181.494C269.633 190.897 259.534 196.219 250.387 199.76C238.441 204.384 225.365 206.138 212.611 206.133C194.346 206.126 161.189 201.115 162.539 176.406C162.589 175.51 161.48 175.189 161.375 176.197Z" fill="#4B4849" />
                            </g>
                            <g id="Group_16">
                                <path id="Vector_21" d="M293.15 221.136C278.208 214.829 259.087 222.644 245.138 228.287C229.892 234.454 214.423 241.909 201.247 251.834C189.741 260.502 172.344 275.431 180.694 291.597C188.298 306.319 209.716 303.475 216.942 289.855C217.496 288.812 217.499 286.486 215.899 286.363C195.511 284.797 180.765 307.276 187.558 325.899C189.947 332.448 195.626 337.931 202.626 339.074C205.534 339.549 212.552 339.643 212.909 335.27C213.347 329.896 205.949 328.331 201.891 328.075C192.751 327.499 184.344 336.179 178.581 342.113C171.271 349.641 164.559 357.391 156.742 364.429C148.096 372.214 139.42 380.38 134.273 390.993C127.54 404.875 129.978 422.659 134.869 436.763C136.999 442.907 140.427 449.103 145.741 453.024C151.535 457.3 158.283 455.939 164.236 452.809C165.275 452.263 165.009 449.514 163.664 450.035C143.576 457.808 136.027 433.618 134.022 418.48C132.582 407.607 133.981 397.534 139.937 388.116C146.472 377.781 156.52 369.867 165.378 361.627C172.935 354.597 178.858 346.022 186.643 339.18C190.448 335.837 194.885 332.848 199.97 332.026C202.367 331.639 209.118 332.24 210.537 334.918C209.969 333.845 210.497 334.379 208.88 334.941C207.741 335.337 206.453 335.333 205.264 335.31C201.579 335.238 198.078 333.618 195.263 331.331C185.242 323.188 187.919 307.995 195.246 299.117C200.349 292.934 208.068 289.781 216 290.483C215.652 289.319 215.305 288.155 214.958 286.991C207.749 300.012 181.953 301.419 181.459 282.886C181.249 274.998 188.864 267.744 194.152 262.859C199.151 258.241 204.753 253.764 210.592 250.252C223.072 242.746 236.204 236.181 249.739 230.807C262.457 225.757 278.955 219.69 292.749 223.71C294.019 224.078 294.156 221.56 293.15 221.136Z" fill="#4B4849" />
                            </g>
                            <g id="Group_17">
                                <path id="Vector_22" d="M296.265 260.537C284.168 252.324 269.511 264.98 261.84 273.712C252.847 283.948 243.969 299.624 248.578 313.629C249.627 316.818 251.935 319.211 254.261 321.519C256.776 324.015 260.473 325.664 262.753 328.298C261.986 327.412 263.199 326.735 261.96 327.86C261.42 328.35 260.817 328.779 260.237 329.218C258.319 330.671 256.354 332.063 254.425 333.502C249.669 337.051 244.69 340.699 241.42 345.746C237.877 351.214 240.191 356.631 243.334 361.561C247.529 368.142 252.008 381.742 242.108 385.797C236.783 387.978 229.605 385.621 224.099 385.291C217.909 384.92 212.511 386.712 208.934 391.954C208.226 392.991 208.476 394.864 209.632 395.467C214.035 397.765 218.275 400.332 222.304 403.239C222.503 401.939 222.701 400.639 222.899 399.339C210.107 402.153 197.427 404.915 195.599 419.998C194.814 426.473 196.009 432.177 200.207 437.226C201.994 439.375 204.129 441.206 205.901 443.368C208.929 447.061 205.489 448.588 202.352 450.591C196.12 454.567 192.145 457.755 190.227 465.24C188.281 472.837 192.359 480.85 196.687 486.862C205.85 499.59 224.08 508.024 239.31 502.166C240.542 501.692 240.381 498.326 238.906 498.607C224.362 501.38 209.284 495.466 199.864 484.182C194.537 477.8 190.013 467.663 196.323 460.345C199.868 456.233 206.572 454.96 209.507 450.308C214.889 441.778 200.873 434.677 198.803 427.601C196.928 421.191 199.428 413.547 204.642 409.571C209.667 405.74 217.013 404.745 223 403.506C224.549 403.186 224.798 400.496 223.595 399.606C219.373 396.487 214.951 393.744 210.267 391.378C210.5 392.549 210.733 393.72 210.965 394.891C220.041 381.264 242.142 399.218 248.941 382.768C251.97 375.441 250.278 367.316 246.449 360.728C244.917 358.093 242.471 355.441 242.205 352.282C241.748 346.861 249.564 341.766 253.142 338.959C256.623 336.228 260.488 333.849 263.762 330.866C265.12 329.629 265.619 327.845 264.904 326.127C264.081 324.15 261.496 322.707 259.948 321.393C256.534 318.495 252.871 315.437 251.19 311.184C248.371 304.053 252.164 295.037 255.422 288.735C259.419 281.002 265.092 274.07 271.766 268.502C278.105 263.212 287.673 257.972 295.796 262.405C296.598 262.843 296.852 260.936 296.265 260.537Z" fill="#4B4849" />
                            </g>
                            <g id="Group_18">
                                <path id="Vector_23" d="M306.147 338.378C307.948 337.469 309.023 338.136 309.684 336.045C309.836 335.565 309.848 334.332 309.141 334.196C290.235 330.571 271.884 348.129 264.554 363.818C261.293 370.798 259.801 379.602 263.48 386.713C268.083 395.612 279.003 397.096 288.007 396.741C287.969 395.195 287.931 393.649 287.893 392.102C275.376 394.48 262.447 397.517 256.758 410.222C252.72 419.239 253.142 431.325 264.606 433.633C264.354 432.366 264.102 431.101 263.851 429.834C259.545 437.113 252.277 441.332 247.204 447.91C241.487 455.322 241.108 464.387 243.168 473.253C247.526 492.005 267.608 508.363 287.179 500.527C287.967 500.212 287.894 498.229 286.922 498.269C277.598 498.655 269.111 497.707 261.079 492.532C253.279 487.507 248.129 479.411 246.035 470.469C243.933 461.496 246.203 454.248 252.577 447.857C257.361 443.06 262.5 438.886 266.051 433.008C266.597 432.103 266.741 429.518 265.296 429.209C254.417 426.887 256.767 415.724 261.579 408.502C267.248 399.995 278.774 398.339 288.009 396.739C290.01 396.392 290.008 392.062 287.895 392.101C280.247 392.244 269.842 391.393 265.816 383.692C262.514 377.377 265.402 369.295 268.393 363.46C276.193 348.245 291.604 336.602 308.983 336.687C308.702 336.159 308.422 335.63 308.141 335.102C308.034 335.695 306.217 336.164 305.754 336.463C305.096 336.891 305.261 338.825 306.147 338.378Z" fill="#4B4849" />
                            </g>
                            <g id="Group_19">
                                <path id="Vector_24" d="M470.396 23.9525C466.114 35.2895 468.124 47.4765 477.496 55.6545C487.595 64.4675 502.192 63.5105 513.437 57.7785C512.737 57.0065 512.038 56.2335 511.338 55.4615C511.508 75.0415 527.458 95.3275 548.505 87.1115C547.802 86.6995 547.099 86.2875 546.396 85.8755C551.313 95.3445 559.45 104.157 570.544 105.566C583.314 107.187 588.823 94.0555 591.718 84.1095C592.495 81.4395 592.16 77.4155 594.097 75.2985C598.828 70.1295 605.021 66.2405 609.978 61.2185C621.297 49.7505 630.382 34.9925 629.744 18.4025C629.699 17.2395 628.286 16.7155 628.175 18.1185C626.937 33.7275 617.617 46.8585 606.919 57.6775C602.449 62.1975 597.266 65.8065 592.635 70.1215C590.796 71.8345 589.829 73.8025 589.477 76.2715C588.162 85.4815 584.709 98.3285 573.957 99.9815C563.307 101.619 553.886 91.4315 549.503 82.9685C549.081 82.1545 548.422 81.3325 547.394 81.7325C529.483 88.6925 515.112 72.4975 514.561 55.3825C514.532 54.4725 513.797 52.3625 512.462 53.0655C502.989 58.0515 491.886 58.7195 482.306 53.6625C471.629 48.0265 468.471 35.9795 471.503 24.8915C471.722 24.0935 470.855 22.7365 470.396 23.9525Z" fill="#4B4849" />
                            </g>
                            <g id="Group_20">
                                <path id="Vector_25" d="M473.811 28.7475C467.748 32.0035 468.33 39.4975 470.043 45.2095C472.418 53.1235 477.715 60.3355 484.892 64.4615C491.564 68.2975 498.989 69.9395 505.968 73.0305C515.004 77.0325 517.22 86.2685 516.424 95.4975C515.975 100.703 514.291 105.827 518.201 110.199C521.237 113.593 525.381 116.01 529.715 117.293C532.533 118.127 545.308 118.928 542.325 125.062C539.413 131.049 534.313 135.952 540.468 142.069C545.743 147.312 556.456 145.079 563.011 144.92C565.051 144.87 565.168 140.44 563.327 140.001C561.991 139.682 560.656 139.364 559.32 139.045C558.426 138.831 557.826 139.402 557.528 140.217C546.719 169.799 599.339 166.166 607.447 144.69C607.849 143.625 607.717 141.319 606.339 140.917C603.447 140.072 601.932 139.183 598.886 139.85C596.825 140.301 596.632 144.11 598.561 144.912C615.048 151.766 631.342 136.033 641.368 124.871C653.448 111.423 663.606 95.7325 670.82 79.1595C671.25 78.1705 670.088 75.8845 669.225 77.3755C660.942 91.6785 651.681 105.811 641.02 118.452C631.681 129.525 615.563 146.748 599.336 139.93C599.228 141.618 599.12 143.305 599.011 144.992C601.679 144.419 603.026 145.175 605.558 145.925C605.189 144.667 604.819 143.409 604.45 142.152C600.628 152.187 587.408 156.006 577.754 156.624C568.941 157.188 555.936 154.05 560.369 142.625C559.772 143.016 559.175 143.407 558.577 143.797C559.908 144.145 561.239 144.493 562.57 144.841C562.675 143.201 562.781 141.561 562.885 139.922C556.57 139.937 545.617 142.299 541.059 136.632C539.245 134.377 543.75 129.77 544.681 127.7C545.912 124.963 545.741 122.708 544.586 119.988C541.61 112.977 532.222 113.802 526.311 111.078C523.501 109.784 518.882 106.86 518.601 103.383C518.379 100.648 519.32 97.7545 519.47 95.0165C519.841 88.2565 518.999 80.9475 515.159 75.2105C511.984 70.4665 506.338 68.2525 501.181 66.4545C494.163 64.0085 486.436 61.8485 480.8 56.7505C474.406 50.9685 466.749 37.5095 474.195 30.0215C474.501 29.7185 474.421 28.4195 473.811 28.7475Z" fill="#4B4849" />
                            </g>
                            <g id="Group_21">
                                <path id="Vector_26" d="M475.385 24.9435C470.012 36.7085 466.175 54.1645 474.859 65.2675C477.899 69.1545 482.347 71.4665 486.521 73.9055C493.269 77.8485 496.183 82.9245 495.609 90.8975C495.535 91.9205 495.741 93.3785 497.002 93.5195C500.894 93.9555 504.747 95.2635 504.99 99.7405C505.178 103.196 503.407 106.924 501.93 109.949C501.542 110.743 501.295 113.85 503.001 113.538C506.818 112.84 511.747 111.93 514.975 114.702C517.281 116.682 516.748 121.094 516.572 123.754C516.167 129.845 514.926 136.349 517.988 141.968C519.246 144.276 522.439 145.94 524.568 147.265C527.769 149.257 531.1 151.035 534.369 152.911C540.112 156.208 552.506 162.711 547.933 170.952C547.458 171.807 547.272 174.165 548.632 174.467C556.754 176.268 566.216 174.8 573.004 180.535C575.665 182.783 577.075 186.704 579.206 189.434C581.001 191.734 583.69 193.149 586.23 194.471C599.746 201.508 615.921 201.833 630.574 204.834C631.528 205.03 632.031 204.477 632.393 203.644C636.274 194.727 639.465 185.531 643.366 176.622C642.359 176.235 641.351 175.848 640.344 175.461C640.214 195.749 633.421 227.613 657.059 237.745C668.529 242.662 682.642 239.863 694.398 237.706C706.772 235.436 719.333 232.182 731.995 232.276C733.514 232.287 733.586 228.94 732.229 228.625C721.472 226.124 710.179 229.254 699.606 231.379C687.808 233.752 675.18 236.608 663.141 234.378C636.138 229.377 643.442 195.066 643.555 175.381C643.566 173.395 641.518 171.965 640.533 174.22C636.642 183.125 633.416 192.301 629.506 201.198C630.113 200.802 630.719 200.405 631.325 200.008C616.486 196.895 600.856 196.394 586.956 189.806C583.029 187.945 580.627 185.604 578.278 182.015C576.681 179.576 575.146 177.106 572.613 175.554C565.298 171.073 557.314 172.139 549.267 170.375C549.5 171.546 549.733 172.718 549.966 173.89C559.53 156.576 530.892 148.165 521.328 140.306C515.828 135.786 519.98 124.275 519.321 118.052C518.355 108.921 510.691 107.87 502.897 109.305C503.254 110.501 503.611 111.698 503.968 112.894C508.595 103.394 510.555 90.8315 496.897 89.3245C497.362 90.1985 497.826 91.0725 498.29 91.9465C498.684 86.3935 498.267 80.9685 495.005 76.2815C492.374 72.5025 487.941 70.3505 484.072 68.1025C477.913 64.5235 473.666 60.0485 472.501 52.7725C471.091 43.9655 473.263 34.0735 476.515 25.9005C476.849 25.0625 475.92 23.7705 475.385 24.9435Z" fill="#4B4849" />
                            </g>
                        </g>
                        <g id="Group_22">
                            <path id="Vector_27" d="M327.059 409.722C318.39 406.624 310.459 410.769 307.248 419.321C304.229 427.36 309.215 435.753 318.004 435.613C317.729 434.257 317.453 432.903 317.178 431.548C310.938 435.798 304.672 440.869 302.713 448.501C301.462 453.376 302.976 459.925 307.589 462.61C309.071 463.472 310.634 463.929 312.321 464.2C313.067 464.32 313.814 464.422 314.561 464.531C316.145 464.762 315.82 464.217 315.307 465.24C311.782 472.272 305.985 476.645 299.4 480.471C295.401 482.795 291.417 485.761 290.506 490.6C289.315 496.93 291.682 503.316 295.488 508.319C299.821 514.014 306.297 517.977 312.939 520.385C318.428 522.375 326.565 523.548 331.487 519.724C332.277 519.111 332.1 516.938 330.912 516.898C328.264 516.81 325.716 517.324 323.047 517.171C319.867 516.988 316.763 516.094 313.768 515.063C307.374 512.863 301.376 508.747 297.264 503.371C293.252 498.126 292.208 491.516 297.595 487.105C301.641 483.792 306.442 481.764 310.219 478.05C312.865 475.447 323.457 463.618 316.205 460.35C313.205 458.998 310.27 459.32 307.651 456.929C300.026 449.967 312.94 438.858 318.384 435.524C319.49 434.846 320.022 431.613 318.28 431.298C311.831 430.134 307.985 426.784 310.362 419.989C312.684 413.346 320.082 409.255 326.841 411.12C327.528 411.311 327.626 409.925 327.059 409.722Z" fill="#4B4849" />
                        </g>
                        <g id="Group_23">
                            <path id="Vector_28" d="M358.92 444.153C349.43 446.163 342.425 455.712 340.229 464.745C339.422 468.066 339.02 472.274 341.336 475.116C344.234 478.67 349.257 476.387 352.378 474.493C351.982 473.188 351.586 471.883 351.19 470.578C342.203 478.591 335.723 487.607 335.861 500.15C335.981 511.101 343.47 523.513 354.99 525.024C356.309 525.197 356.139 522.568 355.448 522.027C347.703 515.967 340.284 510.727 339.581 500.058C338.963 490.67 344.303 479.462 352.378 474.493C353.823 473.604 353.51 469.463 351.524 470.352C349.552 471.234 345.076 473.521 343.241 471.226C341.688 469.284 343.165 465.264 343.822 463.278C346.097 456.403 351.535 448.406 358.982 446.691C360.093 446.436 359.98 443.928 358.92 444.153Z" fill="#4B4849" />
                        </g>
                        <g id="Group_24">
                            <path id="Vector_29" d="M593.829 219.197C599.702 221.146 604.65 224.461 606.369 230.687C607.649 235.322 606.902 240.46 606.475 245.16C605.823 252.336 604.949 261.77 611.161 266.923C618.142 272.713 631.514 268.131 639.393 267.222C645.289 266.542 651.06 266.635 654.79 271.987C658.313 277.042 655.302 286.593 655.694 292.451C655.755 293.355 656.216 294.561 657.328 294.255C660.118 293.486 662.632 293.438 665.323 292.23C664.977 291.089 664.631 289.949 664.285 288.808C658.383 295.482 642.708 301.857 646.062 313.093C648.906 322.619 661.202 329.642 669.187 334.287C677.876 339.342 687.53 337.812 697.125 336.657C701.087 336.18 722.82 331.223 723.603 338.026C723.891 340.527 726.342 339.425 726.359 337.387C726.422 329.72 717.658 329.815 712.06 330.115C701.688 330.67 691.489 333.264 681.078 333.261C671.149 333.257 661.815 325.56 654.74 319.295C652.719 317.506 650.886 315.531 649.387 313.284C647.197 310.001 649.179 306.984 651.481 304.407C655.668 299.721 661.421 296.726 665.614 292.034C666.361 291.199 666.342 287.832 664.576 288.612C661.942 289.776 659.296 289.854 656.571 290.587C657.115 291.188 657.66 291.79 658.205 292.391C657.524 282.784 661.842 268.389 649.656 264.104C639.015 260.363 626.991 267.465 616.042 265.235C604.638 262.912 608.869 245.75 608.935 237.679C609.02 227.276 604.221 220.427 594.071 217.646C593.311 217.439 593.194 218.987 593.829 219.197Z" fill="#4B4849" />
                        </g>
                        <g id="Group_25">
                            <path id="Vector_30" d="M628.566 320.039C632.913 325.537 636.132 331.686 635.626 338.884C635.212 344.759 631.734 349.941 627.832 354.108C623.835 358.376 618.647 361.885 613.296 364.201C609.627 365.789 605.709 366.959 602.297 369.081C596.983 372.388 598.557 378.192 601.205 382.744C606.67 392.138 615.431 397.409 625.99 399.004C625.723 398.11 625.456 397.216 625.189 396.322C619.911 402.855 612.919 406.708 605.533 410.398C604.056 411.136 604.237 414.312 606.003 414.53C615.076 415.652 625.306 416.205 632.526 422.486C640.151 429.12 639.247 438.861 637.242 447.619C634.707 458.69 628.408 481.432 646.978 481.514C647.923 481.518 647.846 479.654 647.116 479.362C643.307 477.837 639.584 476.112 637.882 472.137C636.299 468.444 636.968 464.044 637.579 460.219C638.838 452.33 641.591 444.657 641.654 436.602C641.713 429.011 637.485 421.195 631.341 416.883C624.154 411.838 614.317 411.36 605.901 410.313C606.058 411.69 606.214 413.068 606.371 414.445C614.209 410.451 621.598 405.836 626.715 398.521C627.289 397.7 627.034 396.008 625.914 395.839C619.824 394.918 614.402 392.005 609.837 387.941C607.654 385.997 599.924 378.19 601.726 374.575C603.069 371.879 607.915 370.528 610.441 369.419C615.118 367.368 619.415 364.949 623.51 361.89C630.418 356.727 635.845 349.469 637.353 340.879C638.825 332.496 634.72 324.661 629.22 318.673C628.63 318.035 628.202 319.579 628.566 320.039Z" fill="#4B4849" />
                        </g>
                        <g id="Group_26">
                            <path id="Vector_31" d="M569.12 341.247C576.532 339.537 583.544 343.304 588.036 349.091C592.863 355.31 591.092 362.697 587.02 368.686C580.935 377.634 570.561 383.073 562.179 389.552C561.156 390.343 561.322 392.558 562.272 393.327C570.649 400.115 583.287 398.973 591.484 406.007C599.885 413.216 574.198 425.03 570.235 428.69C569.418 429.444 569.256 432.049 570.644 432.384C576.017 433.683 582.181 431.651 587.531 430.956C589.801 430.662 593.316 430.001 595.325 431.448C596.74 432.466 592.791 435.995 592.089 436.552C590.306 437.967 587.931 438.708 585.79 439.366C578.945 441.472 570.503 441.092 564.477 445.407C559.732 448.804 557.41 455.008 557.221 460.681C556.807 473.141 569.583 481.375 579.808 485.117C591.126 489.259 607.146 490.723 616.309 481.29C616.738 480.848 616.597 478.934 615.75 479.448C604.378 486.337 589.43 484.833 577.6 479.969C566.279 475.314 551.815 460.82 565.123 449.378C572.972 442.63 597.077 446.726 597.769 432.198C598.255 422.001 576.673 429.676 571.256 428.461C571.392 429.692 571.528 430.924 571.665 432.155C578.175 426.008 598.155 419.812 595.282 407.766C593.952 402.188 588.787 399.894 583.861 397.926C577.244 395.281 569.347 393.981 563.628 389.517C563.659 390.775 563.69 392.034 563.721 393.292C574.028 385.013 589.263 376.778 592.308 362.703C595.21 349.289 582.52 335.93 568.78 339.598C568.09 339.781 568.297 341.437 569.12 341.247Z" fill="#4B4849" />
                        </g>
                        <g id="Group_27">
                            <path id="Vector_32" d="M505.012 395.722C515.728 388.593 524.331 406.319 526.518 414.157C528.036 419.6 528.453 426.047 524.701 430.687C520.728 435.601 514.385 438.827 509.224 442.296C502.337 446.925 492.392 454.112 498.169 463.609C502.854 471.312 515.761 472.091 522.549 466.877C523.494 466.151 522.893 462.974 521.612 463.79C509.275 471.649 493.347 484.715 498.5 501.435C503.731 518.411 524.157 525.477 539.973 527.379C540.76 527.474 540.76 525.706 540.094 525.496C526.864 521.323 509.262 515.797 502.388 502.493C494.76 487.731 511.291 473.856 522.286 467.055C521.974 466.026 521.662 464.996 521.35 463.968C512.889 470.295 491.543 462.887 502.556 451.919C510.288 444.219 523.097 439.934 528.046 429.761C532.099 421.431 528.133 410.342 523.943 402.903C520.264 396.371 511.877 387.776 504.839 395.155C504.709 395.292 504.762 395.888 505.012 395.722Z" fill="#4B4849" />
                        </g>
                    </g>
                </g>
            </g>
            <animateTransform attributeName="transform" type="rotate" values="0 100 100;5 100 100;0 100 100" dur="2s" repeatCount="indefinite" />
        </g>
        <g id="Group 1">
            <g id="Group_28">
                <path id="Vector_33" d="M384.555 2369.79C384.853 2348.34 387.534 2297.39 391.408 2286.96C395.281 2276.53 397.664 2267.59 397.367 2258.35C397.069 2249.12 397.069 2186.55 397.069 2186.55L456.816 2195.62C456.816 2195.62 444.835 2250.24 447.816 2266.93C450.795 2283.61 468.577 2332.84 469.77 2366.51C470.613 2390.36 456.659 2393.92 456.659 2393.92H389.323C389.323 2393.92 384.258 2391.24 384.555 2369.79Z" fill="#703622" />
                <path id="Vector_34" d="M394.685 2346.55C399.452 2351.02 450.401 2350.42 454.871 2346.55C457.69 2344.11 456.162 2314.5 454.649 2292.97C460.878 2314.96 468.978 2344.16 469.77 2366.51C470.613 2390.36 456.659 2393.92 456.659 2393.92H389.323C389.323 2393.92 374.668 2391.14 374.966 2369.69C375.249 2349.33 386.317 2302.49 390.755 2288.86C390.807 2309.68 391.407 2343.48 394.685 2346.55Z" fill="#1C1037" />
                <path id="Vector_35" d="M456.815 2195.62C456.815 2195.62 452.127 2216.99 449.346 2237.08L397.147 2233.17C397.068 2212.27 397.068 2186.55 397.068 2186.55L456.815 2195.62Z" fill="#441C23" />
            </g>
            <g id="Group_29">
                <path id="Vector_36" d="M95.4432 2373.09C95.3202 2364.24 96.1232 2349.8 96.8372 2335.16C92.5932 2316.87 87.6582 2299 86.8872 2292.82C85.0722 2278.26 85.2932 2276.22 87.1682 2270.31C89.9642 2261.5 121.771 2167.35 121.771 2167.35L61.4812 2139.76C61.4812 2139.76 44.7732 2239.49 38.1482 2255.09C29.4272 2275.63 11.4192 2336.15 10.2282 2369.82C9.3842 2393.67 23.3392 2397.23 23.3392 2397.23H90.6762C90.6762 2397.23 95.7412 2394.55 95.4432 2373.09Z" fill="#703622" />
                <path id="Vector_37" d="M85.3132 2349.85C80.5462 2354.32 29.5972 2353.73 25.1272 2349.85C21.8632 2347.02 26.0452 2304.93 28.5392 2282.43C20.1672 2309.4 11.0642 2346.21 10.2292 2369.82C9.38518 2393.67 23.3402 2397.23 23.3402 2397.23H90.6772C90.6772 2397.23 103.504 2395.01 103.205 2373.56C103.002 2358.92 96.1172 2331.79 91.3272 2312.54C89.8332 2329.68 87.7262 2347.59 85.3132 2349.85Z" fill="#1C1037" />
                <path id="Vector_38" d="M52.8613 2188.55L109.426 2203.93C116.15 2183.99 121.772 2167.35 121.772 2167.35L61.4823 2139.76C61.4823 2139.76 57.6133 2162.85 52.8613 2188.55Z" fill="#441C23" />
            </g>
            <g id="Group_30">
                <path id="Vector_39" d="M587.113 1089.15C587.113 1089.15 642.701 1128.41 642.712 1244.88C642.742 1580.67 537.439 1753.89 530.687 1791.03C524.618 1824.41 536.342 1903.14 535.862 1926.33C534.438 1995.08 465.071 2224.15 465.071 2224.15C465.071 2224.15 445.888 2227.23 426.816 2224.15C404.54 2220.56 397.089 2213.57 397.089 2213.57C397.089 2213.57 394.133 2047.39 405.16 1926.82C410.743 1865.78 420.278 1818.52 419.466 1807.53C416.413 1766.27 419.833 1339.41 419.833 1339.41C419.833 1339.41 338.068 1598.87 323.764 1638.18C310.675 1674.14 279.308 1788.97 269.187 1806.97C259.066 1824.97 250.057 1849.73 246.681 1859.86C243.305 1869.99 232.615 1924.56 224.738 1939.19C216.861 1953.82 114.175 2189.85 114.175 2189.85C114.175 2189.85 100.15 2189.85 79.4828 2185.76C56.3188 2181.16 46.1338 2170.67 46.1338 2170.67C46.1338 2170.67 85.5198 1923.45 100.461 1890.8C115.653 1857.61 158.82 1798.42 161.071 1777.03C163.322 1755.65 150.583 1493.87 165.817 1361.22C180.42 1234.06 189.295 1197.54 198.618 1164.09C207.941 1130.65 262.507 1077.51 262.507 1077.51L587.113 1089.15Z" fill="#211740" />
                <path id="Vector_40" d="M587.113 1089.15L262.506 1077.51C262.506 1077.51 207.941 1130.65 198.617 1164.09C197.434 1168.34 196.259 1172.63 195.078 1177.15C239.114 1209.01 322.715 1230.42 427.409 1230.42C528.693 1230.42 597.065 1216.98 639.02 1195.55C626.603 1117.04 587.113 1089.15 587.113 1089.15Z" fill="#1C1037" />
            </g>
            <g id="Group_31">
                <path id="Vector_41" d="M592.45 287.935C587.911 288.088 583.561 289.506 578.947 295.324C575 323.073 567.401 348.227 557.391 370.553C560.161 373.628 564.499 376.784 570.558 375.207C618.7 362.672 607.722 287.418 592.45 287.935Z" fill="#441C23" />
            </g>
            <g id="Group_32">
                <path id="Vector_42" d="M248.406 287.935C252.945 288.088 257.295 289.506 261.909 295.324C265.856 323.073 273.455 348.227 283.465 370.553C280.695 373.628 276.357 376.784 270.298 375.207C222.156 362.672 233.134 287.418 248.406 287.935Z" fill="#441C23" />
            </g>
            <g id="Group_33">
                <path id="Vector_43" d="M473.114 546.403C454.818 519.266 463.3 447.983 463.3 447.983L377.3 445.362C377.3 445.362 385.781 516.644 367.485 543.781C351.145 568.014 296.006 573.64 296.006 573.64C296.006 573.64 302.57 708.902 420.299 708.489C525.763 708.12 544.593 576.261 544.593 576.261C544.593 576.261 489.454 570.635 473.114 546.403Z" fill="#703622" />
                <path id="Vector_44" d="M461.355 487.867C461.124 466.284 463.299 447.983 463.299 447.983L377.299 445.362C377.299 445.362 379.731 465.812 379.179 488.974C387.237 504.025 402.482 514.187 419.975 514.187C437.897 514.188 453.464 503.528 461.355 487.867Z" fill="#441C23" />
            </g>
            <g id="Group_34">
                <g id="Group_35">
                    <path id="Vector_45" d="M325.904 563.76L373.138 532.371C373.138 532.371 403.369 572.498 420.3 571.935C437.232 571.372 466.642 532.371 466.642 532.371L514.697 563.76L525.005 699.659C525.005 699.659 509.711 807.124 420.3 803.748C330.89 800.372 306.284 699.756 306.284 699.756L325.904 563.76Z" fill="#CBD4EF" />
                </g>
                <path id="Vector_46" d="M373.138 532.371L325.904 563.76L324.454 572.355C335.152 598.845 350.932 627.884 369.339 630.264C412.851 635.891 420.3 571.936 420.3 571.936C403.369 572.498 373.138 532.371 373.138 532.371Z" fill="white" />
                <path id="Vector_47" d="M471.263 630.264C489.287 627.933 504.793 600.04 515.474 574.008L514.697 563.76L466.642 532.371C466.642 532.371 437.232 571.373 420.3 571.935C420.3 571.935 427.75 635.89 471.263 630.264Z" fill="white" />
                <g id="Group_36">
                    <path id="Vector_48" d="M396.72 997.861L314.573 1148.65C314.573 1148.65 367.65 1170.03 419.883 1165.53C472.115 1161.03 508.125 1148.65 508.125 1148.65L458.612 988.859L396.72 997.861Z" fill="#CBD4EF" />
                </g>
            </g>
            <g id="Group_37">
                <g id="Clip path group_2">
                    <mask id="mask1_2_4" style="mask-type:luminance" maskUnits="userSpaceOnUse" x="213" y="563" width="413" height="632">
                        <g id="SVGID_00000180368786490581986850000004838382138223490456_">
                            <path id="Vector_49" d="M420.165 1097.26C420.165 1097.26 435.281 1145.9 450.345 1194.83C529.63 1189.58 608.469 1155.64 625.772 1118.47C629.899 1109.61 570.069 1017.48 554.972 962.807C545.108 927.086 540.196 813.558 540.196 813.558C540.196 813.558 548.198 815.042 560.128 806.806C610.902 771.754 557.311 723.917 558.285 665.089C559.073 617.459 568.827 574.733 568.827 574.733L513.865 563.214C513.865 563.214 526.843 741.896 419.886 741.896C307.782 741.896 325.907 563.214 325.907 563.214L270.943 574.733C270.943 574.733 280.003 611.175 280.287 656.422C280.662 716.232 225.954 771.088 281.643 806.806C293.846 814.633 301.576 813.558 301.576 813.558C301.576 813.558 296.663 927.085 286.798 962.807C271.701 1017.48 209.87 1109.61 213.999 1118.47C231.302 1155.64 310.14 1189.57 389.426 1194.83C404.489 1145.9 419.606 1097.26 419.606 1097.26H420.165Z" fill="white" />
                        </g>
                    </mask>
                    <g mask="url(#mask1_2_4)">
                        <g id="Group_38">
                            <path id="Vector_50" d="M420.165 1097.26C420.165 1097.26 435.281 1145.9 450.345 1194.83C529.63 1189.58 608.469 1155.64 625.772 1118.47C629.899 1109.61 570.069 1017.48 554.972 962.807C545.108 927.086 540.196 813.558 540.196 813.558C540.196 813.558 548.198 815.042 560.128 806.806C610.902 771.754 557.311 723.917 558.285 665.089C559.073 617.459 568.827 574.733 568.827 574.733L513.865 563.214C513.865 563.214 526.843 741.896 419.886 741.896C307.782 741.896 325.907 563.214 325.907 563.214L270.943 574.733C270.943 574.733 280.003 611.175 280.287 656.422C280.662 716.232 221.287 772.421 281.643 806.806C294.239 813.982 301.576 813.558 301.576 813.558C301.576 813.558 296.663 927.085 286.798 962.807C271.701 1017.48 209.87 1109.61 213.999 1118.47C231.302 1155.64 310.14 1189.57 389.426 1194.83C404.489 1145.9 419.606 1097.26 419.606 1097.26H420.165Z" fill="#5C652E" />
                            <path id="Vector_51" opacity="0.2" d="M269.95 527.708H236.26V1237.42H269.95V527.708Z" fill="#B3C265" />
                            <path id="Vector_52" opacity="0.2" d="M338.625 527.708H304.935V1237.42H338.625V527.708Z" fill="#B3C265" />
                            <path id="Vector_53" opacity="0.2" d="M408.3 527.708H374.61V1237.42H408.3V527.708Z" fill="#B3C265" />
                            <path id="Vector_54" opacity="0.2" d="M483.694 527.708H441.004V1237.42H483.694V527.708Z" fill="#B3C265" />
                            <path id="Vector_55" opacity="0.2" d="M552.369 527.708H518.679V1237.42H552.369V527.708Z" fill="#B3C265" />
                            <path id="Vector_56" opacity="0.2" d="M621.045 527.708H587.355V1237.42H621.045V527.708Z" fill="#B3C265" />
                            <path id="Vector_57" opacity="0.2" d="M781.51 893.425H71.7959V927.115H781.51V893.425Z" fill="#B3C265" />
                            <path id="Vector_58" opacity="0.2" d="M781.51 824.75H71.7959V858.44H781.51V824.75Z" fill="#B3C265" />
                            <path id="Vector_59" opacity="0.2" d="M779.51 756.076H69.7959V789.766H779.51V756.076Z" fill="#B3C265" />
                            <path id="Vector_60" opacity="0.2" d="M779.51 689.68H69.7959V723.37H779.51V689.68Z" fill="#B3C265" />
                            <path id="Vector_61" opacity="0.2" d="M779.509 621.005H69.7949V654.695H779.509V621.005Z" fill="#B3C265" />
                            <path id="Vector_62" opacity="0.2" d="M779.509 552.331H69.7949V586.021H779.509V552.331Z" fill="#B3C265" />
                            <path id="Vector_63" opacity="0.2" d="M779.51 1165.46H69.7959V1199.15H779.51V1165.46Z" fill="#B3C265" />
                            <path id="Vector_64" opacity="0.2" d="M779.51 1099.06H69.7959V1132.75H779.51V1099.06Z" fill="#B3C265" />
                            <path id="Vector_65" opacity="0.2" d="M779.509 1030.39H69.7949V1064.08H779.509V1030.39Z" fill="#B3C265" />
                            <path id="Vector_66" opacity="0.2" d="M781.509 961.714H71.7949V995.405H781.509V961.714Z" fill="#B3C265" />
                        </g>
                    </g>
                </g>
                <g id="Clip path group_3">
                    <mask id="mask2_2_4" style="mask-type:luminance" maskUnits="userSpaceOnUse" x="213" y="563" width="413" height="632">
                        <g id="SVGID_00000180368786490581986850000004838382138223490456__2">
                            <path id="Vector_67" d="M420.165 1097.26C420.165 1097.26 435.281 1145.9 450.345 1194.83C529.63 1189.58 608.469 1155.64 625.772 1118.47C629.899 1109.61 570.069 1017.48 554.972 962.807C545.108 927.086 540.196 813.558 540.196 813.558C540.196 813.558 548.198 815.042 560.128 806.806C610.902 771.754 557.311 723.917 558.285 665.089C559.073 617.459 568.827 574.733 568.827 574.733L513.865 563.214C513.865 563.214 526.843 741.896 419.886 741.896C307.782 741.896 325.907 563.214 325.907 563.214L270.943 574.733C270.943 574.733 280.003 611.175 280.287 656.422C280.662 716.232 225.954 771.088 281.643 806.806C293.846 814.633 301.576 813.558 301.576 813.558C301.576 813.558 296.663 927.085 286.798 962.807C271.701 1017.48 209.87 1109.61 213.999 1118.47C231.302 1155.64 310.14 1189.57 389.426 1194.83C404.489 1145.9 419.606 1097.26 419.606 1097.26H420.165Z" fill="white" />
                        </g>
                    </mask>
                    <g mask="url(#mask2_2_4)">
                        <g id="Group_39">
                            <g id="Group_40">
                                <path id="Vector_68" d="M452.826 793.177C452.913 793.042 452.945 792.966 452.945 792.966L452.826 793.177Z" fill="#184155" />
                            </g>
                            <g id="Group_41">
                                <path id="Vector_69" opacity="0.4" d="M582.823 741.897C582.823 741.897 466.969 801.285 420.3 800.987C302.519 800.237 257.778 741.897 257.778 741.897L251.613 779.571C251.613 779.571 257.883 814.622 301.573 813.56C357.276 812.206 420.3 806.654 420.3 806.654C420.3 806.654 489.842 811.76 540.195 813.56C578.361 814.925 588.989 779.571 588.989 779.571L582.823 741.897Z" fill="black" />
                            </g>
                        </g>
                    </g>
                </g>
            </g>
            <g id="Group_42">
                <path id="Vector_70" d="M582.985 252.045C582.985 102.235 515.198 52.1085 420.301 52.1085H420.3C325.402 52.1085 257.616 102.234 257.616 252.045C257.616 401.854 362.46 490.991 420.3 490.993H420.301C478.14 490.99 582.985 401.854 582.985 252.045Z" fill="#703622" />
            </g>
            <path id="Vector_71" d="M618.91 210.262C618.07 205.132 616.75 199.552 614.57 194.802C612.05 189.302 608.19 184.752 604.28 180.192C599.96 175.152 595.75 170.022 595.1 163.162C594.55 157.262 597.78 151.542 598.27 145.712C600.29 121.452 579.3 105.792 564.27 90.0125C557.18 82.5725 549.24 75.7925 540.8 69.9125C533.616 64.9175 525.877 60.8575 516.924 62.1865C516.864 60.5685 516.82 58.9505 516.82 57.3325C516.82 55.7925 516.47 52.3625 517.72 51.1925C520.07 48.9725 516.53 45.4425 514.18 47.6525C512.24 49.4925 511.97 52.4925 511.87 55.1325C510.13 52.6125 507.95 50.3925 505.61 50.0125C491.8 47.7825 478.39 43.8525 465.07 39.6725C438.91 31.4725 412.39 22.4725 384.57 24.7325C356.33 27.0325 332.96 42.6825 311.19 59.5925C300.77 67.6825 291.45 75.6125 285.04 87.3525C279.54 97.4225 276.61 108.692 272.45 119.332C270.14 125.232 267.25 130.852 263.79 136.162C260.23 141.622 255.48 146.162 251.06 150.902C242.91 159.642 236.74 170.262 237.03 182.552C237.18 189.122 238.99 195.632 239.62 202.162C240.38 209.992 239.31 217.872 237.28 225.432C233.49 239.502 225.05 250.942 215.46 261.592C208.12 269.762 198.43 279.522 197.2 291.032C196.05 301.792 200.99 309.062 206.25 317.872C211.66 326.922 211.8 336.512 208.3 346.232C205.51 353.972 201 361.052 199.49 369.242C196.26 386.702 212.22 399.882 225.47 408.022C241.03 417.582 259.75 419.982 276.04 410.902C291.2 402.442 304.2 384.132 304.03 366.382C303.88 350.322 291.04 339.872 277.28 334.362C279.89 331.042 281.34 327.362 281.57 322.802C281.72 320.072 281.44 317.342 281.56 314.612C281.72 310.702 283.22 306.712 284.44 303.022C285.87 298.742 287.6 294.762 287.16 290.152C286.91 287.562 286.09 285.062 285.25 282.612C284.3 279.882 283.37 275.952 281.22 273.832C279.24 271.862 278.55 271.622 278.45 268.422C278.35 265.382 281.02 262.742 282.56 260.272C285.29 255.892 284.87 249.852 282.07 245.572C279.91 242.272 275.85 241.872 272.29 242.382C267.91 243.012 263.64 244.332 259.25 244.342C264.6 235.362 267.1 225.352 269.43 215.182C285.47 224.112 307.39 211.152 318.86 199.682C324.58 193.962 330.81 185.592 329.81 176.992C329.2 171.732 325.91 168.392 321.71 166.242C337.19 164.792 354.02 164.792 362.53 149.842C366.38 143.062 364.8 134.772 363.77 127.452C363.3 124.082 360.3 112.142 363.24 107.632C363.37 115.552 366.75 122.732 374.47 126.362C383.21 130.472 393.85 129.332 402.86 126.832C416.09 123.172 435.73 110.832 430.65 96.2225C436.33 99.0525 441.62 103.222 447.41 105.532C452.52 107.582 456.31 106.502 458.45 103.472C460.7 105.192 463.8 106.222 466.74 106.672C476.427 108.171 486.903 106.328 496.112 103.066C493.813 113.045 492.264 123.525 492.881 133.532C493.501 143.552 499.051 154.312 510.011 155.552C514.061 156.012 517.771 155.212 521.011 153.512C520.841 155.602 520.791 157.612 520.751 159.382C520.561 167.742 521.131 176.892 524.541 184.632C527.591 191.552 533.561 200.032 540.941 202.772C546.821 204.962 550.331 201.812 552.331 197.352C553.381 198.842 554.661 200.252 556.041 201.692C559.761 205.582 562.781 211.702 557.461 215.662C554.771 217.652 552.311 219.652 552.181 223.302C551.991 229.112 554.651 235.332 557.621 240.212C562.731 248.602 571.931 251.732 581.221 249.252C589.361 247.082 596.311 241.182 601.391 234.362C602.941 238.812 606.381 241.732 611.901 237.882C620.68 231.762 620.44 219.612 618.91 210.262Z" fill="#1E1A1B" />
            <g id="Group_43">
                <path id="Vector_72" d="M421.211 359.711C406.215 359.711 392.586 358.489 382.417 349.966C392.115 364.511 412.131 370.683 421.211 370.683C430.521 370.683 450.499 364.472 460.105 349.879C449.927 358.452 436.257 359.711 421.211 359.711Z" fill="#441C23" />
            </g>
            <g id="Group_44">
                <path id="Vector_73" d="M369.442 354.881C367.92 365.751 352.091 372.518 334.089 369.997C316.088 367.476 302.728 356.619 304.25 345.75C305.773 334.88 321.602 328.112 339.603 330.634C357.604 333.155 370.965 344.011 369.442 354.881Z" fill="#862C2C" />
            </g>
            <g id="Group_45">
                <path id="Vector_74" d="M470.713 354.881C472.236 365.751 488.064 372.518 506.065 369.997C524.067 367.476 537.427 356.619 535.904 345.75C534.382 334.88 518.553 328.112 500.552 330.634C482.551 333.155 469.191 344.011 470.713 354.881Z" fill="#862C2C" />
            </g>
            <g id="Group_46">
                <g id="Group_47">
                    <path id="Vector_75" d="M498.283 278.465C529.669 271.055 509.375 314.283 510.765 317.233C542.241 313.938 547.192 292.467 547.192 292.467C547.192 292.467 536.022 255.423 498.737 261.074C468.869 265.601 466.013 297.335 466.013 305.101C470.623 294.376 480.476 282.668 498.283 278.465Z" fill="#231F20" />
                </g>
                <g id="Group_48">
                    <path id="Vector_76" d="M465.565 311.087C465.565 311.087 463.47 284.791 496.283 275.755C534.136 265.332 538.95 297.153 538.95 297.153C538.95 297.153 531.617 313.756 508.271 317.843C483.801 322.127 465.565 311.087 465.565 311.087Z" fill="white" />
                </g>
                <g id="Group_49">
                    <path id="Vector_77" d="M526.7 288.781C528.161 302.734 518.034 315.228 504.082 316.689C490.127 318.15 477.632 308.024 476.172 294.072C474.71 280.117 484.837 267.622 498.791 266.161C512.746 264.701 525.24 274.827 526.7 288.781Z" fill="#231F20" />
                </g>
                <g id="Group_50">
                    <path id="Vector_78" d="M520.318 275.085C522.275 278.091 522.476 281.427 520.767 282.538C519.061 283.649 516.092 282.113 514.135 279.107C512.181 276.102 511.979 272.764 513.687 271.653C515.394 270.544 518.363 272.08 520.318 275.085Z" fill="white" />
                </g>
                <g id="Group_51">
                    <path id="Vector_79" d="M519.013 287.669C519.159 289.068 518.145 290.321 516.746 290.467C515.348 290.614 514.096 289.598 513.948 288.2C513.802 286.801 514.817 285.549 516.216 285.403C517.615 285.256 518.866 286.27 519.013 287.669Z" fill="white" />
                </g>
            </g>
            <g id="Group_52">
                <g id="Group_53">
                    <path id="Vector_80" d="M348.77 278.465C317.384 271.055 337.678 314.283 336.288 317.233C304.812 313.938 299.861 292.467 299.861 292.467C299.861 292.467 311.031 255.423 348.316 261.074C378.184 265.601 381.04 297.335 381.04 305.101C376.43 294.376 366.577 282.668 348.77 278.465Z" fill="#231F20" />
                </g>
                <g id="Group_54">
                    <path id="Vector_81" d="M381.49 311.087C381.49 311.087 383.584 284.791 350.771 275.755C312.918 265.332 308.104 297.152 308.104 297.152C308.104 297.152 315.438 313.755 338.784 317.842C363.254 322.127 381.49 311.087 381.49 311.087Z" fill="white" />
                </g>
                <g id="Group_55">
                    <path id="Vector_82" d="M320.353 288.781C318.892 302.734 329.019 315.228 342.971 316.689C356.926 318.15 369.421 308.024 370.881 294.072C372.343 280.117 362.216 267.622 348.262 266.161C334.308 264.701 321.814 274.827 320.353 288.781Z" fill="#231F20" />
                </g>
                <g id="Group_56">
                    <path id="Vector_83" d="M326.736 275.085C324.779 278.091 324.578 281.427 326.287 282.538C327.993 283.649 330.962 282.113 332.919 279.107C334.874 276.102 335.075 272.764 333.367 271.653C331.659 270.544 328.691 272.08 326.736 275.085Z" fill="white" />
                </g>
                <g id="Group_57">
                    <path id="Vector_84" d="M328.041 287.669C327.895 289.068 328.909 290.321 330.308 290.467C331.706 290.614 332.958 289.598 333.106 288.2C333.252 286.801 332.237 285.549 330.838 285.403C329.439 285.256 328.188 286.27 328.041 287.669Z" fill="white" />
                </g>
            </g>
            <g id="Group_58">
                <g id="Group_59">
                    <path id="Vector_85" d="M420.793 412.631L374.434 401.972C374.517 403.032 373.45 412.631 378.845 419.686C385.43 428.297 396.875 436.637 420.793 436.637C448.92 435.172 458.206 425.422 462.484 418.789C466.165 413.083 466.976 403.032 467.059 401.972L420.793 412.631Z" fill="#541322" />
                </g>
                <g id="Group_60">
                    <path id="Vector_86" d="M420.793 395.314C419.189 395.314 412.645 390.671 406.053 390.621C398.375 390.562 377.845 395.672 374.434 401.972C374.434 401.972 405.897 412.631 420.793 412.631C435.96 412.631 467.059 401.972 467.059 401.972C462.208 394.172 443.859 390.54 435.96 390.621C426.826 390.715 422.279 395.314 420.793 395.314Z" fill="#5E1B1C" />
                </g>
            </g>
            <g id="Group_61">
                <path id="Vector_87" d="M526.939 242.695C518.729 239.011 511.53 237.699 502.56 237.077C494.853 236.541 486.07 239.767 479.508 243.821C474.431 246.956 463.336 259.128 459.6 260.099C454.49 261.427 453.509 256.552 453.67 253.563C454.199 243.771 463.809 236.77 471.476 232.121C479.943 226.986 491.247 224.911 501.113 225.092C520.774 225.451 540.942 238.449 550.758 255.425C551.345 256.441 551.254 257.518 549.712 256.925C549.712 256.925 534.827 246.235 526.939 242.695Z" fill="#0B1117" />
            </g>
            <g id="Group_62">
                <path id="Vector_88" d="M313.406 242.695C321.615 239.011 328.815 237.699 337.785 237.077C345.492 236.541 354.276 239.767 360.837 243.821C365.913 246.956 377.009 259.128 380.745 260.099C385.855 261.427 386.835 256.552 386.675 253.563C386.147 243.771 376.536 236.77 368.869 232.121C360.402 226.986 349.098 224.911 339.232 225.092C319.571 225.451 299.403 238.449 289.587 255.425C289.001 256.441 289.091 257.518 290.633 256.925C290.633 256.925 305.517 246.235 313.406 242.695Z" fill="#0B1117" />
            </g>
            <g id="Group_63">
                <g id="Clip path group_4">
                    <mask id="mask3_2_4" style="mask-type:luminance" maskUnits="userSpaceOnUse" x="197" y="24" width="423" height="393">
                        <g id="SVGID_00000013909586128419138260000003334812508876461729_">
                            <path id="Vector_89" d="M618.91 210.262C618.07 205.132 616.75 199.552 614.57 194.802C612.05 189.302 608.19 184.752 604.28 180.192C599.96 175.152 595.75 170.022 595.1 163.162C594.55 157.262 597.78 151.542 598.27 145.712C600.29 121.452 579.3 105.792 564.27 90.0125C557.18 82.5725 549.24 75.7925 540.8 69.9125C533.616 64.9175 525.877 60.8575 516.924 62.1865C516.864 60.5685 516.82 58.9505 516.82 57.3325C516.82 55.7925 516.47 52.3625 517.72 51.1925C520.07 48.9725 516.53 45.4425 514.18 47.6525C512.24 49.4925 511.97 52.4925 511.87 55.1325C510.13 52.6125 507.95 50.3925 505.61 50.0125C491.8 47.7825 478.39 43.8525 465.07 39.6725C438.91 31.4725 412.39 22.4725 384.57 24.7325C356.33 27.0325 332.96 42.6825 311.19 59.5925C300.77 67.6825 291.45 75.6125 285.04 87.3525C279.54 97.4225 276.61 108.692 272.45 119.332C270.14 125.232 267.25 130.852 263.79 136.162C260.23 141.622 255.48 146.162 251.06 150.902C242.91 159.642 236.74 170.262 237.03 182.552C237.18 189.122 238.99 195.632 239.62 202.162C240.38 209.992 239.31 217.872 237.28 225.432C233.49 239.502 225.05 250.942 215.46 261.592C208.12 269.762 198.43 279.522 197.2 291.032C196.05 301.792 200.99 309.062 206.25 317.872C211.66 326.922 211.8 336.512 208.3 346.232C205.51 353.972 201 361.052 199.49 369.242C196.26 386.702 212.22 399.882 225.47 408.022C241.03 417.582 259.75 419.982 276.04 410.902C291.2 402.442 304.2 384.132 304.03 366.382C303.88 350.322 291.04 339.872 277.28 334.362C279.89 331.042 281.34 327.362 281.57 322.802C281.72 320.072 281.44 317.342 281.56 314.612C281.72 310.702 283.22 306.712 284.44 303.022C285.87 298.742 287.6 294.762 287.16 290.152C286.91 287.562 286.09 285.062 285.25 282.612C284.3 279.882 283.37 275.952 281.22 273.832C279.24 271.862 278.55 271.622 278.45 268.422C278.35 265.382 281.02 262.742 282.56 260.272C285.29 255.892 284.87 249.852 282.07 245.572C279.91 242.272 275.85 241.872 272.29 242.382C267.91 243.012 263.64 244.332 259.25 244.342C264.6 235.362 267.1 225.352 269.43 215.182C285.47 224.112 307.39 211.152 318.86 199.682C324.58 193.962 330.81 185.592 329.81 176.992C329.2 171.732 325.91 168.392 321.71 166.242C337.19 164.792 354.02 164.792 362.53 149.842C366.38 143.062 364.8 134.772 363.77 127.452C363.3 124.082 360.3 112.142 363.24 107.632C363.37 115.552 366.75 122.732 374.47 126.362C383.21 130.472 393.85 129.332 402.86 126.832C416.09 123.172 435.73 110.832 430.65 96.2225C436.33 99.0525 441.62 103.222 447.41 105.532C452.52 107.582 456.31 106.502 458.45 103.472C460.7 105.192 463.8 106.222 466.74 106.672C476.427 108.171 486.903 106.328 496.112 103.066C493.813 113.045 492.264 123.525 492.881 133.532C493.501 143.552 499.051 154.312 510.011 155.552C514.061 156.012 517.771 155.212 521.011 153.512C520.841 155.602 520.791 157.612 520.751 159.382C520.561 167.742 521.131 176.892 524.541 184.632C527.591 191.552 533.561 200.032 540.941 202.772C546.821 204.962 550.331 201.812 552.331 197.352C553.381 198.842 554.661 200.252 556.041 201.692C559.761 205.582 562.781 211.702 557.461 215.662C554.771 217.652 552.311 219.652 552.181 223.302C551.991 229.112 554.651 235.332 557.621 240.212C562.731 248.602 571.931 251.732 581.221 249.252C589.361 247.082 596.311 241.182 601.391 234.362C602.941 238.812 606.381 241.732 611.901 237.882C620.68 231.762 620.44 219.612 618.91 210.262Z" fill="white" />
                        </g>
                    </mask>
                    <g mask="url(#mask3_2_4)">
                        <g id="Group_64">
                            <g id="Group_65">
                                <path id="Vector_90" d="M472.543 22.0775C464.393 45.6965 438.903 50.7515 417.033 54.5095C403.374 56.8565 392.041 53.4975 380.483 46.1785C370.868 40.0905 362.747 34.8625 350.902 35.4255C349.112 35.5105 349.222 39.3285 351 39.4215C361.541 39.9755 363.108 52.9725 356.617 59.4655C351.512 64.5715 342.745 65.5195 335.962 66.3315C330.301 67.0085 324.47 67.5905 318.768 67.5165C314.405 67.4595 309.792 66.2635 308.374 61.3845C306.816 56.0255 315.676 52.2655 319.338 51.2995C318.832 50.3545 318.325 49.4095 317.819 48.4645C313.494 60.2955 307.305 70.7785 296.178 77.2595C285.103 83.7095 271.529 86.7855 259.006 88.8525C247.735 90.7125 235.579 91.1715 224.783 86.9165C211.948 81.8585 207.513 69.7785 205.795 57.0445C205.584 55.4785 204.077 56.1645 204.066 57.4445C203.966 69.6975 208.798 82.3325 219.843 88.6745C230.979 95.0675 244.541 94.9185 256.897 93.2445C270.47 91.4065 284.954 87.6585 296.931 80.9055C308.803 74.2115 315.493 62.8475 320.082 50.3835C320.469 49.3315 320.081 47.1535 318.563 47.5485C309.096 50.0135 301.302 59.4265 309.114 68.0795C314.93 74.5215 328.546 71.1285 336.059 70.2765C345.895 69.1605 358.36 66.9875 362.098 56.3965C365.234 47.5075 361.45 35.9965 350.902 35.4255C350.934 36.7575 350.967 38.0905 351 39.4225C365.429 38.7595 374.761 47.5615 386.701 54.0685C398.465 60.4795 410.853 59.8815 423.564 57.1485C444.821 52.5775 467.63 46.5155 473.401 22.6005C473.539 22.0205 472.814 21.2905 472.543 22.0775Z" fill="#4B4849" />
                            </g>
                            <g id="Group_66">
                                <path id="Vector_91" d="M469.022 21.9685C456.637 17.7215 443.643 22.3505 432.347 27.6705C420.277 33.3555 409.266 41.2655 400.665 51.5125C396.991 55.8885 393.975 60.7515 391.237 65.7535C388.445 70.8525 386.549 76.6255 382.669 81.0265C377.482 86.9105 362.572 96.8375 362.178 82.3925C362.157 81.6275 361.798 80.6115 360.905 80.5545C345.711 79.5785 331.595 84.2515 324.587 98.5805C318.282 111.473 318.934 127.11 320.78 140.948C321.047 140.175 321.314 139.403 321.58 138.63C314.002 140.558 306.532 138.563 298.963 137.66C297.31 137.463 292.623 136.572 291.29 137.821C289.904 139.12 289.091 142.137 288.752 143.954C289.246 143.505 289.739 143.057 290.233 142.608C282.892 139.989 271.806 137.864 272.547 127.876C272.945 122.502 272.444 116.872 265.644 117.587C258.556 118.332 250.496 123.497 248.888 130.793C247.337 137.829 250.276 144.871 253.291 151.096C256.251 157.206 261.71 164.229 261.989 171.229C262.26 178.007 249.073 180.694 244.384 181.874C236.181 183.938 227.322 185.166 218.851 184.735C209.902 184.279 200.858 178.816 194.246 173.163C190.766 170.187 187.839 166.551 186.206 162.251C184.107 156.726 187.117 151.437 190.496 147.212C190.986 146.6 190.485 144.731 189.551 145.455C172.302 158.827 191.234 177.664 204.42 184.446C218.865 191.875 236.489 188.868 251.317 183.929C256.477 182.21 263.238 179.406 264.352 173.389C265.468 167.362 261.696 161.18 259.019 156.078C255.468 149.309 250.236 141.296 251.025 133.316C251.474 128.782 255.071 125.781 258.818 123.759C261.976 122.055 270.113 118.602 270.244 124.586C270.366 130.137 269.616 132.958 273.102 137.692C277.047 143.049 283.749 144.128 289.666 146.237C290.53 146.545 291.019 145.578 291.147 144.891C292.32 138.598 301.761 141.728 306.112 142.408C311.624 143.27 316.875 143.602 322.319 142.215C323.195 141.992 323.206 140.548 323.119 139.897C321.376 126.861 320.896 112.385 326.818 100.269C333.28 87.0475 347.283 83.3215 360.995 84.2915C360.571 83.6785 360.146 83.0655 359.722 82.4535C359.81 86.2415 360.349 90.5965 363.719 92.9215C366.802 95.0485 371.034 93.5315 374.037 92.0825C384.333 87.1125 387.991 77.7915 393 68.3035C399.984 55.0745 410.087 44.4345 422.74 36.4735C435.694 28.3225 453.106 19.3605 468.878 22.8775C469.331 22.9765 469.393 22.0955 469.022 21.9685Z" fill="#4B4849" />
                            </g>
                            <g id="Group_67">
                                <path id="Vector_92" d="M476.772 22.5605C462.665 27.4155 448.619 34.4705 437.698 44.7555C429.721 52.2685 422.672 61.6495 416.3 70.5255C412.378 75.9885 404.465 85.8755 410.164 92.4975C417.009 100.45 429.817 86.3495 432.832 80.6965C433.339 79.7455 433.316 77.7385 431.906 77.5935C409.528 75.3045 391.241 96.6325 384.787 115.977C382.059 124.154 381.139 133.94 385.751 141.614C391.054 150.437 403.568 150.908 412.167 147.472C412.93 147.167 412.841 145.332 411.923 145.329C403.462 145.3 393.089 146.581 387.74 138.416C383.336 131.692 385.834 121.998 388.38 115.105C394.787 97.7645 411.835 78.8625 431.995 81.2525C431.686 80.2185 431.378 79.1845 431.069 78.1495C428.923 82.0565 425.421 85.2875 421.755 87.7595C419.634 89.1905 410.18 93.0045 410.901 87.0345C411.368 83.1725 414.335 79.2885 416.408 76.1395C419.058 72.1135 422.016 68.2865 425.007 64.5105C430.712 57.3075 436.447 50.0015 443.419 43.9795C453.495 35.2765 465.614 30.5975 477.128 24.2845C477.76 23.9375 477.632 22.2645 476.772 22.5605Z" fill="#4B4849" />
                            </g>
                            <g id="Group_68">
                                <path id="Vector_93" d="M161.375 176.197C158.703 202.077 189.848 209.7 209.829 210.423C223.798 210.928 238.145 208.874 251.262 203.988C261.406 200.21 271.774 193.745 276.043 183.347C276.387 182.509 276.153 180.507 274.904 180.535C273.571 180.565 272.239 180.617 270.905 180.584C270.364 180.57 270.075 181.107 269.885 181.519C262.824 196.914 280.451 200.721 292.01 199.964C313.903 198.53 331.035 181.147 351.108 174.189C351.667 173.995 351.566 172.487 350.93 172.62C340.656 174.768 331.711 178.934 322.55 183.96C314.3 188.487 305.633 193.323 296.276 195.048C290.112 196.184 283.343 196.172 277.323 194.354C274.595 193.53 271.62 191.983 270.868 189.01C270.665 188.205 271.391 184.248 271.29 184.25C272.524 184.22 273.761 184.278 274.995 184.306C274.615 183.368 274.236 182.431 273.856 181.494C269.633 190.897 259.534 196.219 250.387 199.76C238.441 204.384 225.365 206.138 212.611 206.133C194.346 206.126 161.189 201.115 162.539 176.406C162.589 175.51 161.48 175.189 161.375 176.197Z" fill="#4B4849" />
                            </g>
                            <g id="Group_69">
                                <path id="Vector_94" d="M293.15 221.136C278.208 214.829 259.087 222.644 245.138 228.287C229.892 234.454 214.423 241.909 201.247 251.834C189.741 260.502 172.344 275.431 180.694 291.597C188.298 306.319 209.716 303.475 216.942 289.855C217.496 288.812 217.499 286.486 215.899 286.363C195.511 284.797 180.765 307.276 187.558 325.899C189.947 332.448 195.626 337.931 202.626 339.074C205.534 339.549 212.552 339.643 212.909 335.27C213.347 329.896 205.949 328.331 201.891 328.075C192.751 327.499 184.344 336.179 178.581 342.113C171.271 349.641 164.559 357.391 156.742 364.429C148.096 372.214 139.42 380.38 134.273 390.993C127.54 404.875 129.978 422.659 134.869 436.763C136.999 442.907 140.427 449.103 145.741 453.024C151.535 457.3 158.283 455.939 164.236 452.809C165.275 452.263 165.009 449.514 163.664 450.035C143.576 457.808 136.027 433.618 134.022 418.48C132.582 407.607 133.981 397.534 139.937 388.116C146.472 377.781 156.52 369.867 165.378 361.627C172.935 354.597 178.858 346.022 186.643 339.18C190.448 335.837 194.885 332.848 199.97 332.026C202.367 331.639 209.118 332.24 210.537 334.918C209.969 333.845 210.497 334.379 208.88 334.941C207.741 335.337 206.453 335.333 205.264 335.31C201.579 335.238 198.078 333.618 195.263 331.331C185.242 323.188 187.919 307.995 195.246 299.117C200.349 292.934 208.068 289.781 216 290.483C215.652 289.319 215.305 288.155 214.958 286.991C207.749 300.012 181.953 301.419 181.459 282.886C181.249 274.998 188.864 267.744 194.152 262.859C199.151 258.241 204.753 253.764 210.592 250.252C223.072 242.746 236.204 236.181 249.739 230.807C262.457 225.757 278.955 219.69 292.749 223.71C294.019 224.078 294.156 221.56 293.15 221.136Z" fill="#4B4849" />
                            </g>
                            <g id="Group_70">
                                <path id="Vector_95" d="M296.265 260.537C284.168 252.324 269.511 264.98 261.84 273.712C252.847 283.948 243.969 299.624 248.578 313.629C249.627 316.818 251.935 319.211 254.261 321.519C256.776 324.015 260.473 325.664 262.753 328.298C261.986 327.412 263.199 326.735 261.96 327.86C261.42 328.35 260.817 328.779 260.237 329.218C258.319 330.671 256.354 332.063 254.425 333.502C249.669 337.051 244.69 340.699 241.42 345.746C237.877 351.214 240.191 356.631 243.334 361.561C247.529 368.142 252.008 381.742 242.108 385.797C236.783 387.978 229.605 385.621 224.099 385.291C217.909 384.92 212.511 386.712 208.934 391.954C208.226 392.991 208.476 394.864 209.632 395.467C214.035 397.765 218.275 400.332 222.304 403.239C222.503 401.939 222.701 400.639 222.899 399.339C210.107 402.153 197.427 404.915 195.599 419.998C194.814 426.473 196.009 432.177 200.207 437.226C201.994 439.375 204.129 441.206 205.901 443.368C208.929 447.061 205.489 448.588 202.352 450.591C196.12 454.567 192.145 457.755 190.227 465.24C188.281 472.837 192.359 480.85 196.687 486.862C205.85 499.59 224.08 508.024 239.31 502.166C240.542 501.692 240.381 498.326 238.906 498.607C224.362 501.38 209.284 495.466 199.864 484.182C194.537 477.8 190.013 467.663 196.323 460.345C199.868 456.233 206.572 454.96 209.507 450.308C214.889 441.778 200.873 434.677 198.803 427.601C196.928 421.191 199.428 413.547 204.642 409.571C209.667 405.74 217.013 404.745 223 403.506C224.549 403.186 224.798 400.496 223.595 399.606C219.373 396.487 214.951 393.744 210.267 391.378C210.5 392.549 210.733 393.72 210.965 394.891C220.041 381.264 242.142 399.218 248.941 382.768C251.97 375.441 250.278 367.316 246.449 360.728C244.917 358.093 242.471 355.441 242.205 352.282C241.748 346.861 249.564 341.766 253.142 338.959C256.623 336.228 260.488 333.849 263.762 330.866C265.12 329.629 265.619 327.845 264.904 326.127C264.081 324.15 261.496 322.707 259.948 321.393C256.534 318.495 252.871 315.437 251.19 311.184C248.371 304.053 252.164 295.037 255.422 288.735C259.419 281.002 265.092 274.07 271.766 268.502C278.105 263.212 287.673 257.972 295.796 262.405C296.598 262.843 296.852 260.936 296.265 260.537Z" fill="#4B4849" />
                            </g>
                            <g id="Group_71">
                                <path id="Vector_96" d="M306.147 338.378C307.948 337.469 309.023 338.136 309.684 336.045C309.836 335.565 309.848 334.332 309.141 334.196C290.235 330.571 271.884 348.129 264.554 363.818C261.293 370.798 259.801 379.602 263.48 386.713C268.083 395.612 279.003 397.096 288.007 396.741C287.969 395.195 287.931 393.649 287.893 392.102C275.376 394.48 262.447 397.517 256.758 410.222C252.72 419.239 253.142 431.325 264.606 433.633C264.354 432.366 264.102 431.101 263.851 429.834C259.545 437.113 252.277 441.332 247.204 447.91C241.487 455.322 241.108 464.387 243.168 473.253C247.526 492.005 267.608 508.363 287.179 500.527C287.967 500.212 287.894 498.229 286.922 498.269C277.598 498.655 269.111 497.707 261.079 492.532C253.279 487.507 248.129 479.411 246.035 470.469C243.933 461.496 246.203 454.248 252.577 447.857C257.361 443.06 262.5 438.886 266.051 433.008C266.597 432.103 266.741 429.518 265.296 429.209C254.417 426.887 256.767 415.724 261.579 408.502C267.248 399.995 278.774 398.339 288.009 396.739C290.01 396.392 290.008 392.062 287.895 392.101C280.247 392.244 269.842 391.393 265.816 383.692C262.514 377.377 265.402 369.295 268.393 363.46C276.193 348.245 291.604 336.602 308.983 336.687C308.702 336.159 308.422 335.63 308.141 335.102C308.034 335.695 306.217 336.164 305.754 336.463C305.096 336.891 305.261 338.825 306.147 338.378Z" fill="#4B4849" />
                            </g>
                            <g id="Group_72">
                                <path id="Vector_97" d="M470.396 23.9525C466.114 35.2895 468.124 47.4765 477.496 55.6545C487.595 64.4675 502.192 63.5105 513.437 57.7785C512.737 57.0065 512.038 56.2335 511.338 55.4615C511.508 75.0415 527.458 95.3275 548.505 87.1115C547.802 86.6995 547.099 86.2875 546.396 85.8755C551.313 95.3445 559.45 104.157 570.544 105.566C583.314 107.187 588.823 94.0555 591.718 84.1095C592.495 81.4395 592.16 77.4155 594.097 75.2985C598.828 70.1295 605.021 66.2405 609.978 61.2185C621.297 49.7505 630.382 34.9925 629.744 18.4025C629.699 17.2395 628.286 16.7155 628.175 18.1185C626.937 33.7275 617.617 46.8585 606.919 57.6775C602.449 62.1975 597.266 65.8065 592.635 70.1215C590.796 71.8345 589.829 73.8025 589.477 76.2715C588.162 85.4815 584.709 98.3285 573.957 99.9815C563.307 101.619 553.886 91.4315 549.503 82.9685C549.081 82.1545 548.422 81.3325 547.394 81.7325C529.483 88.6925 515.112 72.4975 514.561 55.3825C514.532 54.4725 513.797 52.3625 512.462 53.0655C502.989 58.0515 491.886 58.7195 482.306 53.6625C471.629 48.0265 468.471 35.9795 471.503 24.8915C471.722 24.0935 470.855 22.7365 470.396 23.9525Z" fill="#4B4849" />
                            </g>
                            <g id="Group_73">
                                <path id="Vector_98" d="M473.811 28.7475C467.748 32.0035 468.33 39.4975 470.043 45.2095C472.418 53.1235 477.715 60.3355 484.892 64.4615C491.564 68.2975 498.989 69.9395 505.968 73.0305C515.004 77.0325 517.22 86.2685 516.424 95.4975C515.975 100.703 514.291 105.827 518.201 110.199C521.237 113.593 525.381 116.01 529.715 117.293C532.533 118.127 545.308 118.928 542.325 125.062C539.413 131.049 534.313 135.952 540.468 142.069C545.743 147.312 556.456 145.079 563.011 144.92C565.051 144.87 565.168 140.44 563.327 140.001C561.991 139.682 560.656 139.364 559.32 139.045C558.426 138.831 557.826 139.402 557.528 140.217C546.719 169.799 599.339 166.166 607.447 144.69C607.849 143.625 607.717 141.319 606.339 140.917C603.447 140.072 601.932 139.183 598.886 139.85C596.825 140.301 596.632 144.11 598.561 144.912C615.048 151.766 631.342 136.033 641.368 124.871C653.448 111.423 663.606 95.7325 670.82 79.1595C671.25 78.1705 670.088 75.8845 669.225 77.3755C660.942 91.6785 651.681 105.811 641.02 118.452C631.681 129.525 615.563 146.748 599.336 139.93C599.228 141.618 599.12 143.305 599.011 144.992C601.679 144.419 603.026 145.175 605.558 145.925C605.189 144.667 604.819 143.409 604.45 142.152C600.628 152.187 587.408 156.006 577.754 156.624C568.941 157.188 555.936 154.05 560.369 142.625C559.772 143.016 559.175 143.407 558.577 143.797C559.908 144.145 561.239 144.493 562.57 144.841C562.675 143.201 562.781 141.561 562.885 139.922C556.57 139.937 545.617 142.299 541.059 136.632C539.245 134.377 543.75 129.77 544.681 127.7C545.912 124.963 545.741 122.708 544.586 119.988C541.61 112.977 532.222 113.802 526.311 111.078C523.501 109.784 518.882 106.86 518.601 103.383C518.379 100.648 519.32 97.7545 519.47 95.0165C519.841 88.2565 518.999 80.9475 515.159 75.2105C511.984 70.4665 506.338 68.2525 501.181 66.4545C494.163 64.0085 486.436 61.8485 480.8 56.7505C474.406 50.9685 466.749 37.5095 474.195 30.0215C474.501 29.7185 474.421 28.4195 473.811 28.7475Z" fill="#4B4849" />
                            </g>
                            <g id="Group_74">
                                <path id="Vector_99" d="M475.385 24.9435C470.012 36.7085 466.175 54.1645 474.859 65.2675C477.899 69.1545 482.347 71.4665 486.521 73.9055C493.269 77.8485 496.183 82.9245 495.609 90.8975C495.535 91.9205 495.741 93.3785 497.002 93.5195C500.894 93.9555 504.747 95.2635 504.99 99.7405C505.178 103.196 503.407 106.924 501.93 109.949C501.542 110.743 501.295 113.85 503.001 113.538C506.818 112.84 511.747 111.93 514.975 114.702C517.281 116.682 516.748 121.094 516.572 123.754C516.167 129.845 514.926 136.349 517.988 141.968C519.246 144.276 522.439 145.94 524.568 147.265C527.769 149.257 531.1 151.035 534.369 152.911C540.112 156.208 552.506 162.711 547.933 170.952C547.458 171.807 547.272 174.165 548.632 174.467C556.754 176.268 566.216 174.8 573.004 180.535C575.665 182.783 577.075 186.704 579.206 189.434C581.001 191.734 583.69 193.149 586.23 194.471C599.746 201.508 615.921 201.833 630.574 204.834C631.528 205.03 632.031 204.477 632.393 203.644C636.274 194.727 639.465 185.531 643.366 176.622C642.359 176.235 641.351 175.848 640.344 175.461C640.214 195.749 633.421 227.613 657.059 237.745C668.529 242.662 682.642 239.863 694.398 237.706C706.772 235.436 719.333 232.182 731.995 232.276C733.514 232.287 733.586 228.94 732.229 228.625C721.472 226.124 710.179 229.254 699.606 231.379C687.808 233.752 675.18 236.608 663.141 234.378C636.138 229.377 643.442 195.066 643.555 175.381C643.566 173.395 641.518 171.965 640.533 174.22C636.642 183.125 633.416 192.301 629.506 201.198C630.113 200.802 630.719 200.405 631.325 200.008C616.486 196.895 600.856 196.394 586.956 189.806C583.029 187.945 580.627 185.604 578.278 182.015C576.681 179.576 575.146 177.106 572.613 175.554C565.298 171.073 557.314 172.139 549.267 170.375C549.5 171.546 549.733 172.718 549.966 173.89C559.53 156.576 530.892 148.165 521.328 140.306C515.828 135.786 519.98 124.275 519.321 118.052C518.355 108.921 510.691 107.87 502.897 109.305C503.254 110.501 503.611 111.698 503.968 112.894C508.595 103.394 510.555 90.8315 496.897 89.3245C497.362 90.1985 497.826 91.0725 498.29 91.9465C498.684 86.3935 498.267 80.9685 495.005 76.2815C492.374 72.5025 487.941 70.3505 484.072 68.1025C477.913 64.5235 473.666 60.0485 472.501 52.7725C471.091 43.9655 473.263 34.0735 476.515 25.9005C476.849 25.0625 475.92 23.7705 475.385 24.9435Z" fill="#4B4849" />
                            </g>
                        </g>
                    </g>
                </g>
            </g>
        </g>
    </g>
</svg>