<svg width="1084" height="2160" viewBox="0 0 1084 2160" fill="none"
    xmlns="http://www.w3.org/2000/svg">
    <g id="personagem_sentada_modoclaro" clip-path="url(#clip0_12_1259)">
        <g id="Group 6">
            <path id="Rectangle 4" d="M662 1499.5H159V2147.5H662V1499.5Z" fill="#1E3A8A"/>
            <g id="cabelo" transform="rotate(0 100 100)">
                <g id="Group">
                    <path id="Vector" d="M614.776 336.877C610.736 331.347 603.806 328.337 599.046 323.437C595.416 319.707 595.556 314.647 594.976 309.717C594.356 304.467 593.616 299.557 590.766 295.017C586.866 288.797 577.166 285.777 579.816 276.977C582.646 267.557 592.896 252.497 584.286 243.357C580.496 239.327 574.326 238.927 568.846 239.227C560.756 218.947 548.256 201.097 535.596 183.137C521.546 163.207 509.916 141.797 496.316 121.577C482.976 101.747 466.216 86.1169 443.286 78.2569C418.326 69.7069 391.266 70.7469 365.586 65.7469C358.666 64.4069 351.926 62.1869 344.956 60.9469C337.846 59.6869 330.716 58.8569 323.496 58.6369C308.966 58.1969 294.606 60.9369 280.726 65.0269C264.436 69.8269 248.616 76.3569 232.446 81.5969C216.366 86.8069 200.236 91.8468 184.456 97.8769C181.936 98.8369 182.806 105.137 185.716 104.017C196.206 100.017 206.826 96.3369 217.486 92.7769C214.966 94.9469 212.586 97.2669 210.176 99.5969C204.896 104.687 199.036 111.927 191.756 114.007C187.836 115.127 183.776 114.147 179.826 113.847C175.866 113.547 172.526 114.947 169.356 117.217C160.876 123.277 155.536 133.047 153.366 143.007C152.516 146.887 152.046 151.327 149.176 154.327C145.306 158.397 137.946 157.357 133.036 156.717C132.436 156.637 131.946 157.387 131.796 157.857C127.276 171.647 102.906 196.157 83.0259 192.667C81.2159 192.347 81.1259 196.667 82.7459 197.157C84.5159 197.687 92.2159 199.717 90.7959 202.017C89.0859 204.797 85.386 206.787 82.756 208.537C77.486 212.047 69.5559 216.047 67.8559 222.717C65.5859 231.577 75.7059 237.927 80.4159 244.017C89.9259 256.297 73.2059 262.387 67.9459 271.307C67.3359 272.337 67.2659 274.777 68.7259 275.237C68.2559 275.087 69.0859 276.707 69.2759 277.347C69.7159 278.867 70.0859 280.407 70.4559 281.947C71.2459 285.157 71.9859 288.397 72.9459 291.557C73.2059 292.437 73.6959 293.577 74.2759 294.557C72.2459 297.287 68.9359 298.737 66.0459 300.757C63.0559 302.857 61.2359 305.127 59.4659 308.257C57.3859 311.917 53.656 314.717 51.146 318.097C48.856 321.197 47.5459 325.197 49.7259 328.697C51.2359 331.127 54.3259 332.307 57.7159 332.877C49.4159 336.527 41.3759 341.197 35.6859 348.027C27.0959 358.347 31.3559 370.137 40.0859 378.707C50.2959 388.747 62.5959 391.637 76.3059 393.037C78.0859 393.227 83.9759 393.327 84.0859 395.977C84.1759 398.417 82.5359 401.317 81.5259 403.427C79.2759 408.137 76.506 412.607 73.766 417.047C72.866 418.517 73.1559 421.357 75.1559 421.687C81.4359 422.697 88.766 419.567 94.646 417.747C102.666 415.267 111.846 412.227 120.296 411.707C123.416 411.517 126.146 411.957 128.156 414.497C130.776 417.817 127.746 421.707 125.706 424.457C121.186 430.537 113.986 435.647 111.726 443.137C109.866 449.307 112.476 459.777 117.286 464.387C121.726 468.647 127.926 467.227 133.436 466.637C151.086 464.757 182.036 482.267 189.736 495.117C190.316 496.067 191.316 496.127 192.146 495.527C205.676 485.717 217.996 471.557 235.036 468.327C235.176 478.337 238.316 490.847 249.126 493.387C256.126 495.027 261.746 491.117 265.916 485.687C265.936 490.597 267.076 495.437 269.856 499.907C275.506 509.017 287.166 511.887 297.166 512.037C297.726 512.047 298.336 511.587 298.576 511.097C300.216 507.817 301.776 504.577 302.576 501.067C303.846 502.127 304.896 503.547 306.616 503.987C307.406 504.197 308.216 503.907 308.596 503.137C310.236 499.877 311.836 496.677 314.806 494.547C317.176 497.497 318.236 498.797 322.486 496.257C327.156 493.467 331.906 490.827 336.796 488.437C345.046 484.417 359.206 477.757 367.776 484.087C372.966 487.917 375.346 494.847 381.026 498.067C387.126 501.527 392.686 496.327 396.626 491.587C402.176 503.087 413.906 508.257 425.946 502.867C427.306 506.177 429.846 509.297 432.096 511.727C432.516 512.177 433.186 512.197 433.716 512.007C445.696 507.787 456.656 499.017 460.386 486.677C469.376 489.797 479.016 492.317 488.446 489.897C497.466 487.587 502.776 479.297 506.016 471.077C518.176 479.057 533.696 484.987 547.146 476.607C558.146 469.757 562.886 456.367 564.606 443.817C568.686 448.987 574.246 452.907 581.196 452.607C589.636 452.237 595.146 444.447 598.076 437.397C604.256 422.517 592.526 409.427 587.086 395.897C594.556 397.977 601.776 396.327 607.386 389.907C614.246 382.077 615.706 371.847 617.586 362.037C619.166 353.807 620.006 344.037 614.776 336.877Z" fill="#1E1A1B"/>
                    <g id="Clip path group">
                        <g id="Mask group">
                            <mask id="mask0_12_1259" style="mask-type:luminance" maskUnits="userSpaceOnUse" x="31" y="58" width="588" height="455">
                                <g id="Group_2">
                                    <g id="SVGID_00000029759015381007586580000000558464106523312563_">
                                        <path id="Vector_2" d="M614.776 336.877C610.736 331.347 603.806 328.337 599.046 323.437C595.416 319.707 595.556 314.647 594.976 309.717C594.356 304.467 593.616 299.557 590.766 295.017C586.866 288.797 577.166 285.777 579.816 276.977C582.646 267.557 592.896 252.497 584.286 243.357C580.496 239.327 574.326 238.927 568.846 239.227C560.756 218.947 548.256 201.097 535.596 183.137C521.546 163.207 509.916 141.797 496.316 121.577C482.976 101.747 466.216 86.1169 443.286 78.2569C418.326 69.7069 391.266 70.7469 365.586 65.7469C358.666 64.4069 351.926 62.1869 344.956 60.9469C337.846 59.6869 330.716 58.8569 323.496 58.6369C308.966 58.1969 294.606 60.9369 280.726 65.0269C264.436 69.8269 248.616 76.3569 232.446 81.5969C216.366 86.8069 200.236 91.8468 184.456 97.8769C181.936 98.8369 182.806 105.137 185.716 104.017C196.206 100.017 206.826 96.3369 217.486 92.7769C214.966 94.9469 212.586 97.2669 210.176 99.5969C204.896 104.687 199.036 111.927 191.756 114.007C187.836 115.127 183.776 114.147 179.826 113.847C175.866 113.547 172.526 114.947 169.356 117.217C160.876 123.277 155.536 133.047 153.366 143.007C152.516 146.887 152.046 151.327 149.176 154.327C145.306 158.397 137.946 157.357 133.036 156.717C132.436 156.637 131.946 157.387 131.796 157.857C127.276 171.647 102.906 196.157 83.0259 192.667C81.2159 192.347 81.1259 196.667 82.7459 197.157C84.5159 197.687 92.2159 199.717 90.7959 202.017C89.0859 204.797 85.386 206.787 82.756 208.537C77.486 212.047 69.5559 216.047 67.8559 222.717C65.5859 231.577 75.7059 237.927 80.4159 244.017C89.9259 256.297 73.2059 262.387 67.9459 271.307C67.3359 272.337 67.2659 274.777 68.7259 275.237C68.2559 275.087 69.0859 276.707 69.2759 277.347C69.7159 278.867 70.0859 280.407 70.4559 281.947C71.2459 285.157 71.9859 288.397 72.9459 291.557C73.2059 292.437 73.6959 293.577 74.2759 294.557C72.2459 297.287 68.9359 298.737 66.0459 300.757C63.0559 302.857 61.2359 305.127 59.4659 308.257C57.3859 311.917 53.656 314.717 51.146 318.097C48.856 321.197 47.5459 325.197 49.7259 328.697C51.2359 331.127 54.3259 332.307 57.7159 332.877C49.4159 336.527 41.3759 341.197 35.6859 348.027C27.0959 358.347 31.3559 370.137 40.0859 378.707C50.2959 388.747 62.5959 391.637 76.3059 393.037C78.0859 393.227 83.9759 393.327 84.0859 395.977C84.1759 398.417 82.5359 401.317 81.5259 403.427C79.2759 408.137 76.506 412.607 73.766 417.047C72.866 418.517 73.1559 421.357 75.1559 421.687C81.4359 422.697 88.766 419.567 94.646 417.747C102.666 415.267 111.846 412.227 120.296 411.707C123.416 411.517 126.146 411.957 128.156 414.497C130.776 417.817 127.746 421.707 125.706 424.457C121.186 430.537 113.986 435.647 111.726 443.137C109.866 449.307 112.476 459.777 117.286 464.387C121.726 468.647 127.926 467.227 133.436 466.637C151.086 464.757 182.036 482.267 189.736 495.117C190.316 496.067 191.316 496.127 192.146 495.527C205.676 485.717 217.996 471.557 235.036 468.327C235.176 478.337 238.316 490.847 249.126 493.387C256.126 495.027 261.746 491.117 265.916 485.687C265.936 490.597 267.076 495.437 269.856 499.907C275.506 509.017 287.166 511.887 297.166 512.037C297.726 512.047 298.336 511.587 298.576 511.097C300.216 507.817 301.776 504.577 302.576 501.067C303.846 502.127 304.896 503.547 306.616 503.987C307.406 504.197 308.216 503.907 308.596 503.137C310.236 499.877 311.836 496.677 314.806 494.547C317.176 497.497 318.236 498.797 322.486 496.257C327.156 493.467 331.906 490.827 336.796 488.437C345.046 484.417 359.206 477.757 367.776 484.087C372.966 487.917 375.346 494.847 381.026 498.067C387.126 501.527 392.686 496.327 396.626 491.587C402.176 503.087 413.906 508.257 425.946 502.867C427.306 506.177 429.846 509.297 432.096 511.727C432.516 512.177 433.186 512.197 433.716 512.007C445.696 507.787 456.656 499.017 460.386 486.677C469.376 489.797 479.016 492.317 488.446 489.897C497.466 487.587 502.776 479.297 506.016 471.077C518.176 479.057 533.696 484.987 547.146 476.607C558.146 469.757 562.886 456.367 564.606 443.817C568.686 448.987 574.246 452.907 581.196 452.607C589.636 452.237 595.146 444.447 598.076 437.397C604.256 422.517 592.526 409.427 587.086 395.897C594.556 397.977 601.776 396.327 607.386 389.907C614.246 382.077 615.706 371.847 617.586 362.037C619.166 353.807 620.006 344.037 614.776 336.877Z" fill="white"/>
                                    </g>
                                </g>
                            </mask>
                            <g mask="url(#mask0_12_1259)">
                                <g id="Group_3">
                                    <g id="Group_2_2">
                                        <g id="Group_3_2">
                                            <path id="Vector_3" d="M37.2565 450.85C10.1745 444.655 12.7185 396.602 34.8195 385.95C41.6125 382.676 50.1055 383.244 57.4595 382.969C65.0505 382.684 71.0365 379.658 76.9805 375.064C83.4965 370.028 91.2554 364.126 95.0094 356.586C98.6754 349.223 96.3415 340.937 93.2905 333.82C92.6645 334.826 92.0385 335.833 91.4125 336.84C99.6715 342.671 109.242 344.035 119.141 344.127C120.438 344.139 120.591 342.213 120.454 341.333C118.03 325.794 114.451 308.898 106.068 295.371C105.759 296.627 105.45 297.883 105.142 299.14C109.667 298.374 114.442 298.785 119.014 298.671C122.91 298.574 129.113 298.842 132.335 296.119C142.988 287.115 130.909 275.231 130.43 264.914C129.999 265.607 129.568 266.299 129.138 266.992C138.223 266.338 146.495 272.803 155.44 268.653C156.773 268.034 156.432 264.739 154.736 265.242C145.738 267.908 137.927 262.274 129.038 262.903C128.077 262.971 127.71 264.178 127.747 264.981C127.943 269.262 129.418 273.106 131.077 277.014C133.235 282.101 136.798 289.786 129.945 293.055C122.557 296.579 112.884 293.501 105.035 294.755C103.367 295.021 103.431 297.41 104.11 298.524C112.014 311.482 115.357 327.741 117.723 342.562C118.161 341.631 118.599 340.7 119.037 339.768C109.731 339.731 100.545 338.553 92.7645 333.055C90.9885 331.8 90.3955 334.929 90.8865 336.075C93.0555 341.142 95.0365 346.643 93.4325 352.157C92.1995 356.395 88.7145 359.716 85.5945 362.635C78.8605 368.935 71.1364 376.537 61.7124 378.199C54.0114 379.556 46.1165 378.511 38.4025 380.26C32.2995 381.643 27.4045 385.523 23.6365 390.384C10.4465 407.398 10.3845 448.869 37.1185 453.082C38.0085 453.22 38.0865 451.04 37.2565 450.85Z" fill="#4B4849"/>
                                        </g>
                                        <g id="Group_4">
                                            <path id="Vector_4" d="M48.08 244.732C46.798 244.433 45.5341 244.074 44.2871 243.654C44.4341 244.395 44.581 245.135 44.728 245.876C49.158 238.024 53.583 231.068 60.966 225.598C64.612 222.897 68.966 221.194 73.518 221.219C79.659 221.253 82.023 225.58 83.972 230.62C86.466 237.068 90.8031 240.985 97.6621 237.017C103.917 233.398 106.622 225.527 110.336 219.754C109.439 219.601 108.543 219.448 107.646 219.294C109.648 225.24 114.506 230.534 120.529 232.504C127.61 234.82 131.435 228.563 132.753 222.599C131.809 223.006 130.865 223.413 129.92 223.82C131.667 226.069 134.358 227.499 135.922 229.817C137.053 231.495 138.455 229.932 138.75 228.598C139.796 223.87 141.71 219.592 143.454 215.106C144.046 213.581 142.368 209.934 140.948 212.303C138.196 216.893 136.574 222.096 135.421 227.295C136.364 226.889 137.307 226.482 138.249 226.076C136.637 223.682 134.022 222.357 132.251 220.073C131.041 218.512 129.738 219.853 129.418 221.294C126.543 234.258 113.138 224.312 110.525 216.6C110.083 215.297 108.611 214.927 107.835 216.14C104.069 222.022 100.983 231.815 93.2911 233.475C88.1581 234.582 86.829 228.418 85.251 224.864C83.738 221.454 81.7031 219.189 78.2451 217.778C63.5851 211.796 46.6601 232.002 43.3121 244.292C43.1301 244.96 43.27 246.576 44.35 246.229C45.579 245.812 46.826 245.456 48.091 245.163C48.285 245.137 48.269 244.756 48.08 244.732Z" fill="#4B4849"/>
                                        </g>
                                        <g id="Group_5">
                                            <path id="Vector_5" d="M154.272 355.756C147.503 354.264 140.17 354.802 138.384 362.741C136.711 370.176 139.595 377.564 143.719 383.648C146.245 387.374 149.961 390.239 153.293 393.195C154.948 394.663 156.64 396.225 157.632 398.235C159.211 401.431 154.486 404.893 152.482 406.669C148.744 409.979 141.859 409.4 137.243 409.479C132.559 409.558 127.539 409.571 123.394 412.031C117.737 415.388 114.521 422.187 119.272 427.528C121.554 430.092 124.551 432.116 125.446 435.619C127.159 442.321 120.086 444.648 115.08 445.276C111.279 445.753 107.313 445.543 103.595 446.573C98.4766 447.99 93.9725 450.279 89.6765 453.372C86.0725 455.966 82.8495 459.06 79.3365 461.772C74.6995 465.352 69.3555 467.52 63.7795 469.181C62.7445 469.462 61.7226 469.785 60.7136 470.149C59.3476 470.61 59.5996 473.782 61.1306 473.823C71.5476 474.097 79.6456 467.668 87.1406 461.259C90.9146 458.031 94.8075 455.181 99.3535 453.129C104.132 450.972 109.028 450.729 114.146 450.231C122.497 449.418 128.316 445.795 128.669 436.853C128.798 433.581 127.234 430.455 125.211 428C123.34 425.729 118.753 423.308 120.795 420.182C126.759 411.048 140.97 415.394 149.952 412.833C156.985 410.828 163.327 402.186 159.835 395.074C158.195 391.734 154.904 389.259 152.176 386.863C148.187 383.357 144.759 379.571 142.634 374.651C141.047 370.978 140.269 366.702 141.559 362.841C143.285 357.675 149.705 357.417 154.115 358.179C155.079 358.344 155.18 355.956 154.272 355.756Z" fill="#4B4849"/>
                                        </g>
                                        <g id="Group_6">
                                            <path id="Vector_6" d="M209.508 405.552C206.958 398.478 198.118 399.051 193.783 404.228C189.241 409.651 191.711 416.937 196.602 420.951C201.272 424.784 215.49 429.184 213.027 437.037C210.589 444.812 196.624 441.477 191.268 446.684C187.179 450.661 183.485 456.31 186.672 461.909C189.156 466.272 195.837 467.921 199.98 470.093C202.325 471.322 205.001 473.16 205.664 475.881C206.563 479.574 201.97 483.166 199.634 485.271C192.28 491.898 183.66 497.029 175.713 502.893C173.142 504.79 170.796 506.741 169.043 509.44C168.264 510.64 168.976 514.202 170.851 512.801C177.609 507.754 184.499 502.896 191.29 497.892C197.44 493.361 205.599 487.938 208.126 480.296C212.671 466.554 194.153 466.249 188.869 458.378C187.291 456.028 192.677 451.382 193.978 450.11C196.857 447.293 202.903 447.664 206.603 446.875C213.514 445.401 218.894 438.622 216.106 431.398C213.395 424.374 205.396 421.537 199.593 417.64C196.054 415.264 193.119 412.085 195.647 407.694C198.089 403.451 205.788 402.387 208.746 406.494C209.285 407.243 209.676 406.017 209.508 405.552Z" fill="#4B4849"/>
                                        </g>
                                        <g id="Group_7">
                                            <path id="Vector_7" d="M253.464 431.866C259.282 427.879 262.216 433.89 264.479 438.391C266.641 442.692 265.852 447.804 264.51 452.2C262.401 459.11 258.006 465.304 253.789 471.077C252.889 472.309 253.189 475.589 255.15 475.638C260.015 475.759 267.026 475.365 271.102 478.598C272.663 479.836 266.642 484.725 265.716 485.515C258.541 491.632 249.973 496.072 243.088 502.531C241.683 503.849 241.906 507.508 244.153 507.773C249.153 508.363 256.095 509.142 259.253 513.687C261.587 517.048 256.56 522.181 254.504 524.309C246.424 532.674 235.639 537.468 225.712 543.148C224.638 543.763 224.462 547.083 226.129 546.822C239.046 544.801 253.888 534.759 260.698 523.522C262.987 519.746 264.061 514.721 261.803 510.682C258.435 504.655 250.184 503.166 244.013 502.122C244.368 503.869 244.723 505.617 245.078 507.364C253.929 499.77 265.055 494.262 272.423 485.059C274.715 482.196 275.836 478.013 273.412 474.885C269.719 470.119 260.227 470.46 255.016 470.257C255.47 471.777 255.924 473.298 256.377 474.818C263.368 466.164 269.606 455.252 269.054 443.771C268.689 436.185 261.015 421.109 252.702 430.028C252.149 430.627 252.444 432.564 253.464 431.866Z" fill="#4B4849"/>
                                        </g>
                                        <g id="Group_8">
                                            <path id="Vector_8" d="M525.411 255.683C524.158 265.231 525.763 277.157 534.805 282.641C544.732 288.663 556.265 284.187 564.994 278.151C564.153 277.658 563.312 277.165 562.471 276.672C564.572 284.902 568.906 292.949 576.606 297.105C585.556 301.935 593.347 294.088 597.347 286.769C596.353 286.176 595.36 285.583 594.367 284.989C594.87 293.539 596.48 302.32 602.546 308.755C607.23 313.725 614.412 314.812 620.883 313.992C636.038 312.073 653.374 300.377 660.989 287.251C661.556 286.273 660.971 282.954 659.425 284.343C648.809 293.89 638.686 303.542 624.534 307.522C618.685 309.167 611.898 309.396 606.62 305.99C599.777 301.573 598.188 292.386 597.805 284.905C597.734 283.513 596.037 280.952 594.825 283.125C591.318 289.41 586.008 295.026 578.32 292.265C571.474 289.807 567.376 281.782 565.701 275.222C565.381 273.969 564.461 272.855 563.178 273.743C555.946 278.744 546.87 282.46 538.183 279.133C528.953 275.598 526.797 264.657 526.779 255.931C526.775 254.889 525.567 254.488 525.411 255.683Z" fill="#4B4849"/>
                                        </g>
                                        <g id="Group_9">
                                            <path id="Vector_9" d="M544.396 314.362C540.389 322.767 535.556 333.959 537.752 343.493C540.456 355.227 554.657 347.213 560.606 343.465C559.926 342.196 559.245 340.928 558.565 339.659C555.061 348.354 552.642 359.412 553.943 368.788C554.336 371.621 555.44 375.817 558.829 376.299C563.382 376.946 567.619 371.246 570.048 368.283C569.129 367.519 568.209 366.755 567.29 365.99C567.742 373.072 566.6 380.838 568.866 387.684C571.002 394.138 576.489 397.223 582.938 398.359C593.367 400.197 604.343 398.559 614.637 396.582C624.488 394.69 634.316 392.078 642.683 386.399C643.703 385.707 643.232 382.859 641.746 383.315C624.724 388.549 607.5 393.185 589.538 393.021C583.385 392.965 575.004 391.895 572.315 385.446C569.932 379.731 571.126 371.948 570.877 365.902C570.833 364.825 569.541 361.973 568.12 363.609C566.033 366.011 562.711 370.617 559.095 370.552C557.109 370.516 557.366 365.309 557.353 364.198C557.267 356.885 558.864 349.004 561.602 342.233C562 341.248 561.45 337.242 559.563 338.427C555.243 341.14 542.058 349.712 540.438 340.095C539.106 332.197 543.165 322.788 545.773 315.529C546.144 314.507 545.078 312.932 544.396 314.362Z" fill="#4B4849"/>
                                        </g>
                                        <g id="Group_10">
                                            <path id="Vector_10" d="M536.206 384.172C528.819 381.54 522.536 395.786 521.419 400.768C520.406 405.285 520.621 410.45 523.828 414.073C528.532 419.388 536.845 418.76 543.155 417.78C542.677 416.179 542.199 414.578 541.722 412.978C538.837 418.878 531.386 431.272 536.802 437.803C542.026 444.101 555.785 435.42 560.688 432.867C559.9 431.397 559.112 429.927 558.324 428.456C554.504 440.902 541.151 470.011 561.405 475.708C569.638 478.024 579.098 473.883 586.363 470.4C593.465 466.994 602.554 462.619 607.725 456.502C608.314 455.805 608.652 452.896 607.04 453.133C601.371 453.966 595.614 458.468 590.605 461.119C583.511 464.874 575.763 468.495 567.684 469.263C545.822 471.34 558.549 441.989 561.846 431.441C562.231 430.208 561.828 425.829 559.482 427.03C554.522 429.569 546.089 435.063 540.136 433.658C536.002 432.681 543.597 418.628 544.448 416.919C545.004 415.804 545.296 411.786 543.015 412.117C534.382 413.37 522.314 413.048 524.742 401.373C525.52 397.63 527.471 393.97 529.627 390.852C530.78 389.183 533.487 384.895 535.964 385.725C536.705 385.97 536.839 384.397 536.206 384.172Z" fill="#4B4849"/>
                                        </g>
                                        <g id="Group_11">
                                            <path id="Vector_11" d="M510.065 418.146C501.275 416.923 497.082 429.038 495.788 435.766C495.042 439.645 495.006 444.463 497.554 447.725C500.666 451.709 506.025 449.68 509.645 447.664C509.004 446.102 508.363 444.541 507.722 442.979C503.35 451.383 495.572 458.89 496.058 468.997C496.102 469.922 496.483 471.688 497.619 471.937C506.31 473.842 513.765 470.065 521.717 467.009C520.84 466.287 519.963 465.566 519.086 464.844C520.656 474.806 519.536 485.632 523.623 495.068C528.722 506.836 541.07 504.917 550.387 499.408C551.241 498.904 551.408 496.191 550.048 496.423C540.899 497.984 530.371 499.831 526.586 489.281C523.638 481.066 524.445 471.591 523.084 463.048C522.891 461.835 521.846 460.344 520.453 460.883C513.386 463.62 506.361 467.362 498.551 465.955C499.072 466.935 499.592 467.915 500.112 468.895C499.525 460.884 506.877 453.589 510.448 446.913C511.062 445.766 510.946 440.925 508.525 442.228C506.215 443.471 502.477 445.563 500.049 443.505C498.158 441.903 499.027 437.617 499.371 435.606C500.126 431.191 504.015 419.054 510.105 419.745C510.795 419.826 510.776 418.245 510.065 418.146Z" fill="#4B4849"/>
                                        </g>
                                    </g>
                                </g>
                            </g>
                        </g>
                    </g>
                </g>
                <animateTransform attributeName="transform" type="rotate" values="0 100 100;1 100 100;0 100 100" dur="1.5s" repeatCount="indefinite" />
            </g>
            <g id="braco_esq" transform="rotate(0 100 100)">
                <g id="Group_12">
                    <g id="Group_13">
                        <path id="Vector_12" d="M719.531 518.919C668.629 508.605 676.722 453.114 666.103 454.107C658.246 454.845 655.916 489.209 666.293 505.756C676.669 522.302 729.935 521.028 719.531 518.919Z" fill="#441C23"/>
                    </g>
                    <g id="Group_14">
                        <path id="Vector_13" d="M763 612.33L768.115 549.303C768.115 549.303 691.393 539.639 683.616 531.507C675.837 523.375 623.958 446.345 639.869 446.698C655.779 447.052 674.209 501.054 686.792 503.138C699.374 505.222 751.549 511.581 752.159 503.317C752.766 495.053 707.71 454.892 725.59 452.532C743.47 450.169 755.959 480.374 768.172 484.678C780.385 488.982 809.019 508.931 810.392 523.608C811.764 538.283 808.887 619.93 808.887 619.93L763 612.33Z" fill="#703622"/>
                    </g>
                </g>
                <g id="Group_15">
                    <path id="Vector_14" d="M491.643 677.881C501.394 725.894 536.279 762.653 536.279 762.653C536.279 762.653 772.7 889.614 790.596 879.546C844.174 849.408 820.72 591.608 820.72 591.608L757.985 593.858C757.985 593.858 750.103 743.918 739.759 744.039C732.156 744.128 639.405 667.893 579.79 629.492C558.299 615.649 489.016 577.45 489.016 577.45C489.016 577.45 473.361 587.885 491.643 677.881Z" fill="#1E3A8A"/>
                    <path id="Vector_15" d="M742.598 740.304C741.677 742.7 740.729 744.029 739.76 744.04C738.037 744.06 731.928 740.15 722.834 733.658C724.736 738.418 727.331 743.016 729.555 747.503C732.319 753.074 735.034 758.691 737.481 764.41C742.883 777.037 745.827 790.243 749.202 803.496C749.686 805.394 753.265 803.746 753.39 802.251C754.596 788.001 750.762 774.354 744.964 761.44C742.414 755.757 739.469 750.286 736.414 744.862C739.385 748.25 742.269 751.721 744.99 755.353C750.718 762.999 756.172 770.934 760.623 779.402C764.424 786.635 767.492 794.209 771.259 801.441C772.187 803.221 776.125 802.002 775.98 800.037C774.694 782.807 763.162 765.909 752.811 752.651C749.56 748.488 746.167 744.329 742.598 740.304Z" fill="#1C1037"/>
                    <path id="Vector_16" d="M745.51 728.966C745.089 731.137 744.661 733.114 744.226 734.873C749.664 739.108 753.903 744.408 757.349 750.902C761.47 758.671 764.208 767.498 769.475 774.584C770.562 776.045 774.626 774.509 774.329 772.658C771.799 756.858 761.714 735.362 745.51 728.966Z" fill="#1C1037"/>
                </g>
                <animateTransform attributeName="transform" type="rotate" values="0 100 100;1 100 100;0 100 100" dur="1.5s" repeatCount="indefinite" />
            </g>
            <g id="corpo">
                <g id="Group_16">
                    <g id="Group_17">
                        <path id="Vector_17" d="M579.6 2121.5L565.31 2115.57L590.821 2013.76L613.591 2034.49L579.6 2121.5Z" fill="#1A1020"/>
                        <path id="Vector_18" d="M679.37 2117.43C678.115 2112.06 671.621 2108.03 669.874 2103.13C664.599 2088.35 664.478 2071.66 662.887 2053.99C661.198 2035.24 659.448 2023.22 655.845 1998.88C651.908 1972.28 693.474 1930.74 702.358 1906.4C710.291 1882.89 695.353 1873.48 666.998 1868.41C661.37 1867.29 671.047 1875.54 664.987 1875.46L662.758 1880.82C655.904 1901.74 640.912 1893.29 629.188 1923.85C609.296 1975.7 594.036 1989.35 588.925 2000.25C588.521 2003.53 588.38 2006.74 587.909 2009.37C587.724 2010.4 587.601 2011.42 587.523 2012.43C589.584 2026.04 594.059 2037.05 594.992 2050.91C595.032 2051.4 595.065 2051.89 595.09 2052.39C596.246 2076.02 589.09 2098.64 594.228 2121.48C594.729 2123.9 595.432 2126.21 596.295 2128.43L664.046 2156.56C674.761 2150.83 683.769 2136.59 679.37 2117.43Z" fill="#703622"/>
                        <path id="Vector_19" d="M686.758 2120.5C685.503 2115.13 671.62 2108.03 669.873 2103.14C665.847 2091.85 664.823 2079.46 663.856 2066.37C660.498 2074.45 662.955 2087.87 663.391 2094.29C664.249 2106.89 659.921 2104.01 640.406 2097.81C615.292 2089.82 610.835 2079.03 611.188 2062.53C611.541 2046.02 612.496 2026.11 608.176 2010.1C605.693 2001.39 601.565 1994.52 595.915 1989.03C589.544 1998.4 586.254 2003.01 587.248 2010.56C589.222 2025.55 594.361 2037.18 595.088 2052.39C596.244 2076.02 589.088 2098.64 594.226 2121.49C594.727 2123.9 595.43 2126.22 596.293 2128.43L671.433 2159.63C682.15 2153.9 691.158 2139.66 686.758 2120.5Z" fill="#1C1037"/>
                        <path id="Vector_20" d="M666.996 1868.41C661.368 1867.29 671.045 1875.54 664.985 1875.46L662.756 1880.82C655.902 1901.74 640.91 1893.29 629.186 1923.85C624.602 1935.8 620.265 1945.71 616.241 1954.03L660.086 1976.9C670.46 1952.8 695.668 1924.72 702.357 1906.4C710.289 1882.89 695.352 1873.48 666.996 1868.41Z" fill="#441C23"/>
                    </g>
                    <g id="Group_18">
                        <path id="Vector_21" d="M473.89 2124.47L458.808 2121.02L466.897 2016.38L492.819 2032.99L473.89 2124.47Z" fill="#1A1020"/>
                        <path id="Vector_22" d="M571.567 2103.74C569.429 2098.66 562.352 2095.77 559.809 2091.24C552.132 2077.55 549.216 2061.11 544.686 2043.96C539.879 2025.76 535.617 2021.98 537.096 1999.01C538.401 1978.74 550.595 1966.91 560.244 1952.17C568.17 1940.06 584.83 1905.68 591.624 1879.08C588.865 1869.62 581.779 1863.35 566.643 1863.22C566.15 1863.21 565.618 1863.21 565.061 1863.21L551.784 1870.98C550.278 1881.06 544.091 1888.4 536.913 1896.47C530.103 1908.38 522.402 1920.41 517.94 1932.11C515.532 1938.43 512.609 1942.4 507.947 1948.03C500.852 1962.47 490.422 1974.83 476.872 1986.59C474.813 1988.37 470.759 1993.37 470.759 1993.37C470.759 1993.37 464.916 1998.22 462.854 2004.94C463.033 2007.68 463.311 2010.29 463.292 2012.53C463.282 2013.52 463.326 2014.5 463.409 2015.46C467.974 2028.54 474.019 2038.77 477.253 2052.36C477.37 2052.82 477.48 2053.28 477.582 2053.75C482.681 2076.85 479.417 2100.34 488.309 2122C489.209 2124.3 490.288 2126.47 491.511 2128.51L563.017 2144.88C572.622 2137.44 579.114 2121.89 571.567 2103.74Z" fill="#703622"/>
                        <path id="Vector_23" d="M559.808 2091.24C553.949 2080.79 550.863 2068.74 547.716 2056C545.759 2064.53 550.431 2077.35 551.937 2083.6C554.895 2095.89 550.145 2093.77 529.865 2090.92C503.767 2087.25 497.566 2077.37 495.149 2061.04C492.731 2044.71 490.337 2024.92 483.395 2009.86C480.103 2002.98 475.871 1997.59 470.742 1993.38C470.422 1993.65 459.277 2003.09 462.842 2013.82C467.61 2028.16 474.315 2038.87 477.58 2053.74C482.679 2076.85 479.415 2100.34 488.307 2122C489.207 2124.3 490.287 2126.47 491.51 2128.51L574.712 2147.56C584.318 2140.12 590.811 2124.57 583.264 2106.42C581.126 2101.34 562.351 2095.77 559.808 2091.24Z" fill="#1C1037"/>
                        <path id="Vector_24" d="M584.295 1844.95C578.56 1844.79 579.984 1857.04 573.998 1857.98L551.782 1870.98C548.529 1892.75 523.45 1901.72 513.698 1932.97C511.971 1938.5 510.068 1943.46 507.944 1948.03L549.103 1968.01C552.707 1962.74 556.651 1957.66 560.243 1952.17C573.831 1931.41 613.099 1845.2 584.295 1844.95Z" fill="#441C23"/>
                    </g>
                    <path id="Vector_25" d="M523.707 1920.49L526.233 1920.75L546.885 1873.54L523.707 1920.49Z" fill="#F4A280"/>
                    <path id="Vector_26" d="M736.401 1267.06C572.217 1260.02 559.157 1258.16 559.157 1258.16C559.157 1258.16 549.829 1163 542.364 1138.75C534.901 1114.49 512.515 1067.85 512.515 1067.85C512.515 1067.85 456.541 1038 402.435 1038C348.329 1038 273.697 1056.66 240.116 1064.12C206.532 1071.58 163.621 1079.05 163.621 1079.05C163.621 1079.05 25.5573 1467.12 219.595 1491.37C413.63 1515.63 741.999 1478.31 741.999 1478.31L494.748 1931.53L572.993 1961.07L678.561 1808.55L1061.04 1338.27C1040.52 1299.2 900.586 1274.1 736.401 1267.06Z" fill="#211740"/>
                    <path id="Vector_27" d="M559.157 1258.15C559.157 1258.15 558.969 1256.24 558.626 1252.88C489.355 1253.07 419.713 1255.02 351.231 1266.02C347.657 1266.6 349.18 1272.02 352.727 1271.45C422.142 1260.3 492.819 1258.62 563.021 1258.5C559.867 1258.26 559.157 1258.15 559.157 1258.15Z" fill="#1C1037"/>
                    <path id="Vector_28" d="M744.97 1483.58C747.168 1483.04 749.284 1482.41 751.202 1481.86C759.48 1479.46 767.554 1476.16 775.645 1473.2C783.915 1470.17 792.025 1466.8 799.759 1462.58C806.418 1458.94 814.622 1454.09 816.846 1446.38C817.203 1445.14 817.142 1441.52 814.983 1441.78C812.148 1442.11 810.243 1443.66 808.028 1445.36C804.719 1447.89 801.217 1450.15 797.632 1452.27C790.458 1456.5 782.715 1459.74 775.079 1463.02C774.736 1463.17 774.392 1463.31 774.05 1463.46C782.569 1455.87 789.672 1446.8 792.033 1435.91C792.245 1434.93 791.227 1433.17 790.326 1434.47C779.713 1449.82 765.797 1461.04 749.852 1470.55C745.902 1472.91 741.85 1475.09 737.761 1477.21C742.963 1473.24 747.903 1468.88 752.637 1464.29C759.32 1457.81 765.257 1450.55 770.72 1443.03C776.094 1435.63 779.096 1426.83 784.666 1419.55C785.317 1418.7 784.925 1415.57 783.339 1416.32C776.423 1419.61 773.151 1427.39 769.382 1433.6C764.392 1441.83 757.483 1449.11 750.74 1455.92C741.42 1465.32 730.654 1473 719.888 1480.65C734.044 1479.22 741.997 1478.31 741.997 1478.31L736.569 1488.26C739.41 1486.76 742.211 1485.19 744.97 1483.58Z" fill="#1C1037"/>
                    <path id="Vector_29" d="M1064.06 1337.53C1057.72 1319.8 1029.56 1257.21 736.402 1267.06C736.402 1267.06 907.559 1283.61 952.06 1321.03C985.84 1349.43 954.067 1422.34 929.81 1450.33C905.558 1478.31 883.167 1536.15 843.988 1593.27C821.136 1626.58 743.367 1724.06 678.562 1808.55L610.223 1937.56L677.06 1961.07C677.06 1961.07 908.05 1650.39 947.229 1593.27C986.41 1536.15 1008.8 1478.31 1033.05 1450.33C1057.31 1422.34 1072.39 1360.86 1064.06 1337.53Z" fill="#1C1037"/>
                </g>
                <g id="Group_19">
                    <g id="Group_20">
                        <g id="Clip path group_2">
                            <g id="Mask group_2">
                                <mask id="mask1_12_1259" style="mask-type:luminance" maskUnits="userSpaceOnUse" x="239" y="445" width="249" height="265">
                                    <g id="Group_21">
                                        <g id="SVGID_00000159457387896984519470000011880413159210487978_">
                                            <path id="Vector_30" d="M416.922 546.928C398.626 519.791 407.108 448.508 407.108 448.508L321.108 445.887C321.108 445.887 329.589 517.169 311.294 544.306C294.954 568.539 239.815 574.165 239.815 574.165C239.815 574.165 246.38 709.427 364.108 709.014C469.572 708.645 487.867 577.665 487.867 577.665C487.867 577.665 433.262 571.16 416.922 546.928Z" fill="white"/>
                                        </g>
                                    </g>
                                </mask>
                                <g mask="url(#mask1_12_1259)">
                                    <g id="Group_22">
                                        <g id="Group_21_2">
                                            <path id="Vector_31" d="M416.922 546.928C398.626 519.791 407.108 448.508 407.108 448.508L321.108 445.887C321.108 445.887 329.589 517.169 311.294 544.306C294.954 568.539 239.815 574.165 239.815 574.165C239.815 574.165 246.38 709.427 364.108 709.014C469.572 708.645 488.402 576.786 488.402 576.786C488.402 576.786 433.262 571.16 416.922 546.928Z" fill="#703622"/>
                                        </g>
                                    </g>
                                </g>
                            </g>
                        </g>
                        <g id="Clip path group_3">
                            <g id="Mask group_3">
                                <mask id="mask2_12_1259" style="mask-type:luminance" maskUnits="userSpaceOnUse" x="239" y="445" width="249" height="265">
                                    <g id="Group_23">
                                        <g id="SVGID_00000159457387896984519470000011880413159210487978__2">
                                            <path id="Vector_32" d="M416.922 546.928C398.626 519.791 407.108 448.508 407.108 448.508L321.108 445.887C321.108 445.887 329.589 517.169 311.294 544.306C294.954 568.539 239.815 574.165 239.815 574.165C239.815 574.165 246.38 709.427 364.108 709.014C469.572 708.645 487.867 577.665 487.867 577.665C487.867 577.665 433.262 571.16 416.922 546.928Z" fill="white"/>
                                        </g>
                                    </g>
                                </mask>
                                <g mask="url(#mask2_12_1259)">
                                    <g id="Group_24">
                                        <g id="Group_22_2">
                                            <path id="Vector_33" d="M446.253 457.389C446.253 483.802 433.356 514.46 397.724 514.46C362.092 514.46 312.235 496.705 312.235 470.291C312.235 443.878 346.103 409.563 381.736 409.563C417.368 409.564 446.253 430.976 446.253 457.389Z" fill="#441C23"/>
                                        </g>
                                    </g>
                                </g>
                            </g>
                        </g>
                    </g>
                    <g id="Group_23_2">
                        <path id="Vector_34" d="M508.607 257.008C510.943 111.619 458.039 56.4109 363.141 56.4109H363.14C268.243 56.4109 200.456 106.537 200.456 256.347C200.456 267.685 201.294 278.717 202.851 289.432C196.955 285.795 189.858 283.463 185.184 282.902C167.93 281.402 159.302 299.406 159.302 314.41C158.927 342.918 181.809 382.303 212.567 385.305C222.08 386.362 229.691 383.611 235.087 378.454C281.915 456.167 364.712 500.887 409.495 494.694C429.008 491.995 489.672 459.62 513.902 379.509C524.787 343.521 508.092 289.126 508.607 257.008Z" fill="#703622"/>
                        <g id="Group_24_2">
                            <path id="Vector_35" d="M429.088 370.947C441.01 370.947 445.466 367.382 453.551 358.859C445.84 373.405 445.088 379.947 426.088 380.447C418.688 380.642 395.227 372.04 387.588 357.447C395.679 366.021 417.126 370.947 429.088 370.947Z" fill="#441C23"/>
                        </g>
                        <path id="Vector_36" d="M373.914 359.184C372.392 370.054 356.563 376.821 338.562 374.3C320.56 371.779 307.201 360.922 308.723 350.053C310.246 339.183 326.074 332.415 344.076 334.937C362.076 337.458 375.437 348.314 373.914 359.184Z" fill="#862C2C"/>
                        <path id="Vector_37" d="M489.336 321.66C471.335 324.182 457.974 335.037 459.497 345.907C461.019 356.777 476.848 363.544 494.85 361.023C504.128 359.723 512.166 356.207 517.576 351.618C517.655 343.212 517.073 334.463 516.159 325.678C509.546 321.875 499.812 320.192 489.336 321.66Z" fill="#862C2C"/>
                        <g id="Group_25">
                            <g id="Group_26">
                                <path id="Vector_38" d="M297.712 247.096C307.242 243.59 315.629 242.412 326.097 241.944C335.09 241.543 345.404 244.878 353.135 248.994C359.115 252.178 372.276 264.395 376.656 265.418C382.647 266.816 383.711 262.011 383.475 259.054C382.696 249.363 371.356 242.282 362.323 237.559C352.348 232.342 339.111 230.103 327.588 230.119C304.63 230.149 281.288 242.667 270.102 259.289C269.433 260.283 269.557 261.35 271.349 260.788C271.349 260.788 288.558 250.467 297.712 247.096Z" fill="#0B1117"/>
                            </g>
                        </g>
                        <g id="Group_27">
                            <g id="Group_28">
                                <path id="Vector_39" d="M342.001 282.39C310.615 274.98 330.909 318.208 329.519 321.158C298.043 317.863 293.092 296.392 293.092 296.392C293.092 296.392 304.262 259.348 341.547 264.999C371.415 269.526 374.271 301.26 374.271 309.026C369.661 298.301 359.808 286.594 342.001 282.39Z" fill="#231F20"/>
                            </g>
                            <g id="Group_29">
                                <path id="Vector_40" d="M374.719 315.012C374.719 315.012 376.814 288.716 344.001 279.68C306.148 269.257 301.334 301.077 301.334 301.077C301.334 301.077 308.667 317.68 332.013 321.767C356.483 326.052 374.719 315.012 374.719 315.012Z" fill="white"/>
                            </g>
                            <g id="Group_30">
                                <path id="Vector_41" d="M308.584 292.707C307.123 306.66 317.25 319.154 331.201 320.615C345.156 322.076 357.652 311.95 359.112 297.998C360.574 284.043 350.447 271.548 336.493 270.087C322.538 268.626 310.044 278.753 308.584 292.707Z" fill="#231F20"/>
                            </g>
                            <g id="Group_31">
                                <path id="Vector_42" d="M314.966 279.011C313.009 282.017 312.807 285.353 314.516 286.464C316.222 287.575 319.192 286.039 321.149 283.033C323.104 280.028 323.305 276.69 321.597 275.579C319.89 274.469 316.921 276.005 314.966 279.011Z" fill="white"/>
                            </g>
                            <g id="Group_32">
                                <path id="Vector_43" d="M316.271 291.594C316.125 292.993 317.139 294.246 318.538 294.392C319.936 294.539 321.188 293.523 321.336 292.125C321.482 290.726 320.467 289.474 319.068 289.328C317.669 289.181 316.418 290.196 316.271 291.594Z" fill="white"/>
                            </g>
                        </g>
                        <g id="Group_33">
                            <g id="Group_34">
                                <path id="Vector_44" d="M468.371 276.72C495.219 269.803 477.859 310.153 479.048 312.906C505.972 309.83 510.208 289.789 510.208 289.789C510.208 289.789 500.653 255.212 468.759 260.486C443.21 264.712 440.767 294.332 440.767 301.581C444.71 291.572 453.138 280.644 468.371 276.72Z" fill="#231F20"/>
                            </g>
                            <g id="Group_35">
                                <path id="Vector_45" d="M440.381 307.17C440.381 307.17 438.589 282.626 466.657 274.191C499.036 264.462 503.154 294.164 503.154 294.164C503.154 294.164 496.881 309.661 476.911 313.476C455.981 317.475 440.381 307.17 440.381 307.17Z" fill="white"/>
                            </g>
                            <g id="Group_36">
                                <path id="Vector_46" d="M446.741 287.614C445.4 300.506 454.694 312.051 467.498 313.401C480.305 314.751 491.771 305.396 493.111 292.503C494.453 279.608 485.159 268.063 472.353 266.713C459.547 265.362 448.081 274.719 446.741 287.614Z" fill="#231F20"/>
                            </g>
                            <g id="Group_37">
                                <path id="Vector_47" d="M452.598 274.958C450.803 277.735 450.618 280.818 452.186 281.845C453.751 282.871 456.476 281.451 458.272 278.675C460.066 275.898 460.251 272.814 458.683 271.788C457.116 270.761 454.392 272.18 452.598 274.958Z" fill="white"/>
                            </g>
                            <g id="Group_38">
                                <path id="Vector_48" d="M453.795 286.585C453.661 287.878 454.591 289.036 455.876 289.17C457.159 289.306 458.308 288.367 458.444 287.075C458.578 285.782 457.647 284.625 456.362 284.49C455.079 284.355 453.931 285.293 453.795 286.585Z" fill="white"/>
                            </g>
                        </g>
                        <g id="Group_39">
                            <g id="Group_40">
                                <path id="Vector_49" d="M428.79 424.805L382.431 416.146C382.514 417.206 384.858 427.997 386.842 431.86C391.584 441.096 404.872 448.811 428.79 448.811C448.422 447.28 451.203 438.596 455.481 431.963C459.162 426.256 460.973 416.206 461.056 415.146L428.79 424.805Z" fill="#541322"/>
                            </g>
                            <g id="Group_41">
                                <path id="Vector_50" d="M428.79 407.489C427.186 407.489 420.642 402.846 414.05 402.796C406.372 402.737 385.842 409.847 382.431 416.147C382.431 416.147 413.894 424.806 428.79 424.806C443.957 424.806 461.056 415.147 461.056 415.147C456.205 407.347 451.856 402.715 443.957 402.796C434.822 402.89 430.276 407.489 428.79 407.489Z" fill="#5E1B1C"/>
                            </g>
                        </g>
                        <path id="Vector_51" d="M481.518 229.395C471.652 229.215 460.349 231.289 451.881 236.425C444.214 241.074 434.603 248.075 434.075 257.868C433.914 260.856 434.894 265.73 440.005 264.403C443.741 263.432 454.837 251.259 459.913 248.124C466.475 244.071 475.258 240.845 482.965 241.38C491.936 242.003 499.135 243.315 507.344 246.998C507.767 247.188 508.214 247.402 508.674 247.63C508.672 244.191 508.646 240.792 508.579 237.458C500.209 232.559 490.808 229.565 481.518 229.395Z" fill="#0B1117"/>
                    </g>
                    <g id="Group_42">
                        <g id="Group_43">
                            <path id="Vector_52" d="M502.816 735.182C513.14 700.012 513.024 665.22 513.024 665.22L451.882 563.74L412.684 538.719C412.684 538.719 397.022 563.177 380.091 563.74C375.599 563.889 369.096 561.592 361.966 558.137C360.067 558.883 358.248 559.329 356.556 559.385C345.319 559.759 328.227 542.212 317.999 530.366C317.778 530.201 317.657 530.111 317.657 530.111L263.957 563.74L276.667 702.674C276.667 702.674 277.93 704.875 280.352 708.62C283.866 713.961 288.19 720.168 293.271 726.816C308.594 746.69 333.945 774.297 366.907 791.518C382.142 799.132 398.862 804.175 416.854 804.854C463.853 806.628 489.271 770.17 502.816 735.182Z" fill="#1E3A8A"/>
                            <path id="Vector_53" d="M317.972 530.345L316.622 530.759L263.957 563.739L264.924 574.31C295.778 602.872 350.38 649.983 370.111 645.248C412.774 635.009 380.091 563.74 380.091 563.74C363.98 564.275 321.999 533.341 317.972 530.345Z" fill="white"/>
                            <path id="Vector_54" d="M432.377 631.369C451.889 628.328 454.661 594.711 453.432 566.312L451.882 563.74L412.684 538.719C412.684 538.719 397.022 563.177 380.091 563.74C380.091 563.74 403.494 635.87 432.377 631.369Z" fill="white"/>
                            <g id="Group_44">
                                <path id="Vector_55" d="M368.003 976.498L285.857 1127.29C285.857 1127.29 338.934 1148.67 391.167 1144.17C443.399 1139.67 479.409 1127.29 479.409 1127.29L429.896 967.496L368.003 976.498Z" fill="#1E3A8A"/>
                            </g>
                        </g>
                        <g id="Group_45">
                            <g id="Clip path group_4">
                                <g id="Mask group_4">
                                    <mask id="mask3_12_1259" style="mask-type:luminance" maskUnits="userSpaceOnUse" x="151" y="563" width="410" height="606">
                                        <g id="Group_46">
                                            <g id="SVGID_00000141442446994719312910000004161580726195475364_">
                                                <path id="Vector_56" d="M558.087 769.656C572.829 716.715 517.149 683.883 505.896 648.999C494.643 614.115 489.017 577.452 489.017 577.452L451.882 563.74C451.882 563.74 535.793 738.627 464.676 748.858C379.101 761.17 337.889 666.176 309.087 626.697C280.087 586.947 263.957 563.739 263.957 563.739L195.314 577.451C195.314 577.451 203.191 658.001 220.07 718.767C236.949 779.533 256.08 870.682 244.827 925.822C233.574 980.961 151.427 1101.37 151.427 1101.37C151.427 1101.37 271.957 1181.43 398.405 1167.29L410.996 1072.86L466.983 1154.24C533.808 1135.5 537.406 1110.37 537.406 1110.37C537.406 1110.37 480.015 1022.6 480.015 956.204C480.015 889.811 476.64 854.927 494.644 838.048C512.648 821.17 544.36 818.95 558.087 769.656Z" fill="white"/>
                                            </g>
                                        </g>
                                    </mask>
                                    <g mask="url(#mask3_12_1259)">
                                        <g id="Group_47">
                                            <path id="Vector_57" d="M561.587 772.947C571.715 718.933 517.149 683.883 505.896 648.999C494.643 614.115 489.017 577.452 489.017 577.452L451.882 563.74L437.334 692.129C437.334 692.129 353.98 646.749 315.721 614.115C277.461 581.482 263.957 563.74 263.957 563.74L195.314 577.452C195.314 577.452 203.191 658.002 220.07 718.768C236.949 779.534 256.08 870.683 244.827 925.823C233.574 980.962 151.427 1101.37 151.427 1101.37C151.427 1101.37 271.957 1181.43 398.405 1167.29L410.996 1072.86L466.983 1154.24C533.808 1135.5 537.406 1110.37 537.406 1110.37C537.406 1110.37 480.015 1022.6 480.015 956.205C480.015 889.812 476.64 854.928 494.644 838.049C512.648 821.17 551.46 826.962 561.587 772.947Z" fill="#34D399"/>
                                        </g>
                                    </g>
                                </g>
                            </g>
                            <g id="Clip path group_5">
                                <g id="Mask group_5">
                                    <mask id="mask4_12_1259" style="mask-type:luminance" maskUnits="userSpaceOnUse" x="151" y="563" width="410" height="606">
                                        <g id="Group_48">
                                            <g id="SVGID_00000141442446994719312910000004161580726195475364__2">
                                                <path id="Vector_58" d="M558.087 769.656C572.829 716.715 517.149 683.883 505.896 648.999C494.643 614.115 489.017 577.452 489.017 577.452L451.882 563.74C451.882 563.74 535.793 738.627 464.676 748.858C379.101 761.17 337.889 666.176 309.087 626.697C280.087 586.947 263.957 563.739 263.957 563.739L195.314 577.451C195.314 577.451 203.191 658.001 220.07 718.767C236.949 779.533 256.08 870.682 244.827 925.822C233.574 980.961 151.427 1101.37 151.427 1101.37C151.427 1101.37 271.957 1181.43 398.405 1167.29L410.996 1072.86L466.983 1154.24C533.808 1135.5 537.406 1110.37 537.406 1110.37C537.406 1110.37 480.015 1022.6 480.015 956.204C480.015 889.811 476.64 854.927 494.644 838.048C512.648 821.17 544.36 818.95 558.087 769.656Z" fill="white"/>
                                            </g>
                                        </g>
                                    </mask>
                                    <g mask="url(#mask4_12_1259)">
                                        <g id="Group_49">
                                            <path id="Vector_59" opacity="0.2" d="M182.745 487.254H149.055V1196.97H182.745V487.254Z" fill="#434B1C"/>
                                        </g>
                                    </g>
                                </g>
                            </g>
                            <g id="Clip path group_6">
                                <g id="Mask group_6">
                                    <mask id="mask5_12_1259" style="mask-type:luminance" maskUnits="userSpaceOnUse" x="151" y="563" width="410" height="606">
                                        <g id="Group_50">
                                            <g id="SVGID_00000141442446994719312910000004161580726195475364__3">
                                                <path id="Vector_60" d="M558.087 769.656C572.829 716.715 517.149 683.883 505.896 648.999C494.643 614.115 489.017 577.452 489.017 577.452L451.882 563.74C451.882 563.74 535.793 738.627 464.676 748.858C379.101 761.17 337.889 666.176 309.087 626.697C280.087 586.947 263.957 563.739 263.957 563.739L195.314 577.451C195.314 577.451 203.191 658.001 220.07 718.767C236.949 779.533 256.08 870.682 244.827 925.822C233.574 980.961 151.427 1101.37 151.427 1101.37C151.427 1101.37 271.957 1181.43 398.405 1167.29L410.996 1072.86L466.983 1154.24C533.808 1135.5 537.406 1110.37 537.406 1110.37C537.406 1110.37 480.015 1022.6 480.015 956.204C480.015 889.811 476.64 854.927 494.644 838.048C512.648 821.17 544.36 818.95 558.087 769.656Z" fill="white"/>
                                            </g>
                                        </g>
                                    </mask>
                                    <g mask="url(#mask5_12_1259)">
                                        <g id="Group_51">
                                            <path id="Vector_61" opacity="0.2" d="M251.42 487.254H217.729V1196.97H251.42V487.254Z" fill="#434B1C"/>
                                        </g>
                                    </g>
                                </g>
                            </g>
                            <g id="Clip path group_7">
                                <g id="Mask group_7">
                                    <mask id="mask6_12_1259" style="mask-type:luminance" maskUnits="userSpaceOnUse" x="151" y="563" width="410" height="606">
                                        <g id="Group_52">
                                            <g id="SVGID_00000141442446994719312910000004161580726195475364__4">
                                                <path id="Vector_62" d="M558.087 769.656C572.829 716.715 517.149 683.883 505.896 648.999C494.643 614.115 489.017 577.452 489.017 577.452L451.882 563.74C451.882 563.74 535.793 738.627 464.676 748.858C379.101 761.17 337.889 666.176 309.087 626.697C280.087 586.947 263.957 563.739 263.957 563.739L195.314 577.451C195.314 577.451 203.191 658.001 220.07 718.767C236.949 779.533 256.08 870.682 244.827 925.822C233.574 980.961 151.427 1101.37 151.427 1101.37C151.427 1101.37 271.957 1181.43 398.405 1167.29L410.996 1072.86L466.983 1154.24C533.808 1135.5 537.406 1110.37 537.406 1110.37C537.406 1110.37 480.015 1022.6 480.015 956.204C480.015 889.811 476.64 854.927 494.644 838.048C512.648 821.17 544.36 818.95 558.087 769.656Z" fill="white"/>
                                            </g>
                                        </g>
                                    </mask>
                                    <g mask="url(#mask6_12_1259)">
                                        <g id="Group_53">
                                            <path id="Vector_63" opacity="0.2" d="M321.093 487.254H287.403V1196.97H321.093V487.254Z" fill="#434B1C"/>
                                        </g>
                                    </g>
                                </g>
                            </g>
                            <g id="Clip path group_8">
                                <g id="Mask group_8">
                                    <mask id="mask7_12_1259" style="mask-type:luminance" maskUnits="userSpaceOnUse" x="151" y="563" width="410" height="606">
                                        <g id="Group_54">
                                            <g id="SVGID_00000141442446994719312910000004161580726195475364__5">
                                                <path id="Vector_64" d="M558.087 769.656C572.829 716.715 517.149 683.883 505.896 648.999C494.643 614.115 489.017 577.452 489.017 577.452L451.882 563.74C451.882 563.74 535.793 738.627 464.676 748.858C379.101 761.17 337.889 666.176 309.087 626.697C280.087 586.947 263.957 563.739 263.957 563.739L195.314 577.451C195.314 577.451 203.191 658.001 220.07 718.767C236.949 779.533 256.08 870.682 244.827 925.822C233.574 980.961 151.427 1101.37 151.427 1101.37C151.427 1101.37 271.957 1181.43 398.405 1167.29L410.996 1072.86L466.983 1154.24C533.808 1135.5 537.406 1110.37 537.406 1110.37C537.406 1110.37 480.015 1022.6 480.015 956.204C480.015 889.811 476.64 854.927 494.644 838.048C512.648 821.17 544.36 818.95 558.087 769.656Z" fill="white"/>
                                            </g>
                                        </g>
                                    </mask>
                                    <g mask="url(#mask7_12_1259)">
                                        <g id="Group_55">
                                            <path id="Vector_65" opacity="0.2" d="M396.489 487.254H353.799V1196.97H396.489V487.254Z" fill="#434B1C"/>
                                        </g>
                                    </g>
                                </g>
                            </g>
                            <g id="Clip path group_9">
                                <g id="Mask group_9">
                                    <mask id="mask8_12_1259" style="mask-type:luminance" maskUnits="userSpaceOnUse" x="151" y="563" width="410" height="606">
                                        <g id="Group_56">
                                            <g id="SVGID_00000141442446994719312910000004161580726195475364__6">
                                                <path id="Vector_66" d="M558.087 769.656C572.829 716.715 517.149 683.883 505.896 648.999C494.643 614.115 489.017 577.452 489.017 577.452L451.882 563.74C451.882 563.74 535.793 738.627 464.676 748.858C379.101 761.17 337.889 666.176 309.087 626.697C280.087 586.947 263.957 563.739 263.957 563.739L195.314 577.451C195.314 577.451 203.191 658.001 220.07 718.767C236.949 779.533 256.08 870.682 244.827 925.822C233.574 980.961 151.427 1101.37 151.427 1101.37C151.427 1101.37 271.957 1181.43 398.405 1167.29L410.996 1072.86L466.983 1154.24C533.808 1135.5 537.406 1110.37 537.406 1110.37C537.406 1110.37 480.015 1022.6 480.015 956.204C480.015 889.811 476.64 854.927 494.644 838.048C512.648 821.17 544.36 818.95 558.087 769.656Z" fill="white"/>
                                            </g>
                                        </g>
                                    </mask>
                                    <g mask="url(#mask8_12_1259)">
                                        <g id="Group_57">
                                            <path id="Vector_67" opacity="0.2" d="M465.165 487.254H431.475V1196.97H465.165V487.254Z" fill="#434B1C"/>
                                        </g>
                                    </g>
                                </g>
                            </g>
                            <g id="Clip path group_10">
                                <g id="Mask group_10">
                                    <mask id="mask9_12_1259" style="mask-type:luminance" maskUnits="userSpaceOnUse" x="151" y="563" width="410" height="606">
                                        <g id="Group_58">
                                            <g id="SVGID_00000141442446994719312910000004161580726195475364__7">
                                                <path id="Vector_68" d="M558.087 769.656C572.829 716.715 517.149 683.883 505.896 648.999C494.643 614.115 489.017 577.452 489.017 577.452L451.882 563.74C451.882 563.74 535.793 738.627 464.676 748.858C379.101 761.17 337.889 666.176 309.087 626.697C280.087 586.947 263.957 563.739 263.957 563.739L195.314 577.451C195.314 577.451 203.191 658.001 220.07 718.767C236.949 779.533 256.08 870.682 244.827 925.822C233.574 980.961 151.427 1101.37 151.427 1101.37C151.427 1101.37 271.957 1181.43 398.405 1167.29L410.996 1072.86L466.983 1154.24C533.808 1135.5 537.406 1110.37 537.406 1110.37C537.406 1110.37 480.015 1022.6 480.015 956.204C480.015 889.811 476.64 854.927 494.644 838.048C512.648 821.17 544.36 818.95 558.087 769.656Z" fill="white"/>
                                            </g>
                                        </g>
                                    </mask>
                                    <g mask="url(#mask9_12_1259)">
                                        <g id="Group_59">
                                            <path id="Vector_69" opacity="0.2" d="M533.838 487.254H500.148V1196.97H533.838V487.254Z" fill="#434B1C"/>
                                        </g>
                                    </g>
                                </g>
                            </g>
                            <g id="Clip path group_11">
                                <g id="Mask group_11">
                                    <mask id="mask10_12_1259" style="mask-type:luminance" maskUnits="userSpaceOnUse" x="151" y="563" width="410" height="606">
                                        <g id="Group_60">
                                            <g id="SVGID_00000141442446994719312910000004161580726195475364__8">
                                                <path id="Vector_70" d="M558.087 769.656C572.829 716.715 517.149 683.883 505.896 648.999C494.643 614.115 489.017 577.452 489.017 577.452L451.882 563.74C451.882 563.74 535.793 738.627 464.676 748.858C379.101 761.17 337.889 666.176 309.087 626.697C280.087 586.947 263.957 563.739 263.957 563.739L195.314 577.451C195.314 577.451 203.191 658.001 220.07 718.767C236.949 779.533 256.08 870.682 244.827 925.822C233.574 980.961 151.427 1101.37 151.427 1101.37C151.427 1101.37 271.957 1181.43 398.405 1167.29L410.996 1072.86L466.983 1154.24C533.808 1135.5 537.406 1110.37 537.406 1110.37C537.406 1110.37 480.015 1022.6 480.015 956.204C480.015 889.811 476.64 854.927 494.644 838.048C512.648 821.17 544.36 818.95 558.087 769.656Z" fill="white"/>
                                            </g>
                                        </g>
                                    </mask>
                                    <g mask="url(#mask10_12_1259)">
                                        <g id="Group_61">
                                            <path id="Vector_71" opacity="0.2" d="M694.305 852.971H-15.4092V886.661H694.305V852.971Z" fill="#434B1C"/>
                                        </g>
                                    </g>
                                </g>
                            </g>
                            <g id="Clip path group_12">
                                <g id="Mask group_12">
                                    <mask id="mask11_12_1259" style="mask-type:luminance" maskUnits="userSpaceOnUse" x="151" y="563" width="410" height="606">
                                        <g id="Group_62">
                                            <g id="SVGID_00000141442446994719312910000004161580726195475364__9">
                                                <path id="Vector_72" d="M558.087 769.656C572.829 716.715 517.149 683.883 505.896 648.999C494.643 614.115 489.017 577.452 489.017 577.452L451.882 563.74C451.882 563.74 535.793 738.627 464.676 748.858C379.101 761.17 337.889 666.176 309.087 626.697C280.087 586.947 263.957 563.739 263.957 563.739L195.314 577.451C195.314 577.451 203.191 658.001 220.07 718.767C236.949 779.533 256.08 870.682 244.827 925.822C233.574 980.961 151.427 1101.37 151.427 1101.37C151.427 1101.37 271.957 1181.43 398.405 1167.29L410.996 1072.86L466.983 1154.24C533.808 1135.5 537.406 1110.37 537.406 1110.37C537.406 1110.37 480.015 1022.6 480.015 956.204C480.015 889.811 476.64 854.927 494.644 838.048C512.648 821.17 544.36 818.95 558.087 769.656Z" fill="white"/>
                                            </g>
                                        </g>
                                    </mask>
                                    <g mask="url(#mask11_12_1259)">
                                        <g id="Group_63">
                                            <path id="Vector_73" opacity="0.2" d="M701.305 784.296H-8.40918V817.986H701.305V784.296Z" fill="#434B1C"/>
                                        </g>
                                    </g>
                                </g>
                            </g>
                            <g id="Clip path group_13">
                                <g id="Mask group_13">
                                    <mask id="mask12_12_1259" style="mask-type:luminance" maskUnits="userSpaceOnUse" x="151" y="563" width="410" height="606">
                                        <g id="Group_64">
                                            <g id="SVGID_00000141442446994719312910000004161580726195475364__10">
                                                <path id="Vector_74" d="M558.087 769.656C572.829 716.715 517.149 683.883 505.896 648.999C494.643 614.115 489.017 577.452 489.017 577.452L451.882 563.74C451.882 563.74 535.793 738.627 464.676 748.858C379.101 761.17 337.889 666.176 309.087 626.697C280.087 586.947 263.957 563.739 263.957 563.739L195.314 577.451C195.314 577.451 203.191 658.001 220.07 718.767C236.949 779.533 256.08 870.682 244.827 925.822C233.574 980.961 151.427 1101.37 151.427 1101.37C151.427 1101.37 271.957 1181.43 398.405 1167.29L410.996 1072.86L466.983 1154.24C533.808 1135.5 537.406 1110.37 537.406 1110.37C537.406 1110.37 480.015 1022.6 480.015 956.204C480.015 889.811 476.64 854.927 494.644 838.048C512.648 821.17 544.36 818.95 558.087 769.656Z" fill="white"/>
                                            </g>
                                        </g>
                                    </mask>
                                    <g mask="url(#mask12_12_1259)">
                                        <g id="Group_65">
                                            <path id="Vector_75" opacity="0.2" d="M692.305 715.62L699.305 749.311H-10.4092L-17.4092 715.621L692.305 715.62Z" fill="#434B1C"/>
                                        </g>
                                    </g>
                                </g>
                            </g>
                            <g id="Clip path group_14">
                                <g id="Mask group_14">
                                    <mask id="mask13_12_1259" style="mask-type:luminance" maskUnits="userSpaceOnUse" x="151" y="563" width="410" height="606">
                                        <g id="Group_66">
                                            <g id="SVGID_00000141442446994719312910000004161580726195475364__11">
                                                <path id="Vector_76" d="M558.087 769.656C572.829 716.715 517.149 683.883 505.896 648.999C494.643 614.115 489.017 577.452 489.017 577.452L451.882 563.74C451.882 563.74 535.793 738.627 464.676 748.858C379.101 761.17 337.889 666.176 309.087 626.697C280.087 586.947 263.957 563.739 263.957 563.739L195.314 577.451C195.314 577.451 203.191 658.001 220.07 718.767C236.949 779.533 256.08 870.682 244.827 925.822C233.574 980.961 151.427 1101.37 151.427 1101.37C151.427 1101.37 271.957 1181.43 398.405 1167.29L410.996 1072.86L466.983 1154.24C533.808 1135.5 537.406 1110.37 537.406 1110.37C537.406 1110.37 480.015 1022.6 480.015 956.204C480.015 889.811 476.64 854.927 494.644 838.048C512.648 821.17 544.36 818.95 558.087 769.656Z" fill="white"/>
                                            </g>
                                        </g>
                                    </mask>
                                    <g mask="url(#mask13_12_1259)">
                                        <g id="Group_67">
                                            <path id="Vector_77" opacity="0.2" d="M692.305 649.226H-17.4092V682.916H692.305V649.226Z" fill="#434B1C"/>
                                        </g>
                                    </g>
                                </g>
                            </g>
                            <g id="Clip path group_15">
                                <g id="Mask group_15">
                                    <mask id="mask14_12_1259" style="mask-type:luminance" maskUnits="userSpaceOnUse" x="151" y="563" width="410" height="606">
                                        <g id="Group_68">
                                            <g id="SVGID_00000141442446994719312910000004161580726195475364__12">
                                                <path id="Vector_78" d="M558.087 769.656C572.829 716.715 517.149 683.883 505.896 648.999C494.643 614.115 489.017 577.452 489.017 577.452L451.882 563.74C451.882 563.74 535.793 738.627 464.676 748.858C379.101 761.17 337.889 666.176 309.087 626.697C280.087 586.947 263.957 563.739 263.957 563.739L195.314 577.451C195.314 577.451 203.191 658.001 220.07 718.767C236.949 779.533 256.08 870.682 244.827 925.822C233.574 980.961 151.427 1101.37 151.427 1101.37C151.427 1101.37 271.957 1181.43 398.405 1167.29L410.996 1072.86L466.983 1154.24C533.808 1135.5 537.406 1110.37 537.406 1110.37C537.406 1110.37 480.015 1022.6 480.015 956.204C480.015 889.811 476.64 854.927 494.644 838.048C512.648 821.17 544.36 818.95 558.087 769.656Z" fill="white"/>
                                            </g>
                                        </g>
                                    </mask>
                                    <g mask="url(#mask14_12_1259)">
                                        <g id="Group_69">
                                            <path id="Vector_79" opacity="0.2" d="M692.305 580.551H-17.4092V614.241H692.305V580.551Z" fill="#434B1C"/>
                                        </g>
                                    </g>
                                </g>
                            </g>
                            <g id="Clip path group_16">
                                <g id="Mask group_16">
                                    <mask id="mask15_12_1259" style="mask-type:luminance" maskUnits="userSpaceOnUse" x="151" y="563" width="410" height="606">
                                        <g id="Group_70">
                                            <g id="SVGID_00000141442446994719312910000004161580726195475364__13">
                                                <path id="Vector_80" d="M558.087 769.656C572.829 716.715 517.149 683.883 505.896 648.999C494.643 614.115 489.017 577.452 489.017 577.452L451.882 563.74C451.882 563.74 535.793 738.627 464.676 748.858C379.101 761.17 337.889 666.176 309.087 626.697C280.087 586.947 263.957 563.739 263.957 563.739L195.314 577.451C195.314 577.451 203.191 658.001 220.07 718.767C236.949 779.533 256.08 870.682 244.827 925.822C233.574 980.961 151.427 1101.37 151.427 1101.37C151.427 1101.37 271.957 1181.43 398.405 1167.29L410.996 1072.86L466.983 1154.24C533.808 1135.5 537.406 1110.37 537.406 1110.37C537.406 1110.37 480.015 1022.6 480.015 956.204C480.015 889.811 476.64 854.927 494.644 838.048C512.648 821.17 544.36 818.95 558.087 769.656Z" fill="white"/>
                                            </g>
                                        </g>
                                    </mask>
                                    <g mask="url(#mask15_12_1259)">
                                        <g id="Group_71">
                                            <path id="Vector_81" opacity="0.2" d="M692.305 1125H-17.4092V1158.69H692.305V1125Z" fill="#434B1C"/>
                                        </g>
                                    </g>
                                </g>
                            </g>
                            <g id="Clip path group_17">
                                <g id="Mask group_17">
                                    <mask id="mask16_12_1259" style="mask-type:luminance" maskUnits="userSpaceOnUse" x="151" y="563" width="410" height="606">
                                        <g id="Group_72">
                                            <g id="SVGID_00000141442446994719312910000004161580726195475364__14">
                                                <path id="Vector_82" d="M558.087 769.656C572.829 716.715 517.149 683.883 505.896 648.999C494.643 614.115 489.017 577.452 489.017 577.452L451.882 563.74C451.882 563.74 535.793 738.627 464.676 748.858C379.101 761.17 337.889 666.176 309.087 626.697C280.087 586.947 263.957 563.739 263.957 563.739L195.314 577.451C195.314 577.451 203.191 658.001 220.07 718.767C236.949 779.533 256.08 870.682 244.827 925.822C233.574 980.961 151.427 1101.37 151.427 1101.37C151.427 1101.37 271.957 1181.43 398.405 1167.29L410.996 1072.86L466.983 1154.24C533.808 1135.5 537.406 1110.37 537.406 1110.37C537.406 1110.37 480.015 1022.6 480.015 956.204C480.015 889.811 476.64 854.927 494.644 838.048C512.648 821.17 544.36 818.95 558.087 769.656Z" fill="white"/>
                                            </g>
                                        </g>
                                    </mask>
                                    <g mask="url(#mask16_12_1259)">
                                        <g id="Group_73">
                                            <path id="Vector_83" opacity="0.2" d="M692.305 1058.61H-17.4092V1092.3H692.305V1058.61Z" fill="#434B1C"/>
                                        </g>
                                    </g>
                                </g>
                            </g>
                            <g id="Clip path group_18">
                                <g id="Mask group_18">
                                    <mask id="mask17_12_1259" style="mask-type:luminance" maskUnits="userSpaceOnUse" x="151" y="563" width="410" height="606">
                                        <g id="Group_74">
                                            <g id="SVGID_00000141442446994719312910000004161580726195475364__15">
                                                <path id="Vector_84" d="M558.087 769.656C572.829 716.715 517.149 683.883 505.896 648.999C494.643 614.115 489.017 577.452 489.017 577.452L451.882 563.74C451.882 563.74 535.793 738.627 464.676 748.858C379.101 761.17 337.889 666.176 309.087 626.697C280.087 586.947 263.957 563.739 263.957 563.739L195.314 577.451C195.314 577.451 203.191 658.001 220.07 718.767C236.949 779.533 256.08 870.682 244.827 925.822C233.574 980.961 151.427 1101.37 151.427 1101.37C151.427 1101.37 271.957 1181.43 398.405 1167.29L410.996 1072.86L466.983 1154.24C533.808 1135.5 537.406 1110.37 537.406 1110.37C537.406 1110.37 480.015 1022.6 480.015 956.204C480.015 889.811 476.64 854.927 494.644 838.048C512.648 821.17 544.36 818.95 558.087 769.656Z" fill="white"/>
                                            </g>
                                        </g>
                                    </mask>
                                    <g mask="url(#mask17_12_1259)">
                                        <g id="Group_75">
                                            <path id="Vector_85" opacity="0.2" d="M692.305 989.935H-17.4092V1023.62H692.305V989.935Z" fill="#434B1C"/>
                                        </g>
                                    </g>
                                </g>
                            </g>
                            <g id="Clip path group_19">
                                <g id="Mask group_19">
                                    <mask id="mask18_12_1259" style="mask-type:luminance" maskUnits="userSpaceOnUse" x="151" y="563" width="410" height="606">
                                        <g id="Group_76">
                                            <g id="SVGID_00000141442446994719312910000004161580726195475364__16">
                                                <path id="Vector_86" d="M558.087 769.656C572.829 716.715 517.149 683.883 505.896 648.999C494.643 614.115 489.017 577.452 489.017 577.452L451.882 563.74C451.882 563.74 535.793 738.627 464.676 748.858C379.101 761.17 337.889 666.176 309.087 626.697C280.087 586.947 263.957 563.739 263.957 563.739L195.314 577.451C195.314 577.451 203.191 658.001 220.07 718.767C236.949 779.533 256.08 870.682 244.827 925.822C233.574 980.961 151.427 1101.37 151.427 1101.37C151.427 1101.37 271.957 1181.43 398.405 1167.29L410.996 1072.86L466.983 1154.24C533.808 1135.5 537.406 1110.37 537.406 1110.37C537.406 1110.37 480.015 1022.6 480.015 956.204C480.015 889.811 476.64 854.927 494.644 838.048C512.648 821.17 544.36 818.95 558.087 769.656Z" fill="white"/>
                                            </g>
                                        </g>
                                    </mask>
                                    <g mask="url(#mask18_12_1259)">
                                        <g id="Group_77">
                                            <path id="Vector_87" opacity="0.2" d="M694.304 921.26H-15.4102V954.95H694.304V921.26Z" fill="#434B1C"/>
                                        </g>
                                    </g>
                                </g>
                            </g>
                            <g id="Clip path group_20">
                                <g id="Mask group_20">
                                    <mask id="mask19_12_1259" style="mask-type:luminance" maskUnits="userSpaceOnUse" x="151" y="563" width="410" height="606">
                                        <g id="Group_78">
                                            <g id="SVGID_00000141442446994719312910000004161580726195475364__17">
                                                <path id="Vector_88" d="M558.087 769.656C572.829 716.715 517.149 683.883 505.896 648.999C494.643 614.115 489.017 577.452 489.017 577.452L451.882 563.74C451.882 563.74 535.793 738.627 464.676 748.858C379.101 761.17 337.889 666.176 309.087 626.697C280.087 586.947 263.957 563.739 263.957 563.739L195.314 577.451C195.314 577.451 203.191 658.001 220.07 718.767C236.949 779.533 256.08 870.682 244.827 925.822C233.574 980.961 151.427 1101.37 151.427 1101.37C151.427 1101.37 271.957 1181.43 398.405 1167.29L410.996 1072.86L466.983 1154.24C533.808 1135.5 537.406 1110.37 537.406 1110.37C537.406 1110.37 480.015 1022.6 480.015 956.204C480.015 889.811 476.64 854.927 494.644 838.048C512.648 821.17 544.36 818.95 558.087 769.656Z" fill="white"/>
                                            </g>
                                        </g>
                                    </mask>
                                    <g mask="url(#mask19_12_1259)">
                                        <g id="Group_79">
                                            <path id="Vector_89" opacity="0.4" d="M560.159 766.03C549.031 784.966 542.657 808.791 433.128 809.167C413.998 809.232 394.492 813.293 374.237 809.917C353.981 807.666 316.846 798.289 298.467 792.663C283.403 788.051 262.832 792.755 271.835 811.885C280.837 829.89 316.103 839.194 333.02 839.244C358.152 839.32 385.49 826.797 406.871 823.421C427.126 820.045 446.865 819.694 465.386 829.048C503.272 848.178 554.533 826.798 566.911 786.286L560.159 766.03Z" fill="black"/>
                                        </g>
                                    </g>
                                </g>
                            </g>
                        </g>
                    </g>
                    <g id="Group_46_2">
                        <path id="Vector_90" d="M552.947 185.587C551.307 178.847 546.307 173.407 542.707 167.667C537.217 158.917 537.107 148.417 537.227 138.407C537.337 129.607 536.347 121.647 532.487 113.637C529.117 106.617 519.227 104.767 514.857 98.2868C511.387 93.1468 514.407 85.5068 514.097 79.7068C513.867 75.4768 511.517 71.6768 509.767 67.9268C506.837 61.6068 503.797 54.3968 498.177 49.9668C493.067 45.9468 487.837 48.8568 483.977 52.8068C481.177 41.3668 473.257 33.0168 462.517 27.8068C460.727 26.9468 459.477 26.0168 457.677 27.0168C456.197 27.8368 454.677 28.6068 453.167 29.3668C449.207 31.3568 445.147 33.1468 441.047 34.8168C432.817 38.1768 423.907 41.3968 414.937 41.6368C411.997 41.7068 408.347 41.3168 406.517 38.7168C404.187 35.4168 407.267 29.2868 408.587 26.2168C409.187 24.8468 408.657 22.6168 407.027 22.3468C402.247 21.5668 397.597 20.8368 392.817 21.9468C388.317 22.9868 384.477 26.4868 381.197 29.6968C375.497 22.8568 367.547 21.4968 359.117 24.9668C356.665 25.9768 353.36 27.7828 350.813 29.8948C350.792 29.1578 350.796 28.4088 350.847 27.6368C350.977 25.7468 349.517 24.1668 348.437 24.3568C348.317 22.5368 348.207 20.7168 348.207 18.9168C348.207 18.1668 347.697 16.9668 346.747 17.3068C343.607 18.4468 340.337 18.0168 337.067 18.0568C335.857 18.0668 331.977 19.1968 331.827 18.7168C330.437 14.4468 327.677 10.7268 324.357 7.76678C317.677 1.78678 307.987 0.126782 299.327 0.566782C290.377 1.03678 280.917 4.10678 275.157 11.2868C269.247 18.6568 267.937 29.0568 261.607 35.9268C258.497 39.3168 252.597 41.5568 248.037 41.2068C244.607 40.9368 241.457 38.5168 238.347 37.2468C230.597 34.0868 220.497 37.5868 213.977 42.1068C208.737 45.7368 208.337 52.4968 206.417 58.0268C203.357 66.8268 195.587 74.0368 190.097 81.3868C184.267 89.1768 174.917 102.637 180.857 112.467C181.667 113.817 182.827 114.937 183.567 116.337C185.097 119.267 183.307 123.627 182.467 126.457C180.287 133.827 174.997 136.427 169.627 141.037C164.847 145.137 162.227 151.887 159.897 157.577C157.097 164.367 155.397 171.667 154.807 178.987C153.677 193.047 158.107 206.807 169.377 215.277C164.667 220.177 161.907 226.147 164.577 233.167C167.407 240.637 175.427 245.847 181.077 251.017C188.857 258.137 192.117 267.307 195.407 277.067C198.957 287.567 204.717 295.497 214.217 301.397C214.817 301.777 215.507 301.947 216.077 301.357C223.837 293.237 225.657 281.057 226.597 270.327C227.757 257.027 227.047 243.637 226.697 230.307C226.567 225.437 226.397 220.507 226.887 215.657C227.807 206.667 232.227 197.477 236.167 189.487C243.967 173.637 254.097 159.047 263.617 144.207C269.127 147.067 275.347 147.017 280.207 151.407C280.587 151.747 281.177 151.887 281.647 151.657C293.057 146.027 305.347 140.427 310.147 127.897C316.587 128.777 321.887 128.117 328.277 126.707C334.007 125.437 339.127 127.737 344.877 125.587C356.237 121.357 363.857 108.407 368.427 97.9368C368.559 97.6338 368.679 97.3258 368.807 97.0198C373.515 98.0098 378.673 97.9888 383.967 97.1968C384.657 104.167 384.257 111.227 385.187 118.137C385.727 122.197 387.987 124.337 391.787 125.607C399.647 128.227 408.557 129.997 416.787 128.827C419.967 128.377 423.037 127.357 426.007 126.167C427.847 125.427 430.217 123.987 432.237 124.787C434.877 125.837 436.107 131.177 436.947 133.467C437.937 136.197 438.627 137.687 436.587 139.987C435.207 141.557 433.477 142.847 431.897 144.217C425.927 149.417 425.867 155.507 431.207 161.437C433.867 164.397 438.317 164.647 441.957 165.347C445.657 166.057 448.307 168.777 452.037 169.427C455.227 169.977 458.417 169.747 461.627 169.507C463.767 169.347 468.157 168.467 469.787 170.377C471.417 172.277 468.447 177.947 467.707 179.777C467.207 181.007 467.607 183.137 469.147 183.337C476.447 184.247 483.387 186.437 488.677 191.747C492.747 195.827 494.717 201.667 496.257 207.077C499.437 218.237 501.557 228.827 510.377 237.047C513.677 240.127 518.527 243.927 523.367 242.847C527.227 241.997 529.267 238.107 530.677 234.777C535.377 223.617 535.587 210.697 537.977 198.797C540.757 201.577 543.537 204.357 546.307 207.137C546.957 207.777 547.887 207.357 548.297 206.687C552.267 200.217 554.797 193.187 552.947 185.587Z" fill="#1E1A1B"/>
                        <g id="Group_47_2">
                            <g id="Clip path group_21">
                                <g id="Mask group_21">
                                    <mask id="mask20_12_1259" style="mask-type:luminance" maskUnits="userSpaceOnUse" x="115" y="0" width="439" height="302">
                                        <g id="Group_80">
                                            <g id="SVGID_00000052788263497127694870000008740975645311209385_">
                                                <path id="Vector_91" d="M552.946 185.587C551.306 178.847 546.306 173.407 542.706 167.667C537.216 158.917 537.107 148.417 537.227 138.407C537.337 129.607 536.347 121.647 532.487 113.637C529.117 106.617 519.227 104.767 514.857 98.2868C511.387 93.1468 514.406 85.5068 514.096 79.7068C513.866 75.4768 511.517 71.6768 509.767 67.9268C506.837 61.6068 503.796 54.3968 498.176 49.9668C493.066 45.9468 487.837 48.8568 483.977 52.8068C481.177 41.3668 473.257 33.0168 462.517 27.8068C460.727 26.9468 459.476 26.0168 457.676 27.0168C456.196 27.8368 454.676 28.6068 453.166 29.3668C449.206 31.3568 445.146 33.1468 441.046 34.8168C432.816 38.1768 423.906 41.3968 414.936 41.6368C411.996 41.7068 408.347 41.3168 406.517 38.7168C404.187 35.4168 407.266 29.2868 408.586 26.2168C409.186 24.8468 408.656 22.6168 407.026 22.3468C402.246 21.5668 397.596 20.8368 392.816 21.9468C388.316 22.9868 384.476 26.4868 381.196 29.6968C375.496 22.8568 367.547 21.4968 359.117 24.9668C356.665 25.9768 353.359 27.7828 350.812 29.8948C350.791 29.1578 350.796 28.4088 350.847 27.6368C350.977 25.7468 349.516 24.1668 348.436 24.3568C348.316 22.5368 348.206 20.7168 348.206 18.9168C348.206 18.1668 347.697 16.9668 346.747 17.3068C343.607 18.4468 340.336 18.0168 337.066 18.0568C335.856 18.0668 331.976 19.1968 331.826 18.7168C330.436 14.4468 327.677 10.7268 324.357 7.76678C317.677 1.78678 307.986 0.126782 299.326 0.566782C290.376 1.03678 280.916 4.10678 275.156 11.2868C269.246 18.6568 267.937 29.0568 261.607 35.9268C258.497 39.3168 252.596 41.5568 248.036 41.2068C244.606 40.9368 241.457 38.5168 238.347 37.2468C230.597 34.0868 220.497 37.5868 213.977 42.1068C208.737 45.7368 208.336 52.4968 206.416 58.0268C203.356 66.8268 195.587 74.0368 190.097 81.3868C184.267 89.1768 174.917 102.637 180.857 112.467C181.667 113.817 182.826 114.937 183.566 116.337C185.096 119.267 183.306 123.627 182.466 126.457C180.286 133.827 174.997 136.427 169.627 141.037C164.847 145.137 162.227 151.887 159.897 157.577C157.097 164.367 116.451 172.121 115.861 179.441C114.731 193.501 158.107 206.807 169.377 215.277C164.667 220.177 161.906 226.147 164.576 233.167C167.406 240.637 175.426 245.847 181.076 251.017C188.856 258.137 192.116 267.307 195.406 277.067C198.956 287.567 204.716 295.497 214.216 301.397C214.816 301.777 215.506 301.947 216.076 301.357C223.836 293.237 225.657 281.057 226.597 270.327C227.757 257.027 227.046 243.637 226.696 230.307C226.566 225.437 226.397 220.507 226.887 215.657C227.807 206.667 232.226 197.477 236.166 189.487C243.966 173.637 254.097 159.047 263.617 144.207C269.127 147.067 275.346 147.017 280.206 151.407C280.586 151.747 281.177 151.887 281.647 151.657C293.057 146.027 305.347 140.427 310.147 127.897C316.587 128.777 321.886 128.117 328.276 126.707C334.006 125.437 339.127 127.737 344.877 125.587C356.237 121.357 363.856 108.407 368.426 97.9368C368.558 97.6338 368.678 97.3258 368.806 97.0198C373.514 98.0098 378.672 97.9888 383.966 97.1968C384.656 104.167 384.256 111.227 385.186 118.137C385.726 122.197 387.986 124.337 391.786 125.607C399.646 128.227 408.556 129.997 416.786 128.827C419.966 128.377 423.037 127.357 426.007 126.167C427.847 125.427 430.217 123.987 432.237 124.787C434.877 125.837 436.106 131.177 436.946 133.467C437.936 136.197 438.626 137.687 436.586 139.987C435.206 141.557 433.477 142.847 431.897 144.217C425.927 149.417 425.866 155.507 431.206 161.437C433.866 164.397 438.316 164.647 441.956 165.347C445.656 166.057 448.306 168.777 452.036 169.427C455.226 169.977 458.417 169.747 461.627 169.507C463.767 169.347 468.156 168.467 469.786 170.377C471.416 172.277 468.446 177.947 467.706 179.777C467.206 181.007 467.607 183.137 469.147 183.337C476.447 184.247 483.386 186.437 488.676 191.747C492.746 195.827 494.717 201.667 496.257 207.077C499.437 218.237 501.557 228.827 510.377 237.047C513.677 240.127 518.527 243.927 523.367 242.847C527.227 241.997 529.266 238.107 530.676 234.777C535.376 223.617 535.587 210.697 537.977 198.797C540.757 201.577 543.536 204.357 546.306 207.137C546.956 207.777 547.886 207.357 548.296 206.687C552.266 200.217 554.796 193.187 552.946 185.587Z" fill="white"/>
                                            </g>
                                        </g>
                                    </mask>
                                    <g mask="url(#mask20_12_1259)">
                                        <g id="Group_81">
                                            <g id="Group_48_2">
                                                <g id="Group_49_2">
                                                    <path id="Vector_92" d="M409.832 38.5799C405.574 46.0989 400.593 53.7649 393.451 58.8529C388.433 62.4279 382.605 65.0389 376.84 67.1389C371.889 68.9429 366.345 70.5239 361.029 69.8349C353.547 68.8649 357.922 60.3229 360.056 56.3489C360.627 55.2859 360.13 51.7869 358.375 53.2229C346.902 62.6069 316.783 62.7249 324.439 41.0929C324.816 40.0289 323.885 36.1609 322.263 37.9499C310.201 51.2469 289.239 53.2189 274.856 42.4649C270.747 39.3929 266.894 35.4659 264.949 30.6749C263.079 26.0709 264.59 20.7209 265.916 16.2029C267.934 9.32786 270.405 2.47586 268.602 -4.73514C267.821 -7.85914 265.051 -5.90214 265.569 -3.37314C267.48 5.95086 261.563 14.7769 260.908 23.9919C260.212 33.7899 266.1 40.8959 273.335 46.7369C288.205 58.7419 311.418 55.8139 323.909 41.9429C323.183 40.8959 322.457 39.8479 321.732 38.7999C318.407 48.2879 319.961 58.3609 330.052 62.4869C339.696 66.4299 352.042 63.0789 359.795 56.6699C359.235 55.6279 358.674 54.5869 358.114 53.5439C355.541 58.3849 351.802 65.9309 355.788 71.0689C359.192 75.4559 366.64 73.7889 371.138 72.7089C389.227 68.3619 404.262 57.1989 410.39 39.2059C410.504 38.8749 410.141 38.0359 409.832 38.5799Z" fill="#4B4849"/>
                                                </g>
                                                <g id="Group_50_2">
                                                    <path id="Vector_93" d="M405.51 44.4578C401.869 55.4508 395.318 65.2358 385.044 70.9208C375.418 76.2478 363.919 77.9968 353.326 80.3968C346.153 82.0218 339.76 85.6488 333.575 89.5088C327.371 93.3818 320.892 96.9778 314.827 101.02C302.928 108.949 293.004 96.1158 283.87 89.7478C283.322 89.3658 282.72 89.2978 282.199 89.7888C274.411 97.1248 261.96 98.6588 251.772 99.3568C241.454 100.064 229.848 99.7058 220.249 95.4608C209.03 90.4998 202.924 79.9638 204.413 67.8538C205.742 57.0428 212.899 45.7138 220.626 38.2498C221.325 37.5738 220.971 34.6928 219.787 35.4848C214.532 38.9998 210.648 42.4218 207.245 47.8518C203.937 53.1308 201.796 59.1198 200.698 65.2318C198.519 77.3678 202.634 89.5868 212.487 97.1388C222.36 104.705 236.159 105.383 248.08 105.002C259.945 104.623 274.997 102.723 283.978 94.1038C283.421 94.1178 282.864 94.1308 282.307 94.1448C291.066 100.127 300.178 111.602 312.043 107.648C314.493 106.831 316.699 104.83 318.88 103.51C322.644 101.232 326.441 99.0828 330.133 96.6528C337.806 91.6028 345.662 86.6718 354.721 84.6118C365.971 82.0538 377.671 79.9798 387.676 73.9148C398.267 67.4938 403.333 56.9308 406.667 45.4358C406.91 44.5868 405.928 43.1978 405.51 44.4578Z" fill="#4B4849"/>
                                                </g>
                                                <g id="Group_51_2">
                                                    <path id="Vector_94" d="M321.793 142.522C305.585 149.772 298.625 126.551 293.361 115.755C293.092 115.202 292.384 114.265 291.632 114.741C283.812 119.686 276.535 125.406 267.868 128.867C257.809 132.884 251.925 125.053 242.882 122.499C235.652 120.457 232.149 126.081 229.721 131.75C226.091 140.227 214.828 142.031 206.72 142.554C197.717 143.134 188.563 141.966 179.681 140.581C174.925 139.84 170.232 138.711 165.761 136.918C162.599 135.649 155.945 131.677 156.533 127.634C157.753 119.246 155.089 111.987 153.413 103.796C152.508 99.3768 152.139 94.9658 152.905 90.5018C153.894 84.7388 157.741 79.8948 160.962 75.2098C161.665 74.1878 161.025 71.2809 159.447 72.3939C151.751 77.8229 148.488 86.7158 148.475 95.8708C148.469 100.441 149.469 105.033 150.48 109.463C151.672 114.684 153.863 119.997 152.803 125.374C151.198 133.51 158.006 139.706 164.847 142.781C173.678 146.75 184.509 147.524 194.043 148.301C203.581 149.078 213.9 149.03 222.763 144.986C226.111 143.458 229.312 140.918 231.357 137.865C233.877 134.105 233.872 128.705 239.155 127.693C243.746 126.813 248.856 130.763 252.637 132.841C256.661 135.052 260.624 136.229 265.181 135.079C275.553 132.462 283.742 124.814 292.542 119.154C291.966 118.816 291.39 118.478 290.813 118.14C296.166 128.95 306.054 157.238 322.61 145.218C323.44 144.614 323.054 141.958 321.793 142.522Z" fill="#4B4849"/>
                                                </g>
                                                <g id="Group_52_2">
                                                    <path id="Vector_95" d="M264.669 167.007C261.484 162.595 257.855 162.714 253.645 165.874C248.952 169.398 247.142 173.976 245.883 179.537C244.116 187.343 242.572 192.867 234.207 195.59C226.72 198.028 217.962 195.078 211.508 191.228C211.226 193.041 210.944 194.853 210.661 196.666C211.874 197.067 213.052 197.496 214.21 198.036C214.609 198.218 214.973 198.453 215.302 198.74C213.124 197.053 216.609 195.612 214.644 196.734C212.472 197.975 209.746 198.436 207.328 198.898C202.014 199.915 196.368 200.525 190.953 200.214C185.995 199.929 180.673 197.27 176.254 195.216C173.688 194.024 171.17 192.662 169.009 190.819C168.716 190.576 168.457 190.302 168.233 189.996C167.747 189.381 167.168 191.979 168.423 191.188C169.796 190.323 171.598 190.086 173.153 189.823C172.501 188.88 171.847 187.937 171.195 186.994C172.937 204.432 139.891 184.436 134.623 180.819C127.951 176.237 124.064 171.697 120.632 164.289C116.106 154.517 111.822 141.711 118.985 132.252C119.639 131.388 119.265 128.536 117.711 129.148C106.387 133.61 112.23 153.61 115.058 161.602C118.625 171.679 123.472 179.223 132.118 185.365C141.025 191.692 177.492 212.796 174.971 186.901C174.882 185.986 174.406 183.841 173.013 184.072C169.887 184.59 165.797 185.21 164.674 188.684C163.692 191.721 165.512 194.395 167.726 196.269C173.539 201.189 182.695 204.572 190.153 205.777C197.559 206.974 207.091 205.226 214.104 202.817C216.58 201.967 218.812 200.343 218.742 197.475C218.647 193.622 214.558 192.242 211.507 191.229C208.723 190.304 208.833 195.573 210.66 196.667C220.049 202.288 236.255 205.299 244.046 195.184C247.261 191.01 248.026 185.801 249.015 180.765C250.138 175.051 256.935 162.001 263.678 169.089C264.62 170.076 265.163 167.69 264.669 167.007Z" fill="#4B4849"/>
                                                </g>
                                                <g id="Group_53_2">
                                                    <path id="Vector_96" d="M408.185 43.304C402.718 41.019 400.587 46.979 399.556 51.248C397.982 57.762 400.03 65.929 404.612 70.841C414.7 81.653 431.311 73.883 442.609 69.486C441.946 69.097 441.282 68.708 440.619 68.319C443.081 75.719 448.852 83.445 456.313 86.328C465.982 90.064 468.557 77.652 468.943 70.902C469.068 68.713 466.321 66.796 465.444 69.558C462.546 78.682 460.874 90.883 469.201 97.775C476.778 104.046 487.65 99.606 494.397 94.459C498.66 91.207 502.414 86.865 504.203 81.789C505.449 78.254 506.373 73.214 511.38 74.256C514.413 74.887 516.752 77.475 519.927 77.768C525.797 78.31 532.876 72.888 536.658 68.828C540.861 64.318 542.762 57.989 542.315 51.918C542.185 50.139 540.184 49.291 539.885 51.479C538.483 61.778 527.144 76.122 515.655 70.053C511.776 68.004 507.953 67.28 504.546 70.598C501.222 73.836 501.457 79.287 498.638 82.859C493.287 89.638 484.595 96.134 475.422 94.432C464.82 92.465 466.289 80.006 468.724 72.338C467.557 71.89 466.391 71.442 465.225 70.994C464.847 77.613 462.366 83.609 455.094 79.982C449.666 77.274 445.402 71.199 443.55 65.578C443.278 64.751 442.438 64.074 441.56 64.411C432.986 67.706 423.89 71.812 414.488 70.729C408.487 70.038 404.805 65.397 402.805 60.079C401.525 56.675 401.318 42.172 407.984 44.592C408.595 44.812 408.694 43.517 408.185 43.304Z" fill="#4B4849"/>
                                                </g>
                                                <g id="Group_54_2">
                                                    <path id="Vector_97" d="M401.209 64.1528C399.794 63.8368 398.678 63.1028 397.269 62.7678C396.73 62.6398 396.348 63.1338 396.307 63.6428C395.541 73.1108 395.074 83.1338 399.409 91.8868C403.836 100.822 413.513 104.78 422.652 101.047C427.713 98.9798 432.287 96.9658 437.6 95.5398C439.157 95.1218 440.694 94.6308 442.236 94.1628C443.859 93.6698 441.81 92.2338 441.863 92.8348C442.681 101.957 449.315 107.138 454.87 113.695C456.669 115.819 459.521 119.344 459.311 122.281C459.178 124.15 456.794 125.674 455.511 126.771C452.978 128.935 451.704 131.474 451.746 134.817C451.833 141.746 458.491 146.343 464.534 147.745C476.853 150.603 495.22 143.931 493.994 128.901C492.924 129.613 491.854 130.326 490.784 131.039C498.2 144.265 516.949 159.454 532.525 150.402C539.08 146.593 542.166 138.39 544.881 131.742C548.226 123.555 550.43 114.856 554.125 106.829C554.678 105.628 553.422 103.028 552.219 104.698C543.979 116.134 543.369 132.468 533.674 142.793C520.923 156.373 499.84 138.314 493.384 126.857C492.066 124.518 490.042 127.415 490.174 128.995C491.318 142.71 468.166 145.266 459.539 139.982C456.767 138.283 453.965 134.829 456.787 131.949C458.643 130.055 461.018 128.563 462.026 125.98C465.137 118.005 457.877 110.264 452.851 104.957C449.721 101.652 446.764 98.5908 445.636 94.0458C445.313 92.7448 445.454 91.3438 444.919 90.0988C443.378 86.5098 434.829 90.7948 432.546 91.3438C428.249 92.3778 424.477 94.6938 420.427 96.3748C414.536 98.8198 409.019 96.5528 404.637 92.3348C397.399 85.3688 398.575 73.0528 397.883 63.9278C397.626 64.3408 397.37 64.7528 397.113 65.1648C398.515 65.2008 399.711 65.7118 401.103 65.7668C401.775 65.7938 401.807 64.2858 401.209 64.1528Z" fill="#4B4849"/>
                                                </g>
                                                <g id="Group_55_2">
                                                    <path id="Vector_98" d="M474.585 164.142C475.332 155.053 486.292 166.739 488.793 169.349C493.226 173.973 495.854 178.894 498.917 184.439C502.039 190.09 511.769 190.62 517.323 191.171C526.347 192.067 532.469 187.638 536.301 179.701C537.137 177.969 535.479 173.456 533.871 176.192C532.227 178.99 532.07 188.425 535.218 190.385C536.725 191.323 541.477 192.722 543.388 191.712C543.991 191.394 544.356 190.819 544.71 190.262C545.74 188.64 549.024 188.148 550.655 187.708C557.837 185.77 566.926 189.099 573.522 185.299C581.377 180.773 584.429 169.67 589.659 162.776C590.145 162.135 589.634 160.129 588.665 160.929C583.226 165.421 579.693 171.607 575.187 176.952C570.709 182.265 563.759 180.935 557.474 181.059C552.766 181.152 545.946 181.833 542.578 185.534C542.109 186.049 541.449 186.498 542.187 186.353C540.968 186.591 539.382 185.921 538.226 185.653C536.362 185.22 535.859 180.531 536.299 179.701C535.489 178.532 534.679 177.362 533.869 176.192C531.519 181.111 528.418 185.036 522.815 186.052C517.716 186.977 512.068 185.574 507.164 184.329C504.236 183.585 501.903 182.7 500.494 179.934C499.032 177.063 497.581 174.175 495.529 171.667C492.014 167.371 473.318 148.307 473.572 163.959C473.585 164.72 474.511 165.039 474.585 164.142Z" fill="#4B4849"/>
                                                </g>
                                            </g>
                                        </g>
                                    </g>
                                </g>
                            </g>
                        </g>
                    </g>
                </g>
            </g>
            <g id="braco_dir" transform="rotate(0 100 100)">
                <g id="Group_56_2">
                    <path id="Vector_99" d="M258.369 792.798C258.369 792.798 281.596 720.582 282.275 710.4C282.954 700.218 276.755 671.323 280.568 658.089C284.379 644.856 295.224 628.739 297.355 615.968C299.392 603.778 295.436 578.594 303.392 585.964C309.832 591.932 313.997 600.762 312.844 613.609C312.178 620.966 303.296 639.277 308.578 638.801C313.863 638.322 339.947 611.493 347.848 605.776C355.746 600.054 394.022 564.458 398.21 567.909C406.643 574.857 353.602 618.915 357.298 621.51C360.995 624.108 411.453 571.031 417.936 576.354C425.589 582.641 364.794 632.847 371.638 638.165C376.416 641.878 418.771 593.356 423.954 599.599C431.416 608.587 373.435 653.931 377.391 657.621C381.346 661.311 416.051 624.257 419.614 629.146C425.604 637.367 381.066 672.363 372.528 685.171C363.991 697.979 343.795 710.474 329.786 720.321C313.231 731.954 298.151 802.01 298.151 802.01L258.369 792.798Z" fill="#703622"/>
                </g>
                <path id="Vector_100" d="M165.464 587.583C126.25 616.959 129.621 719.34 129.621 719.34C129.621 719.34 111.959 998.913 141.774 1019.43C192.414 1054.29 331.281 755.581 331.281 755.581L271.103 724.214L231.492 799.58C231.492 799.58 247.906 746.986 254.382 704.811C259.755 669.819 261.614 648.9 259.644 630.339C256.916 604.624 226.726 541.689 165.464 587.583Z" fill="#1E3A8A"/>
                <path id="Vector_101" d="M228.505 801.082C228.001 800.817 227.428 800.62 226.98 800.583C202.003 798.45 173.128 812.956 159.631 824.435C158.225 825.63 162.144 827.465 164.259 826.686C174.515 822.916 182.784 817.472 192.081 813.015C200.715 808.873 209.665 805.925 219.686 804.154C213.23 807.782 207.334 812.04 201.621 815.98C194.87 820.636 188.229 825.317 182.047 830.193C164.925 843.687 164.134 838.584 153.8 861.647C153.285 862.792 156.846 864.005 158.268 862.538C168.208 852.312 177.608 842.131 189.705 832.354C195.175 827.926 200.932 823.571 206.721 819.25C209.543 817.145 212.554 815.005 215.469 812.828C203.989 824.92 193.869 838.078 184.658 850.84C172.785 867.295 159.404 887.467 156.808 903.016C156.512 904.789 160.58 903.956 161.683 901.97C166.181 893.896 168.938 882.78 173.469 874.688C178.773 865.217 186.119 858.807 192.711 849.434C203.973 833.418 217.196 818.139 229.81 802.543C230.833 801.276 229.769 800.877 228.505 801.082Z" fill="#1C1037"/>
                <animateTransform attributeName="transform" type="rotate" values="0 100 100;1 100 100;0 100 100" dur="2.5s" repeatCount="indefinite" />
            </g>
        </g>
    </g>
    <defs>
        <clipPath id="clip0_12_1259">
            <rect width="1084" height="2159" fill="white" transform="translate(0 0.5)"/>
        </clipPath>
    </defs>
</svg>
