<svg width="432" height="187" viewBox="0 0 432 187" fill="none" xmlns="http://www.w3.org/2000/svg">
<rect x="1" y="1" width="430" height="185" rx="92.5" fill="#1E3A8A" stroke="#D9D9D9" stroke-width="2"/>
<path d="M188.944 82V54.736H178.192V48.4H207.472V54.736H196.72V82H188.944ZM218.808 61.936H234.984V67.984H218.808V61.936ZM219.384 75.76H237.672V82H211.656V48.4H237.048V54.64H219.384V75.76ZM243.859 82V48.4H250.291L264.595 72.112H261.187L275.251 48.4H281.635L281.731 82H274.435L274.387 59.584H275.731L264.499 78.448H260.995L249.523 59.584H251.155V82H243.859ZM285.287 82L300.263 48.4H307.943L322.967 82H314.807L302.519 52.336H305.591L293.255 82H285.287ZM292.775 74.8L294.839 68.896H312.119L314.231 74.8H292.775ZM189.136 120.936H205.312V126.984H189.136V120.936ZM189.712 134.76H208V141H181.984V107.4H207.376V113.64H189.712V134.76ZM225.227 141.576C222.539 141.576 219.963 141.224 217.499 140.52C215.035 139.784 213.051 138.84 211.547 137.688L214.187 131.832C215.627 132.856 217.323 133.704 219.275 134.376C221.259 135.016 223.259 135.336 225.275 135.336C226.811 135.336 228.043 135.192 228.971 134.904C229.931 134.584 230.635 134.152 231.083 133.608C231.531 133.064 231.755 132.44 231.755 131.736C231.755 130.84 231.403 130.136 230.699 129.624C229.995 129.08 229.067 128.648 227.915 128.328C226.763 127.976 225.483 127.656 224.075 127.368C222.699 127.048 221.307 126.664 219.899 126.216C218.523 125.768 217.259 125.192 216.107 124.488C214.955 123.784 214.011 122.856 213.275 121.704C212.571 120.552 212.219 119.08 212.219 117.288C212.219 115.368 212.731 113.624 213.755 112.056C214.811 110.456 216.379 109.192 218.459 108.264C220.571 107.304 223.211 106.824 226.379 106.824C228.491 106.824 230.571 107.08 232.619 107.592C234.667 108.072 236.475 108.808 238.043 109.8L235.643 115.704C234.075 114.808 232.507 114.152 230.939 113.736C229.371 113.288 227.835 113.064 226.331 113.064C224.827 113.064 223.595 113.24 222.635 113.592C221.675 113.944 220.987 114.408 220.571 114.984C220.155 115.528 219.947 116.168 219.947 116.904C219.947 117.768 220.299 118.472 221.003 119.016C221.707 119.528 222.635 119.944 223.787 120.264C224.939 120.584 226.203 120.904 227.579 121.224C228.987 121.544 230.379 121.912 231.755 122.328C233.163 122.744 234.443 123.304 235.595 124.008C236.747 124.712 237.675 125.64 238.379 126.792C239.115 127.944 239.483 129.4 239.483 131.16C239.483 133.048 238.955 134.776 237.899 136.344C236.843 137.912 235.259 139.176 233.147 140.136C231.067 141.096 228.427 141.576 225.227 141.576ZM260.877 141.576C258.285 141.576 255.869 141.16 253.629 140.328C251.421 139.464 249.501 138.248 247.868 136.68C246.237 135.112 244.957 133.272 244.029 131.16C243.133 129.048 242.685 126.728 242.685 124.2C242.685 121.672 243.133 119.352 244.029 117.24C244.957 115.128 246.237 113.288 247.868 111.72C249.533 110.152 251.469 108.952 253.677 108.12C255.885 107.256 258.301 106.824 260.925 106.824C263.837 106.824 266.461 107.336 268.797 108.36C271.165 109.352 273.149 110.824 274.749 112.776L269.757 117.384C268.605 116.072 267.325 115.096 265.917 114.456C264.509 113.784 262.973 113.448 261.309 113.448C259.741 113.448 258.301 113.704 256.989 114.216C255.677 114.728 254.541 115.464 253.581 116.424C252.621 117.384 251.869 118.52 251.325 119.832C250.813 121.144 250.557 122.6 250.557 124.2C250.557 125.8 250.813 127.256 251.325 128.568C251.869 129.88 252.621 131.016 253.581 131.976C254.541 132.936 255.677 133.672 256.989 134.184C258.301 134.696 259.741 134.952 261.309 134.952C262.973 134.952 264.509 134.632 265.917 133.992C267.325 133.32 268.605 132.312 269.757 130.968L274.749 135.576C273.149 137.528 271.165 139.016 268.797 140.04C266.461 141.064 263.821 141.576 260.877 141.576ZM294.74 141.576C289.972 141.576 286.244 140.248 283.556 137.592C280.868 134.936 279.524 131.144 279.524 126.216V107.4H287.3V125.928C287.3 129.128 287.956 131.432 289.268 132.84C290.58 134.248 292.42 134.952 294.788 134.952C297.156 134.952 298.996 134.248 300.308 132.84C301.62 131.432 302.276 129.128 302.276 125.928V107.4H309.956V126.216C309.956 131.144 308.612 134.936 305.924 137.592C303.236 140.248 299.508 141.576 294.74 141.576ZM317.64 141V107.4H332.184C335.192 107.4 337.784 107.896 339.96 108.888C342.136 109.848 343.816 111.24 345 113.064C346.184 114.888 346.776 117.064 346.776 119.592C346.776 122.088 346.184 124.248 345 126.072C343.816 127.864 342.136 129.24 339.96 130.2C337.784 131.16 335.192 131.64 332.184 131.64H321.96L325.416 128.232V141H317.64ZM339 141L330.6 128.808H338.904L347.4 141H339ZM325.416 129.096L321.96 125.448H331.752C334.152 125.448 335.944 124.936 337.128 123.912C338.312 122.856 338.904 121.416 338.904 119.592C338.904 117.736 338.312 116.296 337.128 115.272C335.944 114.248 334.152 113.736 331.752 113.736H321.96L325.416 110.04V129.096ZM369.257 141.576C366.601 141.576 364.137 141.144 361.865 140.28C359.625 139.416 357.673 138.2 356.009 136.632C354.377 135.064 353.097 133.224 352.169 131.112C351.273 129 350.825 126.696 350.825 124.2C350.825 121.704 351.273 119.4 352.169 117.288C353.097 115.176 354.393 113.336 356.057 111.768C357.721 110.2 359.673 108.984 361.913 108.12C364.153 107.256 366.585 106.824 369.209 106.824C371.865 106.824 374.297 107.256 376.505 108.12C378.745 108.984 380.681 110.2 382.313 111.768C383.977 113.336 385.273 115.176 386.201 117.288C387.129 119.368 387.593 121.672 387.593 124.2C387.593 126.696 387.129 129.016 386.201 131.16C385.273 133.272 383.977 135.112 382.313 136.68C380.681 138.216 378.745 139.416 376.505 140.28C374.297 141.144 371.881 141.576 369.257 141.576ZM369.209 134.952C370.713 134.952 372.089 134.696 373.337 134.184C374.617 133.672 375.737 132.936 376.697 131.976C377.657 131.016 378.393 129.88 378.905 128.568C379.449 127.256 379.721 125.8 379.721 124.2C379.721 122.6 379.449 121.144 378.905 119.832C378.393 118.52 377.657 117.384 376.697 116.424C375.769 115.464 374.665 114.728 373.385 114.216C372.105 113.704 370.713 113.448 369.209 113.448C367.705 113.448 366.313 113.704 365.033 114.216C363.785 114.728 362.681 115.464 361.721 116.424C360.761 117.384 360.009 118.52 359.465 119.832C358.953 121.144 358.697 122.6 358.697 124.2C358.697 125.768 358.953 127.224 359.465 128.568C360.009 129.88 360.745 131.016 361.673 131.976C362.633 132.936 363.753 133.672 365.033 134.184C366.313 134.696 367.705 134.952 369.209 134.952Z" fill="#D9D9D9"/>
<circle cx="93" cy="94" r="63" fill="#D9D9D9"/>
<path d="M128.991 98.9045C126.529 116.451 111.478 129.959 93.2636 130.004C73.2935 130.053 56.9999 113.802 57 93.8318C57.0001 75.5649 70.54 60.4611 88.131 58.0091C89.0385 57.8826 89.449 59.1095 88.6504 59.5589C79.9184 64.4716 74.0089 73.9166 74.0089 84.7605C74.0089 100.667 86.7247 113.562 102.41 113.562C113.227 113.562 122.633 107.428 127.428 98.4027C127.866 97.5778 129.12 97.9795 128.991 98.9045Z" fill="#1E3A8A"/>
<path d="M117.227 70.5961C113.363 72.2085 110.263 75.2861 108.62 79.1338C108.278 79.9352 107.14 79.9352 106.798 79.1338C105.155 75.286 102.055 72.2085 98.1915 70.5961C97.3724 70.2543 97.3723 69.1029 98.1913 68.7609C102.055 67.1477 105.155 64.0699 106.798 60.222C107.14 59.4206 108.278 59.4206 108.62 60.222C110.263 64.0699 113.363 67.1477 117.227 68.7609C118.046 69.1029 118.046 70.2543 117.227 70.5961Z" fill="#1E3A8A"/>
<path d="M100.72 93.3352C98.5606 94.2362 96.8285 95.9558 95.9106 98.1057C95.7194 98.5535 95.0837 98.5535 94.8925 98.1057C93.9747 95.9558 92.2425 94.2362 90.0835 93.3352C89.6259 93.1443 89.6258 92.5009 90.0834 92.3099C92.2424 91.4084 93.9746 89.6888 94.8925 87.5387C95.0837 87.0909 95.7194 87.0909 95.9106 87.5387C96.8285 89.6888 98.5607 91.4084 100.72 92.3099C101.177 92.5009 101.177 93.1443 100.72 93.3352Z" fill="#1E3A8A"/>
<path d="M127.789 82.3666C126.526 82.8937 125.513 83.8998 124.975 85.1578C124.864 85.4198 124.492 85.4198 124.38 85.1578C123.843 83.8998 122.829 82.8938 121.566 82.3666C121.298 82.2549 121.298 81.8784 121.566 81.7666C122.829 81.2391 123.843 80.233 124.38 78.9751C124.492 78.7131 124.863 78.7131 124.975 78.9751C125.512 80.233 126.526 81.2391 127.789 81.7666C128.057 81.8785 128.057 82.2549 127.789 82.3666Z" fill="#1E3A8A"/>
</svg>
