<svg width="432" height="187" viewBox="0 0 432 187" fill="none" xmlns="http://www.w3.org/2000/svg">
<rect x="1.5" y="1.5" width="429" height="184" rx="92" fill="#D9D9D9" stroke="#1E3A8A" stroke-width="3"/>
<path d="M59.944 82V54.736H49.192V48.4H78.472V54.736H67.72V82H59.944ZM89.8079 61.936H105.984V67.984H89.8079V61.936ZM90.3839 75.76H108.672V82H82.6559V48.4H108.048V54.64H90.3839V75.76ZM114.859 82V48.4H121.291L135.595 72.112H132.187L146.251 48.4H152.635L152.731 82H145.435L145.387 59.584H146.731L135.499 78.448H131.995L120.523 59.584H122.155V82H114.859ZM156.287 82L171.263 48.4H178.943L193.967 82H185.807L173.519 52.336H176.591L164.255 82H156.287ZM163.775 74.8L165.839 68.896H183.119L185.231 74.8H163.775ZM69.064 141.576C66.472 141.576 64.056 141.16 61.816 140.328C59.608 139.464 57.688 138.248 56.056 136.68C54.424 135.112 53.144 133.272 52.216 131.16C51.32 129.048 50.872 126.728 50.872 124.2C50.872 121.672 51.32 119.352 52.216 117.24C53.144 115.128 54.424 113.288 56.056 111.72C57.72 110.152 59.656 108.952 61.864 108.12C64.072 107.256 66.488 106.824 69.112 106.824C72.024 106.824 74.648 107.336 76.984 108.36C79.352 109.352 81.336 110.824 82.936 112.776L77.944 117.384C76.792 116.072 75.512 115.096 74.104 114.456C72.696 113.784 71.16 113.448 69.496 113.448C67.928 113.448 66.488 113.704 65.176 114.216C63.864 114.728 62.728 115.464 61.768 116.424C60.808 117.384 60.056 118.52 59.512 119.832C59 121.144 58.744 122.6 58.744 124.2C58.744 125.8 59 127.256 59.512 128.568C60.056 129.88 60.808 131.016 61.768 131.976C62.728 132.936 63.864 133.672 65.176 134.184C66.488 134.696 67.928 134.952 69.496 134.952C71.16 134.952 72.696 134.632 74.104 133.992C75.512 133.32 76.792 132.312 77.944 130.968L82.936 135.576C81.336 137.528 79.352 139.016 76.984 140.04C74.648 141.064 72.008 141.576 69.064 141.576ZM88.1871 141V107.4H95.9631V134.664H112.811V141H88.1871ZM112.927 141L127.903 107.4H135.583L150.607 141H142.447L130.159 111.336H133.231L120.895 141H112.927ZM120.415 133.8L122.479 127.896H139.759L141.871 133.8H120.415ZM154.093 141V107.4H168.637C171.645 107.4 174.237 107.896 176.413 108.888C178.589 109.848 180.269 111.24 181.453 113.064C182.637 114.888 183.229 117.064 183.229 119.592C183.229 122.088 182.637 124.248 181.453 126.072C180.269 127.864 178.589 129.24 176.413 130.2C174.237 131.16 171.645 131.64 168.637 131.64H158.413L161.869 128.232V141H154.093ZM175.453 141L167.053 128.808H175.357L183.853 141H175.453ZM161.869 129.096L158.413 125.448H168.205C170.605 125.448 172.397 124.936 173.581 123.912C174.765 122.856 175.357 121.416 175.357 119.592C175.357 117.736 174.765 116.296 173.581 115.272C172.397 114.248 170.605 113.736 168.205 113.736H158.413L161.869 110.04V129.096ZM205.71 141.576C203.054 141.576 200.59 141.144 198.318 140.28C196.078 139.416 194.126 138.2 192.462 136.632C190.83 135.064 189.55 133.224 188.622 131.112C187.726 129 187.278 126.696 187.278 124.2C187.278 121.704 187.726 119.4 188.622 117.288C189.55 115.176 190.846 113.336 192.51 111.768C194.174 110.2 196.126 108.984 198.366 108.12C200.606 107.256 203.038 106.824 205.662 106.824C208.318 106.824 210.75 107.256 212.958 108.12C215.198 108.984 217.134 110.2 218.766 111.768C220.43 113.336 221.726 115.176 222.654 117.288C223.582 119.368 224.046 121.672 224.046 124.2C224.046 126.696 223.582 129.016 222.654 131.16C221.726 133.272 220.43 135.112 218.766 136.68C217.134 138.216 215.198 139.416 212.958 140.28C210.75 141.144 208.334 141.576 205.71 141.576ZM205.662 134.952C207.166 134.952 208.542 134.696 209.79 134.184C211.07 133.672 212.19 132.936 213.15 131.976C214.11 131.016 214.846 129.88 215.358 128.568C215.902 127.256 216.174 125.8 216.174 124.2C216.174 122.6 215.902 121.144 215.358 119.832C214.846 118.52 214.11 117.384 213.15 116.424C212.222 115.464 211.118 114.728 209.838 114.216C208.558 113.704 207.166 113.448 205.662 113.448C204.158 113.448 202.766 113.704 201.486 114.216C200.238 114.728 199.134 115.464 198.174 116.424C197.214 117.384 196.462 118.52 195.918 119.832C195.406 121.144 195.15 122.6 195.15 124.2C195.15 125.768 195.406 127.224 195.918 128.568C196.462 129.88 197.198 131.016 198.126 131.976C199.086 132.936 200.206 133.672 201.486 134.184C202.766 134.696 204.158 134.952 205.662 134.952Z" fill="#1E3A8A"/>
<circle cx="327" cy="94" r="63" fill="#1E3A8A"/>
<path d="M327 116.128C321.089 116.128 315.533 113.826 311.353 109.647C307.174 105.467 304.872 99.9105 304.872 93.9999C304.872 88.0893 307.174 82.5326 311.353 78.3532C315.532 74.1737 321.089 71.8721 327 71.8721C332.911 71.8721 338.467 74.1738 342.647 78.3532C346.826 82.5325 349.128 88.0893 349.128 93.9999C349.128 99.9105 346.826 105.467 342.647 109.647C338.467 113.826 332.911 116.128 327 116.128ZM327 78.317C322.811 78.317 318.873 79.9483 315.91 82.9104C312.948 85.8725 311.317 89.8108 311.317 93.9998C311.317 98.1888 312.948 102.127 315.91 105.089C318.873 108.051 322.811 109.683 327 109.683C331.189 109.683 335.127 108.051 338.089 105.089C341.051 102.127 342.683 98.1888 342.683 93.9998C342.683 89.8108 341.051 85.8725 338.089 82.9104C335.127 79.9483 331.189 78.317 327 78.317Z" fill="#D9D9D9"/>
<path d="M332.634 66.0921C333.364 67.3751 332.297 68.9407 330.837 68.721C329.585 68.5325 328.304 68.4348 327 68.4348C325.695 68.4348 324.414 68.5325 323.162 68.721C321.702 68.9407 320.635 67.3751 321.365 66.0921L325.46 58.8955C326.139 57.7015 327.86 57.7015 328.539 58.8955L332.634 66.0921Z" fill="#D9D9D9"/>
<path d="M311.251 70.2817C312.674 70.6727 313.026 72.5347 311.839 73.4114C310.82 74.1633 309.845 75.0003 308.923 75.9226C308.001 76.8449 307.163 77.8202 306.412 78.8386C305.535 80.0261 303.673 79.6739 303.282 78.2505L301.089 70.2662C300.725 68.9415 301.942 67.7246 303.266 68.0884L311.251 70.2817Z" fill="#D9D9D9"/>
<path d="M299.092 88.3652C300.375 87.6352 301.941 88.7028 301.721 90.1624C301.533 91.4141 301.435 92.6957 301.435 94C301.435 95.3044 301.533 96.5859 301.721 97.8377C301.941 99.2972 300.375 100.365 299.092 99.6349L291.896 95.5399C290.701 94.8605 290.701 93.1395 291.896 92.4601L299.092 88.3652Z" fill="#D9D9D9"/>
<path d="M303.282 109.749C303.673 108.326 305.535 107.974 306.412 109.161C307.164 110.18 308.001 111.155 308.923 112.077C309.845 113 310.82 113.837 311.839 114.588C313.026 115.465 312.674 117.327 311.251 117.718L303.266 119.911C301.942 120.275 300.725 119.058 301.089 117.734L303.282 109.749Z" fill="#D9D9D9"/>
<path d="M321.366 121.908C320.636 120.625 321.703 119.059 323.163 119.279C324.415 119.467 325.696 119.565 327.001 119.565C328.305 119.565 329.586 119.467 330.838 119.279C332.298 119.059 333.365 120.625 332.635 121.908L328.54 129.104C327.861 130.298 326.14 130.298 325.461 129.104L321.366 121.908Z" fill="#D9D9D9"/>
<path d="M342.749 117.718C341.325 117.327 340.973 115.465 342.161 114.589C343.179 113.837 344.154 113 345.077 112.077C345.999 111.155 346.836 110.18 347.588 109.161C348.465 107.974 350.327 108.326 350.718 109.749L352.911 117.734C353.275 119.058 352.058 120.275 350.733 119.912L342.749 117.718Z" fill="#D9D9D9"/>
<path d="M354.907 99.6347C353.625 100.365 352.059 99.2971 352.279 97.8375C352.467 96.5858 352.565 95.3043 352.565 93.9999C352.565 92.6955 352.467 91.414 352.279 90.1622C352.059 88.7027 353.625 87.6351 354.907 88.365L362.104 92.46C363.298 93.1394 363.298 94.8604 362.104 95.5398L354.907 99.6347Z" fill="#D9D9D9"/>
<path d="M350.719 78.2506C350.328 79.674 348.466 80.0261 347.589 78.8386C346.837 77.8203 346 76.8449 345.078 75.9227C344.155 75.0004 343.18 74.1633 342.162 73.4114C340.974 72.5347 341.326 70.6727 342.75 70.2818L350.734 68.0886C352.059 67.7247 353.276 68.9416 352.912 70.2664L350.719 78.2506Z" fill="#D9D9D9"/>
</svg>
